#N canvas 733 172 450 300 12;
#X obj 643 438 + 0;
#X obj 803 177 timer;
#X obj 803 237 sel 1;
#X obj 803 208 < 300;
#X obj 803 142 t b b;
#X msg 724 196 0;
#X obj 643 196 change;
#X obj 643 335 + 0;
#X obj 618 373 * 1;
#X obj 675 373 * 0;
#X obj 643 406 + 0;
#X obj 544 246 spigot;
#X obj 420 214 f 0;
#X obj 420 246 changed;
#X obj 420 142 f;
#X obj 491 246 sel 0;
#X obj 556 304 f;
#X obj 420 168 expr if ($f1==1 & $f2==0 \, 1 \, $f2) \; if ($f1==0 & $f2==1 \, 0 \, $f2);
#X obj 52 500 t b f;
#X obj 259 500 t b f;
#X obj 259 536 + 0;
#X obj 155 536 + 0;
#X obj 643 475 + 0;
#X obj 52 536 + 0;
#X obj 259 433 f;
#X obj 259 397 sel 1;
#X obj 52 431 f;
#X obj 52 397 sel 1;
#X obj 52 246 changed;
#X obj 259 468 expr -(min($f1 \, 0));
#X obj 52 304 t f f;
#X obj 643 269 t f b;
#X obj 643 304 - 0;
#X obj 52 280 f;
#X obj 297 304 t b f;
#X obj 803 281 outlet resetvaluebang;
#X obj 343 246 inlet sens;
#X obj 420 58 inlet shift;
#X obj 643 142 inlet xory;
#X obj 420 110 spigot 0;
#X obj 643 233 spigot 0;
#X obj 753 93 sel 1;
#X obj 753 269 f 0;
#X obj 420 289 expr 1 - $f1*(1-$f2) \; $f1*(1-$f2);
#X obj 723 18 inlet click;
#X obj 706 406 inlet recall;
#X obj 753 142 del 2;
#X obj 643 547 outlet 0to200;
#X obj 50 342 expr (if ($f1<$f2 \, 1 \, 0))*(min($f3 \, 127)==127) \; (if ($f1>$f2 \, 1 \, 0))*(max($f3 \, 0)==0);
#X obj 52 468 expr -(max($f1 \, 127) - 127);
#X obj 643 510 clip 0 127;
#X connect 0 0 20 0;
#X connect 0 0 23 0;
#X connect 0 0 28 0;
#X connect 0 0 22 0;
#X connect 1 0 3 0;
#X connect 2 0 35 0;
#X connect 3 0 2 0;
#X connect 4 0 1 0;
#X connect 4 1 1 1;
#X connect 5 0 7 1;
#X connect 5 0 14 0;
#X connect 5 0 22 1;
#X connect 6 0 40 0;
#X connect 6 0 42 1;
#X connect 7 0 9 1;
#X connect 7 0 8 0;
#X connect 8 0 10 0;
#X connect 9 0 10 1;
#X connect 10 0 0 0;
#X connect 10 0 11 0;
#X connect 11 0 16 1;
#X connect 12 0 17 1;
#X connect 12 0 13 0;
#X connect 13 0 15 0;
#X connect 13 0 43 0;
#X connect 13 0 11 1;
#X connect 14 0 17 0;
#X connect 15 0 16 0;
#X connect 15 0 42 0;
#X connect 16 0 7 1;
#X connect 17 0 12 0;
#X connect 17 1 12 0;
#X connect 18 0 23 0;
#X connect 18 1 23 1;
#X connect 19 0 20 0;
#X connect 19 0 21 0;
#X connect 19 1 20 1;
#X connect 19 1 21 1;
#X connect 20 0 26 1;
#X connect 21 0 22 1;
#X connect 22 0 34 0;
#X connect 22 0 50 0;
#X connect 23 0 24 1;
#X connect 24 0 29 0;
#X connect 25 0 24 0;
#X connect 26 0 49 0;
#X connect 27 0 26 0;
#X connect 28 0 33 1;
#X connect 29 0 19 0;
#X connect 30 0 48 1;
#X connect 30 1 48 0;
#X connect 31 0 32 0;
#X connect 31 1 14 0;
#X connect 32 0 7 0;
#X connect 33 0 30 0;
#X connect 34 0 33 0;
#X connect 34 1 48 2;
#X connect 36 0 43 1;
#X connect 37 0 39 0;
#X connect 38 0 6 0;
#X connect 39 0 14 1;
#X connect 40 0 31 0;
#X connect 41 0 46 0;
#X connect 41 0 4 0;
#X connect 41 0 42 0;
#X connect 42 0 32 1;
#X connect 43 0 8 1;
#X connect 43 1 9 0;
#X connect 44 0 5 0;
#X connect 44 0 41 0;
#X connect 44 0 40 1;
#X connect 44 0 39 1;
#X connect 45 0 0 1;
#X connect 45 0 50 0;
#X connect 46 0 6 0;
#X connect 48 0 27 0;
#X connect 48 1 25 0;
#X connect 49 0 18 0;
#X connect 49 0 21 0;
#X connect 50 0 47 0;
