#N canvas 733 172 450 300 8;
#N canvas 733 172 450 300 (subpatch) 0;
#X obj 1 1 pic 0 secondary2x.png empty empty 0 0;
#X obj 1 -135 int;
#X obj 1 -104 * -120;
#X msg 1 -32 offset \$1 \$2;
#X obj 66 -201 * 0.02;
#X obj 66 -135 int;
#X obj 1 -58 pak 1 2;
#X obj 1 -201 mod 50;
#X obj 1 -168 * 0.5;
#X obj 66 -104 * -120;
#X obj 1 -233 min 198;
#X obj 1 -348 inlet value;
#X obj 1 -262 clip 0 200;
#X obj 1 -299 expr int(($f1/127)*200 + 0.5);
#X obj 1 0 pic 0 knob2x.png empty empty 0 0;
#X connect 1 0 2 0;
#X connect 2 0 6 0;
#X connect 4 0 5 0;
#X connect 5 0 9 0;
#X connect 6 0 3 0;
#X connect 7 0 8 0;
#X connect 8 0 1 0;
#X connect 9 0 6 1;
#X connect 10 0 7 0;
#X connect 10 0 4 0;
#X connect 11 0 13 0;
#X connect 12 0 10 0;
#X connect 13 0 12 0;
#X coords 0 0 1 1 121 119 2 0 0;
#X restore -4 -1 pd;
#X obj -25 228 route list click, f 25;
#X obj -25 257 unpack;
#X obj -72 390 f;
#X obj 119 519 del 600;
#X obj 121 490 bng 19 250 50 0 empty empty empty 17 7 0 10 #191919 #e1e1e1 #e1e1e1;
#X obj -72 257 r lb;
#X msg -72 288 0.2;
#X obj -72 325 complexcontrol;
#X obj 119 283 sel 0;
#X obj 5 288 * 0.42;
#X obj 241 519 loadbang;
#X obj 241 776 list append;
#X obj 241 807 tosymbol;
#X obj 291 699 loadbang;
#X obj 141 618 f;
#X obj 241 699 t f b;
#X obj 204 519 t b;
#X msg 241 901 set \$1;
#X obj -35 163 note 184 24 Inter \$0-val 1 36 38 41 0 25 25 25 0 1;
#X obj 119 992 s \$0-val;
#X obj 347 850 bng 25 250 50 0 empty empty empty 0 -10 0 10 #e4e4e4 #4d4d4d #373737;
#X obj 394 686 bng 25 250 50 0 empty empty empty 0 -10 0 10 #e4e4e4 #4d4d4d #373737;
#X obj 381 768 list fromsymbol;
#X obj 451 809 list length;
#X floatatom 451 835 5 0 0 0 - - - 12;
#X obj 394 850 bng 25 250 50 0 empty empty empty 0 -10 0 10 #e4e4e4 #4d4d4d #373737;
#X msg 348 901 0;
#X msg 396 901 1;
#X obj 141 715 spigot;
#X obj 241 850 spigot;
#X obj 141 680 tosymbol;
#X msg 346 937 1;
#X msg 403 940 0;
#X obj -92 188 inlet pad;
#X msg 205 615 set \$1;
#X obj -89 992 outlet 0to127;
#X obj -332 163 keyname;
#X obj -292 201 sel Shift_L;
#X msg -290 233 1;
#X msg -245 233 0;
#X obj -332 270 *;
#X obj -332 305 change;
#X msg -213 358 set \$1;
#X obj -636 163 expr int((($f1-$f2)/($f3-$f2))*127 + 0.5);
#X msg -635 111 0;
#X msg -525 122 5;
#X msg -418 125 2.5;
#X obj -507 47 bng 25 250 50 0 empty empty empty 0 -10 0 10 #e4e4e4 #4d4d4d #373737;
#X floatatom -636 233 5 0 0 0 - - - 12;
#X obj -420 358 t b b;
#X obj -420 305 loadbang;
#X msg 4 366 0;
#X obj -311 458 f;
#X obj -6 478 t b;
#X obj 347 807 sel 0;
#X obj -311 539 expr int(($f1/127)*100 + 0.5), f 39;
#X obj -311 366 \$1;
#X obj 204 581 symbol \$2;
#X obj 291 730 symbol \$3;
#X obj -311 420 expr int((($f1)/(100))*127 + 0.5);
#X obj 5 992 outlet 0to100;
#X connect 1 0 5 0;
#X connect 1 0 2 0;
#X connect 1 1 8 4;
#X connect 1 1 9 0;
#X connect 2 1 10 0;
#X connect 3 0 8 3;
#X connect 4 0 17 0;
#X connect 4 0 20 0;
#X connect 5 0 4 0;
#X connect 5 0 56 0;
#X connect 6 0 7 0;
#X connect 7 0 8 0;
#X connect 8 0 0 0;
#X connect 8 0 3 1;
#X connect 8 0 36 0;
#X connect 8 0 56 0;
#X connect 8 1 52 0;
#X connect 9 0 3 0;
#X connect 10 0 8 2;
#X connect 11 0 58 0;
#X connect 12 0 13 0;
#X connect 13 0 30 0;
#X connect 14 0 59 0;
#X connect 15 0 16 0;
#X connect 15 0 31 0;
#X connect 15 0 61 0;
#X connect 16 0 12 0;
#X connect 16 1 59 0;
#X connect 17 0 58 0;
#X connect 18 0 20 0;
#X connect 21 0 27 0;
#X connect 21 0 32 0;
#X connect 22 0 59 0;
#X connect 23 0 24 0;
#X connect 24 0 25 0;
#X connect 25 0 55 0;
#X connect 26 0 28 0;
#X connect 27 0 30 1;
#X connect 28 0 30 1;
#X connect 28 0 33 0;
#X connect 29 0 18 0;
#X connect 30 0 18 0;
#X connect 31 0 29 0;
#X connect 32 0 29 1;
#X connect 33 0 29 1;
#X connect 34 0 1 0;
#X connect 35 0 20 0;
#X connect 37 0 41 0;
#X connect 37 1 38 0;
#X connect 38 0 39 0;
#X connect 38 1 40 0;
#X connect 39 0 41 1;
#X connect 40 0 41 1;
#X connect 41 0 42 0;
#X connect 42 0 8 1;
#X connect 43 0 52 0;
#X connect 44 0 49 0;
#X connect 45 0 44 0;
#X connect 46 0 44 1;
#X connect 47 0 44 2;
#X connect 48 0 45 0;
#X connect 48 0 46 0;
#X connect 48 0 47 0;
#X connect 50 0 60 0;
#X connect 50 1 57 0;
#X connect 51 0 50 0;
#X connect 52 0 3 0;
#X connect 53 0 0 0;
#X connect 53 0 43 0;
#X connect 53 0 56 0;
#X connect 53 0 3 0;
#X connect 54 0 5 0;
#X connect 55 0 21 0;
#X connect 55 1 26 0;
#X connect 56 0 15 0;
#X connect 57 0 60 0;
#X connect 58 0 35 0;
#X connect 59 0 12 1;
#X connect 59 0 23 0;
#X connect 60 0 53 0;
#X connect 60 0 54 0;
#X coords 0 0 1 1 120 195 2 -4 0;
