#N canvas 733 172 450 300 12;
#X obj 0 0 pic 0 secondary2x.png empty empty 0 0;
#X obj 0 -270 r reldialsp;
#X obj 0 -138 int;
#X obj 0 -107 * -120;
#X msg 0 -35 offset \$1 \$2;
#X obj 65 -204 * 0.02;
#X obj 65 -138 int;
#X obj 0 -61 pak 1 2;
#X obj 0 -204 mod 50;
#X obj 0 -171 * 0.5;
#X obj 65 -107 * -120;
#X obj 0 -236 min 198;
#X obj 0 1 pic 0 secondary2x.png empty empty 0 0;
#X connect 1 0 11 0;
#X connect 2 0 3 0;
#X connect 3 0 7 0;
#X connect 4 0 12 0;
#X connect 5 0 6 0;
#X connect 6 0 10 0;
#X connect 7 0 4 0;
#X connect 8 0 9 0;
#X connect 9 0 2 0;
#X connect 10 0 7 1;
#X connect 11 0 8 0;
#X connect 11 0 5 0;
#X coords 0 0 1 1 120 120 2 0 0;
