#N canvas 827 239 734 565 12;
#X obj 603 306 pad 128 128 255 255 255;
#X obj 575 444 note 184 24 Inter reln 1 154 161 175 0 25 25 25 0 1 Release;
#N canvas 733 172 450 300 reles 0;
#X obj 185 1 inlet;
#X obj 185 36 route list click, f 25;
#X obj 185 65 unpack;
#X obj 138 272 * 200;
#X obj 59 244 r closeb;
#X obj 138 210 / 200;
#X obj 138 188 f;
#X obj 372 290 s rel, f 4;
#X obj 265 433 s reln;
#X msg 265 401 set \$1ms;
#X obj 347 319 del 600;
#X msg 347 348 set Release;
#X obj 349 290 bng 19 250 50 0 empty empty empty 17 7 0 10 #191919 #e1e1e1 #e1e1e1;
#X obj 372 261 * 1000;
#X obj 265 267 expr if($f1>=10 \, int($f1) \, if($f1>=1 \, floor($f1*10+0.5)/10 \, if($f1>=0.1 \, floor($f1*100+0.5)/100 \, floor($f1*1000+0.5)/1000))), f 8;
#X obj 138 244 param release;
#X obj 265 210 / 200;
#X obj 39 188 r lb;
#X obj 61 96 r holdshift;
#X obj 138 65 r lb;
#X msg 138 96 0.2;
#X obj 138 133 complexcontrol;
#X obj 330 94 sel 0;
#X obj 315 210 s reldialsp;
#X msg 215 168 62;
#X obj 265 232 pow 3.16;
#X msg 39 210 create 0.31;
#X obj 215 96 * 0.42;
#X connect 0 0 1 0;
#X connect 1 0 12 0;
#X connect 1 0 2 0;
#X connect 1 1 21 4;
#X connect 1 1 22 0;
#X connect 2 1 27 0;
#X connect 3 0 21 3;
#X connect 4 0 15 0;
#X connect 5 0 15 0;
#X connect 6 0 5 0;
#X connect 9 0 8 0;
#X connect 10 0 11 0;
#X connect 11 0 8 0;
#X connect 12 0 10 0;
#X connect 12 0 14 0;
#X connect 13 0 7 0;
#X connect 13 0 12 0;
#X connect 13 0 14 0;
#X connect 14 0 9 0;
#X connect 15 0 3 0;
#X connect 16 0 25 0;
#X connect 17 0 26 0;
#X connect 18 0 21 1;
#X connect 19 0 20 0;
#X connect 20 0 21 0;
#X connect 21 0 6 1;
#X connect 21 0 16 0;
#X connect 21 0 23 0;
#X connect 21 1 24 0;
#X connect 22 0 6 0;
#X connect 24 0 6 0;
#X connect 25 0 13 0;
#X connect 26 0 15 0;
#X connect 27 0 21 2;
#X restore 603 520 pd reles;
#X obj 781 314 reldial;
#X connect 0 0 2 0;
