#N canvas 733 172 450 300 8;
#X msg 4 157 set \$1;
#X obj 4 5 inlet;
#X obj 149 81 loadbang;
#X obj 149 112 symbol \$1;
#X obj -104 112 f;
#X obj -104 142 changed;
#X obj -66 180 bng 25 250 50 0 empty empty empty 0 -10 0 10 #e4e4e4 #4d4d4d #373737;
#X obj -104 44 bng 25 250 50 0 empty empty empty 0 -10 0 10 #e4e4e4 #4d4d4d #373737;
#X msg -152 90 0;
#X obj -104 80 metro 300;
#X obj 4 192 outlet;
#X obj 4 112 cyclone/tosymbol;
#X connect 0 0 10 0;
#X connect 1 0 4 1;
#X connect 1 0 7 0;
#X connect 1 0 11 0;
#X connect 2 0 3 0;
#X connect 3 0 0 0;
#X connect 4 0 5 0;
#X connect 5 1 6 0;
#X connect 6 0 3 0;
#X connect 6 0 8 0;
#X connect 7 0 9 0;
#X connect 8 0 9 0;
#X connect 9 0 4 0;
#X connect 11 0 0 0;
#X coords 0 0 1 1 66 21 0;
