#N canvas 123 25 1317 847 8;
#X obj 222 0 cnv 15 222 370 empty empty empty 20 12 0 14 #e4e4e4 #373737 0;
#X obj 239 41 cnv 15 58 83 empty empty empty 20 12 0 14 #c8d8de #353037 0;
#X obj 239 131 cnv 15 58 83 empty empty empty 20 12 0 14 #00b78c #353037 0;
#X obj 304 41 cnv 15 119 82 empty empty empty 20 12 0 14 #f2d266 #353037 0;
#X obj 304 131 cnv 15 120 83 empty empty empty 20 12 0 14 #f47600 #353037 0;
#X obj 304 221 cnv 15 120 68 empty empty empty 20 12 0 14 #f47600 #353037 0;
#X obj 239 221 cnv 15 59 68 empty empty empty 20 12 0 14 #f2d266 #353037 0;
#X obj 0 0 cnv 15 222 370 empty empty empty 20 12 0 14 #e4e4e4 #373737 0;
#X msg 489 -15 forget;
#X msg 570 213 0;
#X msg 570 233 1;
#X msg 570 253 0;
#X msg 570 276 1;
#X msg 570 296 2;
#X msg 570 316 0;
#X msg 570 336 1;
#X obj 370 475 s fs2l;
#X obj 69 469 s fs1s;
#X obj 190 472 s fs1l;
#X obj 249 473 s fs2s;
#X obj 469 138 else/midi.learn;
#A saved;
#A saved;
#X obj 469 163 else/midi.learn;
#A saved;
#A saved;
#X obj 469 188 else/midi.learn;
#A saved;
#A saved;
#X obj 469 114 else/midi.learn;
#A saved;
#A saved;
#X obj 469 90 else/midi.learn;
#A saved;
#A saved;
#X obj 469 69 else/midi.learn;
#A saved;
#A saved;
#X obj 575 37 else/initmess 84;
#X obj 469 233 else/midi.learn;
#A saved;
#A saved;
#X obj 469 213 else/midi.learn;
#A saved;
#A saved;
#X obj 469 256 else/midi.learn;
#A saved;
#A saved;
#X obj 469 276 else/midi.learn;
#A saved;
#A saved;
#X obj 469 296 else/midi.learn;
#A saved;
#A saved;
#X obj 469 316 else/midi.learn;
#A saved;
#A saved;
#X obj 469 336 else/midi.learn;
#A saved;
#A saved;
#X obj 72 391 else/midi.learn;
#A saved;
#A saved;
#X obj 696 114 else/initmess 100;
#X obj 562 478 s fs3l;
#X obj 440 476 s fs3s;
#X obj 250 391 else/midi.learn;
#A saved;
#A saved;
#X obj 440 391 else/midi.learn;
#A saved;
#A saved;
#X obj 250 430 ../utility/pressshortlong;
#X obj 28 314 ../utility/momentarybutton;
#X obj 95 314 ../utility/momentarybutton;
#X obj 163 314 ../utility/momentarybutton;
#X obj -55 469 else/initmess 0;
#X obj 69 430 ../utility/pressshortlong;
#X obj 440 443 ../utility/pressshortlong;
#X obj 696 163 else/initmess 90;
#X obj 696 138 else/initmess 80;
#X obj 18 41 cnv 15 58 83 empty empty empty 20 12 0 14 #c8d8de #353037 0;
#X obj 18 131 cnv 15 58 83 empty empty empty 20 12 0 14 #00b78c #353037 0;
#X obj 83 41 cnv 15 119 82 empty empty empty 20 12 0 14 #f2d266 #353037 0;
#X obj 83 131 cnv 15 120 83 empty empty empty 20 12 0 14 #f47600 #353037 0;
#X obj 154 63 else/knob 35 0 127 0 100 knobfxdw rknobfxdw #e4e4e4 #000000 #000000 0 0 0 0 0 280 0 0 0 empty 0 12 0 -15 0 1 0 0 0;
#X obj 96 63 else/knob 35 0 127 0 84 knobfxspeed rknobfxspeed #e4e4e4 #000000 #000000 0 0 0 0 0 280 0 0 0 empty 0 12 0 -15 0 1 0 0 0;
#X obj 29 64 else/knob 36 0 127 0 84 knobgain rknobgain #e4e4e4 #000000 #000000 0 0 0 0 0 280 0 0 0 empty 0 12 0 -15 0 1 0 0 0;
#X obj 24 144 else/knob 47 0 127 0 59.172 knobchaos rknobchaos #e4e4e4 #000000 #000000 0 0 0 0 0 280 0 0 0 empty 0 12 0 -15 0 1 0 0 0;
#X obj 92 155 else/knob 35 0 127 0 90 knobnotes rknobnotes #e4e4e4 #000000 #000000 0 0 0 0 0 280 0 0 0 empty 0 12 0 -15 0 1 0 0 0;
#X obj 154 155 else/knob 35 0 127 0 84.064 knobsynthvol rknobsynthvol #e4e4e4 #000000 #000000 0 0 0 0 0 280 0 0 0 empty 0 12 0 -15 0 1 0 0 0;
#X obj 83 221 cnv 15 120 68 empty empty empty 20 12 0 14 #f47600 #353037 0;
#X obj 18 99 else/note 59 16 Inter gainsym 0 36 38 41 0 25 25 25 0 1;
#X obj 83 98 else/note 63 16 Inter fxspeedsym 0 36 38 41 0 25 25 25 0 1 Speed;
#X obj 143 98 else/note 59 16 Inter fxmixsym 0 36 38 41 0 25 25 25 0 1 Mix;
#X obj 13 190 else/note 67 16 Inter chaossym 1 10 255 0 0 25 25 25 0 1 CHAOS;
#X obj 81 190 else/note 59 16 Inter notessym 0 36 38 41 0 25 25 25 0 1 Notes;
#X obj 143 190 else/note 59 16 Inter synthsym 0 36 38 41 0 25 25 25 0 1 Vol;
#X obj 110 134 else/note 67 16 Arial\ Black empty 0 36 38 41 0 25 25 25 0 1 SYNTH;
#X obj 110 44 else/note 67 16 Arial\ Black empty 0 36 38 41 0 25 25 25 0 1 FX;
#X obj 15 44 else/note 67 16 Arial\ Black empty 0 36 38 41 0 25 25 25 0 1 IN;
#X obj 82 242 else/note 35 76 Inter synthcol 0 255 0 15 0 25 25 25 0 1 .;
#X obj 23 242 else/note 35 76 Inter fxcol 0 255 0 15 0 25 25 25 0 1 .;
#X obj 18 221 cnv 15 59 68 empty empty empty 20 12 0 14 #f2d266 #353037 0;
#X obj 158 242 else/note 35 76 Inter freezecol 0 255 0 15 0 25 25 25 0 1 .;
#X obj 18 267 else/note 59 16 Inter tglsw1sym 0 36 38 41 0 25 25 25 0 1 Pitch;
#X obj 85 265 else/note 59 16 Inter tglsw2sym 0 36 38 41 0 25 25 25 0 1 Soft;
#X obj 141 265 else/note 59 16 Inter tglsw3sym 0 36 38 41 0 25 25 25 0 1 Pitch;
#X obj 92 247 hradio 16 1 0 3 tglsw2 rtglsw2 empty 0 -8 0 10 #e4e4e4 #4d4d4d #373737 0;
#X obj 32 247 hradio 16 1 0 2 tglsw1 rtglsw1 empty 0 -8 0 10 #e4e4e4 #4d4d4d #373737 0;
#X obj 156 247 hradio 16 1 0 2 tglsw3 rtglsw3 empty 0 -8 0 10 #e4e4e4 #4d4d4d #373737 0;
#X obj 10 224 else/note 77 16 Arial\ Black empty 0 36 38 41 0 25 25 25 0 1 FX Type;
#X obj 81 224 else/note 69 16 Arial\ Black empty 0 36 38 41 0 25 25 25 0 1 ADSR;
#X obj 138 224 else/note 69 16 Arial\ Black empty 0 36 38 41 0 25 25 25 0 1 Mode;
#X obj 97 242 else/note 35 76 Inter groovecol 0 255 0 15 0 25 25 25 0 1 .;
#X obj 596 336 s rtglsw3;
#X obj 599 316 else/initmess 0;
#X obj 575 69 s rknobgain;
#X obj 575 92 s rknobfxspeed;
#X obj 599 114 s rknobfxdw;
#X obj 599 163 s rknobnotes;
#X obj 599 138 s rknobchaos;
#X obj 599 233 s rtglsw1;
#X obj 599 296 s rtglsw2;
#X obj 599 187 s rknobsynthvol;
#X obj 255 70 bng 25 250 50 0 empty empty empty 17 31 0 10 #e471d6 #4d4d4d #373737;
#X obj 324 69 bng 25 250 50 0 empty empty empty 17 31 0 10 #e471d6 #4d4d4d #373737;
#X obj 385 316 bng 25 250 50 0 empty empty empty 17 31 0 10 #e471d6 #4d4d4d #373737;
#X obj 317 316 bng 25 250 50 0 empty empty empty 17 31 0 10 #e471d6 #4d4d4d #373737;
#X obj 249 316 bng 25 250 50 0 empty empty empty 17 31 0 10 #e471d6 #4d4d4d #373737;
#X obj 141 344 else/note 67 16 Arial\ Black empty 0 36 38 41 0 25 25 25 0 1 Freeze;
#X obj 73 344 else/note 67 16 Arial\ Black empty 0 36 38 41 0 25 25 25 0 1 Synth;
#X obj 6 344 else/note 67 16 Arial\ Black empty 0 36 38 41 0 25 25 25 0 1 FX;
#X obj 599 213 else/initmess 0;
#X obj 599 253 else/initmess 1;
#X obj 345 248 bng 14 250 50 0 empty empty empty 17 31 0 10 #e471d6 #4d4d4d #373737;
#X obj 329 248 bng 14 250 50 0 empty empty empty 17 31 0 10 #e471d6 #4d4d4d #373737;
#X obj 313 248 bng 14 250 50 0 empty empty empty 17 31 0 10 #e471d6 #4d4d4d #373737;
#X obj 377 247 bng 14 250 50 0 empty empty empty 17 31 0 10 #e471d6 #4d4d4d #373737;
#X obj 395 247 bng 14 250 50 0 empty empty empty 17 31 0 10 #e471d6 #4d4d4d #373737;
#X obj 272 248 bng 14 250 50 0 empty empty empty 17 31 0 10 #e471d6 #4d4d4d #373737;
#X obj 253 248 bng 14 250 50 0 empty empty empty 17 31 0 10 #e471d6 #4d4d4d #373737;
#X obj 381 69 bng 25 250 50 0 empty empty empty 17 31 0 10 #e471d6 #4d4d4d #373737;
#X obj 255 160 bng 25 250 50 0 empty empty empty 17 31 0 10 #e471d6 #4d4d4d #373737;
#X obj 319 160 bng 25 250 50 0 empty empty empty 17 31 0 10 #e471d6 #4d4d4d #373737;
#X obj 382 160 bng 25 250 50 0 empty empty empty 17 31 0 10 #e471d6 #4d4d4d #373737;
#X obj 510 13 s forget;
#X obj 5 392 r forget;
#X obj 706 3 namecanvas main;
#X msg 313 -68 \; main donecanvasdialog 1 -1 2 0 -1 1 1 222 370 0 0;
#X msg 313 -124 \; main donecanvasdialog 1 -1 2 0 -1 1 1 222 370 221 0;
#X obj -222 0 cnv 15 222 370 empty empty empty 20 12 0 14 #e4e4e4 #373737 0;
#X obj -47 55 tgl 21 0 tglsynthfx rtglsynthfx empty 0 -10 0 10 #e4e4e4 #4d4d4d #373737 0 1;
#X obj -47 93 tgl 21 0 tgloktavswitch rtgloktavswitch empty 0 -10 0 10 #e4e4e4 #4d4d4d #373737 0 1;
#X obj -47 134 tgl 21 0 tglsequencerbypass rtglsequencerbypass empty 0 -10 0 10 #e4e4e4 #4d4d4d #373737 0 1;
#X obj -197 55 else/note 134 16 Arial empty 0 36 38 41 0 25 25 25 0 0 Synth Pre/Post FX;
#X obj -197 94 else/note 135 16 Arial empty 0 36 38 41 0 25 25 25 0 0 Synth Oktavswitch;
#X obj -197 134 else/note 135 16 Arial empty 0 36 38 41 0 25 25 25 0 0 Sequencer Bypass;
#X obj -164 13 else/note 67 20 Arial\ Black empty 0 36 38 41 0 25 25 25 0 1 echo;
#X obj -125 13 else/note 67 20 Arial\ Black empty 0 46 120 255 0 25 25 25 0 1 brain;
#N canvas 733 172 450 300 led-logic 0;
#X msg 1576 398 color 255 0 15;
#X msg 1681 398 color 20 231 31;
#X obj 1577 300 r fs3s;
#X obj 1577 330 tgl 25 0 empty empty empty 0 -10 0 10 #e4e4e4 #4d4d4d #373737 0 1;
#X obj 1577 363 sel 0;
#X obj 1484 345 loadbang;
#X obj 1467 300 else/initmess 0;
#X obj 1576 438 s freezecol;
#X obj 1094 438 s synthcol;
#X obj 1327 438 s fxcol;
#X msg 1094 398 color 255 0 15;
#X msg 1199 398 color 20 231 31;
#X msg 1327 398 color 255 0 15;
#X msg 1432 398 color 20 231 31;
#X obj 1328 330 tgl 25 0 empty empty empty 0 -10 0 10 #e4e4e4 #4d4d4d #373737 0 1;
#X obj 1328 363 sel 0;
#X obj 1218 300 else/initmess 0;
#X obj 1094 330 tgl 25 0 empty empty empty 0 -10 0 10 #e4e4e4 #4d4d4d #373737 0 1;
#X obj 1094 363 sel 0;
#X obj 984 300 else/initmess 0;
#X obj 1094 300 r fs2s;
#X obj 1328 300 r fs1s;
#X msg 1855 497 color 255 0 15;
#X obj 1856 462 sel 0;
#X obj 1855 537 s freezecol;
#X obj 1856 300 r fs3l;
#X obj 1856 425 tgl 25 0 empty empty empty 0 -10 0 10 #e4e4e4 #4d4d4d #373737 0 1;
#X obj 1811 391 sel 5;
#X msg 1819 340 0;
#X obj 1856 391 bng 25 250 50 0 empty empty empty 0 -10 0 10 #e4e4e4 #4d4d4d #373737;
#X obj 1856 330 metro 150;
#X msg 2112 497 color 255 0 15;
#X obj 2113 462 sel 0;
#X obj 2113 425 tgl 25 0 empty empty empty 0 -10 0 10 #e4e4e4 #4d4d4d #373737 0 1;
#X obj 2113 391 bng 25 250 50 0 empty empty empty 0 -10 0 10 #e4e4e4 #4d4d4d #373737;
#X obj 2076 318 tgl 25 0 empty empty empty 0 -10 0 10 #e4e4e4 #4d4d4d #373737 0 1;
#X obj 2113 286 r fs2l;
#X obj 2113 330 metro 400;
#X obj 2022 267 loadbang;
#X obj 2022 300 t b b;
#X msg 2044 327 0;
#X msg 2023 327 0;
#X obj 2204 233 bng 25 250 50 0 empty empty empty 0 -10 0 10 #e4e4e4 #4d4d4d #373737;
#X obj 2056 399 sel 0;
#X obj 2112 537 s groovecol;
#X msg 2217 497 color 0 141 255;
#X obj 1630 363 f;
#X msg 1960 497 color 0 141 255;
#X obj 1856 356 cyclone/counter 5;
#X obj 2113 356 cyclone/counter 1;
#X connect 0 0 7 0;
#X connect 1 0 7 0;
#X connect 2 0 3 0;
#X connect 3 0 4 0;
#X connect 3 0 46 1;
#X connect 4 0 0 0;
#X connect 4 1 1 0;
#X connect 5 0 0 0;
#X connect 5 0 10 0;
#X connect 5 0 12 0;
#X connect 6 0 3 0;
#X connect 10 0 8 0;
#X connect 11 0 8 0;
#X connect 12 0 9 0;
#X connect 13 0 9 0;
#X connect 14 0 15 0;
#X connect 15 0 12 0;
#X connect 15 1 13 0;
#X connect 16 0 14 0;
#X connect 17 0 18 0;
#X connect 18 0 10 0;
#X connect 18 1 11 0;
#X connect 19 0 17 0;
#X connect 20 0 17 0;
#X connect 21 0 14 0;
#X connect 22 0 24 0;
#X connect 23 0 22 0;
#X connect 23 1 47 0;
#X connect 25 0 30 0;
#X connect 26 0 23 0;
#X connect 27 0 28 0;
#X connect 27 0 46 0;
#X connect 28 0 30 0;
#X connect 29 0 26 0;
#X connect 30 0 48 0;
#X connect 31 0 44 0;
#X connect 32 0 31 0;
#X connect 32 1 45 0;
#X connect 33 0 32 0;
#X connect 34 0 33 0;
#X connect 35 0 37 0;
#X connect 35 0 43 0;
#X connect 36 0 35 0;
#X connect 37 0 49 0;
#X connect 38 0 39 0;
#X connect 39 0 41 0;
#X connect 39 1 40 0;
#X connect 40 0 35 0;
#X connect 40 0 33 0;
#X connect 41 0 37 0;
#X connect 42 0 35 0;
#X connect 43 0 31 0;
#X connect 45 0 44 0;
#X connect 46 0 4 0;
#X connect 47 0 24 0;
#X connect 48 0 29 0;
#X connect 48 0 27 0;
#X connect 49 0 34 0;
#X restore 672 380 pd led-logic;
#N canvas 733 172 450 300 label-logic 0;
#X obj 454 343 r knobgain;
#X obj 454 693 s gainsym;
#X obj 790 534 r knobfxspeed;
#X obj 900 534 r knobfxdw;
#X obj 995 534 r knobchaos;
#X obj 1097 534 r knobsynthvol;
#X obj 1204 534 r knobnotes;
#X obj 1204 561 ../gui/title Notes;
#X obj 790 587 s fxspeedsym;
#X obj 995 587 s chaossym;
#X obj 900 587 s fxmixsym;
#X obj 1097 587 s synthsym;
#X obj 1204 587 s notessym;
#X obj 790 561 ../gui/title Speed;
#X obj 900 561 ../gui/title Mix;
#X obj 1097 561 ../gui/title Vol;
#X obj 995 561 ../gui/title CHAOS;
#X obj 1362 462 r tglsw1;
#X obj 1362 593 s tglsw1sym;
#X obj 1362 488 sel 0 1;
#X msg 1362 517 Pitch;
#X msg 1408 517 Delay;
#X msg 1362 565 set \$1;
#X msg 1478 565 set \$1;
#X obj 1648 488 sel 0 1;
#X msg 1648 517 Pitch;
#X msg 1648 565 set \$1;
#X obj 1478 462 r tglsw2;
#X obj 1478 488 sel 0 1 2;
#X obj 1648 462 r tglsw3;
#X obj 1648 593 s tglsw3sym;
#X msg 1478 517 Sample;
#X msg 1524 517 Soft;
#X msg 1565 517 Inverse;
#X obj 1478 593 s tglsw2sym;
#X msg 1694 517 Closest;
#X msg 454 576 set \$1;
#X obj 599 500 loadbang;
#X obj 599 531 symbol \$1;
#X obj 346 531 f;
#X obj 346 561 changed;
#X obj 384 599 bng 25 250 50 0 empty empty empty 0 -10 0 10 #e4e4e4 #4d4d4d #373737;
#X obj 346 463 bng 25 250 50 0 empty empty empty 0 -10 0 10 #e4e4e4 #4d4d4d #373737;
#X msg 298 509 0;
#X obj 346 499 metro 300;
#X obj 454 388 f;
#X obj 462 436 / 127;
#X obj 462 460 * 18;
#X obj 462 484 - 12;
#X obj 454 531 cyclone/tosymbol;
#X obj 1362 543 cyclone/tosymbol;
#X obj 1478 543 cyclone/tosymbol;
#X obj 1648 543 cyclone/tosymbol;
#X connect 0 0 45 0;
#X connect 2 0 13 0;
#X connect 3 0 14 0;
#X connect 4 0 16 0;
#X connect 5 0 15 0;
#X connect 6 0 7 0;
#X connect 7 0 12 0;
#X connect 13 0 8 0;
#X connect 14 0 10 0;
#X connect 15 0 11 0;
#X connect 16 0 9 0;
#X connect 17 0 19 0;
#X connect 19 0 20 0;
#X connect 19 1 21 0;
#X connect 20 0 50 0;
#X connect 21 0 50 0;
#X connect 22 0 18 0;
#X connect 23 0 34 0;
#X connect 24 0 25 0;
#X connect 24 1 35 0;
#X connect 25 0 52 0;
#X connect 26 0 30 0;
#X connect 27 0 28 0;
#X connect 28 0 31 0;
#X connect 28 1 32 0;
#X connect 28 2 33 0;
#X connect 29 0 24 0;
#X connect 31 0 51 0;
#X connect 32 0 51 0;
#X connect 33 0 51 0;
#X connect 35 0 52 0;
#X connect 36 0 1 0;
#X connect 37 0 38 0;
#X connect 38 0 36 0;
#X connect 39 0 40 0;
#X connect 40 1 41 0;
#X connect 41 0 38 0;
#X connect 41 0 43 0;
#X connect 42 0 44 0;
#X connect 43 0 44 0;
#X connect 44 0 39 0;
#X connect 45 0 39 1;
#X connect 45 0 42 0;
#X connect 45 0 46 0;
#X connect 46 0 47 0;
#X connect 47 0 48 0;
#X connect 48 0 49 0;
#X connect 49 0 36 0;
#X connect 50 0 22 0;
#X connect 51 0 23 0;
#X connect 52 0 26 0;
#X restore 672 410 pd label-logic;
#X obj 0 -371 cnv 15 222 370 empty empty empty 20 12 0 14 #e4e4e4 #373737 0;
#X msg 313 -185 \; main donecanvasdialog 1 -1 2 0 -1 1 1 222 370 0 -370;
#X obj 236 -357 else/note 223 14 Arial empty 2 36 38 41 0 25 25 25 0 0 Footswitch 2: 
Short Press: Toggle Synth 
Long Press: Freeze Groove;
#X obj 242 -488 else/note 223 16 Arial empty 0 36 38 41 0 25 25 25 0 0 Footswitch 3:
Short Press: Freeze recorded Synth-Notes 
Long Press: Delete recorded Synth-Notes;
#X obj 343 627 inlet~ audio;
#X obj 964 1489 outlet midinote;
#X obj 2417 1590 outlet~ synth;
#X obj -4 598 else/note 553 24 Inter empty 5 54 54 54 0 209 225 225 1 1 Audio Input;
#X obj 120 676 ../utility/guitarinput;
#X obj 343 866 s~ audioin;
#X obj 120 866 s pitch;
#X obj 231 866 s onset;
#X obj -4 647 else/initmess 120;
#X obj 10 1031 ../fx/fx-section;
#X obj 10 999 r tglsw1;
#X obj 585 999 r onset;
#X obj 736 881 r~ audioin;
#X obj 817 999 r fs1s;
#X obj 10 1520 outlet~ FX;
#X obj 10 948 else/note 832 24 Inter empty 5 54 54 54 0 209 225 225 1 1 FX Section;
#X obj 964 1031 ../synth/sequencer-section;
#X obj 964 948 else/note 1106 24 Inter empty 5 54 54 54 0 209 225 225 1 1 Sequencer Section;
#X obj 984 1449 s \$0-midinotes;
#X obj 2235 952 else/note 485 24 Inter empty 5 54 54 54 0 209 225 225 1 1 Synth Section;
#X obj 2566 997 r~ audioin;
#X obj 2452 1473 / 127;
#X obj 2417 1507 *~;
#X obj 2467 1021 r fs2s;
#X obj 2401 1021 r fs3s;
#X obj 2434 997 r fs3l;
#X obj 2369 1454 *~ 4;
#X obj 2244 858 else/keyboard 17 80 4 2 0 0 empty empty;
#X obj 2500 997 r tglsw3;
#X obj 2279 997 else/midi.in;
#X obj 2369 1051 ../synth/onsetsamplersynth_v02;
#X obj 2533 1021 r tglsw2;
#X obj 964 999 r fs2l;
#X obj 1144 999 r~ audioin;
#X obj 1324 999 r fs2s;
#X obj 1504 999 r onset;
#X obj 1684 999 r fs2l;
#X obj 2529 1590 s~ synth;
#X obj 656 881 r~ synth;
#X obj 656 909 *~;
#X obj 120 647 r knobgain;
#X obj 241 999 r knobchaos;
#X obj 2045 999 r knobchaos;
#X obj 1865 999 r knobnotes;
#X obj 355 999 r knobfxdw;
#X obj 125 999 r knobfxspeed;
#X obj 2452 1442 r knobsynthvol;
#X obj 2348 984 r \$0-midinotes;
#X obj 886 881 s synthfx;
#X obj 2563 1462 r synthfx;
#X obj 2563 1521 sig~;
#X obj 2563 1494 + 1;
#X obj 736 915 *~;
#X obj 817 909 expr abs($f1-1);
#X obj 881 810 else/initmess 0;
#X obj 2369 1008 spigot;
#X obj 2765 1045 expr abs($f1-1);
#X obj 2933 1057 else/initmess 0;
#X obj 2417 1548 cyclone/gate~ 2;
#X obj 10 1471 else/compress~;
#X obj 667 767 r tglsyntfx;
#X obj 2765 997 r tglsequencerbypass;
#X obj 2632 1057 r tgloktavswitch;
#X obj -222 -370 cnv 15 222 370 empty empty empty 20 12 0 14 #e4e4e4 #373737 0;
#X obj -197 -315 else/note 134 16 Arial empty 0 36 38 41 0 25 25 25 0 0 Synth Pre/Post FX;
#X obj -197 -276 else/note 135 16 Arial empty 0 36 38 41 0 25 25 25 0 0 Synth Oktavswitch;
#X obj -197 -236 else/note 135 16 Arial empty 0 36 38 41 0 25 25 25 0 0 Sequencer Bypass;
#X obj -164 -357 else/note 67 20 Arial\ Black empty 0 36 38 41 0 25 25 25 0 1 echo;
#X obj -125 -357 else/note 67 20 Arial\ Black empty 0 46 120 255 0 25 25 25 0 1 brain;
#X obj 58 -357 else/note 67 20 Arial\ Black empty 0 36 38 41 0 25 25 25 0 1 echo;
#X obj 97 -357 else/note 67 20 Arial\ Black empty 0 46 120 255 0 25 25 25 0 1 brain;
#X obj 279 13 else/note 67 20 Arial\ Black empty 0 36 38 41 0 25 25 25 0 1 echo;
#X obj 318 13 else/note 67 20 Arial\ Black empty 0 46 120 255 0 25 25 25 0 1 brain;
#X obj 239 99 else/note 59 16 Inter gainsym 0 36 38 41 0 25 25 25 0 1;
#X obj 304 98 else/note 63 16 Inter fxspeedsym 0 36 38 41 0 25 25 25 0 1 Speed;
#X obj 364 98 else/note 59 16 Inter fxmixsym 0 36 38 41 0 25 25 25 0 1 Mix;
#X obj 234 190 else/note 67 16 Inter chaossym 1 10 255 0 0 25 25 25 0 1 CHAOS;
#X obj 302 190 else/note 59 16 Inter else/notessym 0 36 38 41 0 25 25 25 0 1 Notes;
#X obj 364 190 else/note 59 16 Inter synthsym 0 36 38 41 0 25 25 25 0 1 Vol;
#X obj 331 134 else/note 67 16 Arial\ Black empty 0 36 38 41 0 25 25 25 0 1 SYNTH;
#X obj 331 44 else/note 67 16 Arial\ Black empty 0 36 38 41 0 25 25 25 0 1 FX;
#X obj 236 44 else/note 67 16 Arial\ Black empty 0 36 38 41 0 25 25 25 0 1 IN;
#X obj 303 242 else/note 35 76 Inter synthcol 0 255 0 15 0 25 25 25 0 1 .;
#X obj 244 242 else/note 35 76 Inter fxcol 0 255 0 15 0 25 25 25 0 1 .;
#X obj 379 242 else/note 35 76 Inter freezecol 0 255 0 15 0 25 25 25 0 1 .;
#X obj 239 267 else/note 59 16 Inter tglsw1sym 0 36 38 41 0 25 25 25 0 1 Pitch;
#X obj 306 265 else/note 59 16 Inter tglsw2sym 0 36 38 41 0 25 25 25 0 1 Soft;
#X obj 362 265 else/note 59 16 Inter tglsw3sym 0 36 38 41 0 25 25 25 0 1 Pitch;
#X obj 228 224 else/note 82 16 Arial\ Black empty 0 36 38 41 0 25 25 25 0 1 FX Type;
#X obj 302 224 else/note 69 16 Arial\ Black empty 0 36 38 41 0 25 25 25 0 1 ADSR;
#X obj 359 224 else/note 69 16 Arial\ Black empty 0 36 38 41 0 25 25 25 0 1 Mode;
#X obj 318 242 else/note 35 76 Inter groovecol 0 255 0 15 0 25 25 25 0 1 .;
#X obj 362 344 else/note 67 16 Arial\ Black empty 0 36 38 41 0 25 25 25 0 1 Freeze;
#X obj 294 344 else/note 67 16 Arial\ Black empty 0 36 38 41 0 25 25 25 0 1 Synth;
#X obj 227 344 else/note 67 16 Arial\ Black empty 0 36 38 41 0 25 25 25 0 1 FX;
#X msg 313 -243 \; main donecanvasdialog 1 -1 2 0 -1 1 1 222 370 -222 0;
#X msg -536 41 \; main donecanvasdialog 1 -1 2 0 -1 1 1 222 370 -222 -370;
#X obj -47 -315 bng 21 250 50 0 empty empty empty 17 31 0 10 #e471d6 #4d4d4d #373737;
#X obj -47 -277 bng 21 250 50 0 empty empty empty 17 31 0 10 #e471d6 #4d4d4d #373737;
#X obj -47 -237 bng 21 250 50 0 empty empty empty 17 31 0 10 #e471d6 #4d4d4d #373737;
#X obj -336 -249 else/midi.learn;
#A saved;
#A saved;
#X obj -336 -273 else/midi.learn;
#A saved;
#A saved;
#X obj -336 -294 else/midi.learn;
#A saved;
#A saved;
#X obj -435 -295 s rtglsynthfx;
#X obj -461 -270 s rtgloktavswitch;
#X obj -495 -249 s rtglsequencerbypass;
#X obj 396 3 hsl 41 21 0 1 0 0 empty empty empty -2 -8 0 10 #dd76d1 #d77acc #373737 0 1;
#X obj 396 3 else/note 42 16 Arial\ Black empty 0 36 38 41 0 25 25 25 0 0 MIDI;
#X obj 469 37 else/initmess 1;
#X obj 174 3 hsl 41 21 0 1 0 0 empty empty empty -2 -8 0 10 #e4e4e4 #e4e4e4 #373737 0 1;
#X obj 175 3 else/note 42 16 Arial\ Black empty 0 36 38 41 0 25 25 25 0 0 MIDI;
#X obj -48 3 hsl 41 21 0 1 0 0 empty empty empty -2 -8 0 10 #e4e4e4 #e4e4e4 #373737 0 1;
#X obj -47 3 else/note 42 16 Arial\ Black empty 0 36 38 41 0 25 25 25 0 0 MIDI;
#X obj -213 3 hsl 44 21 0 1 0 0 empty empty empty -2 -8 0 10 #85c3f1 #85c3f1 #373737 0 1;
#X obj -220 3 else/note 59 16 Arial\ Black empty 0 36 38 41 0 25 25 25 0 0 EXTRA;
#X obj 8 3 hsl 44 21 0 1 0 0 empty empty empty -2 -8 0 10 #e4e4e4 #e4e4e4 #373737 0 1;
#X obj 2 3 else/note 59 16 Arial\ Black empty 0 36 38 41 0 25 25 25 0 0 EXTRA;
#X obj -47 -367 hsl 41 21 0 1 0 0 empty empty empty -2 -8 0 10 #dd76d1 #dd76d1 #373737 0 1;
#X obj -47 -367 else/note 42 16 Arial\ Black empty 0 36 38 41 0 25 25 25 0 0 MIDI;
#X obj -213 -367 hsl 44 21 0 1 0 0 empty empty empty -2 -8 0 10 #85c3f1 #85c3f1 #373737 0 1;
#X obj -220 -367 else/note 59 16 Arial\ Black empty 0 36 38 41 0 25 25 25 0 0 EXTRA;
#X obj -137 -196 hsl 55 21 0 1 0 0 empty empty empty -2 -8 0 10 #dd3d48 #dd3d48 #373737 0 1;
#X obj -150 -196 else/note 81 16 Arial\ Black empty 0 36 38 41 0 25 25 25 0 1 FORGET;
#X obj 229 3 hsl 55 21 0 1 0 0 empty empty empty -2 -8 0 10 #dd3d48 #dd3d48 #373737 0 1;
#X obj 216 3 else/note 80 16 Arial\ Black empty 0 36 38 41 0 25 25 25 0 1 FORGET;
#X obj 71 16 hsl 83 21 0 1 0 0 empty empty empty -2 -8 0 10 #e4e4e4 #e4e4e4 #373737 0 1;
#X obj 58 13 else/note 67 20 Arial\ Black empty 0 36 38 41 0 25 25 25 0 1 echo;
#X obj 97 13 else/note 67 20 Arial\ Black empty 0 46 120 255 0 25 25 25 0 1 brain;
#X obj 85 -33 hsl 55 21 0 1 0 0 empty empty empty -2 -8 0 10 #dd3d48 #dd3d48 #373737 0 1;
#X obj 79 -33 else/note 64 16 Arial\ Black empty 0 36 38 41 0 25 25 25 0 1 EXIT;
#X obj 8 -313 else/note 206 14 Andale\ Mono empty 1 36 38 41 0 25 25 25 0 0 Footswitch 1: Toggle FX;
#X obj 8 -277 else/note 206 14 Andale\ Mono empty 1 36 38 41 0 25 25 25 0 0 Footswitch 2:
Short Press: Toggle Synth 
Long Press: Freeze Groove;
#X obj 8 -213 else/note 206 14 Andale\ Mono empty 1 36 38 41 0 25 25 25 0 0 Footswitch 3:Synth Notes
Short Press: Freeze 
Long Press: Delete;
#X connect 8 0 114 0;
#X connect 9 0 90 0;
#X connect 10 0 90 0;
#X connect 11 0 91 0;
#X connect 12 0 91 0;
#X connect 13 0 91 0;
#X connect 14 0 83 0;
#X connect 15 0 83 0;
#X connect 20 0 89 0;
#X connect 21 0 88 0;
#X connect 22 0 92 0;
#X connect 23 0 87 0;
#X connect 24 0 86 0;
#X connect 25 0 85 0;
#X connect 26 0 85 0;
#X connect 26 0 86 0;
#X connect 27 0 10 0;
#X connect 28 0 9 0;
#X connect 29 0 11 0;
#X connect 30 0 12 0;
#X connect 31 0 13 0;
#X connect 32 0 14 0;
#X connect 33 0 15 0;
#X connect 34 0 45 0;
#X connect 35 0 87 0;
#X connect 38 0 40 0;
#X connect 39 0 46 0;
#X connect 40 0 19 0;
#X connect 40 1 16 0;
#X connect 41 0 45 0;
#X connect 42 0 40 0;
#X connect 43 0 46 0;
#X connect 44 0 45 0;
#X connect 44 0 40 0;
#X connect 44 0 46 0;
#X connect 45 0 17 0;
#X connect 45 1 18 0;
#X connect 46 0 37 0;
#X connect 46 1 36 0;
#X connect 47 0 88 0;
#X connect 48 0 89 0;
#X connect 84 0 83 0;
#X connect 93 0 25 0;
#X connect 94 0 24 0;
#X connect 95 0 39 0;
#X connect 96 0 38 0;
#X connect 97 0 34 0;
#X connect 101 0 90 0;
#X connect 102 0 91 0;
#X connect 103 0 31 0;
#X connect 104 0 30 0;
#X connect 105 0 29 0;
#X connect 106 0 32 0;
#X connect 107 0 33 0;
#X connect 108 0 27 0;
#X connect 109 0 28 0;
#X connect 110 0 23 0;
#X connect 111 0 20 0;
#X connect 112 0 21 0;
#X connect 113 0 22 0;
#X connect 115 0 39 0;
#X connect 115 0 38 0;
#X connect 115 0 34 0;
#X connect 134 0 138 1;
#X connect 138 0 140 0;
#X connect 138 1 141 0;
#X connect 138 2 139 0;
#X connect 142 0 138 0;
#X connect 143 0 193 0;
#X connect 144 0 143 0;
#X connect 145 0 143 4;
#X connect 146 0 186 0;
#X connect 147 0 143 6;
#X connect 150 0 135 0;
#X connect 150 0 152 0;
#X connect 154 0 164 7;
#X connect 155 0 156 0;
#X connect 156 0 192 1;
#X connect 157 0 164 3;
#X connect 158 0 164 1;
#X connect 159 0 164 2;
#X connect 160 0 156 1;
#X connect 161 0 164 0;
#X connect 162 0 164 5;
#X connect 163 0 164 0;
#X connect 164 0 160 0;
#X connect 165 0 164 6;
#X connect 166 0 150 0;
#X connect 167 0 150 1;
#X connect 168 0 150 2;
#X connect 169 0 150 3;
#X connect 170 0 150 4;
#X connect 172 0 173 0;
#X connect 173 0 143 5;
#X connect 174 0 138 0;
#X connect 175 0 143 2;
#X connect 176 0 150 6;
#X connect 177 0 150 5;
#X connect 178 0 143 3;
#X connect 179 0 143 1;
#X connect 180 0 155 0;
#X connect 181 0 189 0;
#X connect 183 0 185 0;
#X connect 184 0 192 0;
#X connect 185 0 184 0;
#X connect 186 0 143 5;
#X connect 187 0 186 1;
#X connect 188 0 182 0;
#X connect 188 0 187 0;
#X connect 188 0 173 1;
#X connect 189 0 164 0;
#X connect 190 0 189 1;
#X connect 191 0 190 0;
#X connect 192 0 136 0;
#X connect 192 1 171 0;
#X connect 193 0 148 0;
#X connect 194 0 173 1;
#X connect 194 0 182 0;
#X connect 194 0 187 0;
#X connect 195 0 190 0;
#X connect 196 0 164 4;
#X connect 231 0 236 0;
#X connect 232 0 235 0;
#X connect 233 0 234 0;
#X connect 234 0 239 0;
#X connect 235 0 238 0;
#X connect 236 0 237 0;
#X connect 240 0 117 0;
#X connect 242 0 240 0;
#X connect 243 0 118 0;
#X connect 245 0 230 0;
#X connect 247 0 117 0;
#X connect 249 0 229 0;
#X connect 251 0 229 0;
#X connect 253 0 117 0;
#X connect 255 0 234 0;
#X connect 255 0 235 0;
#X connect 255 0 236 0;
#X connect 257 0 8 0;
#X connect 259 0 131 0;
#X connect 262 0 117 0;
#X coords 0 -1 1 1 222 370 2 0 0;
