#N canvas 607 25 1317 847 8;
#X obj -1 0 cnv 15 222 370 empty empty empty 20 12 0 14 #e4e4e4 #373737 0;
#X obj 18 31 cnv 15 58 83 empty empty empty 20 12 0 14 #c8d8de #353037 0;
#X obj 18 121 cnv 15 58 83 empty empty empty 20 12 0 14 #00b78c #353037 0;
#X obj 83 31 cnv 15 119 82 empty empty empty 20 12 0 14 #f4e46c #353037 0;
#X obj 39 278 tgl 19 0 empty fs1s empty 17 7 0 10 #292828 #00ff25 #373737 0 1;
#X obj 105 278 tgl 19 0 empty fs2s empty 17 7 0 10 #292828 #00ff25 #373737 0 1;
#X obj 199 6 bng 14 250 50 0 empty empty empty 17 31 0 10 #e44d28 #4d4d4d #373737;
#X obj 89 214 bng 14 250 50 0 empty empty empty 17 31 0 10 #e471d6 #4d4d4d #373737;
#X obj 89 230 bng 14 250 50 0 empty empty empty 17 31 0 10 #e471d6 #4d4d4d #373737;
#X obj 89 246 bng 14 250 50 0 empty empty empty 17 31 0 10 #e471d6 #4d4d4d #373737;
#X text 23 33 Gain In;
#X obj 202 448 s fs2l;
#X obj -99 442 s fs1s;
#X obj 22 445 s fs1l;
#X obj 81 446 s fs2s;
#X obj -459 -52 else/initmess 84;
#X obj 83 121 cnv 15 120 83 empty empty empty 20 12 0 14 #f47600 #353037 0;
#X text 38 300 FX;
#X text 94 300 Synth;
#X obj 348 640 inlet~ audio;
#X obj -441 57 else/initmess 100;
#X obj -119 212 else/initmess 1;
#X obj 155 57 else/knob 35 0 127 0 0 knobfxdw rknobfxdw #e4e4e4 #000000 #000000 0 0 0 0 0 280 0 0 0 empty empty 0 12 0 -15 0 1 0 0;
#X obj 94 58 else/knob 35 0 127 0 0 knobfxspeed rknobfxspeed #e4e4e4 #000000 #000000 0 0 0 0 0 280 0 0 0 empty empty 0 12 0 -15 0 1 0 0;
#X obj 29 58 else/knob 35 0 127 0 0 knobgain rknobgain #e4e4e4 #000000 #000000 0 0 0 0 0 280 0 0 0 empty empty 0 12 0 -15 0 1 0 0;
#X obj 29 145 else/knob 35 0 127 0 0 knobchaos rknobchaos #e4e4e4 #000000 #000000 0 0 0 0 0 280 0 0 0 empty empty 0 12 0 -15 0 1 0 0;
#X obj 92 145 else/knob 35 0 127 0 0 knobnotes rknobnotes #e4e4e4 #000000 #000000 0 0 0 0 0 280 0 0 0 empty empty 0 12 0 -15 0 1 0 0;
#X obj 156 145 else/knob 35 0 127 0 0 knobsynthvol rknobsynthvol #e4e4e4 #000000 #000000 0 0 0 0 0 280 0 0 0 empty empty 0 12 0 -15 0 1 0 0;
#X obj 969 1502 outlet midinote;
#X obj 168 278 tgl 19 0 empty fs3s empty 17 7 0 10 #292828 #00ff25 #373737 0 1;
#X obj 394 451 s fs3l;
#X obj 272 449 s fs3s;
#X text 158 300 Freeze;
#X obj 272 389 else/midi.learn;
#A saved;
#A saved ctlin 25 1;
#X text 82 5 IPF-Pedal;
#X obj 82 403 ../utility/pressshortlong;
#X obj 38 320 ../utility/momentarybutton;
#X obj 102 320 ../utility/momentarybutton;
#X obj 166 320 ../utility/momentarybutton;
#X obj -223 442 else/initmess 0;
#X obj -119 254 else/initmess 0;
#X obj -119 233 else/initmess 0;
#X obj -99 403 ../utility/pressshortlong;
#X obj 272 416 ../utility/pressshortlong;
#X obj 2422 1603 outlet~ synth;
#X obj 1 611 else/note 553 24 Inter empty 5 54 54 54 0 209 225 225 1 1 Audio Input;
#X obj 125 689 ../utility/guitarinput;
#X obj 348 879 s~ audioin;
#X obj 125 879 s pitch;
#X obj 236 879 s onset;
#X obj 1 660 else/initmess 120;
#X obj 15 1044 ../fx/fx-section;
#X obj 15 1012 r tglsw1;
#X obj 590 1012 r onset;
#X obj 741 894 r~ audioin;
#X obj 822 1012 r fs1s;
#X obj 15 1533 outlet~ FX;
#X obj 15 961 else/note 832 24 Inter empty 5 54 54 54 0 209 225 225 1 1 FX Section;
#X obj 969 1044 ../synth/sequencer-section;
#X obj 969 961 else/note 1106 24 Inter empty 5 54 54 54 0 209 225 225 1 1 Sequencer Section;
#X obj 989 1462 s \$0-midinotes;
#X obj 2240 965 else/note 485 24 Inter empty 5 54 54 54 0 209 225 225 1 1 Synth Section;
#X obj 2571 1010 r~ audioin;
#X obj 2457 1486 / 127;
#X obj 2422 1520 *~;
#X obj 2472 1034 r fs2s;
#X obj 2406 1034 r fs3s;
#X obj 2439 1010 r fs3l;
#X obj 2374 1467 *~ 4;
#X obj 2505 1010 r tglsw3;
#X obj 2374 1064 ../synth/onsetsamplersynth_v02;
#X obj 2538 1034 r tglsw2;
#X obj 969 1012 r fs2l;
#X obj 1149 1012 r~ audioin;
#X obj 1329 1012 r fs2s;
#X obj 1509 1012 r onset;
#X obj 1689 1012 r fs2l;
#X text 154 120 Synth;
#X obj 672 780 inlet syntfx;
#X obj 2534 1603 s~ synth;
#X obj 661 894 r~ synth;
#X obj 661 922 *~;
#X obj 125 660 r knobgain;
#X obj 246 1012 r knobchaos;
#X obj 2050 1012 r knobchaos;
#X obj 1870 1012 r knobnotes;
#X obj 360 1012 r knobfxdw;
#X obj 130 1012 r knobfxspeed;
#X obj 2457 1455 r knobsynthvol;
#X text 24 120 Chaos;
#X text 82 33 FXSpeed;
#X text 147 33 FX D/W;
#X text 92 119 Notes;
#X obj 2353 997 r \$0-midinotes;
#X obj 891 894 s synthfx;
#X obj 2568 1475 r synthfx;
#X obj 2568 1534 sig~;
#X obj 2568 1507 + 1;
#X obj 2635 1058 inlet oktavswitch;
#X obj 741 928 *~;
#X obj 822 922 expr abs($f1-1);
#X obj 886 823 else/initmess 0;
#X obj -411 237 else/initmess 90;
#X obj -446 122 else/initmess 80;
#X obj 2770 1010 inlet sequencerbypass;
#X obj 2374 1021 spigot;
#X obj 2770 1058 expr abs($f1-1);
#X obj 2938 1070 else/initmess 0;
#X obj 2422 1561 cyclone/gate~ 2;
#X obj 15 1484 else/compress~;
#X obj 89 211 cnv 15 114 54 empty empty empty 20 12 0 14 #f47600 #353037 0;
#X obj 105 215 vradio 15 1 0 3 tglsw2 empty empty 0 -8 0 10 #e4e4e4 #4d4d4d #373737 0;
#X obj 165 215 vradio 15 1 0 2 tglsw3 empty empty 0 -8 0 10 #e4e4e4 #4d4d4d #373737 0;
#X text 179 228 M2;
#X text 179 215 M1;
#X text 119 215 B1;
#X text 119 229 B2;
#X text 119 245 B3;
#X obj 18 211 cnv 15 66 54 empty empty empty 20 12 0 14 #f4e46c #353037 0;
#X obj 39 215 vradio 15 1 0 2 tglsw1 empty empty 0 -8 0 10 #e4e4e4 #4d4d4d #373737 0;
#X text 53 214 FX1;
#X text 53 228 FX2;
#X obj 2263 997 inlet midiin;
#X msg -822 -28 create;
#X msg -763 -28 range 0 127;
#X obj -822 -61 loadbang;
#X obj -368 193 r knobsynthvol;
#X obj -379 265 r knobnotes;
#X obj -411 158 r knobchaos;
#X obj -409 87 r knobfxdw;
#X obj -395 20 r knobfxspeed;
#X obj -424 -17 r knobgain;
#X obj -510 158 param Chaos;
#X obj -510 265 param NoteDensity;
#X obj -510 193 param Synth-Volume;
#X obj -510 87 param FX-Mix;
#X obj -510 20 param FX-Speed;
#X obj -512 -17 param Gain;
#X obj -346 -17 s rknobgain;
#X obj -295 20 s rknobfxspeed;
#X obj -315 87 s rknobfxdw;
#X obj -294 265 s rknobnotes;
#X obj -320 158 s rknobchaos;
#X obj -263 193 s rknobsynthvol;
#X connect 7 0 8 0;
#X connect 15 0 137 1;
#X connect 15 0 138 0;
#X connect 15 0 136 1;
#X connect 15 0 139 0;
#X connect 19 0 46 1;
#X connect 20 0 140 0;
#X connect 20 0 135 1;
#X connect 21 0 111 0;
#X connect 33 0 38 0;
#X connect 35 0 14 0;
#X connect 35 1 11 0;
#X connect 36 0 42 0;
#X connect 37 0 35 0;
#X connect 38 0 43 0;
#X connect 39 0 12 0;
#X connect 39 0 14 0;
#X connect 39 0 31 0;
#X connect 40 0 112 0;
#X connect 41 0 119 0;
#X connect 42 0 12 0;
#X connect 42 1 13 0;
#X connect 43 0 31 0;
#X connect 43 1 30 0;
#X connect 46 0 48 0;
#X connect 46 1 49 0;
#X connect 46 2 47 0;
#X connect 50 0 46 0;
#X connect 51 0 109 0;
#X connect 52 0 51 0;
#X connect 53 0 51 4;
#X connect 54 0 99 0;
#X connect 55 0 51 6;
#X connect 58 0 28 0;
#X connect 58 0 60 0;
#X connect 62 0 70 7;
#X connect 63 0 64 0;
#X connect 64 0 108 1;
#X connect 65 0 70 3;
#X connect 66 0 70 1;
#X connect 67 0 70 2;
#X connect 68 0 64 1;
#X connect 69 0 70 5;
#X connect 70 0 68 0;
#X connect 71 0 70 6;
#X connect 72 0 58 0;
#X connect 73 0 58 1;
#X connect 74 0 58 2;
#X connect 75 0 58 3;
#X connect 76 0 58 4;
#X connect 78 0 81 1;
#X connect 78 0 94 0;
#X connect 78 0 100 0;
#X connect 80 0 81 0;
#X connect 81 0 51 5;
#X connect 82 0 46 0;
#X connect 83 0 51 2;
#X connect 84 0 58 6;
#X connect 85 0 58 5;
#X connect 86 0 51 3;
#X connect 87 0 51 1;
#X connect 88 0 63 0;
#X connect 93 0 105 0;
#X connect 95 0 97 0;
#X connect 96 0 108 0;
#X connect 97 0 96 0;
#X connect 98 0 70 4;
#X connect 99 0 51 5;
#X connect 100 0 99 1;
#X connect 101 0 94 0;
#X connect 101 0 100 0;
#X connect 101 0 81 1;
#X connect 102 0 133 1;
#X connect 102 0 141 0;
#X connect 103 0 132 1;
#X connect 103 0 134 1;
#X connect 103 0 142 0;
#X connect 103 0 143 0;
#X connect 104 0 106 0;
#X connect 105 0 70 0;
#X connect 106 0 105 1;
#X connect 107 0 106 0;
#X connect 108 0 44 0;
#X connect 108 1 79 0;
#X connect 109 0 56 0;
#X connect 122 0 70 0;
#X connect 123 0 136 0;
#X connect 123 0 137 0;
#X connect 123 0 133 0;
#X connect 123 0 132 0;
#X connect 123 0 134 0;
#X connect 123 0 135 0;
#X connect 124 0 136 0;
#X connect 124 0 137 0;
#X connect 124 0 133 0;
#X connect 124 0 132 0;
#X connect 124 0 134 0;
#X connect 124 0 135 0;
#X connect 125 0 123 0;
#X connect 125 0 124 0;
#X connect 126 0 134 1;
#X connect 127 0 133 1;
#X connect 128 0 132 1;
#X connect 129 0 135 1;
#X connect 130 0 136 1;
#X connect 131 0 137 1;
#X connect 132 0 142 0;
#X connect 133 0 141 0;
#X connect 134 0 143 0;
#X connect 135 0 140 0;
#X connect 136 0 139 0;
#X connect 137 0 138 0;
#X coords 0 0 1 1 220 368 1 0 0;
