#N canvas 607 25 1317 847 8;
#X obj -1 0 cnv 15 222 370 empty empty empty 20 12 0 14 #e4e4e4 #373737 0;
#X obj 18 31 cnv 15 58 83 empty empty empty 20 12 0 14 #c8d8de #353037 0;
#X obj 18 121 cnv 15 58 83 empty empty empty 20 12 0 14 #00b78c #353037 0;
#X obj 83 31 cnv 15 119 82 empty empty empty 20 12 0 14 #f4e46c #353037 0;
#X obj 39 215 vradio 15 1 0 3 empty empty empty 0 -8 0 10 #e4e4e4 #4d4d4d #373737 0;
#X obj 105 215 vradio 15 1 0 3 empty empty empty 0 -8 0 10 #e4e4e4 #4d4d4d #373737 0;
#X obj 165 215 vradio 15 1 0 3 empty empty empty 0 -8 0 10 #e4e4e4 #4d4d4d #373737 0;
#X obj 39 278 tgl 19 0 empty fs1s empty 17 7 0 10 #292828 #00ff25 #373737 0 1;
#X obj 105 278 tgl 19 0 empty fs2s empty 17 7 0 10 #292828 #00ff25 #373737 0 1;
#X obj 230 271 s tglsw1;
#X obj 230 294 s tglsw2;
#X obj 230 317 s tglsw3;
#X obj 42 350 bng 14 250 50 0 empty empty empty 17 31 0 10 #e471d6 #4d4d4d #373737;
#X obj 107 350 bng 14 250 50 0 empty empty empty 17 31 0 10 #e471d6 #4d4d4d #373737;
#X obj 23 215 bng 14 250 50 0 empty empty empty 17 31 0 10 #e471d6 #4d4d4d #373737;
#X obj 40 188 bng 14 250 50 0 empty empty empty 17 31 0 10 #e471d6 #4d4d4d #373737;
#X obj 166 100 bng 14 250 50 0 empty empty empty 17 31 0 10 #e471d6 #4d4d4d #373737;
#X obj 106 100 bng 14 250 50 0 empty empty empty 17 31 0 10 #e471d6 #4d4d4d #373737;
#X obj 40 100 bng 14 250 50 0 empty empty empty 17 31 0 10 #e471d6 #4d4d4d #373737;
#X obj 199 6 bng 14 250 50 0 empty empty empty 17 31 0 10 #e44d28 #4d4d4d #373737;
#X msg 236 -41 forget;
#X msg -390 160 0;
#X msg -317 160 1;
#X msg -247 160 2;
#X obj 23 230 bng 14 250 50 0 empty empty empty 17 31 0 10 #e471d6 #4d4d4d #373737;
#X obj 23 246 bng 14 250 50 0 empty empty empty 17 31 0 10 #e471d6 #4d4d4d #373737;
#X msg -392 221 0;
#X msg -319 221 1;
#X msg -249 221 2;
#X msg 230 216 0;
#X msg 303 216 1;
#X msg 373 216 2;
#X obj 89 214 bng 14 250 50 0 empty empty empty 17 31 0 10 #e471d6 #4d4d4d #373737;
#X obj 89 230 bng 14 250 50 0 empty empty empty 17 31 0 10 #e471d6 #4d4d4d #373737;
#X obj 89 246 bng 14 250 50 0 empty empty empty 17 31 0 10 #e471d6 #4d4d4d #373737;
#X obj 149 215 bng 14 250 50 0 empty empty empty 17 31 0 10 #e471d6 #4d4d4d #373737;
#X obj 149 230 bng 14 250 50 0 empty empty empty 17 31 0 10 #e471d6 #4d4d4d #373737;
#X obj 149 246 bng 14 250 50 0 empty empty empty 17 31 0 10 #e471d6 #4d4d4d #373737;
#X text 23 33 Gain In;
#X obj 195 475 s fs2l;
#X obj -106 469 s fs1s;
#X obj 15 472 s fs1l;
#X obj 74 473 s fs2s;
#X obj 328 76 else/midi.learn;
#A saved;
#A saved;
#X obj 328 101 else/midi.learn;
#A saved;
#A saved;
#X obj 328 126 else/midi.learn;
#A saved;
#A saved;
#X obj 199 -96 else/midi.learn;
#A saved;
#A saved;
#X obj 81 -53 else/midi.learn;
#A saved;
#A saved;
#X obj 24 -83 else/midi.learn;
#A saved;
#A saved;
#X obj -143 -22 else/initmess 84;
#X obj -248 136 else/midi.learn;
#A saved;
#A saved;
#X obj -319 136 else/midi.learn;
#A saved;
#A saved;
#X obj -391 136 else/midi.learn;
#A saved;
#A saved;
#X obj -393 197 else/midi.learn;
#A saved;
#A saved;
#X obj -321 197 else/midi.learn;
#A saved;
#A saved;
#X obj -250 197 else/midi.learn;
#A saved;
#A saved;
#X obj 229 192 else/midi.learn;
#A saved;
#A saved;
#X obj 301 192 else/midi.learn;
#A saved;
#A saved;
#X obj 372 192 else/midi.learn;
#A saved;
#A saved;
#X obj -103 391 else/midi.learn;
#A saved;
#A saved ctlin 23 1;
#X text 182 230 M2;
#X text 182 216 M1;
#X text 182 246 M3;
#X text 56 216 FX1;
#X text 56 230 FX2;
#X text 56 246 FX3;
#X text 121 216 B1;
#X text 121 230 B2;
#X obj 83 121 cnv 15 120 83 empty empty empty 20 12 0 14 #f47600 #353037 0;
#X text 121 246 B3;
#X text 38 300 FX;
#X text 94 300 Synth;
#X obj 165 188 bng 14 250 50 0 empty empty empty 17 31 0 10 #e471d6 #4d4d4d #373737;
#X obj 348 640 inlet~ audio;
#X obj 325 25 else/initmess 100;
#X obj -106 275 else/initmess 1;
#X obj 155 57 else/knob 35 0 127 0 0 empty empty #e4e4e4 #000000 #000000 0 0 0 0 0 280 0 0 0 empty empty 0 12 0 -15 0 1 0 0;
#X obj 94 58 else/knob 35 0 127 0 0 empty empty #e4e4e4 #000000 #000000 0 0 0 0 0 280 0 0 0 empty empty 0 12 0 -15 0 1 0 0;
#X obj 29 58 else/knob 35 0 127 0 0 empty empty #e4e4e4 #000000 #000000 0 0 0 0 0 280 0 0 0 empty empty 0 12 0 -15 0 1 0 0;
#X obj 29 145 else/knob 35 0 127 0 0 empty empty #e4e4e4 #000000 #000000 0 0 0 0 0 280 0 0 0 empty empty 0 12 0 -15 0 1 0 0;
#X obj 92 145 else/knob 35 0 127 0 0 empty empty #e4e4e4 #000000 #000000 0 0 0 0 0 280 0 0 0 empty empty 0 12 0 -15 0 1 0 0;
#X obj 156 145 else/knob 35 0 127 0 0 empty empty #e4e4e4 #000000 #000000 0 0 0 0 0 280 0 0 0 empty empty 0 12 0 -15 0 1 0 0;
#X obj 969 1502 outlet midinote;
#X obj 168 278 tgl 19 0 empty fs3s empty 17 7 0 10 #292828 #00ff25 #373737 0 1;
#X obj 171 350 bng 14 250 50 0 empty empty empty 17 31 0 10 #e471d6 #4d4d4d #373737;
#X obj 387 478 s fs3l;
#X obj 265 476 s fs3s;
#X text 158 300 Freeze;
#X obj 75 391 else/midi.learn;
#A saved;
#A saved ctlin 24 1;
#X obj 265 416 else/midi.learn;
#A saved;
#A saved ctlin 25 1;
#X text 82 5 IPF-Pedal;
#X obj 75 430 ../utility/pressshortlong;
#X obj 38 320 ../utility/momentarybutton;
#X obj 102 320 ../utility/momentarybutton;
#X obj 166 320 ../utility/momentarybutton;
#X obj -230 469 else/initmess 0;
#X obj -106 317 else/initmess 0;
#X obj -106 296 else/initmess 0;
#X obj -106 430 ../utility/pressshortlong;
#X obj 265 443 ../utility/pressshortlong;
#X obj 2422 1603 outlet~ synth;
#X obj 1 611 else/note 553 24 Inter empty 5 54 54 54 0 209 225 225 1 1 Audio Input;
#X obj 125 689 ../utility/guitarinput;
#X obj 348 879 s~ audioin;
#X obj 125 879 s pitch;
#X obj 236 879 s onset;
#X obj 1 660 else/initmess 120;
#X obj 15 1044 ../fx/fx-section;
#X obj 15 1012 r tglsw1;
#X obj 590 1012 r onset;
#X obj 741 894 r~ audioin;
#X obj 822 1012 r fs1s;
#X obj 15 1533 outlet~ FX;
#X obj 15 961 else/note 832 24 Inter empty 5 54 54 54 0 209 225 225 1 1 FX Section;
#X obj 969 1044 ../synth/sequencer-section;
#X obj 969 961 else/note 1106 24 Inter empty 5 54 54 54 0 209 225 225 1 1 Sequencer Section;
#X obj 989 1462 s \$0-midinotes;
#X obj 2240 965 else/note 485 24 Inter empty 5 54 54 54 0 209 225 225 1 1 Synth Section;
#X obj 2571 1010 r~ audioin;
#X obj 2457 1486 / 127;
#X obj 2422 1520 *~;
#X obj 2472 1034 r fs2s;
#X obj 2406 1034 r fs3s;
#X obj 2439 1010 r fs3l;
#X obj 2374 1467 *~ 4;
#X obj 2249 871 else/keyboard 17 80 4 0 0 0 empty empty;
#X obj 2505 1010 r tglsw3;
#X obj 2284 1010 else/midi.in;
#X obj 2374 1064 ../synth/onsetsamplersynth_v02;
#X obj 2538 1034 r tglsw2;
#X obj 969 1012 r fs2l;
#X obj 1149 1012 r~ audioin;
#X obj 1329 1012 r fs2s;
#X obj 1509 1012 r onset;
#X obj 1689 1012 r fs2l;
#X text 154 120 Synth;
#X obj 672 780 inlet syntfx;
#X obj 2534 1603 s~ synth;
#X obj 661 894 r~ synth;
#X obj 661 922 *~;
#X obj -90 82 s knobgain;
#X obj 125 660 r knobgain;
#X obj 246 1012 r knobchaos;
#X obj 2050 1012 r knobchaos;
#X obj 1870 1012 r knobnotes;
#X obj 360 1012 r knobfxdw;
#X obj 130 1012 r knobfxspeed;
#X obj 239 128 s knobsynthvol;
#X obj 2457 1455 r knobsynthvol;
#X text 24 120 Chaos;
#X obj 239 82 s knobchaos;
#X text 82 33 FXSpeed;
#X obj -90 106 s knobfxspeed;
#X text 147 33 FX D/W;
#X obj -90 127 s knobfxdw;
#X text 92 119 Notes;
#X obj 239 105 s knobnotes;
#X obj 104 188 bng 14 250 50 0 empty empty empty 17 31 0 10 #e471d6 #4d4d4d #373737;
#X obj 2353 997 r \$0-midinotes;
#X obj 891 894 s synthfx;
#X obj 2568 1475 r synthfx;
#X obj 2568 1534 sig~;
#X obj 2568 1507 + 1;
#X obj 2635 1058 inlet oktavswitch;
#X obj 741 928 *~;
#X obj 822 922 expr abs($f1-1);
#X obj 886 823 else/initmess 0;
#X obj -119 160 else/initmess 90;
#X obj -108 34 else/initmess 80;
#X obj 2770 1010 inlet sequencerbypass;
#X obj 2374 1021 spigot;
#X obj 2770 1058 expr abs($f1-1);
#X obj 2938 1070 else/initmess 0;
#X obj 2422 1561 cyclone/gate~ 2;
#X obj 15 1484 else/compress~;
#X connect 4 0 9 0;
#X connect 5 0 10 0;
#X connect 6 0 11 0;
#X connect 12 0 59 0;
#X connect 13 0 88 0;
#X connect 14 0 52 0;
#X connect 15 0 43 0;
#X connect 16 0 46 0;
#X connect 17 0 47 0;
#X connect 18 0 48 0;
#X connect 19 0 20 0;
#X connect 20 0 43 0;
#X connect 20 0 44 0;
#X connect 20 0 45 0;
#X connect 20 0 48 0;
#X connect 20 0 52 0;
#X connect 20 0 46 0;
#X connect 20 0 47 0;
#X connect 20 0 89 0;
#X connect 20 0 59 0;
#X connect 20 0 88 0;
#X connect 21 0 4 0;
#X connect 22 0 4 0;
#X connect 23 0 4 0;
#X connect 24 0 51 0;
#X connect 25 0 50 0;
#X connect 26 0 5 0;
#X connect 27 0 5 0;
#X connect 28 0 5 0;
#X connect 29 0 6 0;
#X connect 30 0 6 0;
#X connect 31 0 6 0;
#X connect 32 0 33 0;
#X connect 32 0 53 0;
#X connect 33 0 54 0;
#X connect 34 0 55 0;
#X connect 35 0 56 0;
#X connect 36 0 57 0;
#X connect 37 0 58 0;
#X connect 43 0 79 0;
#X connect 44 0 80 0;
#X connect 45 0 81 0;
#X connect 46 0 76 0;
#X connect 47 0 77 0;
#X connect 48 0 78 0;
#X connect 49 0 77 0;
#X connect 49 0 78 0;
#X connect 50 0 23 0;
#X connect 51 0 22 0;
#X connect 52 0 21 0;
#X connect 53 0 26 0;
#X connect 54 0 27 0;
#X connect 55 0 28 0;
#X connect 56 0 29 0;
#X connect 57 0 30 0;
#X connect 58 0 31 0;
#X connect 59 0 92 0;
#X connect 72 0 45 0;
#X connect 73 0 102 1;
#X connect 74 0 76 0;
#X connect 75 0 5 0;
#X connect 76 0 154 0;
#X connect 77 0 152 0;
#X connect 78 0 140 0;
#X connect 79 0 150 0;
#X connect 80 0 156 0;
#X connect 81 0 147 0;
#X connect 84 0 89 0;
#X connect 88 0 93 0;
#X connect 89 0 94 0;
#X connect 91 0 42 0;
#X connect 91 1 39 0;
#X connect 92 0 98 0;
#X connect 93 0 91 0;
#X connect 94 0 99 0;
#X connect 95 0 40 0;
#X connect 95 0 42 0;
#X connect 95 0 86 0;
#X connect 96 0 6 0;
#X connect 97 0 4 0;
#X connect 98 0 40 0;
#X connect 98 1 41 0;
#X connect 99 0 86 0;
#X connect 99 1 85 0;
#X connect 102 0 104 0;
#X connect 102 1 105 0;
#X connect 102 2 103 0;
#X connect 106 0 102 0;
#X connect 107 0 174 0;
#X connect 108 0 107 0;
#X connect 109 0 107 4;
#X connect 110 0 164 0;
#X connect 111 0 107 6;
#X connect 114 0 82 0;
#X connect 114 0 116 0;
#X connect 118 0 128 7;
#X connect 119 0 120 0;
#X connect 120 0 173 1;
#X connect 121 0 128 3;
#X connect 122 0 128 1;
#X connect 123 0 128 2;
#X connect 124 0 120 1;
#X connect 125 0 128 0;
#X connect 126 0 128 5;
#X connect 127 0 128 0;
#X connect 128 0 124 0;
#X connect 129 0 128 6;
#X connect 130 0 114 0;
#X connect 131 0 114 1;
#X connect 132 0 114 2;
#X connect 133 0 114 3;
#X connect 134 0 114 4;
#X connect 136 0 139 1;
#X connect 136 0 159 0;
#X connect 136 0 165 0;
#X connect 138 0 139 0;
#X connect 139 0 107 5;
#X connect 141 0 102 0;
#X connect 142 0 107 2;
#X connect 143 0 114 6;
#X connect 144 0 114 5;
#X connect 145 0 107 3;
#X connect 146 0 107 1;
#X connect 148 0 119 0;
#X connect 157 0 44 0;
#X connect 158 0 170 0;
#X connect 160 0 162 0;
#X connect 161 0 173 0;
#X connect 162 0 161 0;
#X connect 163 0 128 4;
#X connect 164 0 107 5;
#X connect 165 0 164 1;
#X connect 166 0 159 0;
#X connect 166 0 165 0;
#X connect 166 0 139 1;
#X connect 167 0 80 0;
#X connect 168 0 79 0;
#X connect 168 0 81 0;
#X connect 169 0 171 0;
#X connect 170 0 128 0;
#X connect 171 0 170 1;
#X connect 172 0 171 0;
#X connect 173 0 100 0;
#X connect 173 1 137 0;
#X connect 174 0 112 0;
#X coords 0 0 1 1 220 368 1 0 0;
