#N canvas 838 66 222 370 12;
#X obj 0 421 dac~;
#X obj -2 -220 ../utility/sampleplayer;
#X obj -2 -127 ../utility/audioinput 1;
#X obj 300 -218 ../utility/dsp;
#X obj -246 -220 instrument.m~;
#A saved 1;
#A saved;
#X obj -246 -324 keyboard 16 80 4 2 0 0 empty empty;
#X obj 0 0 echobrain;
#X connect 1 0 2 0;
#X connect 2 0 6 0;
#X connect 4 0 2 0;
#X connect 5 0 4 0;
#X connect 6 0 0 0;
#X connect 6 0 0 1;
#X connect 6 2 0 0;
#X connect 6 2 0 1;
#X coords 0 0 1 1 222 370 0;
