#N canvas 1440 25 2560 1387 8;
#X obj 33 54 else/note 553 24 Inter empty 5 54 54 54 0 209 225 225 1 1 Audio Input;
#X obj 1269 470 else/note 2072 24 Inter empty 5 54 54 54 0 250 245 231 1 1 Synth Section;
#X obj 9 508 else/note 1037 24 Inter empty 5 54 54 54 0 209 225 225 1 1 FX Section;
#X obj 1985 643 bng 25 250 50 0 empty empty empty 17 7 0 10 #e4e4e4 #4d4d4d #373737;
#X obj 2038 655 ipf_taptempo;
#X obj 157 120 ../utility/guitarinput;
#X obj 157 91 r knob1;
#X obj 517 567 r knob4;
#X obj 404 564 r knob2;
#X obj 2221 780 r knob3;
#X obj 1965 544 r fs2s;
#X obj 1965 604 select 0 1;
#X obj 2133 643 bng 25 250 50 0 empty empty empty 17 7 0 10 #e4e4e4 #4d4d4d #373737;
#X msg 2133 675 0;
#X obj 333 1152 r fs1s;
#X obj 333 1237 sig~;
#X obj 333 1211 + 1;
#X obj 404 595 expr abs($f1-127);
#X obj 3 554 r tglsw1;
#X obj 27 590 sel 0 1 2;
#X msg 38 640 1;
#X msg 27 666 0;
#X msg 77 627 1;
#X msg 69 677 0;
#X msg 122 642 1;
#X obj 67 1056 sig~;
#X obj 67 1027 + 1;
#X obj 2400 778 r knob2;
#X obj 1777 628 r tglsw2;
#X obj 1777 675 sel 0 1 2;
#X msg 1784 736 1;
#X msg 1810 736 2;
#X obj 2038 736 * \$1;
#X msg 1837 736 3;
#X obj 380 317 s~ audioin;
#X obj 546 595 r~ audioin;
#X obj 591 1237 r~ audioin;
#X obj 1480 736 r~ audioin;
#X obj 2868 682 r~ audioin;
#X obj 157 317 s pitch;
#X obj 604 567 r pitch;
#X obj 268 317 s onset;
#X obj 662 595 r onset;
#X obj 2038 544 r onset;
#X obj 409 1285 cyclone/selector~ 2;
#X obj 541 1285 cyclone/selector~ 2;
#X obj 33 91 else/initmess 120;
#X obj 1985 771 else/metronome;
#X obj 1327 813 ../utility/ipfarp-vanilla;
#X obj 431 1399 *~;
#X obj 431 1353 expr abs($f1-1);
#X obj 541 1399 *~;
#X obj 541 1353 expr abs($f1-1);
#X obj 314 1322 / 127;
#X obj 2636 1263 / 127;
#X obj 2636 1297 *~;
#X obj 333 567 r knob5;
#X obj 314 1285 r knob6;
#X obj 2634 1224 r knob6;
#X obj 2636 1364 s~ synth;
#X obj 580 1466 s~ fxR;
#X obj 496 1466 s~ fxL;
#X obj 380 91 r~ guitar;
#X obj 198 1285 else/initmess 60;
#X obj 224 1182 else/initmess 0;
#X obj 1329 1234 s midinote;
#X obj 673 1285 cyclone/selector~ 2;
#X obj 649 1399 *~;
#X obj 649 1353 expr abs($f1-1);
#X msg 112 669 0;
#X obj 512 1148 cyclone/selector~ 3;
#X obj 2733 682 r fs2s;
#X obj 2613 682 r fs3s;
#X obj 158 712 ../fx/ipitchf-vanilla;
#X obj 431 712 ../fx/ipfilterdelay-vanilla;
#X obj 724 712 ../fx/melodiner;
#X obj 2549 682 r midinote;
#X obj 2664 682 r fs3l;
#X obj 2589 1232 *~ 4;
#X obj 333 1177 tgl 25 0 empty empty empty 17 7 0 10 #e4e4e4 #4d4d4d #373737 0 1;
#X obj 1965 569 tgl 25 0 empty empty empty 17 7 0 10 #e4e4e4 #4d4d4d #373737 0 1;
#X obj 63 554 else/initmess 0;
#X obj 2586 565 else/keyboard 17 80 4 2 0 0 empty empty;
#X obj 2795 682 r tglsw3;
#X obj 1848 628 else/initmess 0;
#X text 1327 623 2 You play high. Notes go low. You play low. Notes go high, f 72;
#X text 1327 574 Test;
#X obj 1327 648 hradio 20 1 0 2 empty empty empty 0 -8 0 10 #e4e4e4 #4d4d4d #373737 0;
#X text 2875 724 Test;
#X text 2875 745 1 You play short notes. Synth plays long notes;
#X text 2875 773 2 You play long notes. Synth plays short notes, f 72;
#X obj 2875 835 hradio 20 1 0 3 empty empty empty 0 -8 0 10 #e4e4e4 #4d4d4d #373737 0;
#X text 1327 595 1 Notes generate arround played center note;
#X obj 1754 768 r fs2s;
#X text 2875 802 3 Off, f 72;
#X obj 2441 705 else/midi.in;
#X obj 1341 739 hradio 20 1 0 2 empty empty empty 0 -8 0 10 #e4e4e4 #4d4d4d #373737 0;
#X text 1334 713 Groove Freeze;
#X obj 1469 773 *~;
#X obj 1341 773 sig~;
#X obj 2589 746 ../synth/onsetsamplersynth_v02;
#X obj 2038 604 spigot;
#X obj 2179 604 expr abs($f1-1);
#X obj 1196 681 expr abs($f1-1);
#X obj 1196 597 r fs2l;
#X obj 1196 643 tgl 25 0 empty empty empty 0 -10 0 10 #e4e4e4 #4d4d4d #373737 0 1;
#X obj 2179 569 tgl 25 0 empty empty empty 0 -10 0 10 #e4e4e4 #4d4d4d #373737 0 1;
#X obj 2179 530 r fs2l;
#X obj 1085 624 else/initmess 0;
#X obj 2302 569 else/initmess 0;
#X connect 3 0 47 0;
#X connect 3 0 48 5;
#X connect 4 0 32 0;
#X connect 5 0 39 0;
#X connect 5 1 41 0;
#X connect 5 2 34 0;
#X connect 6 0 5 0;
#X connect 7 0 73 4;
#X connect 7 0 74 4;
#X connect 7 0 75 2;
#X connect 8 0 17 0;
#X connect 8 0 73 3;
#X connect 8 0 74 3;
#X connect 9 0 48 6;
#X connect 10 0 80 0;
#X connect 11 0 12 0;
#X connect 11 1 3 0;
#X connect 12 0 13 0;
#X connect 13 0 47 0;
#X connect 14 0 79 0;
#X connect 15 0 44 0;
#X connect 15 0 45 0;
#X connect 15 0 66 0;
#X connect 16 0 15 0;
#X connect 17 0 73 5;
#X connect 17 0 74 5;
#X connect 17 0 75 3;
#X connect 18 0 26 0;
#X connect 18 0 19 0;
#X connect 19 0 21 0;
#X connect 19 0 20 0;
#X connect 19 1 23 0;
#X connect 19 1 22 0;
#X connect 19 2 24 0;
#X connect 19 2 69 0;
#X connect 20 0 73 2;
#X connect 21 0 74 2;
#X connect 21 0 75 1;
#X connect 22 0 74 2;
#X connect 23 0 73 2;
#X connect 23 0 75 1;
#X connect 24 0 75 1;
#X connect 25 0 70 0;
#X connect 26 0 25 0;
#X connect 27 0 48 7;
#X connect 28 0 29 0;
#X connect 29 0 30 0;
#X connect 29 1 31 0;
#X connect 29 2 33 0;
#X connect 30 0 32 1;
#X connect 31 0 32 1;
#X connect 32 0 47 1;
#X connect 33 0 32 1;
#X connect 35 0 73 0;
#X connect 35 0 74 0;
#X connect 35 0 75 0;
#X connect 36 0 44 1;
#X connect 36 0 45 1;
#X connect 36 0 66 1;
#X connect 37 0 98 1;
#X connect 38 0 100 5;
#X connect 40 0 73 6;
#X connect 40 0 74 6;
#X connect 42 0 73 8;
#X connect 42 0 74 8;
#X connect 43 0 101 0;
#X connect 44 0 49 1;
#X connect 45 0 51 1;
#X connect 46 0 5 0;
#X connect 47 0 48 2;
#X connect 48 0 65 0;
#X connect 49 0 61 0;
#X connect 49 0 60 0;
#X connect 50 0 49 0;
#X connect 51 0 61 0;
#X connect 51 0 60 0;
#X connect 52 0 51 0;
#X connect 53 0 52 0;
#X connect 53 0 68 0;
#X connect 53 0 50 0;
#X connect 54 0 55 0;
#X connect 55 0 59 0;
#X connect 56 0 73 1;
#X connect 56 0 74 1;
#X connect 57 0 53 0;
#X connect 58 0 54 0;
#X connect 62 0 5 1;
#X connect 63 0 53 0;
#X connect 64 0 16 0;
#X connect 66 0 67 1;
#X connect 67 0 61 0;
#X connect 67 0 60 0;
#X connect 68 0 67 0;
#X connect 69 0 73 2;
#X connect 69 0 74 2;
#X connect 70 0 44 2;
#X connect 70 0 45 2;
#X connect 70 0 66 2;
#X connect 71 0 100 3;
#X connect 72 0 100 1;
#X connect 73 0 70 1;
#X connect 74 0 70 2;
#X connect 75 0 70 3;
#X connect 76 0 100 0;
#X connect 77 0 100 2;
#X connect 78 0 55 1;
#X connect 79 0 16 0;
#X connect 80 0 11 0;
#X connect 81 0 26 0;
#X connect 81 0 19 0;
#X connect 82 0 100 0;
#X connect 83 0 100 4;
#X connect 84 0 29 0;
#X connect 87 0 48 4;
#X connect 91 0 100 6;
#X connect 93 0 48 3;
#X connect 95 0 100 0;
#X connect 96 0 99 0;
#X connect 98 0 48 1;
#X connect 99 0 98 0;
#X connect 100 0 78 0;
#X connect 101 0 4 0;
#X connect 102 0 101 1;
#X connect 103 0 96 0;
#X connect 104 0 105 0;
#X connect 105 0 103 0;
#X connect 106 0 102 0;
#X connect 107 0 106 0;
#X connect 108 0 105 0;
#X connect 109 0 106 0;
#X coords 0 1387 1 1386 220 368 0;
