#N canvas 1610 28 1317 981 8;
#X obj -1 0 cnv 15 222 370 empty empty empty 20 12 0 14 #e4e4e4 #373737 0;
#X obj 20 31 cnv 15 122 177 empty empty empty 20 12 0 14 #c8d8de #353037 0;
#X obj 81 31 cnv 15 61 89 empty empty empty 20 12 0 14 #00b78c #353037 0;
#X obj 145 31 cnv 15 58 89 empty empty empty 20 12 0 14 #f4e46c #353037 0;
#X obj 39 215 vradio 15 1 0 3 empty empty empty 0 -8 0 10 #e4e4e4 #4d4d4d #373737 0;
#X obj 105 215 vradio 15 1 0 3 empty empty empty 0 -8 0 10 #e4e4e4 #4d4d4d #373737 0;
#X obj 165 215 vradio 15 1 0 3 empty empty empty 0 -8 0 10 #e4e4e4 #4d4d4d #373737 0;
#X obj 74 467 momentary2toggle;
#X obj 39 278 tgl 19 0 empty fs1s empty 17 7 0 10 #292828 #00ff25 #373737 0 1;
#X obj 105 278 tgl 19 0 empty fs2s empty 17 7 0 10 #292828 #00ff25 #373737 0 1;
#X obj -90 82 s knob1;
#X obj -90 106 s knob2;
#X obj -90 127 s knob3;
#X obj 239 82 s knob4;
#X obj 239 105 s knob5;
#X obj 239 128 s knob6;
#X obj 230 271 s tglsw1;
#X obj 230 294 s tglsw2;
#X obj 230 317 s tglsw3;
#X obj 42 347 bng 14 250 50 0 empty empty empty 17 31 0 10 #e471d6 #4d4d4d #373737;
#X obj 107 347 bng 14 250 50 0 empty empty empty 17 31 0 10 #e471d6 #4d4d4d #373737;
#X obj 23 215 bng 14 250 50 0 empty empty empty 17 31 0 10 #e471d6 #4d4d4d #373737;
#X obj 104 188 bng 14 250 50 0 empty empty empty 17 31 0 10 #e471d6 #4d4d4d #373737;
#X obj 40 188 bng 14 250 50 0 empty empty empty 17 31 0 10 #e471d6 #4d4d4d #373737;
#X obj 166 100 bng 14 250 50 0 empty empty empty 17 31 0 10 #e471d6 #4d4d4d #373737;
#X obj 106 100 bng 14 250 50 0 empty empty empty 17 31 0 10 #e471d6 #4d4d4d #373737;
#X obj 40 100 bng 14 250 50 0 empty empty empty 17 31 0 10 #e471d6 #4d4d4d #373737;
#X obj 199 6 bng 14 250 50 0 empty empty empty 17 31 0 10 #e44d28 #4d4d4d #373737;
#X msg 236 -41 forget;
#X msg -390 160 0;
#X msg -317 160 1;
#X msg -247 160 2;
#X obj 23 230 bng 14 250 50 0 empty empty empty 17 31 0 10 #e471d6 #4d4d4d #373737;
#X obj 23 246 bng 14 250 50 0 empty empty empty 17 31 0 10 #e471d6 #4d4d4d #373737;
#X msg -392 221 0;
#X msg -319 221 1;
#X msg -249 221 2;
#X msg 230 216 0;
#X msg 303 216 1;
#X msg 373 216 2;
#X obj 89 214 bng 14 250 50 0 empty empty empty 17 31 0 10 #e471d6 #4d4d4d #373737;
#X obj 89 230 bng 14 250 50 0 empty empty empty 17 31 0 10 #e471d6 #4d4d4d #373737;
#X obj 89 246 bng 14 250 50 0 empty empty empty 17 31 0 10 #e471d6 #4d4d4d #373737;
#X obj 149 215 bng 14 250 50 0 empty empty empty 17 31 0 10 #e471d6 #4d4d4d #373737;
#X obj 149 230 bng 14 250 50 0 empty empty empty 17 31 0 10 #e471d6 #4d4d4d #373737;
#X obj 149 246 bng 14 250 50 0 empty empty empty 17 31 0 10 #e471d6 #4d4d4d #373737;
#X text 23 33 Gain In;
#X text 21 120 FX D/W;
#X text 91 33 Chaos;
#X obj 201 467 s fs2l;
#X obj -106 495 s fs1s;
#X obj 21 467 s fs1l;
#X obj 74 495 s fs2s;
#N canvas 733 172 628 574 footswitchShortLong 0;
#X obj 475 497 timer;
#X obj 421 429 bng 25 250 50 0 empty empty empty 17 7 0 10 #e4e4e4 #4d4d4d #373737;
#X obj 463 435 bng 25 250 50 0 empty empty empty 17 7 0 10 #e4e4e4 #4d4d4d #373737;
#X obj 341 429 sel 0 127;
#X msg 566 407 0;
#X floatatom 489 644 5 0 0 0 - - - 12;
#X floatatom 489 700 5 0 0 0 - - - 12;
#X obj 331 500 timer;
#X floatatom 331 526 5 0 0 0 - - - 12;
#X obj 331 581 sel 0 1;
#X obj 345 613 bng 25 250 50 0 empty empty empty 17 7 0 10 #e4e4e4 #4d4d4d #373737;
#X obj 345 711 outlet ftswt2s;
#X obj 489 751 outlet ftswt2l;
#X obj 27 380 inlet;
#X msg 371 661 1;
#X msg 405 662 0;
#X obj 408 633 del 100;
#X msg 625 743 0;
#X obj 632 619 spigot;
#X obj 331 554 < 350;
#X obj 475 554 expr if($f1 > 350 \, 127 \, 1);
#X obj 655 554 expr if($f1 > 350 \, 1 \, 0);
#X obj 565 475 else/metronome 1000;
#X obj 489 676 else/changed;
#X connect 0 0 20 0;
#X connect 0 0 21 0;
#X connect 1 0 0 1;
#X connect 1 0 4 0;
#X connect 1 0 7 1;
#X connect 2 0 0 0;
#X connect 2 0 7 0;
#X connect 2 0 22 0;
#X connect 3 0 1 0;
#X connect 3 1 2 0;
#X connect 4 0 18 0;
#X connect 4 0 22 0;
#X connect 5 0 23 0;
#X connect 6 0 12 0;
#X connect 7 0 8 0;
#X connect 8 0 19 0;
#X connect 9 1 10 0;
#X connect 10 0 14 0;
#X connect 10 0 16 0;
#X connect 13 0 3 0;
#X connect 14 0 11 0;
#X connect 15 0 11 0;
#X connect 16 0 15 0;
#X connect 18 0 5 0;
#X connect 19 0 9 0;
#X connect 20 0 5 0;
#X connect 21 0 18 1;
#X connect 22 0 0 1;
#X connect 23 0 6 0;
#X restore 74 440 pd footswitchShortLong;
#X text 152 33 Notes;
#X obj 191 341 bng 25 250 50 0 empty empty empty 17 7 0 10 #e4e4e4 #4d4d4d #373737;
#X obj 230 381 s record;
#X obj 303 76 else/midi.learn;
#A saved;
#A saved;
#X obj 303 101 else/midi.learn;
#A saved;
#A saved;
#X obj 303 126 else/midi.learn;
#A saved;
#A saved;
#X obj 199 -96 else/midi.learn;
#A saved;
#A saved;
#X obj 81 -53 else/midi.learn;
#A saved;
#A saved;
#X obj 24 -83 else/midi.learn;
#A saved;
#A saved;
#X obj -143 -22 else/initmess 84;
#X obj -108 34 else/initmess 70;
#X obj -248 136 else/midi.learn;
#A saved;
#A saved;
#X obj -319 136 else/midi.learn;
#A saved;
#A saved;
#X obj -391 136 else/midi.learn;
#A saved;
#A saved;
#X obj -393 197 else/midi.learn;
#A saved;
#A saved;
#X obj -321 197 else/midi.learn;
#A saved;
#A saved;
#X obj -250 197 else/midi.learn;
#A saved;
#A saved;
#X obj 229 192 else/midi.learn;
#A saved;
#A saved;
#X obj 301 192 else/midi.learn;
#A saved;
#A saved;
#X obj 372 192 else/midi.learn;
#A saved;
#A saved;
#X obj -106 415 else/midi.learn;
#A saved;
#A saved ctlin 23 1;
#X text 182 230 M2;
#X text 182 216 M1;
#X text 182 246 M3;
#X text 56 216 FX1;
#X text 56 230 FX2;
#X text 56 246 FX3;
#X text 121 216 B1;
#X text 121 230 B2;
#X text 121 246 B3;
#X text 38 300 FX;
#X text 94 300 Synth;
#X obj 42 321 tgl 15 0 empty empty empty 0 -8 0 8 #fcfcfc #000000 #000000 0 1;
#X obj 107 321 tgl 15 0 empty empty empty 0 -8 0 8 #fcfcfc #000000 #000000 0 1;
#X obj -119 160 else/initmess 0;
#X obj 145 121 cnv 15 58 89 empty empty empty 20 12 0 14 #f47600 #353037 0;
#X obj 165 188 bng 14 250 50 0 empty empty empty 17 31 0 10 #e471d6 #4d4d4d #373737;
#X text 149 120 Mix G/S;
#X text 71 5 I-Pedal-F v04;
#X obj 2 652 s~ guitar;
#X obj 99 619 r~ fxL;
#X obj 100 650 outlet~ L1;
#X obj 169 652 outlet~ R1;
#X obj 236 655 outlet~ LR;
#X obj 252 629 r~ synth;
#X obj 2 597 inlet~ audio;
#X obj 171 623 r~ fxR;
#X obj -106 467 momentary2toggle;
#X obj -106 317 else/initmess 2;
#X obj 325 25 else/initmess 100;
#X text 80 120 FXSpeed;
#X obj -106 296 else/initmess 2;
#X obj -106 275 else/initmess 1;
#X obj 456 27 else;
#X obj 155 57 else/knob 35 0 127 0 0 empty empty #e4e4e4 #000000 #000000 0 0 0 0 0 280 0 0 0 empty empty 0 12 0 -15 0 1 0 0;
#X obj 94 58 else/knob 35 0 127 0 0 empty empty #e4e4e4 #000000 #000000 0 0 0 0 0 280 0 0 0 empty empty 0 12 0 -15 0 1 0 0;
#X obj 29 58 else/knob 35 0 127 0 0 empty empty #e4e4e4 #000000 #000000 0 0 0 0 0 280 0 0 0 empty empty 0 12 0 -15 0 1 0 0;
#X obj 29 145 else/knob 35 0 127 0 0 empty empty #e4e4e4 #000000 #000000 0 0 0 0 0 280 0 0 0 empty empty 0 12 0 -15 0 1 0 0;
#X obj 92 145 else/knob 35 0 127 0 0 empty empty #e4e4e4 #000000 #000000 0 0 0 0 0 280 0 0 0 empty empty 0 12 0 -15 0 1 0 0;
#X obj 156 145 else/knob 35 0 127 0 0 empty empty #e4e4e4 #000000 #000000 0 0 0 0 0 280 0 0 0 empty empty 0 12 0 -15 0 1 0 0;
#X obj 372 655 outlet midinote;
#X obj 372 619 r midinote;
#N canvas 733 172 628 574 footswitchShortLong 0;
#X obj 475 497 timer;
#X obj 421 429 bng 25 250 50 0 empty empty empty 17 7 0 10 #e4e4e4 #4d4d4d #373737;
#X obj 463 435 bng 25 250 50 0 empty empty empty 17 7 0 10 #e4e4e4 #4d4d4d #373737;
#X obj 341 429 sel 0 127;
#X msg 566 407 0;
#X floatatom 489 644 5 0 0 0 - - - 12;
#X floatatom 489 700 5 0 0 0 - - - 12;
#X obj 331 500 timer;
#X floatatom 331 526 5 0 0 0 - - - 12;
#X obj 331 581 sel 0 1;
#X obj 345 613 bng 25 250 50 0 empty empty empty 17 7 0 10 #e4e4e4 #4d4d4d #373737;
#X obj 345 711 outlet ftswt2s;
#X obj 489 751 outlet ftswt2l;
#X obj 27 380 inlet;
#X msg 371 661 1;
#X msg 405 662 0;
#X obj 408 633 del 100;
#X msg 625 743 0;
#X obj 632 619 spigot;
#X obj 331 554 < 350;
#X obj 475 554 expr if($f1 > 350 \, 127 \, 1);
#X obj 655 554 expr if($f1 > 350 \, 1 \, 0);
#X obj 565 475 else/metronome 1000;
#X obj 489 676 else/changed;
#X connect 0 0 20 0;
#X connect 0 0 21 0;
#X connect 1 0 0 1;
#X connect 1 0 4 0;
#X connect 1 0 7 1;
#X connect 2 0 0 0;
#X connect 2 0 7 0;
#X connect 2 0 22 0;
#X connect 3 0 1 0;
#X connect 3 1 2 0;
#X connect 4 0 18 0;
#X connect 4 0 22 0;
#X connect 5 0 23 0;
#X connect 6 0 12 0;
#X connect 7 0 8 0;
#X connect 8 0 19 0;
#X connect 9 1 10 0;
#X connect 10 0 14 0;
#X connect 10 0 16 0;
#X connect 13 0 3 0;
#X connect 14 0 11 0;
#X connect 15 0 11 0;
#X connect 16 0 15 0;
#X connect 18 0 5 0;
#X connect 19 0 9 0;
#X connect 20 0 5 0;
#X connect 21 0 18 1;
#X connect 22 0 0 1;
#X connect 23 0 6 0;
#X restore -106 440 pd footswitchShortLong;
#X obj 169 278 tgl 19 0 empty fs3s empty 17 7 0 10 #292828 #00ff25 #373737 0 1;
#X obj 171 321 tgl 15 0 empty empty empty 0 -8 0 8 #fcfcfc #000000 #000000 0 1;
#X obj 265 470 momentary2toggle;
#X obj 171 347 bng 14 250 50 0 empty empty empty 17 31 0 10 #e471d6 #4d4d4d #373737;
#N canvas 733 172 628 574 footswitchShortLong 0;
#X obj 475 497 timer;
#X obj 421 429 bng 25 250 50 0 empty empty empty 17 7 0 10 #e4e4e4 #4d4d4d #373737;
#X obj 463 435 bng 25 250 50 0 empty empty empty 17 7 0 10 #e4e4e4 #4d4d4d #373737;
#X obj 341 429 sel 0 127;
#X msg 566 407 0;
#X floatatom 489 644 5 0 0 0 - - - 12;
#X floatatom 489 700 5 0 0 0 - - - 12;
#X obj 331 500 timer;
#X floatatom 331 526 5 0 0 0 - - - 12;
#X obj 331 581 sel 0 1;
#X obj 345 613 bng 25 250 50 0 empty empty empty 17 7 0 10 #e4e4e4 #4d4d4d #373737;
#X obj 345 711 outlet ftswt2s;
#X obj 489 751 outlet ftswt2l;
#X obj 27 380 inlet;
#X msg 371 661 1;
#X msg 405 662 0;
#X obj 408 633 del 100;
#X msg 625 743 0;
#X obj 632 619 spigot;
#X obj 331 554 < 350;
#X obj 475 554 expr if($f1 > 350 \, 127 \, 1);
#X obj 655 554 expr if($f1 > 350 \, 1 \, 0);
#X obj 565 475 else/metronome 1000;
#X obj 489 676 else/changed;
#X connect 0 0 20 0;
#X connect 0 0 21 0;
#X connect 1 0 0 1;
#X connect 1 0 4 0;
#X connect 1 0 7 1;
#X connect 2 0 0 0;
#X connect 2 0 7 0;
#X connect 2 0 22 0;
#X connect 3 0 1 0;
#X connect 3 1 2 0;
#X connect 4 0 18 0;
#X connect 4 0 22 0;
#X connect 5 0 23 0;
#X connect 6 0 12 0;
#X connect 7 0 8 0;
#X connect 8 0 19 0;
#X connect 9 1 10 0;
#X connect 10 0 14 0;
#X connect 10 0 16 0;
#X connect 13 0 3 0;
#X connect 14 0 11 0;
#X connect 15 0 11 0;
#X connect 16 0 15 0;
#X connect 18 0 5 0;
#X connect 19 0 9 0;
#X connect 20 0 5 0;
#X connect 21 0 18 1;
#X connect 22 0 0 1;
#X connect 23 0 6 0;
#X restore 265 443 pd footswitchShortLong;
#X obj 392 470 s fs3l;
#X obj 265 502 s fs3s;
#X text 158 300 Freeze;
#X obj 74 415 else/midi.learn;
#A saved;
#A saved;
#X obj 265 415 else/midi.learn;
#A saved;
#A saved;
#X connect 4 0 16 0;
#X connect 5 0 17 0;
#X connect 6 0 18 0;
#X connect 7 0 52 0;
#X connect 19 0 74 0;
#X connect 20 0 125 0;
#X connect 21 0 67 0;
#X connect 22 0 58 0;
#X connect 23 0 57 0;
#X connect 24 0 60 0;
#X connect 25 0 61 0;
#X connect 26 0 62 0;
#X connect 27 0 28 0;
#X connect 28 0 57 0;
#X connect 28 0 58 0;
#X connect 28 0 59 0;
#X connect 28 0 62 0;
#X connect 28 0 67 0;
#X connect 28 0 60 0;
#X connect 28 0 61 0;
#X connect 28 0 74 0;
#X connect 28 0 125 0;
#X connect 28 0 126 0;
#X connect 29 0 4 0;
#X connect 30 0 4 0;
#X connect 31 0 4 0;
#X connect 32 0 66 0;
#X connect 33 0 65 0;
#X connect 34 0 5 0;
#X connect 35 0 5 0;
#X connect 36 0 5 0;
#X connect 37 0 6 0;
#X connect 38 0 6 0;
#X connect 39 0 6 0;
#X connect 40 0 41 0;
#X connect 40 0 68 0;
#X connect 41 0 69 0;
#X connect 42 0 70 0;
#X connect 43 0 71 0;
#X connect 44 0 72 0;
#X connect 45 0 73 0;
#X connect 53 0 87 0;
#X connect 53 0 7 0;
#X connect 53 1 49 0;
#X connect 55 0 56 0;
#X connect 57 0 111 0;
#X connect 58 0 112 0;
#X connect 59 0 113 0;
#X connect 60 0 108 0;
#X connect 61 0 109 0;
#X connect 62 0 110 0;
#X connect 63 0 109 0;
#X connect 63 0 110 0;
#X connect 64 0 111 0;
#X connect 64 0 113 0;
#X connect 65 0 31 0;
#X connect 66 0 30 0;
#X connect 67 0 29 0;
#X connect 68 0 34 0;
#X connect 69 0 35 0;
#X connect 70 0 36 0;
#X connect 71 0 37 0;
#X connect 72 0 38 0;
#X connect 73 0 39 0;
#X connect 74 0 116 0;
#X connect 88 0 112 0;
#X connect 90 0 59 0;
#X connect 94 0 95 0;
#X connect 98 0 97 0;
#X connect 99 0 93 0;
#X connect 100 0 96 0;
#X connect 101 0 50 0;
#X connect 102 0 6 0;
#X connect 103 0 108 0;
#X connect 105 0 4 0;
#X connect 106 0 5 0;
#X connect 108 0 12 0;
#X connect 109 0 11 0;
#X connect 110 0 10 0;
#X connect 111 0 13 0;
#X connect 112 0 14 0;
#X connect 113 0 15 0;
#X connect 115 0 114 0;
#X connect 116 0 86 0;
#X connect 116 0 101 0;
#X connect 116 1 51 0;
#X connect 119 0 123 0;
#X connect 120 0 126 0;
#X connect 121 0 118 0;
#X connect 121 0 119 0;
#X connect 121 1 122 0;
#X connect 125 0 53 0;
#X connect 126 0 121 0;
#X coords 0 0 1 1 220 368 1 0 0;
