#N canvas 1440 25 2560 1387 8;
#X obj 33 54 else/note 553 24 Inter empty 5 54 54 54 0 209 225 225 1 1 Audio Input;
#X obj 1520 508 else/note 2072 24 Inter empty 5 54 54 54 0 250 245 231 1 1 Synth Section;
#X obj 9 508 else/note 1037 24 Inter empty 5 54 54 54 0 209 225 225 1 1 FX Section;
#X obj 2235 643 bng 25 250 50 0 empty empty empty 17 7 0 10 #e4e4e4 #4d4d4d #373737;
#X obj 2288 675 ipf_taptempo;
#X floatatom 2288 699 5 0 0 0 - - - 12;
#X obj 157 120 ../utility/guitarinput;
#X obj 157 91 r knob1;
#X obj 517 567 r knob4;
#X obj 404 564 r knob2;
#X obj 2563 779 r knob3;
#X obj 2215 571 r fs2s;
#X obj 2215 604 select 0 1;
#X obj 2383 643 bng 25 250 50 0 empty empty empty 17 7 0 10 #e4e4e4 #4d4d4d #373737;
#X msg 2383 675 0;
#X obj 333 1182 r fs1s;
#X obj 333 1237 sig~;
#X obj 333 1211 + 1;
#X obj 404 595 expr abs($f1-127);
#X obj 3 554 r tglsw1;
#X obj 27 590 sel 0 1 2;
#X msg 38 640 1;
#X msg 27 666 0;
#X msg 77 627 1;
#X msg 69 677 0;
#X msg 122 642 1;
#X obj 67 1056 sig~;
#X obj 67 1027 + 1;
#X obj 1458 1273 r tglsw3;
#X obj 2704 779 r knob2;
#X obj 2027 628 r tglsw2;
#X obj 2027 675 sel 0 1 2;
#X msg 2034 736 1;
#X msg 2060 736 2;
#X obj 2288 736 * \$1;
#X msg 2087 736 3;
#X obj 2098 628 initmess 0;
#X obj 380 301 s~ audioin;
#X obj 546 595 r~ audioin;
#X obj 591 1237 r~ audioin;
#X obj 1717 785 r~ audioin;
#X obj 2921 845 r~ audioin;
#X obj 157 317 s pitch;
#X obj 604 567 r pitch;
#X obj 268 317 s onset;
#X obj 662 595 r onset;
#X obj 2422 785 r onset;
#X obj 2288 643 r onset;
#X obj 409 1285 cyclone/selector~ 2;
#X obj 541 1285 cyclone/selector~ 2;
#X obj 33 91 else/initmess 120;
#X obj 2235 771 else/metronome;
#X obj 1577 813 ../utility/ipfarp-vanilla;
#X obj 431 1399 *~;
#X obj 431 1353 expr abs($f1-1);
#X obj 541 1399 *~;
#X obj 541 1353 expr abs($f1-1);
#X obj 314 1322 / 127;
#X obj 2900 1277 / 127;
#X obj 2926 1320 *~;
#X obj 333 567 r knob5;
#X obj 314 1285 r knob6;
#X obj 2900 1240 r knob6;
#X obj 2926 1356 s~ synth;
#X obj 580 1466 s~ fxR;
#X obj 496 1466 s~ fxL;
#X obj 380 91 r~ guitar;
#X obj 198 1285 else/initmess 60;
#X obj 63 554 initmess 0;
#X obj 224 1182 else/initmess 0;
#X obj 2777 1277 else/initmess 64;
#X obj 1458 1403 hradio 20 1 0 2 empty empty empty 0 -8 0 10 #333333 #eeeeee #111111 0;
#X text 1458 1379 nopitch;
#X obj 1458 1296 sel 0 1 2;
#X msg 1453 1335 0;
#X msg 1492 1334 1;
#X obj 494 301 esf~ 8192;
#X obj 494 335 s esf;
#X obj 1689 1520 s midinote;
#X obj 1689 1474 selector;
#X obj 2833 706 keyboard 16 80 4 2 0 0 empty empty;
#X obj 673 1285 cyclone/selector~ 2;
#X obj 649 1399 *~;
#X obj 649 1353 expr abs($f1-1);
#X obj 2921 895 ../synth/onsetsamplersynth;
#X msg 112 669 0;
#X obj 512 1148 cyclone/selector~ 3;
#X obj 3040 853 r fs2s;
#X obj 2985 845 r fs3s;
#X obj 2970 1240 *~ 3;
#X obj -134 287 keydetect;
#X symbolatom -130 335 10 0 0 0 - - - 0;
#X obj -134 131 avg;
#X msg -22 54 clear;
#X floatatom -134 244 5 0 0 0 - - - 12;
#X obj -116 76 r pitch;
#X obj -38 -41 bng 25 250 50 0 empty empty empty 17 7 0 10 #e4e4e4 #4d4d4d #373737;
#X obj -134 204 int;
#X obj -134 171 f;
#X obj -36 -116 r onset;
#X obj -223 25 r pitch;
#X obj -213 70 freq2midi;
#X obj 158 712 ../fx/ipitchf-vanilla;
#X obj 431 712 ../fx/ipfilterdelay-vanilla;
#X obj 724 712 ../fx/melodiner;
#X connect 3 0 51 0;
#X connect 3 0 52 5;
#X connect 4 0 5 0;
#X connect 5 0 34 0;
#X connect 6 0 42 0;
#X connect 6 1 44 0;
#X connect 6 2 76 0;
#X connect 6 2 37 0;
#X connect 7 0 6 0;
#X connect 8 0 102 4;
#X connect 8 0 103 3;
#X connect 8 0 104 1;
#X connect 9 0 18 0;
#X connect 9 0 102 2;
#X connect 9 0 103 2;
#X connect 10 0 52 7;
#X connect 11 0 12 0;
#X connect 12 0 13 0;
#X connect 12 1 3 0;
#X connect 13 0 14 0;
#X connect 14 0 51 0;
#X connect 15 0 17 0;
#X connect 16 0 48 0;
#X connect 16 0 49 0;
#X connect 16 0 81 0;
#X connect 17 0 16 0;
#X connect 18 0 102 5;
#X connect 18 0 103 5;
#X connect 18 0 104 3;
#X connect 19 0 27 0;
#X connect 19 0 20 0;
#X connect 20 0 22 0;
#X connect 20 0 21 0;
#X connect 20 1 24 0;
#X connect 20 1 23 0;
#X connect 20 2 25 0;
#X connect 20 2 85 0;
#X connect 21 0 102 1;
#X connect 22 0 103 1;
#X connect 22 0 104 0;
#X connect 23 0 103 1;
#X connect 24 0 102 1;
#X connect 24 0 104 0;
#X connect 25 0 104 0;
#X connect 26 0 86 0;
#X connect 27 0 26 0;
#X connect 28 0 73 0;
#X connect 29 0 52 8;
#X connect 30 0 31 0;
#X connect 30 0 52 0;
#X connect 31 0 32 0;
#X connect 31 1 33 0;
#X connect 31 2 35 0;
#X connect 32 0 34 1;
#X connect 33 0 34 1;
#X connect 34 0 51 1;
#X connect 35 0 34 1;
#X connect 36 0 31 0;
#X connect 38 0 102 3;
#X connect 38 0 103 4;
#X connect 38 0 104 2;
#X connect 39 0 48 1;
#X connect 39 0 49 1;
#X connect 39 0 81 1;
#X connect 40 0 52 1;
#X connect 41 0 84 0;
#X connect 43 0 102 6;
#X connect 43 0 103 6;
#X connect 45 0 102 8;
#X connect 45 0 103 8;
#X connect 45 0 104 6;
#X connect 46 0 52 6;
#X connect 47 0 4 0;
#X connect 48 0 53 1;
#X connect 49 0 55 1;
#X connect 50 0 6 0;
#X connect 51 0 52 3;
#X connect 52 0 79 0;
#X connect 52 0 78 0;
#X connect 52 1 79 1;
#X connect 52 1 84 3;
#X connect 53 0 65 0;
#X connect 53 0 64 0;
#X connect 54 0 53 0;
#X connect 55 0 65 0;
#X connect 55 0 64 0;
#X connect 56 0 55 0;
#X connect 57 0 56 0;
#X connect 57 0 83 0;
#X connect 57 0 54 0;
#X connect 58 0 59 0;
#X connect 59 0 63 0;
#X connect 60 0 102 0;
#X connect 60 0 103 0;
#X connect 61 0 57 0;
#X connect 62 0 58 0;
#X connect 66 0 6 1;
#X connect 67 0 57 0;
#X connect 68 0 27 0;
#X connect 68 0 20 0;
#X connect 69 0 17 0;
#X connect 70 0 58 0;
#X connect 71 0 79 2;
#X connect 73 0 74 0;
#X connect 73 1 75 0;
#X connect 74 0 71 0;
#X connect 75 0 71 0;
#X connect 76 0 77 0;
#X connect 80 0 84 3;
#X connect 81 0 82 1;
#X connect 82 0 65 0;
#X connect 82 0 64 0;
#X connect 83 0 82 0;
#X connect 84 0 89 0;
#X connect 85 0 102 1;
#X connect 85 0 103 1;
#X connect 86 0 48 2;
#X connect 86 0 49 2;
#X connect 86 0 81 2;
#X connect 87 0 84 2;
#X connect 88 0 84 1;
#X connect 89 0 59 1;
#X connect 90 0 91 0;
#X connect 92 0 98 1;
#X connect 93 0 92 0;
#X connect 94 0 90 0;
#X connect 96 0 98 0;
#X connect 96 0 93 0;
#X connect 97 0 94 0;
#X connect 98 0 97 0;
#X connect 99 0 96 0;
#X connect 100 0 101 0;
#X connect 101 0 92 0;
#X connect 102 0 86 1;
#X connect 103 0 86 2;
#X connect 104 0 86 3;
#X coords 0 1387 1 1386 220 368 0;
