#N canvas 1910 73 916 924 12;
#X obj 342 759 dac~;
#X obj 10 102 ../utility/audioinput;
#X obj 10 9 ../utility/sampleplayer;
#X obj 292 11 ../utility/dsp;
#X obj 534 236 bng 25 250 50 0 empty empty empty 17 7 0 10 #e44d28 #4d4d4d #373737;
#X text 566 235 Clear MIDI;
#X obj 534 268 bng 25 250 50 0 empty empty empty 17 7 0 10 #e471d6 #4d4d4d #373737;
#X text 566 267 Learn MIDI;
#X text 527 570 Long Press: Record Audio;
#X text 527 588 Short Press: Activate Synth;
#X obj 292 221 ../project/pedalfrontend;
#X text 527 377 B1: 4/4;
#X text 527 399 B2: 8/8;
#X text 527 420 B2: 6/8;
#X text 527 306 FX1: Pitch;
#X text 527 328 FX2: Delay;
#X text 527 349 FX3: Both;
#X text 527 449 M1: PitchMode;
#X text 527 471 M2: RepeatMode;
#X text 527 492 M3:;
#X text 527 551 Footswitch R;
#X text 527 524 Footswitch L: Toggle FX;
#X obj 490 764 midi.out;
#X obj 581 655 keyboard 16 80 4 2 0 0 empty empty;
#X connect 1 0 10 0;
#X connect 2 0 1 0;
#X connect 10 0 0 0;
#X connect 10 0 0 1;
#X connect 10 1 0 1;
#X connect 10 1 0 0;
#X connect 10 2 0 1;
#X connect 10 2 0 0;
#X connect 10 3 22 0;
#X connect 23 0 22 0;
