#N canvas 838 66 916 847 12;
#X obj 10 705 dac~;
#X obj 10 9 ../utility/sampleplayer;
#X obj 247 278 bng 25 250 50 0 empty empty empty 17 7 0 10 #e44d28 #4d4d4d #373737;
#X text 279 277 Clear MIDI;
#X obj 247 310 bng 25 250 50 0 empty empty empty 17 7 0 10 #e471d6 #4d4d4d #373737;
#X text 279 309 Learn MIDI;
#X obj 11 274 ../project/pedalfrontend;
#X text 245 419 B1: 4/4;
#X text 245 441 B2: 8/8;
#X text 245 462 B2: 6/8;
#X text 245 370 FX2: Delay;
#X text 245 391 FX3: Melodiner;
#X obj 10 102 ../utility/audioinput 1;
#X text 245 491 M1: PitchMode;
#X text 245 513 M2: Closest Note, f 19;
#X text 245 534 M3: Ordered existing Notes;
#X text 245 572 Footswitch 1: Toggle FX;
#X text 245 593 Footswitch 2: Activate Synth;
#X text 245 612 Footswitch 3: Short Press - Freeze recorded Notes for Synth;
#X text 330 631 Long Press - Delete recorded Notes for Synth;
#X obj 312 9 ../utility/dsp;
#X text 245 348 FX1: Pitch;
#X obj 158 659 else/plate.rev.m~;
#A saved 50 0.5 0.25 0.75 0.573171 1;
#A saved;
#A saved;
#A saved;
#A saved;
#A saved;
#X obj 350 672 else/delay.m~;
#A saved 266.652 0.390244 100 0 1 1;
#A saved;
#A saved;
#A saved;
#A saved;
#A saved;
#X connect 1 0 12 0;
#X connect 6 0 0 0;
#X connect 6 0 0 1;
#X connect 6 1 0 0;
#X connect 6 1 0 1;
#X connect 6 2 22 0;
#X connect 6 2 23 0;
#X connect 12 0 6 0;
#X connect 22 0 0 1;
#X connect 22 0 0 0;
#X connect 23 0 0 1;
#X connect 23 0 0 0;
