#N canvas 607 25 1317 847 8;
#X obj -1 0 cnv 15 222 370 empty empty empty 20 12 0 14 #e4e4e4 #373737 0;
#X obj 18 31 cnv 15 58 83 empty empty empty 20 12 0 14 #c8d8de #353037 0;
#X obj 18 121 cnv 15 58 83 empty empty empty 20 12 0 14 #00b78c #353037 0;
#X obj 83 31 cnv 15 119 82 empty empty empty 20 12 0 14 #f2d266 #353037 0;
#X obj 202 448 s fs2l;
#X obj -99 442 s fs1s;
#X obj 22 445 s fs1l;
#X obj 81 446 s fs2s;
#X obj -459 -52 else/initmess 84;
#X obj 83 121 cnv 15 120 83 empty empty empty 20 12 0 14 #f47600 #353037 0;
#X obj 348 640 inlet~ audio;
#X obj -441 57 else/initmess 100;
#X obj -119 193 else/initmess 1;
#X obj 154 53 else/knob 35 0 127 0 0 knobfxdw rknobfxdw #e4e4e4 #000000 #000000 0 0 0 0 0 280 0 0 0 empty empty 0 12 0 -15 0 1 0 0;
#X obj 96 53 else/knob 35 0 127 0 0 knobfxspeed rknobfxspeed #e4e4e4 #000000 #000000 0 0 0 0 0 280 0 0 0 empty empty 0 12 0 -15 0 1 0 0;
#X obj 29 54 else/knob 36 0 127 0 0 knobgain rknobgain #e4e4e4 #000000 #000000 0 0 0 0 0 280 0 0 0 empty empty 0 12 0 -15 0 1 0 0;
#X obj 24 134 else/knob 47 0 127 0 0 knobchaos rknobchaos #e4e4e4 #000000 #000000 0 0 0 0 0 280 0 0 0 empty empty 0 12 0 -15 0 1 0 0;
#X obj 92 145 else/knob 35 0 127 0 0 knobnotes rknobnotes #e4e4e4 #000000 #000000 0 0 0 0 0 280 0 0 0 empty empty 0 12 0 -15 0 1 0 0;
#X obj 154 145 else/knob 35 0 127 0 0 knobsynthvol rknobsynthvol #e4e4e4 #000000 #000000 0 0 0 0 0 280 0 0 0 empty empty 0 12 0 -15 0 1 0 0;
#X obj 969 1502 outlet midinote;
#X obj 394 451 s fs3l;
#X obj 272 449 s fs3s;
#X obj 82 403 ../utility/pressshortlong;
#X obj -223 442 else/initmess 0;
#X obj -119 254 else/initmess 0;
#X obj -99 403 ../utility/pressshortlong;
#X obj 272 416 ../utility/pressshortlong;
#X obj 2422 1603 outlet~ synth;
#X obj 1 611 else/note 553 24 Inter empty 5 54 54 54 0 209 225 225 1 1 Audio Input;
#X obj 125 689 ../utility/guitarinput;
#X obj 348 879 s~ audioin;
#X obj 125 879 s pitch;
#X obj 236 879 s onset;
#X obj 1 660 else/initmess 120;
#X obj 15 1044 ../fx/fx-section;
#X obj 15 1012 r tglsw1;
#X obj 590 1012 r onset;
#X obj 741 894 r~ audioin;
#X obj 822 1012 r fs1s;
#X obj 15 1533 outlet~ FX;
#X obj 15 961 else/note 832 24 Inter empty 5 54 54 54 0 209 225 225 1 1 FX Section;
#X obj 969 1044 ../synth/sequencer-section;
#X obj 969 961 else/note 1106 24 Inter empty 5 54 54 54 0 209 225 225 1 1 Sequencer Section;
#X obj 989 1462 s \$0-midinotes;
#X obj 2240 965 else/note 485 24 Inter empty 5 54 54 54 0 209 225 225 1 1 Synth Section;
#X obj 2571 1010 r~ audioin;
#X obj 2457 1486 / 127;
#X obj 2422 1520 *~;
#X obj 2472 1034 r fs2s;
#X obj 2406 1034 r fs3s;
#X obj 2439 1010 r fs3l;
#X obj 2374 1467 *~ 4;
#X obj 2505 1010 r tglsw3;
#X obj 2374 1064 ../synth/onsetsamplersynth_v02;
#X obj 2538 1034 r tglsw2;
#X obj 969 1012 r fs2l;
#X obj 1149 1012 r~ audioin;
#X obj 1329 1012 r fs2s;
#X obj 1509 1012 r onset;
#X obj 1689 1012 r fs2l;
#X obj 672 780 inlet syntfx;
#X obj 2534 1603 s~ synth;
#X obj 661 894 r~ synth;
#X obj 661 922 *~;
#X obj 125 660 r knobgain;
#X obj 246 1012 r knobchaos;
#X obj 2050 1012 r knobchaos;
#X obj 1870 1012 r knobnotes;
#X obj 360 1012 r knobfxdw;
#X obj 130 1012 r knobfxspeed;
#X obj 2457 1455 r knobsynthvol;
#X obj 2353 997 r \$0-midinotes;
#X obj 891 894 s synthfx;
#X obj 2568 1475 r synthfx;
#X obj 2568 1534 sig~;
#X obj 2568 1507 + 1;
#X obj 2635 1058 inlet oktavswitch;
#X obj 741 928 *~;
#X obj 822 922 expr abs($f1-1);
#X obj 886 823 else/initmess 0;
#X obj -411 237 else/initmess 90;
#X obj -446 122 else/initmess 80;
#X obj 2770 1010 inlet sequencerbypass;
#X obj 2374 1021 spigot;
#X obj 2770 1058 expr abs($f1-1);
#X obj 2938 1070 else/initmess 0;
#X obj 2422 1561 cyclone/gate~ 2;
#X obj 15 1484 else/compress~;
#X obj 83 211 cnv 15 120 68 empty empty empty 20 12 0 14 #f47600 #353037 0;
#X obj 2263 997 inlet midiin;
#X msg -679 -17 create;
#X msg -620 -17 range 0 127;
#X obj -679 -50 loadbang;
#X obj -368 193 r knobsynthvol;
#X obj -379 265 r knobnotes;
#X obj -411 158 r knobchaos;
#X obj -409 87 r knobfxdw;
#X obj -395 20 r knobfxspeed;
#X obj -424 -17 r knobgain;
#X obj -510 158 param Chaos;
#X obj -510 265 param NoteDensity;
#X obj -510 193 param Synth-Volume;
#X obj -510 87 param FX-Mix;
#X obj -510 20 param FX-Speed;
#X obj -512 -17 param Gain;
#X obj -346 -17 s rknobgain;
#X obj -295 20 s rknobfxspeed;
#X obj -315 87 s rknobfxdw;
#X obj -294 265 s rknobnotes;
#X obj -320 158 s rknobchaos;
#X obj -263 193 s rknobsynthvol;
#X obj -3 -73 ../gui/title Gain;
#X obj -3 -100 r knobgain;
#X obj 18 89 note 59 16 Bahnschrift\ SemiBold gainsym 0 36 38 41 0 25 25 25 0 1 Gain;
#X obj -3 -47 s gainsym;
#X obj 112 -100 r knobfxspeed;
#X obj 222 -100 r knobfxdw;
#X obj 317 -100 r knobchaos;
#X obj 419 -100 r knobsynthvol;
#X obj 526 -100 r knobnotes;
#X obj 526 -73 ../gui/title Notes;
#X obj 112 -47 s fxspeedsym;
#X obj 317 -47 s chaossym;
#X obj 222 -47 s fxmixsym;
#X obj 419 -47 s synthsym;
#X obj 526 -47 s notessym;
#X obj 83 88 note 63 16 Bahnschrift\ SemiBold fxspeedsym 0 36 38 41 0 25 25 25 0 1 Speed;
#X obj 112 -73 ../gui/title Speed;
#X obj 222 -73 ../gui/title Mix;
#X obj 143 88 note 59 16 Bahnschrift\ SemiBold fxmixsym 0 36 38 41 0 25 25 25 0 1 Mix;
#X obj 18 180 note 59 16 Bahnschrift\ SemiBold chaossym 1 36 38 41 0 25 25 25 0 1 CHAOS;
#X obj 81 180 note 59 16 Bahnschrift\ SemiBold notessym 0 36 38 41 0 25 25 25 0 1 Notes;
#X obj 143 180 note 59 16 Bahnschrift\ SemiBold synthsym 0 36 38 41 0 25 25 25 0 1 Vol;
#X obj 419 -73 ../gui/title Vol;
#X obj 110 124 note 67 16 Arial\ Black empty 0 36 38 41 0 25 25 25 0 1 SYNTH;
#X obj 110 34 note 67 16 Arial\ Black empty 0 36 38 41 0 25 25 25 0 1 FX;
#X obj 15 34 note 67 16 Arial\ Black empty 0 36 38 41 0 25 25 25 0 1 IN;
#X obj 142 339 note 67 16 Arial\ Black empty 0 36 38 41 0 25 25 25 0 1 Freeze;
#X obj 74 339 note 67 16 Arial\ Black empty 0 36 38 41 0 25 25 25 0 1 Synth;
#X obj 7 339 note 67 16 Arial\ Black empty 0 36 38 41 0 25 25 25 0 1 FX;
#X obj 317 -73 ../gui/title CHAOS;
#X obj 58 3 note 67 20 Arial\ Black empty 0 36 38 41 0 25 25 25 0 1 echo;
#X obj 97 3 note 67 20 Arial\ Black empty 0 46 120 255 0 25 25 25 0 1 brain;
#X msg 368 106 color 255 0 15;
#X msg 473 106 color 20 231 31;
#X obj 369 8 r fs3s;
#X obj 369 38 tgl 25 0 empty empty empty 0 -10 0 10 #e4e4e4 #4d4d4d #373737 0 1;
#X obj 369 71 sel 0;
#X obj 276 53 loadbang;
#X obj 259 8 else/initmess 0;
#X obj 85 238 note 35 76 Consolas synthcol 0 255 0 15 0 25 25 25 0 1 .;
#X obj 368 146 s freezecol;
#X obj 18 238 note 35 76 Consolas fxcol 0 255 0 15 0 25 25 25 0 1 .;
#X obj 614 146 s synthcol;
#X obj 847 146 s fxcol;
#X msg 614 106 color 255 0 15;
#X msg 719 106 color 20 231 31;
#X msg 847 106 color 255 0 15;
#X msg 952 106 color 20 231 31;
#X obj 848 38 tgl 25 0 empty empty empty 0 -10 0 10 #e4e4e4 #4d4d4d #373737 0 1;
#X obj 848 71 sel 0;
#X obj 738 8 else/initmess 0;
#X obj 614 38 tgl 25 0 empty empty empty 0 -10 0 10 #e4e4e4 #4d4d4d #373737 0 1;
#X obj 614 71 sel 0;
#X obj 504 8 else/initmess 0;
#X obj 614 8 r fs2s;
#X obj 848 8 r fs1s;
#X obj 159 305 button 36 36 228 228 228 156 156 156 0;
#X obj 91 305 button 36 36 228 228 228 156 156 156 0;
#X obj 24 305 button 36 36 228 228 228 156 156 156 0;
#X obj -119 282 s rtglsw1;
#X obj -119 305 s rtglsw3;
#X obj -119 222 s rtglsw2;
#X obj 18 211 cnv 15 59 68 empty empty empty 20 12 0 14 #f2d266 #353037 0;
#X obj 153 238 note 35 76 Consolas freezecol 0 255 0 15 0 25 25 25 0 1 .;
#X obj 18 255 note 59 16 Bahnschrift\ SemiBold tglsw1sym 0 36 38 41 0 25 25 25 0 1 Pitch;
#X obj 684 -172 r tglsw1;
#X obj 684 -41 s tglsw1sym;
#X obj 684 -146 sel 0 1;
#X msg 684 -117 Pitch;
#X msg 730 -117 Delay;
#X obj 684 -91 tosymbol;
#X msg 684 -69 set \$1;
#X obj 800 -91 tosymbol;
#X msg 800 -69 set \$1;
#X obj 970 -146 sel 0 1;
#X msg 970 -117 Pitch;
#X obj 970 -91 tosymbol;
#X msg 970 -69 set \$1;
#X obj 800 -172 r tglsw2;
#X obj 800 -146 sel 0 1 2;
#X obj 970 -172 r tglsw3;
#X obj 970 -41 s tglsw3sym;
#X msg 800 -117 Sample;
#X msg 846 -117 Soft;
#X msg 887 -117 Inverse;
#X obj 800 -41 s tglsw2sym;
#X msg 1016 -117 Closest;
#X obj 85 253 note 59 16 Bahnschrift\ SemiBold tglsw2sym 0 36 38 41 0 25 25 25 0 1 Inverse;
#X obj 141 253 note 59 16 Bahnschrift\ SemiBold tglsw3sym 0 36 38 41 0 25 25 25 0 1 Pitch;
#X obj 92 238 hradio 16 1 0 3 tglsw2 rtglsw2 empty 0 -8 0 10 #e4e4e4 #4d4d4d #373737 0;
#X obj 32 238 hradio 16 1 0 2 tglsw1 rtglsw1 empty 0 -8 0 10 #e4e4e4 #4d4d4d #373737 0;
#X obj 156 238 hradio 16 1 0 2 tglsw3 rtglsw3 empty 0 -8 0 10 #e4e4e4 #4d4d4d #373737 0;
#X obj 17 214 note 62 16 Arial\ Black empty 0 36 38 41 0 25 25 25 0 1 FX Type;
#X obj 81 214 note 69 16 Arial\ Black empty 0 36 38 41 0 25 25 25 0 1 ADSR;
#X obj 138 214 note 69 16 Arial\ Black empty 0 36 38 41 0 25 25 25 0 1 Mode;
#X connect 8 0 104 1;
#X connect 8 0 105 0;
#X connect 8 0 103 1;
#X connect 8 0 106 0;
#X connect 10 0 29 1;
#X connect 11 0 107 0;
#X connect 11 0 102 1;
#X connect 12 0 172 0;
#X connect 22 0 7 0;
#X connect 22 1 4 0;
#X connect 23 0 5 0;
#X connect 23 0 7 0;
#X connect 23 0 21 0;
#X connect 24 0 170 0;
#X connect 24 0 171 0;
#X connect 25 0 5 0;
#X connect 25 1 6 0;
#X connect 26 0 21 0;
#X connect 26 1 20 0;
#X connect 29 0 31 0;
#X connect 29 1 32 0;
#X connect 29 2 30 0;
#X connect 33 0 29 0;
#X connect 34 0 87 0;
#X connect 35 0 34 0;
#X connect 36 0 34 4;
#X connect 37 0 77 0;
#X connect 38 0 34 6;
#X connect 41 0 19 0;
#X connect 41 0 43 0;
#X connect 45 0 53 7;
#X connect 46 0 47 0;
#X connect 47 0 86 1;
#X connect 48 0 53 3;
#X connect 49 0 53 1;
#X connect 50 0 53 2;
#X connect 51 0 47 1;
#X connect 52 0 53 5;
#X connect 53 0 51 0;
#X connect 54 0 53 6;
#X connect 55 0 41 0;
#X connect 56 0 41 1;
#X connect 57 0 41 2;
#X connect 58 0 41 3;
#X connect 59 0 41 4;
#X connect 60 0 63 1;
#X connect 60 0 72 0;
#X connect 60 0 78 0;
#X connect 62 0 63 0;
#X connect 63 0 34 5;
#X connect 64 0 29 0;
#X connect 65 0 34 2;
#X connect 66 0 41 6;
#X connect 67 0 41 5;
#X connect 68 0 34 3;
#X connect 69 0 34 1;
#X connect 70 0 46 0;
#X connect 71 0 83 0;
#X connect 73 0 75 0;
#X connect 74 0 86 0;
#X connect 75 0 74 0;
#X connect 76 0 53 4;
#X connect 77 0 34 5;
#X connect 78 0 77 1;
#X connect 79 0 72 0;
#X connect 79 0 78 0;
#X connect 79 0 63 1;
#X connect 80 0 100 1;
#X connect 80 0 108 0;
#X connect 81 0 99 1;
#X connect 81 0 101 1;
#X connect 81 0 109 0;
#X connect 81 0 110 0;
#X connect 82 0 84 0;
#X connect 83 0 53 0;
#X connect 84 0 83 1;
#X connect 85 0 84 0;
#X connect 86 0 27 0;
#X connect 86 1 61 0;
#X connect 87 0 39 0;
#X connect 89 0 53 0;
#X connect 90 0 103 0;
#X connect 90 0 104 0;
#X connect 90 0 100 0;
#X connect 90 0 99 0;
#X connect 90 0 101 0;
#X connect 90 0 102 0;
#X connect 91 0 103 0;
#X connect 91 0 104 0;
#X connect 91 0 100 0;
#X connect 91 0 99 0;
#X connect 91 0 101 0;
#X connect 91 0 102 0;
#X connect 92 0 90 0;
#X connect 92 0 91 0;
#X connect 93 0 101 1;
#X connect 94 0 100 1;
#X connect 95 0 99 1;
#X connect 96 0 102 1;
#X connect 97 0 103 1;
#X connect 98 0 104 1;
#X connect 99 0 109 0;
#X connect 100 0 108 0;
#X connect 101 0 110 0;
#X connect 102 0 107 0;
#X connect 103 0 106 0;
#X connect 104 0 105 0;
#X connect 111 0 114 0;
#X connect 112 0 111 0;
#X connect 115 0 127 0;
#X connect 116 0 128 0;
#X connect 117 0 140 0;
#X connect 118 0 133 0;
#X connect 119 0 120 0;
#X connect 120 0 125 0;
#X connect 127 0 121 0;
#X connect 128 0 123 0;
#X connect 133 0 124 0;
#X connect 140 0 122 0;
#X connect 143 0 151 0;
#X connect 144 0 151 0;
#X connect 145 0 146 0;
#X connect 146 0 147 0;
#X connect 147 0 143 0;
#X connect 147 1 144 0;
#X connect 148 0 143 0;
#X connect 148 0 155 0;
#X connect 148 0 157 0;
#X connect 149 0 146 0;
#X connect 155 0 153 0;
#X connect 156 0 153 0;
#X connect 157 0 154 0;
#X connect 158 0 154 0;
#X connect 159 0 160 0;
#X connect 160 0 157 0;
#X connect 160 1 158 0;
#X connect 161 0 159 0;
#X connect 162 0 163 0;
#X connect 163 0 155 0;
#X connect 163 1 156 0;
#X connect 164 0 162 0;
#X connect 165 0 162 0;
#X connect 166 0 159 0;
#X connect 167 0 26 0;
#X connect 168 0 22 0;
#X connect 169 0 25 0;
#X connect 176 0 178 0;
#X connect 178 0 179 0;
#X connect 178 1 180 0;
#X connect 179 0 181 0;
#X connect 180 0 181 0;
#X connect 181 0 182 0;
#X connect 182 0 177 0;
#X connect 183 0 184 0;
#X connect 184 0 196 0;
#X connect 185 0 186 0;
#X connect 185 1 197 0;
#X connect 186 0 187 0;
#X connect 187 0 188 0;
#X connect 188 0 192 0;
#X connect 189 0 190 0;
#X connect 190 0 193 0;
#X connect 190 1 194 0;
#X connect 190 2 195 0;
#X connect 191 0 185 0;
#X connect 193 0 183 0;
#X connect 194 0 183 0;
#X connect 195 0 183 0;
#X connect 197 0 187 0;
#X coords 0 0 1 1 220 368 1 0 0;
