#N canvas 838 66 916 847 12;
#X obj 11 682 dac~;
#X obj 10 7 ../utility/sampleplayer;
#X obj 247 278 bng 25 250 50 0 empty empty empty 17 7 0 10 #e44d28 #4d4d4d #373737;
#X text 279 277 Clear MIDI;
#X obj 247 310 bng 25 250 50 0 empty empty empty 17 7 0 10 #e471d6 #4d4d4d #373737;
#X text 279 309 Learn MIDI;
#X text 245 370 FX2: Delay;
#X obj 10 100 ../utility/audioinput 1;
#X text 245 491 M1: PitchMode;
#X text 245 513 M2: Closest Note, f 19;
#X text 245 551 Footswitch 1: Toggle FX;
#X text 245 572 Footswitch 2: Activate Synth;
#X text 245 612 Footswitch 3: Short Press - Freeze recorded Notes for Synth;
#X text 330 631 Long Press - Delete recorded Notes for Synth;
#X obj 312 9 ../utility/dsp;
#X text 245 348 FX1: Pitch;
#X text 245 419 B1: Full Sample;
#X text 245 441 B2: Soft Mode;
#X text 245 462 B2: Inverse Mode;
#X text 392 171 Extras:;
#X obj 392 195 tgl 25 0 empty empty empty 0 -10 0 10 #e4e4e4 #4d4d4d #373737 0 1;
#X text 430 194 Synth Pre/Post FX;
#X obj 10 278 pedalfrontend_v02;
#X obj 392 229 tgl 25 0 empty empty empty 0 -10 0 10 #e4e4e4 #4d4d4d #373737 0 1;
#X text 430 235 Synth OktavSwitch;
#X obj -234 7 instrument.m~;
#A saved 1;
#A saved;
#X obj -234 -97 keyboard 16 80 4 2 0 0 empty empty;
#X obj 392 265 tgl 25 0 empty empty empty 0 -10 0 10 #e4e4e4 #4d4d4d #373737 0 1;
#X text 430 271 Sequencer Bypass;
#X obj 206 682 plate.rev.m~;
#A saved 22.7906 0.616 0.586 0.406 0.492;
#A saved;
#A saved;
#A saved;
#A saved;
#A saved;
#X text 330 590 Long Press - Groove Freeze;
#X connect 1 0 7 0;
#X connect 7 0 22 0;
#X connect 20 0 22 1;
#X connect 22 0 0 0;
#X connect 22 0 0 1;
#X connect 22 2 29 0;
#X connect 23 0 22 2;
#X connect 25 0 7 0;
#X connect 26 0 25 0;
#X connect 27 0 22 3;
#X connect 29 0 0 0;
#X connect 29 0 0 1;
