#N canvas 1709 25 1317 847 8;
#X obj -1 0 cnv 15 222 370 empty empty IPF-Pedal 78 16 0 16 #e4e4e4 #373737 0;
#X obj 66 31 cnv 15 88 88 empty empty ? 39 14 0 23 #62b9b4 #f7fbff 0;
#X obj 39 215 vradio 15 1 0 3 tglsw1 pretglsw1 empty 0 -8 0 10 #e4e4e4 #4d4d4d #373737 0;
#X obj 105 215 vradio 15 1 0 3 tglsw2 pretglsw2 empty 0 -8 0 10 #e4e4e4 #4d4d4d #373737 0;
#X obj 165 215 vradio 15 1 0 3 tglsw3 pretglsw3 empty 0 -8 0 10 #e4e4e4 #4d4d4d #373737 0;
#X obj 37 278 tgl 19 0 fs1state fs1s empty 17 7 0 10 #292828 #00ff25 #373737 0 1;
#X obj 103 277 tgl 19 0 sfs2state fs2s empty 17 7 0 10 #292828 #00ff25 #373737 0 1;
#X obj 40 350 bng 14 250 50 0 empty empty empty 17 31 0 10 #e471d6 #4d4d4d #373737;
#X obj 106 349 bng 14 250 50 0 empty empty empty 17 31 0 10 #e471d6 #4d4d4d #373737;
#X obj 23 215 bng 14 250 50 0 lt11 empty empty 17 31 0 10 #e471d6 #4d4d4d #373737;
#X obj 199 6 bng 14 250 50 0 forgetmidi empty empty 17 31 0 10 #e44d28 #4d4d4d #373737;
#X msg 738 106 0;
#X msg 838 106 1;
#X msg 936 106 2;
#X obj 23 230 bng 14 250 50 0 lt12 empty empty 17 31 0 10 #e471d6 #4d4d4d #373737;
#X obj 23 246 bng 14 250 50 0 lt13 empty empty 17 31 0 10 #e471d6 #4d4d4d #373737;
#X obj 89 215 bng 14 250 50 0 lt21 empty empty 17 31 0 10 #e471d6 #4d4d4d #373737;
#X obj 89 230 bng 14 250 50 0 lt22 empty empty 17 31 0 10 #e471d6 #4d4d4d #373737;
#X obj 89 246 bng 14 250 50 0 lt21 empty empty 17 31 0 10 #e471d6 #4d4d4d #373737;
#X obj 149 215 bng 14 250 50 0 lt31 empty empty 17 31 0 10 #e471d6 #4d4d4d #373737;
#X obj 149 230 bng 14 250 50 0 lt32 empty empty 17 31 0 10 #e471d6 #4d4d4d #373737;
#X obj 149 246 bng 14 250 50 0 lt33 empty empty 17 31 0 10 #e471d6 #4d4d4d #373737;
#X obj 320 535 s fs2l;
#X obj 33 535 s fs1s;
#X obj 154 535 s fs1l;
#X obj 199 535 s fs2s;
#X obj 460 86 else/midi.learn;
#A saved;
#A saved;
#X obj 352 86 else/midi.learn;
#A saved;
#A saved;
#X obj 249 86 else/midi.learn;
#A saved;
#A saved;
#X obj 935 82 else/midi.learn;
#A saved;
#A saved;
#X obj 836 82 else/midi.learn;
#A saved;
#A saved;
#X obj 737 82 else/midi.learn;
#A saved;
#A saved;
#X obj 33 457 else/midi.learn;
#A saved;
#A saved ctlin 23 1;
#X text 182 229 M2;
#X text 182 215 M1;
#X text 182 245 M3;
#X text 56 215 FX1;
#X text 56 229 FX2;
#X text 56 245 FX3;
#X text 121 215 B1;
#X text 121 229 B2;
#X text 121 245 B3;
#X text 35 299 FX;
#X text 92 298 Synth;
#X obj 613 508 s~ guitar;
#X obj 760 475 r~ fxL;
#X obj 760 508 outlet~ L1;
#X obj 874 475 r~ synth;
#X obj 613 475 inlet~ audio;
#X obj 634 106 else/initmess 1;
#X obj 84 57 else/knob 51 0 127 0 0 knob2 knob1pre #e4e4e4 #000000 #000000 0 0 0 0 0 280 0 0 0 empty empty 0 12 -3 -15 0 1 0 0;
#X obj 946 508 outlet midinote;
#X obj 946 476 r midinote;
#X obj 169 277 tgl 19 0 fs3state fs3s empty 17 7 0 10 #292828 #00ff25 #373737 0 1;
#X obj 172 349 bng 14 250 50 0 empty empty empty 17 31 0 10 #e471d6 #4d4d4d #373737;
#X obj 485 508 s fs3l;
#X obj 364 535 s fs3s;
#X text 155 298 Freeze;
#X obj 199 457 else/midi.learn;
#A saved;
#A saved ctlin 24 1;
#X obj 364 457 else/midi.learn;
#A saved;
#A saved ctlin 25 1;
#X obj 199 483 ../utility/pressshortlong;
#X obj -91 483 else/initmess 0;
#X obj 622 341 else/initmess 0;
#X obj 622 223 else/initmess 0;
#X obj 8 130 cnv 15 95 65 empty empty FX\ Speed 20 12 0 14 #a0d8aa #353037 0;
#X obj 33 483 ../utility/pressshortlong;
#X obj 364 483 ../utility/pressshortlong;
#X obj 38 153 else/knob 35 0 127 0 0 knob5 knob2pre #e4e4e4 #000000 #000000 0 0 0 0 0 280 0 0 0 empty empty 0 12 0 -15 0 1 0 0;
#X obj 117 130 cnv 15 95 65 empty empty Notes 30 12 0 14 #e6bda4 #353037 0;
#X obj 147 153 else/knob 35 0 127 0 0 knob3 knob3pre #e4e4e4 #000000 #000000 0 0 0 0 0 280 0 0 0 empty empty 0 12 0 -15 0 1 0 0;
#X obj 249 113 s knob1pre;
#X obj 352 113 s knob2pre;
#X obj 140 105 bng 14 250 50 0 lernknob1 empty empty 17 31 0 10 #e471d6 #4d4d4d #373737;
#X obj 89 181 bng 14 250 50 0 lernknob2 empty empty 17 31 0 10 #e471d6 #4d4d4d #373737;
#X obj 198 181 bng 14 250 50 0 lernknob3 empty empty 17 31 0 10 #e471d6 #4d4d4d #373737;
#X obj 249 59 r learnknob1;
#X obj 352 59 r learnknob2;
#X obj 460 59 r learnknob3;
#X obj 249 144 else/initmess 84;
#X msg 249 31 forget;
#X obj 352 144 else/initmess 50;
#X obj 460 144 else/initmess 100;
#X obj 460 113 s knob3pre;
#X obj 249 6 r forgetmidi;
#X obj 33 319 ../utility/momentarybutton;
#X obj 99 319 ../utility/momentarybutton;
#X obj 165 319 ../utility/momentarybutton;
#X obj 35 395 r forgetmidi;
#X obj 737 57 r lt11;
#X obj 836 57 r lt12;
#X obj 935 57 r lt13;
#X msg 732 223 0;
#X msg 832 223 1;
#X msg 930 223 2;
#X obj 929 199 else/midi.learn;
#A saved;
#A saved;
#X obj 830 199 else/midi.learn;
#A saved;
#A saved;
#X obj 731 199 else/midi.learn;
#A saved;
#A saved;
#X obj 731 174 r lt21;
#X obj 830 174 r lt22;
#X obj 929 174 r lt23;
#X msg 733 341 0;
#X msg 833 341 1;
#X msg 931 341 2;
#X obj 930 317 else/midi.learn;
#A saved;
#A saved;
#X obj 831 317 else/midi.learn;
#A saved;
#A saved;
#X obj 732 317 else/midi.learn;
#A saved;
#A saved;
#X obj 732 292 r lt31;
#X obj 831 292 r lt32;
#X obj 930 292 r lt33;
#X obj 737 137 s pretglsw1;
#X obj 733 376 s pretglsw3;
#X obj 731 254 s pretglsw2;
#X obj 634 6 r forgetmidi;
#X msg 634 32 forget;
#X msg 35 419 forget;
#X text 644 437 In;
#X text 841 437 Out;
#X obj 813 475 r~ fxR;
#X obj 874 507 outlet~ R1;
#X obj 70 564 f;
#X obj 238 564 f;
#X obj 70 613 sel 1;
#X obj 81 535 r fs2state;
#X obj 70 644 s fs2s;
#X obj 249 535 r fs1state;
#X obj 238 593 sel 1;
#X obj 238 624 s fs1s;
#X obj 12 179 else/knob 16 0 127 0 63 knob4 dw1pre #e4e4e4 #000000 #000000 0 0 0 0 0 280 0 0 0 empty empty 0 12 0 -15 0 1 0 0;
#X text 5 163 D/W, f 5;
#X obj 249 230 s knob6;
#X obj 249 198 else/initmess 127;
#X obj 374 230 s knob1;
#X obj 374 198 else/initmess 84;
#X connect 7 0 32 0;
#X connect 8 0 58 0;
#X connect 11 0 109 0;
#X connect 12 0 109 0;
#X connect 13 0 109 0;
#X connect 26 0 82 0;
#X connect 27 0 71 0;
#X connect 28 0 70 0;
#X connect 29 0 13 0 32.................C.........v..........T.....;
#X connect 30 0 12 0 32.................C.........v..........T.....;
#X connect 31 0 11 0 32.................C.........v..........T.....;
#X connect 32 0 65 0;
#X connect 45 0 46 0 32.................F.........fA.........3.....;
#X connect 47 0 118 0;
#X connect 48 0 44 0 32.................7++++C.....+++++.....3.....;
#X connect 49 0 109 0;
#X connect 52 0 51 0 32.................E.........PA.........z.....;
#X connect 54 0 59 0;
#X connect 58 0 60 0;
#X connect 59 0 66 0;
#X connect 60 0 25 0;
#X connect 60 0 120 0;
#X connect 60 1 22 0;
#X connect 61 0 22 0;
#X connect 61 0 55 0;
#X connect 61 0 56 0;
#X connect 61 0 23 0;
#X connect 61 0 24 0;
#X connect 61 0 25 0;
#X connect 62 0 110 0;
#X connect 63 0 111 0;
#X connect 65 0 23 0;
#X connect 65 0 119 0;
#X connect 65 1 24 0;
#X connect 66 0 56 0 32.................G.........vA.........3.....;
#X connect 66 1 55 0 32.................H..........B.........3.....;
#X connect 75 0 28 0;
#X connect 76 0 27 0;
#X connect 77 0 26 0;
#X connect 78 0 70 0;
#X connect 79 0 28 0;
#X connect 79 0 27 0;
#X connect 79 0 26 0;
#X connect 80 0 71 0;
#X connect 81 0 82 0;
#X connect 83 0 79 0;
#X connect 84 0 65 0;
#X connect 85 0 60 0;
#X connect 86 0 66 0;
#X connect 87 0 114 0;
#X connect 88 0 31 0;
#X connect 89 0 30 0;
#X connect 90 0 29 0;
#X connect 91 0 111 0;
#X connect 92 0 111 0;
#X connect 93 0 111 0;
#X connect 94 0 93 0 32.................C.........v..........T.....;
#X connect 95 0 92 0 32.................C.........v..........T.....;
#X connect 96 0 91 0 32.................C.........v..........T.....;
#X connect 97 0 96 0;
#X connect 98 0 95 0;
#X connect 99 0 94 0;
#X connect 100 0 110 0;
#X connect 101 0 110 0;
#X connect 102 0 110 0;
#X connect 103 0 102 0 32.................C.........v..........T.....;
#X connect 104 0 101 0 32.................C.........v..........T.....;
#X connect 105 0 100 0 32.................C.........v..........T.....;
#X connect 106 0 105 0;
#X connect 107 0 104 0;
#X connect 108 0 103 0;
#X connect 112 0 113 0;
#X connect 113 0 29 0;
#X connect 113 0 30 0;
#X connect 113 0 31 0;
#X connect 113 0 94 0;
#X connect 113 0 95 0;
#X connect 113 0 96 0;
#X connect 113 0 103 0;
#X connect 113 0 104 0;
#X connect 113 0 105 0;
#X connect 114 0 59 0;
#X connect 114 0 58 0;
#X connect 114 0 32 0;
#X connect 117 0 46 0;
#X connect 119 0 121 0;
#X connect 120 0 125 0;
#X connect 121 0 123 0;
#X connect 122 0 119 1;
#X connect 124 0 120 1;
#X connect 125 0 126 0;
#X connect 130 0 129 0;
#X connect 132 0 131 0;
#X coords 0 0 1 1 220 369 1 0 0;
