#N canvas 838 66 220 368 12;
#X obj 0 0 cnv 15 220 368 empty empty empty 20 12 0 14 #b7b7b7 #373737 0;
#X obj 0 405 dac~;
#X text 237 0 Extras:;
#X obj 237 24 tgl 25 0 empty empty empty 0 -10 0 10 #e4e4e4 #4d4d4d #373737 0 1;
#X text 275 23 Synth Pre/Post FX;
#X obj 237 58 tgl 25 0 empty empty empty 0 -10 0 10 #e4e4e4 #4d4d4d #373737 0 1;
#X text 275 64 Synth OktavSwitch;
#X obj 237 94 tgl 25 0 empty empty empty 0 -10 0 10 #e4e4e4 #4d4d4d #373737 0 1;
#X text 275 100 Sequencer Bypass;
#X obj 0 -63 adc~;
#X obj 449 34 loadbang;
#X msg 489 74 limit 0;
#X obj 449 74 s lb;
#X obj 489 111 s pd;
#X obj 442 153 canvas.vis;
#X obj 442 180 s cvis;
#X obj 543 153 r lat;
#X obj 543 180 * 124;
#X obj 543 211 plugin_latency;
#X obj 98 -63 midi.in;
#X obj 98 405 midi.out;
#X obj 0 0 pedalfrontend-PlugData;
#X msg 543 74 pluginmode;
#X connect 3 0 21 1;
#X connect 5 0 21 3;
#X connect 7 0 21 4;
#X connect 9 0 21 0;
#X connect 9 1 21 0;
#X connect 10 0 11 0;
#X connect 10 0 12 0;
#X connect 10 0 22 0;
#X connect 11 0 13 0;
#X connect 14 0 15 0;
#X connect 16 0 17 0;
#X connect 17 0 18 0;
#X connect 19 0 21 2;
#X connect 21 0 1 1;
#X connect 21 0 1 0;
#X connect 21 1 20 0;
#X connect 21 2 1 1;
#X connect 21 2 1 0;
#X connect 22 0 13 0;
