#N canvas 1588 119 1433 753 12;
#X obj 1834 343 cnv 19 249 159 empty empty empty 20 12 0 12 #e0e0e0 #404040 0;
#X obj 1977 443 bng 19 250 50 0 empty empty empty 0 -10 0 12 #fcfcfc #000000 #000000;
#X obj 2171 419 adc~;
#X obj 2121 264 loadbang;
#X obj 2098 315 1;
#X msg 2171 386 set \$1;
#X floatatom 1879 443 5 0 0 0 - - - 0;
#X text 1836 441 Freq.;
#X text 1924 443 Attack;
#X floatatom 1883 382 5 0 0 0 - - - 0;
#X text 1843 382 ADC#;
#X floatatom 1973 383 5 0 0 0 - - - 0;
#X text 1935 382 CC#;
#X obj 1845 419 hsl 162 19 0 127 0 0 empty empty empty -2 -10 0 12 #fcfcfc #000000 #000000 0 1;
#X obj 2131 316 8;
#X floatatom 2015 419 5 0 0 0 - - - 0;
#X text 1841 400 Gain/dB;
#X obj 1879 678 expr pow(10.0 \, $f1/20);
#X obj 2171 471 *~;
#X obj 1879 598 / 127;
#X obj 1879 622 * 18;
#X obj 1879 646 - 12;
#X obj 2165 316 84.6;
#X obj 2064 378 vu 10 80 empty empty -1 -10 0 10 #404040 #000000 0 0;
#X obj 2272 663 env~;
#X obj 2272 691 - 88;
#X obj 1883 315 inlet input ch;
#X obj 2362 386 inlet~ sample;
#X obj 1927 355 hradio 20 1 0 2 empty empty empty 0 -8 0 10 #e4e4e4 #4d4d4d #373737 0;
#X obj 2302 400 + 1;
#X text 1887 354 ADC;
#X text 1973 354 Sample;
#X obj 1919 474 hsl 121 16 0 1 0 0 empty empty empty -2 -8 0 10 #e4e4e4 #4d4d4d #373737 0 1;
#X obj 1752 622 outlet freq;
#X obj 2429 669 outlet onset;
#X obj 2171 955 outlet~ audio;
#X text 1844 471 Threshold;
#X floatatom 2324 653 5 0 0 0 - - - 12;
#X floatatom 2154 498 5 0 0 0 - - - 12;
#X floatatom 2425 790 5 0 0 0 - - - 12;
#X msg 2411 501 @threshold \$1;
#X obj 2336 458 cyclone/selector~ 2;
#X obj 2206 317 0.8;
#X obj 1773 256 ceammc;
#X obj 2442 732 pitchdetect~ 4096 0.7;
#X obj 2584 557 an.onset~ 2048 energy;
#X obj 2266 775 spigot;
#X obj 2268 847 spigot;
#X obj 2274 734 expr if($f1<(-50) \, 0 \, 1);
#X obj 2289 817 expr if($f1>80 \, 1 \, 0);
#X obj 2263 908 spigot;
#X obj 2284 878 expr if($f1>80 \, 1 \, 0);
#X obj 2249 815 f;
#X obj 1993 275 inlet as;
#X connect 2 0 41 1;
#X connect 3 0 4 0;
#X connect 3 0 14 0;
#X connect 3 0 22 0;
#X connect 3 0 42 0;
#X connect 4 0 9 0;
#X connect 5 0 2 0;
#X connect 6 0 33 0;
#X connect 9 0 5 0;
#X connect 13 0 19 0;
#X connect 14 0 11 0;
#X connect 17 0 18 1;
#X connect 18 0 24 0;
#X connect 18 0 44 0;
#X connect 18 0 45 0;
#X connect 18 0 35 0;
#X connect 19 0 20 0;
#X connect 20 0 21 0;
#X connect 21 0 17 0;
#X connect 21 0 15 0;
#X connect 22 0 13 0;
#X connect 24 0 25 0;
#X connect 25 0 23 0;
#X connect 25 0 48 0;
#X connect 26 0 9 0;
#X connect 27 0 41 2;
#X connect 28 0 29 0;
#X connect 29 0 41 0;
#X connect 32 0 40 0;
#X connect 39 0 46 0;
#X connect 40 0 45 0;
#X connect 41 0 18 0;
#X connect 42 0 32 0;
#X connect 44 0 39 0;
#X connect 45 0 1 0;
#X connect 45 0 34 0;
#X connect 46 0 49 0;
#X connect 46 0 52 0;
#X connect 47 0 6 0;
#X connect 48 0 46 1;
#X connect 49 0 47 1;
#X connect 51 0 50 1;
#X connect 52 0 47 0;
#X connect 53 0 28 0;
#X coords 0 0 1 1 247 155 1 1835 346;
