#N canvas 1519 66 1640 905 12;
#X obj 1834 343 cnv 19 249 159 empty empty empty 20 12 0 12 #e0e0e0 #404040 0;
#X obj 2196 248 adc~;
#X obj 1775 272 loadbang;
#X obj 1845 419 hsl 162 19 0 127 0 0 empty empty empty -2 -10 0 12 #fcfcfc #000000 #000000 0 1;
#X floatatom 2015 419 5 0 0 0 - - - 0;
#X text 1841 400 Gain/dB;
#X obj 1842 594 expr pow(10.0 \, $f1/20);
#X obj 2171 471 *~;
#X obj 1842 514 / 127;
#X obj 1842 538 * 18;
#X obj 1842 562 - 12;
#X obj 1842 297 84.6;
#X obj 2064 358 vu 10 80 empty empty -1 -10 0 10 #404040 #000000 0 0;
#X obj 2113 310 env~;
#X obj 2113 352 - 88;
#X obj 2295 358 inlet~ sample;
#X obj 1927 355 hradio 20 1 0 2 empty empty empty 0 -8 0 10 #e4e4e4 #4d4d4d #373737 0;
#X obj 2170 392 + 1;
#X text 1887 354 ADC;
#X text 1973 354 Sample;
#X obj 2171 794 outlet~ audio;
#X obj 2223 322 *~ 2;
#X obj 1773 212 cyclone;
#X obj 2171 433 cyclone/selector~ 2;
#X msg 2153 200 set \$1;
#X floatatom 1928 379 5 0 0 0 - - - 0;
#X text 1888 379 ADC#;
#X obj 1673 324 else/initmess 2;
#X msg 1889 296 1;
#X connect 1 0 21 0;
#X connect 2 0 11 0;
#X connect 2 0 28 0;
#X connect 3 0 8 0;
#X connect 6 0 7 1;
#X connect 7 0 13 0;
#X connect 7 0 20 0;
#X connect 8 0 9 0;
#X connect 9 0 10 0;
#X connect 10 0 6 0;
#X connect 10 0 4 0;
#X connect 11 0 3 0;
#X connect 13 0 14 0;
#X connect 14 0 12 0;
#X connect 15 0 23 2;
#X connect 16 0 17 0;
#X connect 17 0 23 0;
#X connect 21 0 23 1;
#X connect 23 0 7 0;
#X connect 24 0 1 0;
#X connect 25 0 24 0;
#X connect 27 0 25 0;
#X connect 28 0 16 0;
#X coords 0 0 1 1 245 106 1 1835 346;
