#N canvas 1898 311 1659 905 (subpatch) 1;
#X floatatom 434 -408 5 0 0 0 - - - 12;
#X obj 296 -434 t b;
#X floatatom 296 -344 5 0 0 0 - - - 12;
#X floatatom 53 -25 5 0 0 0 - - - 12;
#X floatatom 111 -25 5 0 0 0 - - - 12;
#X floatatom 169 -25 5 0 0 0 - - - 12;
#X floatatom 227 -25 5 0 0 0 - - - 12;
#X floatatom 285 -25 5 0 0 0 - - - 12;
#X floatatom 401 -25 5 0 0 0 - - - 12;
#X floatatom 459 -25 5 0 0 0 - - - 12;
#X floatatom 517 -25 5 0 0 0 - - - 12;
#X floatatom 575 -25 5 0 0 0 - - - 12;
#X floatatom 633 -25 5 0 0 0 - - - 12;
#X floatatom 691 -25 5 0 0 0 - - - 12;
#X floatatom 749 -25 5 0 0 0 - - - 12;
#X floatatom 807 -25 5 0 0 0 - - - 12;
#X floatatom 865 -25 5 0 0 0 - - - 12;
#X floatatom 923 -25 7 0 0 0 - - - 12;
#X text 1019 173 Threshold;
#X obj 72 211 bng 31 250 50 0 empty empty empty 17 7 0 10 #e4e4e4 #4d4d4d #373737;
#X obj 130 211 bng 31 250 50 0 empty empty empty 17 7 0 10 #e4e4e4 #4d4d4d #373737;
#X obj 188 211 bng 31 250 50 0 empty empty empty 17 7 0 10 #e4e4e4 #4d4d4d #373737;
#X obj 246 211 bng 31 250 50 0 empty empty empty 17 7 0 10 #e4e4e4 #4d4d4d #373737;
#X obj 304 211 bng 31 250 50 0 empty empty empty 17 7 0 10 #e4e4e4 #4d4d4d #373737;
#X obj 362 211 bng 31 250 50 0 empty empty empty 17 7 0 10 #e4e4e4 #4d4d4d #373737;
#X obj 421 211 bng 31 250 50 0 empty empty empty 17 7 0 10 #e4e4e4 #4d4d4d #373737;
#X obj 479 211 bng 31 250 50 0 empty empty empty 17 7 0 10 #e4e4e4 #4d4d4d #373737;
#X obj 537 211 bng 31 250 50 0 empty empty empty 17 7 0 10 #e4e4e4 #4d4d4d #373737;
#X obj 595 211 bng 31 250 50 0 empty empty empty 17 7 0 10 #e4e4e4 #4d4d4d #373737;
#X obj 653 211 bng 31 250 50 0 empty empty empty 17 7 0 10 #e4e4e4 #4d4d4d #373737;
#X obj 712 211 bng 31 250 50 0 empty empty empty 17 7 0 10 #e4e4e4 #4d4d4d #373737;
#X obj 770 211 bng 31 250 50 0 empty empty empty 17 7 0 10 #e4e4e4 #4d4d4d #373737;
#X obj 828 211 bng 31 250 50 0 empty empty empty 17 7 0 10 #e4e4e4 #4d4d4d #373737;
#X obj 886 211 bng 31 250 50 0 empty empty empty 17 7 0 10 #e4e4e4 #4d4d4d #373737;
#X obj 945 211 bng 31 250 50 0 empty empty empty 17 7 0 10 #e4e4e4 #4d4d4d #373737;
#X obj 63 142 hsl 38 21 1 5 0 0 empty empty empty -2 -11 0 12 #e4e4e4 #000000 #000000 0 1;
#X obj 75 95 bng 31 250 50 0 empty empty empty 17 7 0 10 #e4e4e4 #4d4d4d #373737;
#X obj 133 95 bng 31 250 50 0 empty empty empty 17 7 0 10 #e4e4e4 #4d4d4d #373737;
#X obj 191 95 bng 31 250 50 0 empty empty empty 17 7 0 10 #e4e4e4 #4d4d4d #373737;
#X obj 249 95 bng 31 250 50 0 empty empty empty 17 7 0 10 #e4e4e4 #4d4d4d #373737;
#X obj 307 95 bng 31 250 50 0 empty empty empty 17 7 0 10 #e4e4e4 #4d4d4d #373737;
#X obj 365 95 bng 31 250 50 0 empty empty empty 17 7 0 10 #e4e4e4 #4d4d4d #373737;
#X obj 423 95 bng 31 250 50 0 empty empty empty 17 7 0 10 #e4e4e4 #4d4d4d #373737;
#X obj 481 95 bng 31 250 50 0 empty empty empty 17 7 0 10 #e4e4e4 #4d4d4d #373737;
#X obj 539 95 bng 31 250 50 0 empty empty empty 17 7 0 10 #e4e4e4 #4d4d4d #373737;
#X obj 597 95 bng 31 250 50 0 empty empty empty 17 7 0 10 #e4e4e4 #4d4d4d #373737;
#X obj 655 95 bng 31 250 50 0 empty empty empty 17 7 0 10 #e4e4e4 #4d4d4d #373737;
#X obj 713 95 bng 31 250 50 0 empty empty empty 17 7 0 10 #e4e4e4 #4d4d4d #373737;
#X obj 771 95 bng 31 250 50 0 empty empty empty 17 7 0 10 #e4e4e4 #4d4d4d #373737;
#X obj 829 95 bng 31 250 50 0 empty empty empty 17 7 0 10 #e4e4e4 #4d4d4d #373737;
#X obj 887 95 bng 31 250 50 0 empty empty empty 17 7 0 10 #e4e4e4 #4d4d4d #373737;
#X obj 945 95 bng 31 250 50 0 empty empty empty 17 7 0 10 #e4e4e4 #4d4d4d #373737;
#X floatatom 343 -25 5 0 0 0 - - - 12;
#X obj 121 142 hsl 38 21 1 5 0 0 empty empty empty -2 -11 0 12 #e4e4e4 #000000 #000000 0 1;
#X obj 179 142 hsl 38 21 1 5 0 0 empty empty empty -2 -11 0 12 #e4e4e4 #000000 #000000 0 1;
#X obj 237 142 hsl 38 21 1 5 0 0 empty empty empty -2 -11 0 12 #e4e4e4 #000000 #000000 0 1;
#X obj 295 142 hsl 38 21 1 5 0 0 empty empty empty -2 -11 0 12 #e4e4e4 #000000 #000000 0 1;
#X obj 354 142 hsl 38 21 1 5 0 0 empty empty empty -2 -11 0 12 #e4e4e4 #000000 #000000 0 1;
#X obj 412 142 hsl 38 21 1 5 0 0 empty empty empty -2 -11 0 12 #e4e4e4 #000000 #000000 0 1;
#X obj 470 142 hsl 38 21 1 5 0 0 empty empty empty -2 -11 0 12 #e4e4e4 #000000 #000000 0 1;
#X obj 528 142 hsl 38 21 1 5 0 0 empty empty empty -2 -11 0 12 #e4e4e4 #000000 #000000 0 1;
#X obj 586 142 hsl 38 21 1 5 0 0 empty empty empty -2 -11 0 12 #e4e4e4 #000000 #000000 0 1;
#X obj 645 142 hsl 38 21 1 5 0 0 empty empty empty -2 -11 0 12 #e4e4e4 #000000 #000000 0 1;
#X obj 703 142 hsl 38 21 1 5 0 0 empty empty empty -2 -11 0 12 #e4e4e4 #000000 #000000 0 1;
#X obj 761 142 hsl 38 21 1 5 0 0 empty empty empty -2 -11 0 12 #e4e4e4 #000000 #000000 0 1;
#X obj 819 142 hsl 38 21 1 5 0 0 empty empty empty -2 -11 0 12 #e4e4e4 #000000 #000000 0 1;
#X obj 877 142 hsl 38 21 1 5 0 0 empty empty empty -2 -11 0 12 #e4e4e4 #000000 #000000 0 1;
#X obj 936 142 hsl 38 21 1 5 0 0 empty empty empty -2 -11 0 12 #e4e4e4 #000000 #000000 0 1;
#X obj 434 -532 inlet gDif;
#X obj 454 6 else/note 192 24 Inter empty 5 54 54 54 0 187 187 187 1 1 IPF RHYTHM MAKER;
#X obj 53 740 outlet step;
#X obj 307 647 outlet onoff;
#X obj 1013 540 s rhythresh;
#X text 10 101 STEP;
#X text 10 157 PREF;
#X text 10 217 OUT;
#X text 84 74 1;
#X text 142 74 2;
#X text 199 74 3;
#X text 257 74 4;
#X text 315 74 5;
#X text 373 74 6;
#X text 431 74 7;
#X text 489 74 8;
#X text 547 74 9;
#X text 602 74 10;
#X text 662 75 11;
#X text 720 75 12;
#X text 777 75 13;
#X text 835 75 14;
#X text 892 75 15;
#X text 951 75 16;
#N canvas 0 0 450 250 (subpatch) 0;
#X array ipfbeatarray 16 float 2;
#X coords 0 20 16 0 905 99 1;
#X restore 70 264 graph;
#X obj 111 -285 tabwrite ipfbeatarray;
#N canvas 0 0 450 250 (subpatch) 0;
#X array ipfbeatthreshold 1 float 2;
#X coords 0 20 1 0 905 99 1;
#X restore 70 264 graph;
#X obj 1205 179 tabwrite ipfbeatthreshold;
#X text 89 311 1;
#X text 142 311 2;
#X text 197 311 3;
#X text 251 311 4;
#X text 307 311 5;
#X text 361 311 6;
#X text 416 311 7;
#X text 470 311 8;
#X text 525 311 9;
#X text 579 311 10;
#X text 639 312 11;
#X text 696 312 12;
#X text 756 312 13;
#X text 815 312 14;
#X text 876 312 15;
#X text 936 312 16;
#X obj 1233 277 inlet threshold;
#X floatatom 1041 403 5 0 0 0 - - - 12;
#X floatatom 1233 399 5 0 0 0 - - - 12;
#X obj 1233 321 expr $f1 * (20) /127;
#X obj 192 -532 inlet mode;
#X obj 192 -494 sel 0 1 2;
#X obj 53 -179 f;
#X obj 111 -179 f;
#X obj 169 -179 f;
#X obj 227 -179 f;
#X obj 285 -179 f;
#X obj 343 -179 f;
#X obj 401 -179 f;
#X obj 459 -179 f;
#X obj 517 -179 f;
#X obj 575 -179 f;
#X obj 633 -179 f;
#X obj 691 -179 f;
#X obj 749 -179 f;
#X obj 807 -179 f;
#X obj 865 -179 f;
#X obj 923 -179 f;
#X obj 434 -470 * 10;
#X obj 528 -375 sel 0 1 2 3 4 5 6 7 8 9 10 11 12 13 14 15;
#X obj 111 -325 f;
#X obj 53 -126 *;
#X obj 111 -126 *;
#X obj 169 -126 *;
#X obj 227 -126 *;
#X obj 285 -126 *;
#X obj 343 -126 *;
#X obj 401 -126 *;
#X obj 459 -126 *;
#X obj 517 -126 *;
#X obj 575 -126 *;
#X obj 633 -126 *;
#X obj 691 -126 *;
#X obj 749 -126 *;
#X obj 807 -126 *;
#X obj 865 -126 *;
#X obj 923 -126 *;
#N canvas 733 172 450 300 check 0;
#X obj 300 683 bng 25 250 50 0 empty empty empty 17 7 0 10 #e4e4e4 #4d4d4d #373737;
#X obj 339 683 bng 25 250 50 0 empty empty empty 17 7 0 10 #e4e4e4 #4d4d4d #373737;
#X obj 311 625 sel 0 1;
#X floatatom 311 591 5 0 0 0 - - - 12;
#X msg 384 706 0;
#X msg 440 708 1;
#X obj 311 550 > \$1;
#X obj 248 498 inlet float;
#X obj 400 499 inlet thresh;
#X obj 383 782 outlet onoff;
#X obj 281 782 outlet bang;
#X connect 0 0 4 0;
#X connect 1 0 5 0;
#X connect 1 0 10 0;
#X connect 2 0 0 0;
#X connect 2 1 1 0;
#X connect 3 0 2 0;
#X connect 4 0 9 0;
#X connect 5 0 9 0;
#X connect 6 0 3 0;
#X connect 7 0 6 0;
#X connect 8 0 6 1;
#X restore 53 461 pd check;
#N canvas 733 172 450 300 check 0;
#X obj 300 683 bng 25 250 50 0 empty empty empty 17 7 0 10 #e4e4e4 #4d4d4d #373737;
#X obj 339 683 bng 25 250 50 0 empty empty empty 17 7 0 10 #e4e4e4 #4d4d4d #373737;
#X obj 311 625 sel 0 1;
#X floatatom 311 591 5 0 0 0 - - - 12;
#X msg 384 706 0;
#X msg 440 708 1;
#X obj 311 550 > \$1;
#X obj 248 498 inlet float;
#X obj 400 499 inlet thresh;
#X obj 383 782 outlet onoff;
#X obj 287 782 outlet bang;
#X connect 0 0 4 0;
#X connect 1 0 5 0;
#X connect 1 0 10 0;
#X connect 2 0 0 0;
#X connect 2 1 1 0;
#X connect 3 0 2 0;
#X connect 4 0 9 0;
#X connect 5 0 9 0;
#X connect 6 0 3 0;
#X connect 7 0 6 0;
#X connect 8 0 6 1;
#X restore 169 460 pd check;
#N canvas 733 172 450 300 check 0;
#X obj 300 683 bng 25 250 50 0 empty empty empty 17 7 0 10 #e4e4e4 #4d4d4d #373737;
#X obj 339 683 bng 25 250 50 0 empty empty empty 17 7 0 10 #e4e4e4 #4d4d4d #373737;
#X obj 311 625 sel 0 1;
#X floatatom 311 591 5 0 0 0 - - - 12;
#X msg 384 706 0;
#X msg 440 708 1;
#X obj 311 550 > \$1;
#X obj 248 498 inlet float;
#X obj 400 499 inlet thresh;
#X obj 383 782 outlet onoff;
#X obj 287 782 outlet bang;
#X connect 0 0 4 0;
#X connect 1 0 5 0;
#X connect 1 0 10 0;
#X connect 2 0 0 0;
#X connect 2 1 1 0;
#X connect 3 0 2 0;
#X connect 4 0 9 0;
#X connect 5 0 9 0;
#X connect 6 0 3 0;
#X connect 7 0 6 0;
#X connect 8 0 6 1;
#X restore 227 460 pd check;
#N canvas 733 172 450 300 check 0;
#X obj 300 683 bng 25 250 50 0 empty empty empty 17 7 0 10 #e4e4e4 #4d4d4d #373737;
#X obj 339 683 bng 25 250 50 0 empty empty empty 17 7 0 10 #e4e4e4 #4d4d4d #373737;
#X obj 311 625 sel 0 1;
#X floatatom 311 591 5 0 0 0 - - - 12;
#X msg 384 706 0;
#X msg 440 708 1;
#X obj 311 550 > \$1;
#X obj 248 498 inlet float;
#X obj 400 499 inlet thresh;
#X obj 383 782 outlet onoff;
#X obj 287 782 outlet bang;
#X connect 0 0 4 0;
#X connect 1 0 5 0;
#X connect 1 0 10 0;
#X connect 2 0 0 0;
#X connect 2 1 1 0;
#X connect 3 0 2 0;
#X connect 4 0 9 0;
#X connect 5 0 9 0;
#X connect 6 0 3 0;
#X connect 7 0 6 0;
#X connect 8 0 6 1;
#X restore 285 460 pd check;
#N canvas 733 172 450 300 check 0;
#X obj 300 683 bng 25 250 50 0 empty empty empty 17 7 0 10 #e4e4e4 #4d4d4d #373737;
#X obj 339 683 bng 25 250 50 0 empty empty empty 17 7 0 10 #e4e4e4 #4d4d4d #373737;
#X obj 311 625 sel 0 1;
#X floatatom 311 591 5 0 0 0 - - - 12;
#X msg 384 706 0;
#X msg 440 708 1;
#X obj 311 550 > \$1;
#X obj 248 498 inlet float;
#X obj 400 499 inlet thresh;
#X obj 383 782 outlet onoff;
#X obj 287 782 outlet bang;
#X connect 0 0 4 0;
#X connect 1 0 5 0;
#X connect 1 0 10 0;
#X connect 2 0 0 0;
#X connect 2 1 1 0;
#X connect 3 0 2 0;
#X connect 4 0 9 0;
#X connect 5 0 9 0;
#X connect 6 0 3 0;
#X connect 7 0 6 0;
#X connect 8 0 6 1;
#X restore 343 460 pd check;
#N canvas 733 172 450 300 check 0;
#X obj 300 683 bng 25 250 50 0 empty empty empty 17 7 0 10 #e4e4e4 #4d4d4d #373737;
#X obj 339 683 bng 25 250 50 0 empty empty empty 17 7 0 10 #e4e4e4 #4d4d4d #373737;
#X obj 311 625 sel 0 1;
#X floatatom 311 591 5 0 0 0 - - - 12;
#X msg 384 706 0;
#X msg 440 708 1;
#X obj 311 550 > \$1;
#X obj 248 498 inlet float;
#X obj 400 499 inlet thresh;
#X obj 383 782 outlet onoff;
#X obj 287 782 outlet bang;
#X connect 0 0 4 0;
#X connect 1 0 5 0;
#X connect 1 0 10 0;
#X connect 2 0 0 0;
#X connect 2 1 1 0;
#X connect 3 0 2 0;
#X connect 4 0 9 0;
#X connect 5 0 9 0;
#X connect 6 0 3 0;
#X connect 7 0 6 0;
#X connect 8 0 6 1;
#X restore 401 460 pd check;
#N canvas 733 172 450 300 check 0;
#X obj 300 683 bng 25 250 50 0 empty empty empty 17 7 0 10 #e4e4e4 #4d4d4d #373737;
#X obj 339 683 bng 25 250 50 0 empty empty empty 17 7 0 10 #e4e4e4 #4d4d4d #373737;
#X obj 311 625 sel 0 1;
#X floatatom 311 591 5 0 0 0 - - - 12;
#X msg 384 706 0;
#X msg 440 708 1;
#X obj 311 550 > \$1;
#X obj 248 498 inlet float;
#X obj 400 499 inlet thresh;
#X obj 383 782 outlet onoff;
#X obj 287 782 outlet bang;
#X connect 0 0 4 0;
#X connect 1 0 5 0;
#X connect 1 0 10 0;
#X connect 2 0 0 0;
#X connect 2 1 1 0;
#X connect 3 0 2 0;
#X connect 4 0 9 0;
#X connect 5 0 9 0;
#X connect 6 0 3 0;
#X connect 7 0 6 0;
#X connect 8 0 6 1;
#X restore 459 460 pd check;
#N canvas 733 172 450 300 check 0;
#X obj 300 683 bng 25 250 50 0 empty empty empty 17 7 0 10 #e4e4e4 #4d4d4d #373737;
#X obj 339 683 bng 25 250 50 0 empty empty empty 17 7 0 10 #e4e4e4 #4d4d4d #373737;
#X obj 311 625 sel 0 1;
#X floatatom 311 591 5 0 0 0 - - - 12;
#X msg 384 706 0;
#X msg 440 708 1;
#X obj 311 550 > \$1;
#X obj 248 498 inlet float;
#X obj 400 499 inlet thresh;
#X obj 383 782 outlet onoff;
#X obj 287 782 outlet bang;
#X connect 0 0 4 0;
#X connect 1 0 5 0;
#X connect 1 0 10 0;
#X connect 2 0 0 0;
#X connect 2 1 1 0;
#X connect 3 0 2 0;
#X connect 4 0 9 0;
#X connect 5 0 9 0;
#X connect 6 0 3 0;
#X connect 7 0 6 0;
#X connect 8 0 6 1;
#X restore 517 460 pd check;
#N canvas 733 172 450 300 check 0;
#X obj 300 683 bng 25 250 50 0 empty empty empty 17 7 0 10 #e4e4e4 #4d4d4d #373737;
#X obj 339 683 bng 25 250 50 0 empty empty empty 17 7 0 10 #e4e4e4 #4d4d4d #373737;
#X obj 311 625 sel 0 1;
#X floatatom 311 591 5 0 0 0 - - - 12;
#X msg 384 706 0;
#X msg 440 708 1;
#X obj 311 550 > \$1;
#X obj 248 498 inlet float;
#X obj 400 499 inlet thresh;
#X obj 383 782 outlet onoff;
#X obj 287 782 outlet bang;
#X connect 0 0 4 0;
#X connect 1 0 5 0;
#X connect 1 0 10 0;
#X connect 2 0 0 0;
#X connect 2 1 1 0;
#X connect 3 0 2 0;
#X connect 4 0 9 0;
#X connect 5 0 9 0;
#X connect 6 0 3 0;
#X connect 7 0 6 0;
#X connect 8 0 6 1;
#X restore 575 460 pd check;
#N canvas 733 172 450 300 check 0;
#X obj 300 683 bng 25 250 50 0 empty empty empty 17 7 0 10 #e4e4e4 #4d4d4d #373737;
#X obj 339 683 bng 25 250 50 0 empty empty empty 17 7 0 10 #e4e4e4 #4d4d4d #373737;
#X obj 311 625 sel 0 1;
#X floatatom 311 591 5 0 0 0 - - - 12;
#X msg 384 706 0;
#X msg 440 708 1;
#X obj 311 550 > \$1;
#X obj 248 498 inlet float;
#X obj 400 499 inlet thresh;
#X obj 383 782 outlet onoff;
#X obj 287 782 outlet bang;
#X connect 0 0 4 0;
#X connect 1 0 5 0;
#X connect 1 0 10 0;
#X connect 2 0 0 0;
#X connect 2 1 1 0;
#X connect 3 0 2 0;
#X connect 4 0 9 0;
#X connect 5 0 9 0;
#X connect 6 0 3 0;
#X connect 7 0 6 0;
#X connect 8 0 6 1;
#X restore 633 460 pd check;
#N canvas 733 172 450 300 check 0;
#X obj 300 683 bng 25 250 50 0 empty empty empty 17 7 0 10 #e4e4e4 #4d4d4d #373737;
#X obj 339 683 bng 25 250 50 0 empty empty empty 17 7 0 10 #e4e4e4 #4d4d4d #373737;
#X obj 311 625 sel 0 1;
#X floatatom 311 591 5 0 0 0 - - - 12;
#X msg 384 706 0;
#X msg 440 708 1;
#X obj 311 550 > \$1;
#X obj 248 498 inlet float;
#X obj 400 499 inlet thresh;
#X obj 383 782 outlet onoff;
#X obj 287 782 outlet bang;
#X connect 0 0 4 0;
#X connect 1 0 5 0;
#X connect 1 0 10 0;
#X connect 2 0 0 0;
#X connect 2 1 1 0;
#X connect 3 0 2 0;
#X connect 4 0 9 0;
#X connect 5 0 9 0;
#X connect 6 0 3 0;
#X connect 7 0 6 0;
#X connect 8 0 6 1;
#X restore 691 460 pd check;
#N canvas 733 172 450 300 check 0;
#X obj 300 683 bng 25 250 50 0 empty empty empty 17 7 0 10 #e4e4e4 #4d4d4d #373737;
#X obj 339 683 bng 25 250 50 0 empty empty empty 17 7 0 10 #e4e4e4 #4d4d4d #373737;
#X obj 311 625 sel 0 1;
#X floatatom 311 591 5 0 0 0 - - - 12;
#X msg 384 706 0;
#X msg 440 708 1;
#X obj 311 550 > \$1;
#X obj 248 498 inlet float;
#X obj 400 499 inlet thresh;
#X obj 383 782 outlet onoff;
#X obj 287 782 outlet bang;
#X connect 0 0 4 0;
#X connect 1 0 5 0;
#X connect 1 0 10 0;
#X connect 2 0 0 0;
#X connect 2 1 1 0;
#X connect 3 0 2 0;
#X connect 4 0 9 0;
#X connect 5 0 9 0;
#X connect 6 0 3 0;
#X connect 7 0 6 0;
#X connect 8 0 6 1;
#X restore 749 460 pd check;
#N canvas 733 172 450 300 check 0;
#X obj 300 683 bng 25 250 50 0 empty empty empty 17 7 0 10 #e4e4e4 #4d4d4d #373737;
#X obj 339 683 bng 25 250 50 0 empty empty empty 17 7 0 10 #e4e4e4 #4d4d4d #373737;
#X obj 311 625 sel 0 1;
#X floatatom 311 591 5 0 0 0 - - - 12;
#X msg 384 706 0;
#X msg 440 708 1;
#X obj 311 550 > \$1;
#X obj 248 498 inlet float;
#X obj 400 499 inlet thresh;
#X obj 383 782 outlet onoff;
#X obj 287 782 outlet bang;
#X connect 0 0 4 0;
#X connect 1 0 5 0;
#X connect 1 0 10 0;
#X connect 2 0 0 0;
#X connect 2 1 1 0;
#X connect 3 0 2 0;
#X connect 4 0 9 0;
#X connect 5 0 9 0;
#X connect 6 0 3 0;
#X connect 7 0 6 0;
#X connect 8 0 6 1;
#X restore 807 460 pd check;
#N canvas 733 172 450 300 check 0;
#X obj 300 683 bng 25 250 50 0 empty empty empty 17 7 0 10 #e4e4e4 #4d4d4d #373737;
#X obj 339 683 bng 25 250 50 0 empty empty empty 17 7 0 10 #e4e4e4 #4d4d4d #373737;
#X obj 311 625 sel 0 1;
#X floatatom 311 591 5 0 0 0 - - - 12;
#X msg 384 706 0;
#X msg 440 708 1;
#X obj 311 550 > \$1;
#X obj 248 498 inlet float;
#X obj 400 499 inlet thresh;
#X obj 383 782 outlet onoff;
#X obj 287 782 outlet bang;
#X connect 0 0 4 0;
#X connect 1 0 5 0;
#X connect 1 0 10 0;
#X connect 2 0 0 0;
#X connect 2 1 1 0;
#X connect 3 0 2 0;
#X connect 4 0 9 0;
#X connect 5 0 9 0;
#X connect 6 0 3 0;
#X connect 7 0 6 0;
#X connect 8 0 6 1;
#X restore 865 460 pd check;
#N canvas 733 172 450 300 check 0;
#X obj 300 683 bng 25 250 50 0 empty empty empty 17 7 0 10 #e4e4e4 #4d4d4d #373737;
#X obj 339 683 bng 25 250 50 0 empty empty empty 17 7 0 10 #e4e4e4 #4d4d4d #373737;
#X obj 311 625 sel 0 1;
#X floatatom 311 591 5 0 0 0 - - - 12;
#X msg 384 706 0;
#X msg 440 708 1;
#X obj 311 550 > \$1;
#X obj 248 498 inlet float;
#X obj 400 499 inlet thresh;
#X obj 383 782 outlet onoff;
#X obj 287 782 outlet bang;
#X connect 0 0 4 0;
#X connect 1 0 5 0;
#X connect 1 0 10 0;
#X connect 2 0 0 0;
#X connect 2 1 1 0;
#X connect 3 0 2 0;
#X connect 4 0 9 0;
#X connect 5 0 9 0;
#X connect 6 0 3 0;
#X connect 7 0 6 0;
#X connect 8 0 6 1;
#X restore 936 460 pd check;
#N canvas 733 172 450 300 check 0;
#X obj 300 683 bng 25 250 50 0 empty empty empty 17 7 0 10 #e4e4e4 #4d4d4d #373737;
#X obj 339 683 bng 25 250 50 0 empty empty empty 17 7 0 10 #e4e4e4 #4d4d4d #373737;
#X obj 311 625 sel 0 1;
#X floatatom 311 591 5 0 0 0 - - - 12;
#X msg 384 706 0;
#X msg 440 708 1;
#X obj 311 550 > \$1;
#X obj 248 498 inlet float;
#X obj 400 499 inlet thresh;
#X obj 383 782 outlet onoff;
#X obj 281 782 outlet bang;
#X connect 0 0 4 0;
#X connect 1 0 5 0;
#X connect 1 0 10 0;
#X connect 2 0 0 0;
#X connect 2 1 1 0;
#X connect 3 0 2 0;
#X connect 4 0 9 0;
#X connect 5 0 9 0;
#X connect 6 0 3 0;
#X connect 7 0 6 0;
#X connect 8 0 6 1;
#X restore 106 461 pd check;
#X msg 192 -457 15;
#X msg 237 -457 11;
#X obj 584 -501 inlet reset;
#X obj 584 -470 bng 25 250 50 0 empty empty empty 17 7 0 10 #e4e4e4 #4d4d4d #373737;
#X obj 314 -480 bng 25 250 50 0 empty empty empty 17 7 0 10 #e4e4e4 #4d4d4d #373737;
#X obj 296 -401 cyclone/counter 0 15;
#X obj 1043 200 vsl 17 128 0 127 0 0 empty empty empty 0 -9 0 10 #e4e4e4 #4d4d4d #373737 0 1;
#X obj 1211 78 loadbang;
#X msg 1243 117 12;
#X msg 1037 343;
#X obj -175 50 loadbang;
#X msg -54 86 1;
#X msg -54 241 5;
#X msg -54 198 4;
#X msg -54 167 3;
#X msg -54 127 2;
#X obj 561 657 outlet velocity;
#X connect 0 0 119 1;
#X connect 0 0 133 1;
#X connect 0 0 132 1;
#X connect 0 0 131 1;
#X connect 0 0 130 1;
#X connect 0 0 129 1;
#X connect 0 0 128 1;
#X connect 0 0 127 1;
#X connect 0 0 126 1;
#X connect 0 0 125 1;
#X connect 0 0 124 1;
#X connect 0 0 123 1;
#X connect 0 0 122 1;
#X connect 0 0 121 1;
#X connect 0 0 120 1;
#X connect 0 0 118 1;
#X connect 1 0 136 0;
#X connect 1 0 2 0;
#X connect 1 0 174 0;
#X connect 2 0 93 1;
#X connect 3 0 36 0;
#X connect 3 0 153 0;
#X connect 3 0 136 1;
#X connect 4 0 37 0;
#X connect 4 0 136 1;
#X connect 4 0 168 0;
#X connect 5 0 38 0;
#X connect 5 0 154 0;
#X connect 5 0 136 1;
#X connect 6 0 39 0;
#X connect 6 0 155 0;
#X connect 6 0 136 1;
#X connect 7 0 40 0;
#X connect 7 0 156 0;
#X connect 7 0 136 1;
#X connect 8 0 42 0;
#X connect 8 0 158 0;
#X connect 8 0 136 1;
#X connect 9 0 43 0;
#X connect 9 0 159 0;
#X connect 9 0 136 1;
#X connect 10 0 44 0;
#X connect 10 0 160 0;
#X connect 10 0 136 1;
#X connect 11 0 45 0;
#X connect 11 0 161 0;
#X connect 11 0 136 1;
#X connect 12 0 46 0;
#X connect 12 0 162 0;
#X connect 12 0 136 1;
#X connect 13 0 47 0;
#X connect 13 0 163 0;
#X connect 13 0 136 1;
#X connect 14 0 48 0;
#X connect 14 0 164 0;
#X connect 14 0 136 1;
#X connect 15 0 49 0;
#X connect 15 0 165 0;
#X connect 15 0 136 1;
#X connect 16 0 50 0;
#X connect 16 0 166 0;
#X connect 16 0 136 1;
#X connect 17 0 51 0;
#X connect 17 0 167 0;
#X connect 17 0 136 1;
#X connect 19 0 35 0;
#X connect 20 0 53 0;
#X connect 21 0 54 0;
#X connect 22 0 55 0;
#X connect 23 0 56 0;
#X connect 24 0 57 0;
#X connect 25 0 58 0;
#X connect 26 0 59 0;
#X connect 27 0 60 0;
#X connect 28 0 61 0;
#X connect 29 0 62 0;
#X connect 30 0 63 0;
#X connect 31 0 64 0;
#X connect 32 0 65 0;
#X connect 33 0 66 0;
#X connect 34 0 67 0;
#X connect 35 0 137 1;
#X connect 35 0 185 0;
#X connect 52 0 41 0;
#X connect 52 0 157 0;
#X connect 52 0 136 1;
#X connect 53 0 138 1;
#X connect 53 0 185 0;
#X connect 54 0 139 1;
#X connect 54 0 185 0;
#X connect 55 0 140 1;
#X connect 55 0 185 0;
#X connect 56 0 141 1;
#X connect 56 0 185 0;
#X connect 57 0 142 1;
#X connect 57 0 185 0;
#X connect 58 0 143 1;
#X connect 58 0 185 0;
#X connect 59 0 144 1;
#X connect 59 0 185 0;
#X connect 60 0 145 1;
#X connect 60 0 185 0;
#X connect 61 0 146 1;
#X connect 61 0 185 0;
#X connect 62 0 147 1;
#X connect 62 0 185 0;
#X connect 63 0 148 1;
#X connect 63 0 185 0;
#X connect 64 0 149 1;
#X connect 64 0 185 0;
#X connect 65 0 150 1;
#X connect 65 0 185 0;
#X connect 66 0 151 1;
#X connect 66 0 185 0;
#X connect 67 0 152 1;
#X connect 67 0 185 0;
#X connect 68 0 134 0;
#X connect 112 0 115 0;
#X connect 113 0 72 0;
#X connect 113 0 153 1;
#X connect 113 0 168 1;
#X connect 113 0 167 1;
#X connect 113 0 154 1;
#X connect 113 0 155 1;
#X connect 113 0 156 1;
#X connect 113 0 157 1;
#X connect 113 0 158 1;
#X connect 113 0 159 1;
#X connect 113 0 160 1;
#X connect 113 0 161 1;
#X connect 113 0 162 1;
#X connect 113 0 163 1;
#X connect 113 0 164 1;
#X connect 113 0 165 1;
#X connect 113 0 166 1;
#X connect 114 0 175 0;
#X connect 115 0 114 0;
#X connect 116 0 117 0;
#X connect 117 0 169 0;
#X connect 117 2 170 0;
#X connect 118 0 137 0;
#X connect 119 0 138 0;
#X connect 120 0 139 0;
#X connect 121 0 140 0;
#X connect 122 0 141 0;
#X connect 123 0 142 0;
#X connect 124 0 143 0;
#X connect 125 0 144 0;
#X connect 126 0 145 0;
#X connect 127 0 146 0;
#X connect 128 0 147 0;
#X connect 129 0 148 0;
#X connect 130 0 149 0;
#X connect 131 0 150 0;
#X connect 132 0 151 0;
#X connect 133 0 152 0;
#X connect 134 0 0 0;
#X connect 134 0 1 0;
#X connect 135 0 118 0;
#X connect 135 1 119 0;
#X connect 135 2 120 0;
#X connect 135 3 121 0;
#X connect 135 4 122 0;
#X connect 135 5 123 0;
#X connect 135 6 124 0;
#X connect 135 7 125 0;
#X connect 135 8 126 0;
#X connect 135 9 127 0;
#X connect 135 10 128 0;
#X connect 135 11 129 0;
#X connect 135 12 130 0;
#X connect 135 13 131 0;
#X connect 135 14 132 0;
#X connect 135 15 133 0;
#X connect 136 0 93 0;
#X connect 137 0 3 0;
#X connect 138 0 4 0;
#X connect 139 0 5 0;
#X connect 140 0 6 0;
#X connect 141 0 7 0;
#X connect 142 0 52 0;
#X connect 143 0 8 0;
#X connect 144 0 9 0;
#X connect 145 0 10 0;
#X connect 146 0 11 0;
#X connect 147 0 12 0;
#X connect 148 0 13 0;
#X connect 149 0 14 0;
#X connect 150 0 15 0;
#X connect 151 0 16 0;
#X connect 152 0 17 0;
#X connect 153 0 19 0;
#X connect 153 0 70 0;
#X connect 153 1 71 0;
#X connect 154 0 21 0;
#X connect 154 0 70 0;
#X connect 154 1 71 0;
#X connect 155 0 22 0;
#X connect 155 0 70 0;
#X connect 155 1 71 0;
#X connect 156 0 23 0;
#X connect 156 0 70 0;
#X connect 156 1 71 0;
#X connect 157 0 24 0;
#X connect 157 0 70 0;
#X connect 157 1 71 0;
#X connect 158 0 25 0;
#X connect 158 0 70 0;
#X connect 158 1 71 0;
#X connect 159 0 26 0;
#X connect 159 0 70 0;
#X connect 159 1 71 0;
#X connect 160 0 27 0;
#X connect 160 0 70 0;
#X connect 160 1 71 0;
#X connect 161 0 28 0;
#X connect 161 0 70 0;
#X connect 161 1 71 0;
#X connect 162 0 29 0;
#X connect 162 0 70 0;
#X connect 162 1 71 0;
#X connect 163 0 30 0;
#X connect 163 0 70 0;
#X connect 163 1 71 0;
#X connect 164 0 31 0;
#X connect 164 0 70 0;
#X connect 164 1 71 0;
#X connect 165 0 32 0;
#X connect 165 0 70 0;
#X connect 165 1 71 0;
#X connect 166 0 33 0;
#X connect 166 0 70 0;
#X connect 166 1 71 0;
#X connect 167 0 34 0;
#X connect 167 0 70 0;
#X connect 167 1 71 0;
#X connect 168 0 20 0;
#X connect 169 0 174 4;
#X connect 170 0 174 4;
#X connect 171 0 172 0;
#X connect 172 0 174 2;
#X connect 173 0 1 0;
#X connect 174 0 135 0;
#X connect 174 0 2 0;
#X connect 175 0 95 0;
#X connect 175 0 113 0;
#X connect 175 0 178 0;
#X connect 176 0 177 0;
#X connect 177 0 175 0;
#X connect 179 0 180 0;
#X connect 179 0 184 0;
#X connect 179 0 183 0;
#X connect 179 0 181 0;
#X connect 179 0 182 0;
#X connect 180 0 53 0;
#X connect 180 0 55 0;
#X connect 180 0 57 0;
#X connect 180 0 59 0;
#X connect 180 0 63 0;
#X connect 180 0 65 0;
#X connect 180 0 61 0;
#X connect 180 0 67 0;
#X connect 181 0 35 0;
#X connect 182 0 60 0;
#X connect 183 0 64 0;
#X connect 183 0 56 0;
#X connect 184 0 54 0;
#X connect 184 0 58 0;
#X connect 184 0 62 0;
#X connect 184 0 66 0;
#X coords 0 0 1 1 1099 372 1 0 -1;
