#N canvas 2178 221 881 727 12;
#X obj 199 184 *;
#X obj 135 255 sel 0 1 2 3 4 5 6 7 8 9 10 11;
#X obj 135 294 f;
#X obj 161 294 f;
#X obj 188 294 f;
#X obj 215 294 f;
#X obj 241 294 f;
#X obj 268 294 f;
#X obj 295 294 f;
#X obj 322 294 f;
#X obj 348 294 f;
#X obj 375 294 f;
#X obj 402 294 f;
#X obj 430 294 f;
#X obj 135 331 pack f f f f f f f f f f f f;
#X listbox 192 374 45 0 0 0 - - - 16;
#X obj 80 331 sel 11;
#X obj 144 143 t b;
#X obj 135 215 f;
#X obj 168 189 t b;
#X obj 159 61 inlet histogram;
#X obj 32 61 inlet index;
#X obj 278 61 inlet scale;
#X obj 135 454 outlet sum;
#X obj 135 374 else/sum;
#X connect 0 0 2 1;
#X connect 0 0 12 1;
#X connect 0 0 11 1;
#X connect 0 0 10 1;
#X connect 0 0 9 1;
#X connect 0 0 8 1;
#X connect 0 0 7 1;
#X connect 0 0 6 1;
#X connect 0 0 5 1;
#X connect 0 0 4 1;
#X connect 0 0 3 1;
#X connect 0 0 13 1;
#X connect 0 0 19 0;
#X connect 1 0 2 0;
#X connect 1 1 3 0;
#X connect 1 2 4 0;
#X connect 1 3 5 0;
#X connect 1 4 6 0;
#X connect 1 5 7 0;
#X connect 1 6 8 0;
#X connect 1 7 9 0;
#X connect 1 8 10 0;
#X connect 1 9 11 0;
#X connect 1 10 12 0;
#X connect 1 11 13 0;
#X connect 2 0 14 0;
#X connect 3 0 14 1;
#X connect 4 0 14 2;
#X connect 5 0 14 3;
#X connect 6 0 14 4;
#X connect 7 0 14 5;
#X connect 8 0 14 6;
#X connect 9 0 14 7;
#X connect 10 0 14 8;
#X connect 11 0 14 9;
#X connect 12 0 14 10;
#X connect 13 0 14 11;
#X connect 14 0 15 0;
#X connect 14 0 24 0;
#X connect 16 0 14 0;
#X connect 17 0 0 0;
#X connect 18 0 1 0;
#X connect 19 0 18 0;
#X connect 20 0 0 0;
#X connect 21 0 18 1;
#X connect 21 0 16 0;
#X connect 21 0 17 0;
#X connect 22 0 0 1;
#X connect 24 0 23 0;
