#N canvas 733 172 450 300 (subpatch) 1;
#X obj 1318 806 *;
#X obj 1318 741 t b;
#X obj 1118 800 inlet threshold;
#X obj 1184 704 inlet importance;
#X obj 1408 704 inlet value;
#X obj 1359 1019 outlet onoff;
#X obj 1341 850 expr if($f1>=$f2 \, 1 \, 0);
#X floatatom 1408 735 5 0 0 0 - - - 12;
#X obj 1337 944 bng 25 250 50 0 empty empty empty 17 7 0 10 #e4e4e4 #4d4d4d #373737;
#X obj 1293 944 bng 25 250 50 0 empty empty empty 17 7 0 10 #e4e4e4 #4d4d4d #373737;
#X obj 1306 905 route 0 1;
#X obj 1276 1019 outlet bang;
#X msg 1413 979 1;
#X msg 1376 979 0;
#X floatatom 1118 844 5 0 0 0 - - - 12;
#X floatatom 1184 741 5 0 0 0 - - - 12;
#X connect 0 0 6 0;
#X connect 1 0 0 0;
#X connect 1 0 14 0;
#X connect 1 0 6 0;
#X connect 1 0 15 0;
#X connect 2 0 14 0;
#X connect 3 0 15 0;
#X connect 4 0 7 0;
#X connect 6 0 10 0;
#X connect 7 0 0 1;
#X connect 7 0 1 0;
#X connect 8 0 11 0;
#X connect 8 0 12 0;
#X connect 9 0 13 0;
#X connect 10 0 9 0;
#X connect 10 1 8 0;
#X connect 12 0 5 0;
#X connect 13 0 5 0;
#X connect 14 0 6 1;
#X connect 15 0 0 0;
