#N canvas 733 172 450 300 12;
#X obj 214 -1 cnv 15 35 63 empty empty empty 20 12 0 14 #b7b7b7 #373737 0;
#X obj 0 -1 cnv 15 214 63 empty empty empty 20 12 0 14 #e4e4e4 #373737 0;
#X obj 6 29 hsl 162 19 0 127 0 0 empty empty empty -2 -10 0 12 #fcfcfc #000000 #000000 0 1;
#X floatatom 176 29 5 0 0 0 - - - 0;
#X text 2 10 Gain/dB;
#X obj 3 166 expr pow(10.0 \, $f1/20);
#X obj 3 86 / 127;
#X obj 260 -1 inlet~ signal;
#X obj 243 199 outlet~ signal;
#X obj 279 105 *~;
#X obj 3 199 sig~;
#X obj 225 13 bng 15 250 50 0 empty empty Learn -6 -6 0 10 #e4e4e4 #4d4d4d #373737;
#X msg 277 -34 forget, f 7;
#X obj 225 41 bng 15 250 50 0 empty empty Forget -8 -6 0 10 #e4e4e4 #4d4d4d #373737;
#X obj 45 -52 inlet gain;
#X obj 3 110 * 56;
#X obj 3 134 - 50;
#X obj 221 -81 else/midi.learn;
#A saved;
#A saved;
#X connect 2 0 6 0;
#X connect 5 0 10 0;
#X connect 6 0 15 0;
#X connect 7 0 9 0;
#X connect 9 0 8 0;
#X connect 10 0 9 1;
#X connect 11 0 17 0;
#X connect 12 0 17 0;
#X connect 13 0 12 0;
#X connect 14 0 2 0;
#X connect 15 0 16 0;
#X connect 16 0 3 0;
#X connect 16 0 5 0;
#X connect 17 0 2 0;
#X coords 0 0 1 1 249 62 1 0 0;
