#N canvas 1981 90 1124 867 12;
#X obj 1834 343 cnv 19 249 159 empty empty empty 20 12 0 12 #e0e0e0 #404040 0;
#X obj 1977 443 bng 19 250 50 0 empty empty empty 0 -10 0 12 #fcfcfc #000000 #000000;
#X obj 1752 365 loadbang;
#X floatatom 1879 443 5 0 0 0 - - - 0;
#X text 1836 441 Freq.;
#X text 1924 443 Attack;
#X obj 1845 419 hsl 162 19 0 127 0 0 empty empty empty -2 -10 0 12 #fcfcfc #000000 #000000 0 1;
#X floatatom 2015 419 5 0 0 0 - - - 0;
#X text 1841 400 Gain/dB;
#X obj 1844 604 expr pow(10.0 \, $f1/20);
#X obj 2112 669 *~;
#X obj 1844 524 / 127;
#X obj 1844 548 * 18;
#X obj 1844 572 - 12;
#X obj 1752 401 84.6;
#X obj 2064 378 vu 10 80 empty empty -1 -10 0 10 #404040 #000000 0 0;
#X obj 2064 722 env~;
#X obj 2064 753 - 88;
#X obj 2143 753 expr floor($f1 + 0.5);
#X obj 1919 474 hsl 121 16 0 1 0 0 empty empty empty -2 -8 0 10 #e4e4e4 #4d4d4d #373737 0 1;
#X obj 1879 820 outlet freq;
#X obj 1914 856 outlet onset;
#X obj 2112 856 outlet~ audio;
#X text 1844 471 Threshold;
#X msg 1914 524 @threshold \$1;
#X obj 1746 258 ceammc;
#X obj 1842 292 inlet gain;
#X obj 2112 258 inlet~ audio;
#X msg 2129 515 @specdiff;
#X obj 1914 557 an.onset~ 2048;
#X obj 1914 268 initmess 0.48;
#X obj 2143 781 expr if($f1 > 20000 \, 0 \, $f1);
#X obj 2183 669 sigmund~;
#X obj 2144 815 else/midi2freq;
#X connect 2 0 14 0;
#X connect 3 0 20 0;
#X connect 6 0 11 0;
#X connect 9 0 10 1;
#X connect 10 0 16 0;
#X connect 10 0 22 0;
#X connect 10 0 29 0;
#X connect 11 0 12 0;
#X connect 12 0 13 0;
#X connect 13 0 7 0;
#X connect 13 0 9 0;
#X connect 14 0 6 0;
#X connect 16 0 17 0;
#X connect 17 0 15 0;
#X connect 18 0 31 0;
#X connect 19 0 24 0;
#X connect 24 0 29 0;
#X connect 26 0 6 0;
#X connect 27 0 10 0;
#X connect 27 0 32 0;
#X connect 28 0 29 0;
#X connect 29 0 21 0;
#X connect 29 0 1 0;
#X connect 30 0 19 0;
#X connect 31 0 33 0;
#X connect 32 0 18 0;
#X connect 33 0 3 0;
#X coords 0 0 1 1 247 160 1 1835 346;
