#N canvas 827 239 734 565 12;
#X floatatom 2344 626 6 0 0 0 - - - 16;
#X obj 2344 590 inlet alpha;
#X obj 2344 662 sig~;
#X floatatom 2126 359 6 0 0 0 - - - 16;
#X obj 2126 328 inlet gInit;
#X obj 2126 398 sig~;
#X obj 2052 1026 snapshot~;
#X floatatom 2052 1069 10 0 0 0 - - - 16;
#X obj 2519 696 phasor~ 1;
#X obj 2052 763 samphold~;
#X obj 2052 537 samphold~;
#X obj 2077 805 delwrite~ g 1;
#X obj 2202 422 delread~ g 0.0227;
#X obj 2052 693 fexpr~ $x1 - log($x1/$x2);
#X obj 1748 515 bng 25 250 50 0 empty empty empty 17 7 0 10 #e4e4e4 #4d4d4d #373737;
#N canvas 733 172 450 300 reset 1;
#X obj 1869 433 +~ 1;
#X obj 1869 537 samphold~;
#X obj 1790 593 delwrite~ fb 1;
#X obj 1790 400 delread~ fb 0.0227;
#X obj 1606 454 sig~;
#X obj 1606 417 nbx 4 18 -1e+37 1e+37 0 0 empty empty empty 0 -8 0 10 #e4e4e4 #4d4d4d #373737 0 256;
#X obj 1869 789 snapshot~;
#X floatatom 1869 832 10 0 0 0 - - - 16;
#X obj 1747 752 metro 1;
#X obj 1747 705 bng 25 250 50 0 empty empty empty 17 7 0 10 #e4e4e4 #4d4d4d #373737;
#X obj 1946 593 outlet~ counter;
#X obj 1747 246 inlet reset;
#X obj 1932 433 inlet~ phasor;
#X obj 2010 832 outlet nr;
#X obj 1584 261 bng 25 250 50 0 empty empty empty 17 7 0 10 #e4e4e4 #4d4d4d #373737;
#X msg 1605 370 1;
#X msg 1677 334 0;
#X obj 1604 334 delay 50;
#X obj 1738 473 fexpr~ if($x1==0 \, -1 \, $x2);
#X connect 0 0 18 1;
#X connect 1 0 2 0;
#X connect 1 0 6 0;
#X connect 1 0 10 0;
#X connect 3 0 0 0;
#X connect 4 0 1 1;
#X connect 4 0 18 0;
#X connect 5 0 4 0;
#X connect 6 0 7 0;
#X connect 6 0 13 0;
#X connect 8 0 6 0;
#X connect 9 0 8 0;
#X connect 11 0 9 0;
#X connect 11 0 16 0;
#X connect 11 0 17 0;
#X connect 12 0 1 1;
#X connect 14 0 16 0;
#X connect 14 0 17 0;
#X connect 15 0 5 0;
#X connect 16 0 5 0;
#X connect 17 0 15 0;
#X connect 18 0 1 0;
#X restore 1748 577 pd reset;
#X obj 2571 541 hsl 128 17 1 100 0 0 empty empty empty -2 -8 0 10 #e4e4e4 #4d4d4d #373737 0 1;
#X obj 2507 718 send~ phasor;
#X obj 1782 521 receive~ phasor;
#X obj 2104 734 receive~ phasor;
#X obj 2104 505 receive~ phasor;
#X text 2030 536 g;
#X text 2019 692 IPF;
#X text 2022 762 g+;
#X text 2326 421 g+;
#X text 2170 804 g+;
#X obj 2077 861 outlet~ g+ Sig;
#X obj 2211 977 edge~;
#X floatatom 1782 623 10 0 0 0 - - - 16;
#X obj 2052 460 fexpr~ if($x1==-0 \, $x2 \, $x3);
#X obj 1748 469 inlet reset;
#X obj 2211 922 receive~ phasor;
#X obj 2211 1007 bng 25 250 50 0 empty empty empty 17 7 0 10 #e4e4e4 #4d4d4d #373737;
#X obj 2211 949 fexpr~ if($x1<$x1[-1] \, 1 \, 0);
#X obj 2234 1072 outlet g+ Float;
#X obj 2479 541 inlet freq;
#X floatatom 2519 653 6 0 0 0 - - - 16;
#X obj 2052 611 fexpr~ if($x1/$x2 <=0 \, 0.255 \, $x1/$x2);
#X text 1980 610 log check;
#X obj 2519 600 expr floor($f1 + 0.5);
#X connect 0 0 2 0;
#X connect 1 0 0 0;
#X connect 2 0 13 1;
#X connect 2 0 37 1;
#X connect 3 0 5 0;
#X connect 4 0 3 0;
#X connect 5 0 29 1;
#X connect 6 0 7 0;
#X connect 6 0 34 0;
#X connect 8 0 17 0;
#X connect 9 0 11 0;
#X connect 9 0 6 0;
#X connect 9 0 26 0;
#X connect 10 0 37 0;
#X connect 12 0 29 2;
#X connect 13 0 9 0;
#X connect 14 0 15 0;
#X connect 15 0 29 0;
#X connect 15 1 28 0;
#X connect 16 0 39 0;
#X connect 18 0 15 1;
#X connect 19 0 9 1;
#X connect 20 0 10 1;
#X connect 27 0 32 0;
#X connect 29 0 10 0;
#X connect 30 0 14 0;
#X connect 31 0 33 0;
#X connect 32 0 6 0;
#X connect 33 0 27 0;
#X connect 35 0 39 0;
#X connect 36 0 8 0;
#X connect 37 0 13 0;
#X connect 39 0 36 0;
