#N canvas 4 14 1920 1027 12;
#X obj 927 890 bng 25 250 50 0 empty empty empty 17 7 0 10 #e4e4e4 #4d4d4d #373737;
#X obj 698 869 bng 25 250 50 0 empty empty empty 17 7 0 10 #e4e4e4 #4d4d4d #373737;
#X floatatom 927 1071 5 0 0 0 - - - 12;
#X floatatom 897 1195 5 0 0 0 - - - 12;
#X obj 897 1165 int;
#X msg 927 941 0.37;
#X floatatom 338 1033 5 0 0 0 - - - 12;
#X obj 338 1138 int;
#X floatatom 338 1195 5 0 0 0 - - - 12;
#X obj 160 799 env~;
#X obj 354 1302 hsl 128 17 0 127 0 0 empty empty empty -2 -8 0 10 #e4e4e4 #4d4d4d #373737 0 1;
#X obj 327 1248 f;
#X obj 927 987 ipf;
#X msg 1006 941 0;
#N canvas 1898 311 1659 905 (subpatch) 0;
#X floatatom 434 -408 5 0 0 0 - - - 12;
#X obj 296 -434 t b;
#X floatatom 296 -344 5 0 0 0 - - - 12;
#X floatatom 53 -25 5 0 0 0 - - - 12;
#X floatatom 111 -25 5 0 0 0 - - - 12;
#X floatatom 169 -25 5 0 0 0 - - - 12;
#X floatatom 227 -25 5 0 0 0 - - - 12;
#X floatatom 285 -25 5 0 0 0 - - - 12;
#X floatatom 401 -25 5 0 0 0 - - - 12;
#X floatatom 459 -25 5 0 0 0 - - - 12;
#X floatatom 517 -25 5 0 0 0 - - - 12;
#X floatatom 575 -25 5 0 0 0 - - - 12;
#X floatatom 633 -25 5 0 0 0 - - - 12;
#X floatatom 691 -25 5 0 0 0 - - - 12;
#X floatatom 749 -25 5 0 0 0 - - - 12;
#X floatatom 807 -25 5 0 0 0 - - - 12;
#X floatatom 865 -25 5 0 0 0 - - - 12;
#X floatatom 923 -25 7 0 0 0 - - - 12;
#X text 1019 173 Threshold;
#X obj 72 211 bng 31 250 50 0 empty empty empty 17 7 0 10 #e4e4e4 #4d4d4d #373737;
#X obj 130 211 bng 31 250 50 0 empty empty empty 17 7 0 10 #e4e4e4 #4d4d4d #373737;
#X obj 188 211 bng 31 250 50 0 empty empty empty 17 7 0 10 #e4e4e4 #4d4d4d #373737;
#X obj 246 211 bng 31 250 50 0 empty empty empty 17 7 0 10 #e4e4e4 #4d4d4d #373737;
#X obj 304 211 bng 31 250 50 0 empty empty empty 17 7 0 10 #e4e4e4 #4d4d4d #373737;
#X obj 362 211 bng 31 250 50 0 empty empty empty 17 7 0 10 #e4e4e4 #4d4d4d #373737;
#X obj 421 211 bng 31 250 50 0 empty empty empty 17 7 0 10 #e4e4e4 #4d4d4d #373737;
#X obj 479 211 bng 31 250 50 0 empty empty empty 17 7 0 10 #e4e4e4 #4d4d4d #373737;
#X obj 537 211 bng 31 250 50 0 empty empty empty 17 7 0 10 #e4e4e4 #4d4d4d #373737;
#X obj 595 211 bng 31 250 50 0 empty empty empty 17 7 0 10 #e4e4e4 #4d4d4d #373737;
#X obj 653 211 bng 31 250 50 0 empty empty empty 17 7 0 10 #e4e4e4 #4d4d4d #373737;
#X obj 712 211 bng 31 250 50 0 empty empty empty 17 7 0 10 #e4e4e4 #4d4d4d #373737;
#X obj 770 211 bng 31 250 50 0 empty empty empty 17 7 0 10 #e4e4e4 #4d4d4d #373737;
#X obj 828 211 bng 31 250 50 0 empty empty empty 17 7 0 10 #e4e4e4 #4d4d4d #373737;
#X obj 886 211 bng 31 250 50 0 empty empty empty 17 7 0 10 #e4e4e4 #4d4d4d #373737;
#X obj 945 211 bng 31 250 50 0 empty empty empty 17 7 0 10 #e4e4e4 #4d4d4d #373737;
#X obj 63 142 hsl 38 21 1 5 0 0 empty empty empty -2 -11 0 12 #e4e4e4 #000000 #000000 0 1;
#X obj 75 95 bng 31 250 50 0 empty empty empty 17 7 0 10 #e4e4e4 #4d4d4d #373737;
#X obj 133 95 bng 31 250 50 0 empty empty empty 17 7 0 10 #e4e4e4 #4d4d4d #373737;
#X obj 191 95 bng 31 250 50 0 empty empty empty 17 7 0 10 #e4e4e4 #4d4d4d #373737;
#X obj 249 95 bng 31 250 50 0 empty empty empty 17 7 0 10 #e4e4e4 #4d4d4d #373737;
#X obj 307 95 bng 31 250 50 0 empty empty empty 17 7 0 10 #e4e4e4 #4d4d4d #373737;
#X obj 365 95 bng 31 250 50 0 empty empty empty 17 7 0 10 #e4e4e4 #4d4d4d #373737;
#X obj 423 95 bng 31 250 50 0 empty empty empty 17 7 0 10 #e4e4e4 #4d4d4d #373737;
#X obj 481 95 bng 31 250 50 0 empty empty empty 17 7 0 10 #e4e4e4 #4d4d4d #373737;
#X obj 539 95 bng 31 250 50 0 empty empty empty 17 7 0 10 #e4e4e4 #4d4d4d #373737;
#X obj 597 95 bng 31 250 50 0 empty empty empty 17 7 0 10 #e4e4e4 #4d4d4d #373737;
#X obj 655 95 bng 31 250 50 0 empty empty empty 17 7 0 10 #e4e4e4 #4d4d4d #373737;
#X obj 713 95 bng 31 250 50 0 empty empty empty 17 7 0 10 #e4e4e4 #4d4d4d #373737;
#X obj 771 95 bng 31 250 50 0 empty empty empty 17 7 0 10 #e4e4e4 #4d4d4d #373737;
#X obj 829 95 bng 31 250 50 0 empty empty empty 17 7 0 10 #e4e4e4 #4d4d4d #373737;
#X obj 887 95 bng 31 250 50 0 empty empty empty 17 7 0 10 #e4e4e4 #4d4d4d #373737;
#X obj 945 95 bng 31 250 50 0 empty empty empty 17 7 0 10 #e4e4e4 #4d4d4d #373737;
#X floatatom 343 -25 5 0 0 0 - - - 12;
#X obj 121 142 hsl 38 21 1 5 0 0 empty empty empty -2 -11 0 12 #e4e4e4 #000000 #000000 0 1;
#X obj 179 142 hsl 38 21 1 5 0 0 empty empty empty -2 -11 0 12 #e4e4e4 #000000 #000000 0 1;
#X obj 237 142 hsl 38 21 1 5 0 0 empty empty empty -2 -11 0 12 #e4e4e4 #000000 #000000 0 1;
#X obj 295 142 hsl 38 21 1 5 0 0 empty empty empty -2 -11 0 12 #e4e4e4 #000000 #000000 0 1;
#X obj 354 142 hsl 38 21 1 5 0 0 empty empty empty -2 -11 0 12 #e4e4e4 #000000 #000000 0 1;
#X obj 412 142 hsl 38 21 1 5 0 0 empty empty empty -2 -11 0 12 #e4e4e4 #000000 #000000 0 1;
#X obj 470 142 hsl 38 21 1 5 0 0 empty empty empty -2 -11 0 12 #e4e4e4 #000000 #000000 0 1;
#X obj 528 142 hsl 38 21 1 5 0 0 empty empty empty -2 -11 0 12 #e4e4e4 #000000 #000000 0 1;
#X obj 586 142 hsl 38 21 1 5 0 0 empty empty empty -2 -11 0 12 #e4e4e4 #000000 #000000 0 1;
#X obj 645 142 hsl 38 21 1 5 0 0 empty empty empty -2 -11 0 12 #e4e4e4 #000000 #000000 0 1;
#X obj 703 142 hsl 38 21 1 5 0 0 empty empty empty -2 -11 0 12 #e4e4e4 #000000 #000000 0 1;
#X obj 761 142 hsl 38 21 1 5 0 0 empty empty empty -2 -11 0 12 #e4e4e4 #000000 #000000 0 1;
#X obj 819 142 hsl 38 21 1 5 0 0 empty empty empty -2 -11 0 12 #e4e4e4 #000000 #000000 0 1;
#X obj 877 142 hsl 38 21 1 5 0 0 empty empty empty -2 -11 0 12 #e4e4e4 #000000 #000000 0 1;
#X obj 936 142 hsl 38 21 1 5 0 0 empty empty empty -2 -11 0 12 #e4e4e4 #000000 #000000 0 1;
#X obj 434 -532 inlet gDif;
#X obj 454 6 else/note 192 24 Inter empty 5 54 54 54 0 187 187 187 1 1 IPF RHYTHM MAKER;
#X obj 55 643 outlet step;
#X obj 307 647 outlet onoff;
#X obj 1013 540 s rhythresh;
#X text 10 101 STEP;
#X text 10 157 PREF;
#X text 10 217 OUT;
#X text 84 74 1;
#X text 142 74 2;
#X text 199 74 3;
#X text 257 74 4;
#X text 315 74 5;
#X text 373 74 6;
#X text 431 74 7;
#X text 489 74 8;
#X text 547 74 9;
#X text 602 74 10;
#X text 662 75 11;
#X text 720 75 12;
#X text 777 75 13;
#X text 835 75 14;
#X text 892 75 15;
#X text 951 75 16;
#N canvas 0 0 450 250 (subpatch) 0;
#X array ipfbeatarray 16 float 2;
#A color 0;
#A width 2;
#X coords 0 20 16 0 905 99 1;
#X restore 70 264 graph;
#X obj 111 -285 tabwrite ipfbeatarray;
#N canvas 0 0 450 250 (subpatch) 0;
#X array ipfbeatthreshold 1 float 2;
#A color 0;
#A width 2;
#X coords 0 20 1 0 905 99 1;
#X restore 70 264 graph;
#X obj 1205 179 tabwrite ipfbeatthreshold;
#X text 89 311 1;
#X text 142 311 2;
#X text 197 311 3;
#X text 251 311 4;
#X text 307 311 5;
#X text 361 311 6;
#X text 416 311 7;
#X text 470 311 8;
#X text 525 311 9;
#X text 579 311 10;
#X text 639 312 11;
#X text 696 312 12;
#X text 756 312 13;
#X text 815 312 14;
#X text 876 312 15;
#X text 936 312 16;
#X obj 1233 277 inlet threshold;
#X floatatom 1041 403 5 0 0 0 - - - 12;
#X floatatom 1233 399 5 0 0 0 - - - 12;
#X obj 1233 321 expr $f1 * (20) /127;
#X obj 192 -494 sel 0 1 2;
#X obj 53 -179 f;
#X obj 111 -179 f;
#X obj 169 -179 f;
#X obj 227 -179 f;
#X obj 285 -179 f;
#X obj 343 -179 f;
#X obj 401 -179 f;
#X obj 459 -179 f;
#X obj 517 -179 f;
#X obj 575 -179 f;
#X obj 633 -179 f;
#X obj 691 -179 f;
#X obj 749 -179 f;
#X obj 807 -179 f;
#X obj 865 -179 f;
#X obj 923 -179 f;
#X obj 434 -470 * 10;
#X obj 528 -375 sel 0 1 2 3 4 5 6 7 8 9 10 11 12 13 14 15;
#X obj 111 -325 f;
#X obj 53 -126 *;
#X obj 111 -126 *;
#X obj 169 -126 *;
#X obj 227 -126 *;
#X obj 285 -126 *;
#X obj 343 -126 *;
#X obj 401 -126 *;
#X obj 459 -126 *;
#X obj 517 -126 *;
#X obj 575 -126 *;
#X obj 633 -126 *;
#X obj 691 -126 *;
#X obj 749 -126 *;
#X obj 807 -126 *;
#X obj 865 -126 *;
#X obj 923 -126 *;
#N canvas 733 172 450 300 check 0;
#X obj 300 683 bng 25 250 50 0 empty empty empty 17 7 0 10 #e4e4e4 #4d4d4d #373737;
#X obj 339 683 bng 25 250 50 0 empty empty empty 17 7 0 10 #e4e4e4 #4d4d4d #373737;
#X obj 311 625 sel 0 1;
#X floatatom 311 591 5 0 0 0 - - - 12;
#X msg 384 706 0;
#X msg 440 708 1;
#X obj 311 550 > \$1;
#X obj 248 498 inlet float;
#X obj 400 499 inlet thresh;
#X obj 383 782 outlet onoff;
#X obj 281 782 outlet bang;
#X connect 0 0 4 0;
#X connect 1 0 5 0;
#X connect 1 0 10 0;
#X connect 2 0 0 0;
#X connect 2 1 1 0;
#X connect 3 0 2 0;
#X connect 4 0 9 0;
#X connect 5 0 9 0;
#X connect 6 0 3 0;
#X connect 7 0 6 0;
#X connect 8 0 6 1;
#X restore 53 461 pd check;
#N canvas 733 172 450 300 check 0;
#X obj 300 683 bng 25 250 50 0 empty empty empty 17 7 0 10 #e4e4e4 #4d4d4d #373737;
#X obj 339 683 bng 25 250 50 0 empty empty empty 17 7 0 10 #e4e4e4 #4d4d4d #373737;
#X obj 311 625 sel 0 1;
#X floatatom 311 591 5 0 0 0 - - - 12;
#X msg 384 706 0;
#X msg 440 708 1;
#X obj 311 550 > \$1;
#X obj 248 498 inlet float;
#X obj 400 499 inlet thresh;
#X obj 383 782 outlet onoff;
#X obj 287 782 outlet bang;
#X connect 0 0 4 0;
#X connect 1 0 5 0;
#X connect 1 0 10 0;
#X connect 2 0 0 0;
#X connect 2 1 1 0;
#X connect 3 0 2 0;
#X connect 4 0 9 0;
#X connect 5 0 9 0;
#X connect 6 0 3 0;
#X connect 7 0 6 0;
#X connect 8 0 6 1;
#X restore 169 460 pd check;
#N canvas 733 172 450 300 check 0;
#X obj 300 683 bng 25 250 50 0 empty empty empty 17 7 0 10 #e4e4e4 #4d4d4d #373737;
#X obj 339 683 bng 25 250 50 0 empty empty empty 17 7 0 10 #e4e4e4 #4d4d4d #373737;
#X obj 311 625 sel 0 1;
#X floatatom 311 591 5 0 0 0 - - - 12;
#X msg 384 706 0;
#X msg 440 708 1;
#X obj 311 550 > \$1;
#X obj 248 498 inlet float;
#X obj 400 499 inlet thresh;
#X obj 383 782 outlet onoff;
#X obj 287 782 outlet bang;
#X connect 0 0 4 0;
#X connect 1 0 5 0;
#X connect 1 0 10 0;
#X connect 2 0 0 0;
#X connect 2 1 1 0;
#X connect 3 0 2 0;
#X connect 4 0 9 0;
#X connect 5 0 9 0;
#X connect 6 0 3 0;
#X connect 7 0 6 0;
#X connect 8 0 6 1;
#X restore 227 460 pd check;
#N canvas 733 172 450 300 check 0;
#X obj 300 683 bng 25 250 50 0 empty empty empty 17 7 0 10 #e4e4e4 #4d4d4d #373737;
#X obj 339 683 bng 25 250 50 0 empty empty empty 17 7 0 10 #e4e4e4 #4d4d4d #373737;
#X obj 311 625 sel 0 1;
#X floatatom 311 591 5 0 0 0 - - - 12;
#X msg 384 706 0;
#X msg 440 708 1;
#X obj 311 550 > \$1;
#X obj 248 498 inlet float;
#X obj 400 499 inlet thresh;
#X obj 383 782 outlet onoff;
#X obj 287 782 outlet bang;
#X connect 0 0 4 0;
#X connect 1 0 5 0;
#X connect 1 0 10 0;
#X connect 2 0 0 0;
#X connect 2 1 1 0;
#X connect 3 0 2 0;
#X connect 4 0 9 0;
#X connect 5 0 9 0;
#X connect 6 0 3 0;
#X connect 7 0 6 0;
#X connect 8 0 6 1;
#X restore 285 460 pd check;
#N canvas 733 172 450 300 check 0;
#X obj 300 683 bng 25 250 50 0 empty empty empty 17 7 0 10 #e4e4e4 #4d4d4d #373737;
#X obj 339 683 bng 25 250 50 0 empty empty empty 17 7 0 10 #e4e4e4 #4d4d4d #373737;
#X obj 311 625 sel 0 1;
#X floatatom 311 591 5 0 0 0 - - - 12;
#X msg 384 706 0;
#X msg 440 708 1;
#X obj 311 550 > \$1;
#X obj 248 498 inlet float;
#X obj 400 499 inlet thresh;
#X obj 383 782 outlet onoff;
#X obj 287 782 outlet bang;
#X connect 0 0 4 0;
#X connect 1 0 5 0;
#X connect 1 0 10 0;
#X connect 2 0 0 0;
#X connect 2 1 1 0;
#X connect 3 0 2 0;
#X connect 4 0 9 0;
#X connect 5 0 9 0;
#X connect 6 0 3 0;
#X connect 7 0 6 0;
#X connect 8 0 6 1;
#X restore 343 460 pd check;
#N canvas 733 172 450 300 check 0;
#X obj 300 683 bng 25 250 50 0 empty empty empty 17 7 0 10 #e4e4e4 #4d4d4d #373737;
#X obj 339 683 bng 25 250 50 0 empty empty empty 17 7 0 10 #e4e4e4 #4d4d4d #373737;
#X obj 311 625 sel 0 1;
#X floatatom 311 591 5 0 0 0 - - - 12;
#X msg 384 706 0;
#X msg 440 708 1;
#X obj 311 550 > \$1;
#X obj 248 498 inlet float;
#X obj 400 499 inlet thresh;
#X obj 383 782 outlet onoff;
#X obj 287 782 outlet bang;
#X connect 0 0 4 0;
#X connect 1 0 5 0;
#X connect 1 0 10 0;
#X connect 2 0 0 0;
#X connect 2 1 1 0;
#X connect 3 0 2 0;
#X connect 4 0 9 0;
#X connect 5 0 9 0;
#X connect 6 0 3 0;
#X connect 7 0 6 0;
#X connect 8 0 6 1;
#X restore 401 460 pd check;
#N canvas 733 172 450 300 check 0;
#X obj 300 683 bng 25 250 50 0 empty empty empty 17 7 0 10 #e4e4e4 #4d4d4d #373737;
#X obj 339 683 bng 25 250 50 0 empty empty empty 17 7 0 10 #e4e4e4 #4d4d4d #373737;
#X obj 311 625 sel 0 1;
#X floatatom 311 591 5 0 0 0 - - - 12;
#X msg 384 706 0;
#X msg 440 708 1;
#X obj 311 550 > \$1;
#X obj 248 498 inlet float;
#X obj 400 499 inlet thresh;
#X obj 383 782 outlet onoff;
#X obj 287 782 outlet bang;
#X connect 0 0 4 0;
#X connect 1 0 5 0;
#X connect 1 0 10 0;
#X connect 2 0 0 0;
#X connect 2 1 1 0;
#X connect 3 0 2 0;
#X connect 4 0 9 0;
#X connect 5 0 9 0;
#X connect 6 0 3 0;
#X connect 7 0 6 0;
#X connect 8 0 6 1;
#X restore 459 460 pd check;
#N canvas 733 172 450 300 check 0;
#X obj 300 683 bng 25 250 50 0 empty empty empty 17 7 0 10 #e4e4e4 #4d4d4d #373737;
#X obj 339 683 bng 25 250 50 0 empty empty empty 17 7 0 10 #e4e4e4 #4d4d4d #373737;
#X obj 311 625 sel 0 1;
#X floatatom 311 591 5 0 0 0 - - - 12;
#X msg 384 706 0;
#X msg 440 708 1;
#X obj 311 550 > \$1;
#X obj 248 498 inlet float;
#X obj 400 499 inlet thresh;
#X obj 383 782 outlet onoff;
#X obj 287 782 outlet bang;
#X connect 0 0 4 0;
#X connect 1 0 5 0;
#X connect 1 0 10 0;
#X connect 2 0 0 0;
#X connect 2 1 1 0;
#X connect 3 0 2 0;
#X connect 4 0 9 0;
#X connect 5 0 9 0;
#X connect 6 0 3 0;
#X connect 7 0 6 0;
#X connect 8 0 6 1;
#X restore 517 460 pd check;
#N canvas 733 172 450 300 check 0;
#X obj 300 683 bng 25 250 50 0 empty empty empty 17 7 0 10 #e4e4e4 #4d4d4d #373737;
#X obj 339 683 bng 25 250 50 0 empty empty empty 17 7 0 10 #e4e4e4 #4d4d4d #373737;
#X obj 311 625 sel 0 1;
#X floatatom 311 591 5 0 0 0 - - - 12;
#X msg 384 706 0;
#X msg 440 708 1;
#X obj 311 550 > \$1;
#X obj 248 498 inlet float;
#X obj 400 499 inlet thresh;
#X obj 383 782 outlet onoff;
#X obj 287 782 outlet bang;
#X connect 0 0 4 0;
#X connect 1 0 5 0;
#X connect 1 0 10 0;
#X connect 2 0 0 0;
#X connect 2 1 1 0;
#X connect 3 0 2 0;
#X connect 4 0 9 0;
#X connect 5 0 9 0;
#X connect 6 0 3 0;
#X connect 7 0 6 0;
#X connect 8 0 6 1;
#X restore 575 460 pd check;
#N canvas 733 172 450 300 check 0;
#X obj 300 683 bng 25 250 50 0 empty empty empty 17 7 0 10 #e4e4e4 #4d4d4d #373737;
#X obj 339 683 bng 25 250 50 0 empty empty empty 17 7 0 10 #e4e4e4 #4d4d4d #373737;
#X obj 311 625 sel 0 1;
#X floatatom 311 591 5 0 0 0 - - - 12;
#X msg 384 706 0;
#X msg 440 708 1;
#X obj 311 550 > \$1;
#X obj 248 498 inlet float;
#X obj 400 499 inlet thresh;
#X obj 383 782 outlet onoff;
#X obj 287 782 outlet bang;
#X connect 0 0 4 0;
#X connect 1 0 5 0;
#X connect 1 0 10 0;
#X connect 2 0 0 0;
#X connect 2 1 1 0;
#X connect 3 0 2 0;
#X connect 4 0 9 0;
#X connect 5 0 9 0;
#X connect 6 0 3 0;
#X connect 7 0 6 0;
#X connect 8 0 6 1;
#X restore 633 460 pd check;
#N canvas 733 172 450 300 check 0;
#X obj 300 683 bng 25 250 50 0 empty empty empty 17 7 0 10 #e4e4e4 #4d4d4d #373737;
#X obj 339 683 bng 25 250 50 0 empty empty empty 17 7 0 10 #e4e4e4 #4d4d4d #373737;
#X obj 311 625 sel 0 1;
#X floatatom 311 591 5 0 0 0 - - - 12;
#X msg 384 706 0;
#X msg 440 708 1;
#X obj 311 550 > \$1;
#X obj 248 498 inlet float;
#X obj 400 499 inlet thresh;
#X obj 383 782 outlet onoff;
#X obj 287 782 outlet bang;
#X connect 0 0 4 0;
#X connect 1 0 5 0;
#X connect 1 0 10 0;
#X connect 2 0 0 0;
#X connect 2 1 1 0;
#X connect 3 0 2 0;
#X connect 4 0 9 0;
#X connect 5 0 9 0;
#X connect 6 0 3 0;
#X connect 7 0 6 0;
#X connect 8 0 6 1;
#X restore 691 460 pd check;
#N canvas 733 172 450 300 check 0;
#X obj 300 683 bng 25 250 50 0 empty empty empty 17 7 0 10 #e4e4e4 #4d4d4d #373737;
#X obj 339 683 bng 25 250 50 0 empty empty empty 17 7 0 10 #e4e4e4 #4d4d4d #373737;
#X obj 311 625 sel 0 1;
#X floatatom 311 591 5 0 0 0 - - - 12;
#X msg 384 706 0;
#X msg 440 708 1;
#X obj 311 550 > \$1;
#X obj 248 498 inlet float;
#X obj 400 499 inlet thresh;
#X obj 383 782 outlet onoff;
#X obj 287 782 outlet bang;
#X connect 0 0 4 0;
#X connect 1 0 5 0;
#X connect 1 0 10 0;
#X connect 2 0 0 0;
#X connect 2 1 1 0;
#X connect 3 0 2 0;
#X connect 4 0 9 0;
#X connect 5 0 9 0;
#X connect 6 0 3 0;
#X connect 7 0 6 0;
#X connect 8 0 6 1;
#X restore 749 460 pd check;
#N canvas 733 172 450 300 check 0;
#X obj 300 683 bng 25 250 50 0 empty empty empty 17 7 0 10 #e4e4e4 #4d4d4d #373737;
#X obj 339 683 bng 25 250 50 0 empty empty empty 17 7 0 10 #e4e4e4 #4d4d4d #373737;
#X obj 311 625 sel 0 1;
#X floatatom 311 591 5 0 0 0 - - - 12;
#X msg 384 706 0;
#X msg 440 708 1;
#X obj 311 550 > \$1;
#X obj 248 498 inlet float;
#X obj 400 499 inlet thresh;
#X obj 383 782 outlet onoff;
#X obj 287 782 outlet bang;
#X connect 0 0 4 0;
#X connect 1 0 5 0;
#X connect 1 0 10 0;
#X connect 2 0 0 0;
#X connect 2 1 1 0;
#X connect 3 0 2 0;
#X connect 4 0 9 0;
#X connect 5 0 9 0;
#X connect 6 0 3 0;
#X connect 7 0 6 0;
#X connect 8 0 6 1;
#X restore 807 460 pd check;
#N canvas 733 172 450 300 check 0;
#X obj 300 683 bng 25 250 50 0 empty empty empty 17 7 0 10 #e4e4e4 #4d4d4d #373737;
#X obj 339 683 bng 25 250 50 0 empty empty empty 17 7 0 10 #e4e4e4 #4d4d4d #373737;
#X obj 311 625 sel 0 1;
#X floatatom 311 591 5 0 0 0 - - - 12;
#X msg 384 706 0;
#X msg 440 708 1;
#X obj 311 550 > \$1;
#X obj 248 498 inlet float;
#X obj 400 499 inlet thresh;
#X obj 383 782 outlet onoff;
#X obj 287 782 outlet bang;
#X connect 0 0 4 0;
#X connect 1 0 5 0;
#X connect 1 0 10 0;
#X connect 2 0 0 0;
#X connect 2 1 1 0;
#X connect 3 0 2 0;
#X connect 4 0 9 0;
#X connect 5 0 9 0;
#X connect 6 0 3 0;
#X connect 7 0 6 0;
#X connect 8 0 6 1;
#X restore 865 460 pd check;
#N canvas 733 172 450 300 check 0;
#X obj 300 683 bng 25 250 50 0 empty empty empty 17 7 0 10 #e4e4e4 #4d4d4d #373737;
#X obj 339 683 bng 25 250 50 0 empty empty empty 17 7 0 10 #e4e4e4 #4d4d4d #373737;
#X obj 311 625 sel 0 1;
#X floatatom 311 591 5 0 0 0 - - - 12;
#X msg 384 706 0;
#X msg 440 708 1;
#X obj 311 550 > \$1;
#X obj 248 498 inlet float;
#X obj 400 499 inlet thresh;
#X obj 383 782 outlet onoff;
#X obj 287 782 outlet bang;
#X connect 0 0 4 0;
#X connect 1 0 5 0;
#X connect 1 0 10 0;
#X connect 2 0 0 0;
#X connect 2 1 1 0;
#X connect 3 0 2 0;
#X connect 4 0 9 0;
#X connect 5 0 9 0;
#X connect 6 0 3 0;
#X connect 7 0 6 0;
#X connect 8 0 6 1;
#X restore 936 460 pd check;
#N canvas 733 172 450 300 check 0;
#X obj 300 683 bng 25 250 50 0 empty empty empty 17 7 0 10 #e4e4e4 #4d4d4d #373737;
#X obj 339 683 bng 25 250 50 0 empty empty empty 17 7 0 10 #e4e4e4 #4d4d4d #373737;
#X obj 311 625 sel 0 1;
#X floatatom 311 591 5 0 0 0 - - - 12;
#X msg 384 706 0;
#X msg 440 708 1;
#X obj 311 550 > \$1;
#X obj 248 498 inlet float;
#X obj 400 499 inlet thresh;
#X obj 383 782 outlet onoff;
#X obj 281 782 outlet bang;
#X connect 0 0 4 0;
#X connect 1 0 5 0;
#X connect 1 0 10 0;
#X connect 2 0 0 0;
#X connect 2 1 1 0;
#X connect 3 0 2 0;
#X connect 4 0 9 0;
#X connect 5 0 9 0;
#X connect 6 0 3 0;
#X connect 7 0 6 0;
#X connect 8 0 6 1;
#X restore 106 461 pd check;
#X msg 192 -457 15;
#X msg 237 -457 11;
#X obj 584 -501 inlet reset;
#X obj 584 -470 bng 25 250 50 0 empty empty empty 17 7 0 10 #e4e4e4 #4d4d4d #373737;
#X obj 314 -480 bng 25 250 50 0 empty empty empty 17 7 0 10 #e4e4e4 #4d4d4d #373737;
#X obj 296 -401 cyclone/counter 0 15;
#X obj 1043 200 vsl 17 128 0 127 0 0 empty empty empty 0 -9 0 10 #e4e4e4 #4d4d4d #373737 0 1;
#X obj 1211 78 loadbang;
#X msg 1243 117 12;
#X msg 1037 343;
#X obj -175 50 loadbang;
#X msg -54 86 1;
#X msg -54 241 5;
#X msg -54 198 4;
#X msg -54 167 3;
#X msg -54 127 2;
#X obj 561 657 outlet velocity;
#X obj 192 -532 inlet steps;
#X connect 0 0 118 1;
#X connect 0 0 132 1;
#X connect 0 0 131 1;
#X connect 0 0 130 1;
#X connect 0 0 129 1;
#X connect 0 0 128 1;
#X connect 0 0 127 1;
#X connect 0 0 126 1;
#X connect 0 0 125 1;
#X connect 0 0 124 1;
#X connect 0 0 123 1;
#X connect 0 0 122 1;
#X connect 0 0 121 1;
#X connect 0 0 120 1;
#X connect 0 0 119 1;
#X connect 0 0 117 1;
#X connect 1 0 135 0;
#X connect 1 0 2 0;
#X connect 1 0 173 0;
#X connect 2 0 93 1;
#X connect 3 0 36 0;
#X connect 3 0 152 0;
#X connect 3 0 135 1;
#X connect 4 0 37 0;
#X connect 4 0 135 1;
#X connect 4 0 167 0;
#X connect 5 0 38 0;
#X connect 5 0 153 0;
#X connect 5 0 135 1;
#X connect 6 0 39 0;
#X connect 6 0 154 0;
#X connect 6 0 135 1;
#X connect 7 0 40 0;
#X connect 7 0 155 0;
#X connect 7 0 135 1;
#X connect 8 0 42 0;
#X connect 8 0 157 0;
#X connect 8 0 135 1;
#X connect 9 0 43 0;
#X connect 9 0 158 0;
#X connect 9 0 135 1;
#X connect 10 0 44 0;
#X connect 10 0 159 0;
#X connect 10 0 135 1;
#X connect 11 0 45 0;
#X connect 11 0 160 0;
#X connect 11 0 135 1;
#X connect 12 0 46 0;
#X connect 12 0 161 0;
#X connect 12 0 135 1;
#X connect 13 0 47 0;
#X connect 13 0 162 0;
#X connect 13 0 135 1;
#X connect 14 0 48 0;
#X connect 14 0 163 0;
#X connect 14 0 135 1;
#X connect 15 0 49 0;
#X connect 15 0 164 0;
#X connect 15 0 135 1;
#X connect 16 0 50 0;
#X connect 16 0 165 0;
#X connect 16 0 135 1;
#X connect 17 0 51 0;
#X connect 17 0 166 0;
#X connect 17 0 135 1;
#X connect 19 0 35 0;
#X connect 20 0 53 0;
#X connect 21 0 54 0;
#X connect 22 0 55 0;
#X connect 23 0 56 0;
#X connect 24 0 57 0;
#X connect 25 0 58 0;
#X connect 26 0 59 0;
#X connect 27 0 60 0;
#X connect 28 0 61 0;
#X connect 29 0 62 0;
#X connect 30 0 63 0;
#X connect 31 0 64 0;
#X connect 32 0 65 0;
#X connect 33 0 66 0;
#X connect 34 0 67 0;
#X connect 35 0 136 1;
#X connect 35 0 184 0;
#X connect 52 0 41 0;
#X connect 52 0 156 0;
#X connect 52 0 135 1;
#X connect 53 0 137 1;
#X connect 53 0 184 0;
#X connect 54 0 138 1;
#X connect 54 0 184 0;
#X connect 55 0 139 1;
#X connect 55 0 184 0;
#X connect 56 0 140 1;
#X connect 56 0 184 0;
#X connect 57 0 141 1;
#X connect 57 0 184 0;
#X connect 58 0 142 1;
#X connect 58 0 184 0;
#X connect 59 0 143 1;
#X connect 59 0 184 0;
#X connect 60 0 144 1;
#X connect 60 0 184 0;
#X connect 61 0 145 1;
#X connect 61 0 184 0;
#X connect 62 0 146 1;
#X connect 62 0 184 0;
#X connect 63 0 147 1;
#X connect 63 0 184 0;
#X connect 64 0 148 1;
#X connect 64 0 184 0;
#X connect 65 0 149 1;
#X connect 65 0 184 0;
#X connect 66 0 150 1;
#X connect 66 0 184 0;
#X connect 67 0 151 1;
#X connect 67 0 184 0;
#X connect 68 0 133 0;
#X connect 112 0 115 0;
#X connect 113 0 72 0;
#X connect 113 0 152 1;
#X connect 113 0 167 1;
#X connect 113 0 166 1;
#X connect 113 0 153 1;
#X connect 113 0 154 1;
#X connect 113 0 155 1;
#X connect 113 0 156 1;
#X connect 113 0 157 1;
#X connect 113 0 158 1;
#X connect 113 0 159 1;
#X connect 113 0 160 1;
#X connect 113 0 161 1;
#X connect 113 0 162 1;
#X connect 113 0 163 1;
#X connect 113 0 164 1;
#X connect 113 0 165 1;
#X connect 114 0 174 0;
#X connect 115 0 114 0;
#X connect 116 0 168 0;
#X connect 116 2 169 0;
#X connect 117 0 136 0;
#X connect 118 0 137 0;
#X connect 119 0 138 0;
#X connect 120 0 139 0;
#X connect 121 0 140 0;
#X connect 122 0 141 0;
#X connect 123 0 142 0;
#X connect 124 0 143 0;
#X connect 125 0 144 0;
#X connect 126 0 145 0;
#X connect 127 0 146 0;
#X connect 128 0 147 0;
#X connect 129 0 148 0;
#X connect 130 0 149 0;
#X connect 131 0 150 0;
#X connect 132 0 151 0;
#X connect 133 0 0 0;
#X connect 133 0 1 0;
#X connect 134 0 117 0;
#X connect 134 1 118 0;
#X connect 134 2 119 0;
#X connect 134 3 120 0;
#X connect 134 4 121 0;
#X connect 134 5 122 0;
#X connect 134 6 123 0;
#X connect 134 7 124 0;
#X connect 134 8 125 0;
#X connect 134 9 126 0;
#X connect 134 10 127 0;
#X connect 134 11 128 0;
#X connect 134 12 129 0;
#X connect 134 13 130 0;
#X connect 134 14 131 0;
#X connect 134 15 132 0;
#X connect 135 0 93 0;
#X connect 136 0 3 0;
#X connect 137 0 4 0;
#X connect 138 0 5 0;
#X connect 139 0 6 0;
#X connect 140 0 7 0;
#X connect 141 0 52 0;
#X connect 142 0 8 0;
#X connect 143 0 9 0;
#X connect 144 0 10 0;
#X connect 145 0 11 0;
#X connect 146 0 12 0;
#X connect 147 0 13 0;
#X connect 148 0 14 0;
#X connect 149 0 15 0;
#X connect 150 0 16 0;
#X connect 151 0 17 0;
#X connect 152 0 19 0;
#X connect 152 0 70 0;
#X connect 152 1 71 0;
#X connect 153 0 21 0;
#X connect 153 0 70 0;
#X connect 153 1 71 0;
#X connect 154 0 22 0;
#X connect 154 0 70 0;
#X connect 154 1 71 0;
#X connect 155 0 23 0;
#X connect 155 0 70 0;
#X connect 155 1 71 0;
#X connect 156 0 24 0;
#X connect 156 0 70 0;
#X connect 156 1 71 0;
#X connect 157 0 25 0;
#X connect 157 0 70 0;
#X connect 157 1 71 0;
#X connect 158 0 26 0;
#X connect 158 0 70 0;
#X connect 158 1 71 0;
#X connect 159 0 27 0;
#X connect 159 0 70 0;
#X connect 159 1 71 0;
#X connect 160 0 28 0;
#X connect 160 0 70 0;
#X connect 160 1 71 0;
#X connect 161 0 29 0;
#X connect 161 0 70 0;
#X connect 161 1 71 0;
#X connect 162 0 30 0;
#X connect 162 0 70 0;
#X connect 162 1 71 0;
#X connect 163 0 31 0;
#X connect 163 0 70 0;
#X connect 163 1 71 0;
#X connect 164 0 32 0;
#X connect 164 0 70 0;
#X connect 164 1 71 0;
#X connect 165 0 33 0;
#X connect 165 0 70 0;
#X connect 165 1 71 0;
#X connect 166 0 34 0;
#X connect 166 0 70 0;
#X connect 166 1 71 0;
#X connect 167 0 20 0;
#X connect 168 0 173 4;
#X connect 169 0 173 4;
#X connect 170 0 171 0;
#X connect 171 0 173 2;
#X connect 172 0 1 0;
#X connect 173 0 134 0;
#X connect 173 0 2 0;
#X connect 174 0 95 0;
#X connect 174 0 113 0;
#X connect 174 0 177 0;
#X connect 175 0 176 0;
#X connect 176 0 174 0;
#X connect 178 0 179 0;
#X connect 178 0 183 0;
#X connect 178 0 182 0;
#X connect 178 0 180 0;
#X connect 178 0 181 0;
#X connect 179 0 53 0;
#X connect 179 0 55 0;
#X connect 179 0 57 0;
#X connect 179 0 59 0;
#X connect 179 0 63 0;
#X connect 179 0 65 0;
#X connect 179 0 61 0;
#X connect 179 0 67 0;
#X connect 180 0 35 0;
#X connect 181 0 60 0;
#X connect 182 0 64 0;
#X connect 182 0 56 0;
#X connect 183 0 54 0;
#X connect 183 0 58 0;
#X connect 183 0 62 0;
#X connect 183 0 66 0;
#X connect 185 0 116 0;
#X coords 0 0 1 1 1082 368 1 0 -1;
#X restore 13 7 pd;
#X obj -1 396 bng 25 250 50 0 empty empty empty 17 7 0 10 #e4e4e4 #4d4d4d #373737;
#X obj 1072 919 bng 25 250 50 0 empty empty empty 17 7 0 10 #e4e4e4 #4d4d4d #373737;
#X obj 698 832 inlet beat;
#X obj 160 756 inlet~ audio;
#X obj 897 700 inlet start;
#X obj 1116 700 inlet alpha;
#X msg 1116 798 set \$1;
#X obj 1099 -63 inlet threshold;
#X obj 1116 762 expr $f1 * (0.49 - 0.37) /127 + 0.37;
#X obj 1099 -33 expr abs($f1-127);
#X floatatom 862 1102 5 0 0 0 - - - 12;
#X obj 862 1071 t b;
#X obj 927 1102 % 12;
#X obj 351 1340 expr if($f1 != 0 \, 1 \, 0);
#X obj 1116 731 expr abs($f1-127);
#X obj 338 977 expr if(isinf($f1) \, 0 \, $f1);
#X obj 338 1010 spigot;
#X obj 431 898 bng 25 250 50 0 empty empty empty 17 7 0 10 #e4e4e4 #4d4d4d #373737;
#X obj 338 1113 f;
#X obj 431 939 del 20;
#X obj 160 956 timer;
#X obj 160 924 bng 25 250 50 0 empty empty empty 17 7 0 10 #e4e4e4 #4d4d4d #373737;
#X obj 160 897 sel 1 0;
#X obj 160 866 change;
#X obj 188 924 bng 25 250 50 0 empty empty empty 17 7 0 10 #e4e4e4 #4d4d4d #373737;
#X floatatom 160 982 5 0 0 0 - - - 12;
#X obj 160 840 > 50;
#X obj 351 1269 expr if($f1<36 \, 0 \, $f1);
#X obj 160 1039 sel 1 0;
#X obj 160 1070 bng 25 250 50 0 empty empty empty 17 7 0 10 #e4e4e4 #4d4d4d #373737;
#X obj 160 1010 > 10000;
#X obj -1 437 s step;
#X obj 1074 402 s velocity;
#X obj 761 1160 r velocity;
#X floatatom 760 1189 5 0 0 0 - - - 12;
#X obj 744 1255 *;
#X obj 896 1276 spigot;
#X obj 919 1249 expr if(($f1 < 0) || ($f1 > 127) \, 0 \, 1);
#X obj 836 1277 r step;
#X obj 887 1321 f;
#X obj 758 1225 expr 60+(67/5)*$f1;
#X msg 589 1301 1;
#X obj 501 1360 hradio 20 1 0 2 empty empty empty 0 -8 0 10 #e4e4e4 #4d4d4d #373737 0;
#X msg 919 1379 0;
#X obj 899 1464 pack;
#X obj 899 1525 outlet midiunpitched;
#X obj 13 -36 inlet steps;
#X obj 500 1331 else/initmess 1;
#X obj 507 1411 else/selector;
#X obj 927 1045 * 10;
#X obj 897 1137 -;
#X obj 348 799 sigmund~ -npts 4096;
#X obj 388 1113 spigot;
#X obj 433 1076 expr if(isinf($f1) \, 0 \, 1);
#X obj 394 1010 > 0;
#X obj 406 1161 != -1500;
#X obj 338 1165 spigot;
#X floatatom 338 1083 5 0 0 0 - - - 12;
#X obj 887 1421 poly 8;
#X obj 690 1113 expr 105-$f1;
#X obj 338 1058 else/mov.avg 5;
#X obj 403 869 ../utility/onset;
#X obj 766 973 else/rand.f 0.37 1.5;
#X obj 727 1033 inlet centernotemode;
#X obj 693 1070 selector;
#X obj 907 1353 pipe 1500;
#X obj 709 -106 inlet reset;
#X obj 709 -33 sel 1;
#X msg 727 -70 1;
#X connect 0 0 12 4;
#X connect 0 0 13 0;
#X connect 0 0 5 0;
#X connect 0 0 77 0;
#X connect 1 0 11 0;
#X connect 1 0 10 0;
#X connect 2 0 27 0;
#X connect 3 0 51 0;
#X connect 3 0 52 0;
#X connect 4 0 3 0;
#X connect 5 0 12 2;
#X connect 6 0 75 0;
#X connect 7 0 70 0;
#X connect 7 0 71 0;
#X connect 8 0 11 1;
#X connect 8 0 74 0;
#X connect 8 0 79 0;
#X connect 9 0 41 0;
#X connect 9 0 42 0;
#X connect 10 0 28 0;
#X connect 12 0 64 0;
#X connect 12 0 14 1;
#X connect 13 0 12 3;
#X connect 14 0 15 0;
#X connect 14 2 47 0;
#X connect 15 0 46 0;
#X connect 16 0 12 0;
#X connect 17 0 1 0;
#X connect 17 0 12 0;
#X connect 18 0 9 0;
#X connect 18 0 66 0;
#X connect 18 0 76 0;
#X connect 19 0 0 0;
#X connect 20 0 29 0;
#X connect 21 0 5 0;
#X connect 22 0 24 0;
#X connect 23 0 21 0;
#X connect 23 0 0 0;
#X connect 24 0 14 3;
#X connect 25 0 65 0;
#X connect 26 0 25 0;
#X connect 27 0 65 1;
#X connect 28 0 63 0;
#X connect 29 0 23 0;
#X connect 30 0 69 0;
#X connect 30 0 31 0;
#X connect 31 0 6 0;
#X connect 32 0 34 0;
#X connect 33 0 7 0;
#X connect 34 0 33 0;
#X connect 35 0 40 0;
#X connect 36 0 35 0;
#X connect 37 0 39 0;
#X connect 37 1 36 0;
#X connect 38 0 37 0;
#X connect 39 0 35 1;
#X connect 40 0 45 0;
#X connect 41 0 38 0;
#X connect 42 0 10 0;
#X connect 43 0 44 0;
#X connect 44 0 14 2;
#X connect 45 0 43 0;
#X connect 48 0 49 0;
#X connect 49 0 56 0;
#X connect 49 0 55 0;
#X connect 50 0 73 1;
#X connect 51 0 54 1;
#X connect 52 0 51 1;
#X connect 53 0 54 0;
#X connect 54 0 73 0;
#X connect 54 0 80 0;
#X connect 55 0 50 1;
#X connect 56 0 63 1;
#X connect 57 0 63 2;
#X connect 58 0 73 1;
#X connect 59 0 60 0;
#X connect 61 0 14 0;
#X connect 62 0 57 0;
#X connect 63 0 50 0;
#X connect 64 0 2 0;
#X connect 64 0 26 0;
#X connect 65 0 4 0;
#X connect 66 0 30 0;
#X connect 68 0 67 1;
#X connect 69 0 31 1;
#X connect 70 0 71 1;
#X connect 71 0 8 0;
#X connect 72 0 33 1;
#X connect 73 1 59 0;
#X connect 73 2 59 1;
#X connect 74 0 79 1;
#X connect 75 0 72 0;
#X connect 76 0 32 0;
#X connect 77 0 12 1;
#X connect 78 0 79 2;
#X connect 79 0 25 0;
#X connect 80 0 58 0;
#X connect 80 0 73 0;
#X connect 81 0 83 0;
#X connect 82 0 14 2;
#X connect 83 0 82 0;
#X coords 0 0 1 1 1096 382 1 0 0;
