#N canvas 2080 356 1920 1027 12;
#X msg 880 941 0.4;
#X obj 927 890 bng 25 250 50 0 empty empty empty 17 7 0 10 #e4e4e4 #4d4d4d #373737;
#X obj 698 869 bng 25 250 50 0 empty empty empty 17 7 0 10 #e4e4e4 #4d4d4d #373737;
#X obj 897 1137 +;
#X floatatom 927 1071 5 0 0 0 - - - 12;
#X floatatom 897 1195 5 0 0 0 - - - 12;
#X obj 897 1165 int;
#X obj 823 1394 pack;
#X msg 927 941 0.41063;
#X listbox 421 644 20 0 0 0 - - - 0;
#N canvas 1948 64 1305 967 (subpatch) 1;
#X floatatom 243 430 5 0 0 0 - - - 12;
#X floatatom 243 588 5 0 0 0 - - - 12;
#X obj 243 633 expr if($f1==1 \, $f2 \, $f2+1);
#X listbox 581 260 9 0 0 0 - - - 0;
#X obj 131 35 hradio 22 1 0 2 empty empty empty 0 -8 0 10 #e4e4e4 #4d4d4d #373737 0;
#X obj 9 98 hradio 24 1 0 12 empty empty empty 0 -8 0 10 #e4e4e4 #4d4d4d #373737 0;
#X text 9 76 C;
#X text 32 76 C#;
#X text 62 76 D;
#X text 81 76 D#;
#X text 109 76 E;
#X text 134 76 F;
#X text 153 76 F#;
#X text 182 76 G;
#X text 202 76 G#;
#X text 230 76 A;
#X text 251 76 A#;
#X text 277 76 B;
#X floatatom 258 260 5 0 0 0 - - - 12;
#X obj 502 729 hradio 20 1 0 12 empty empty empty 0 -8 0 10 #e4e4e4 #4d4d4d #373737 0;
#X text 565 728 X;
#X text 525 728 X;
#X text 668 728 X;
#X text 622 728 X;
#X text 705 728 X;
#X obj 319 39 t b;
#X obj 665 260 t b;
#X obj 243 559 tabread keyScale;
#X obj 581 321 list 0 1 0 1 0 1 1 0 1 0 1 0 1;
#X obj 759 321 list 0 1 0 1 1 0 1 0 1 1 0 1 0;
#X floatatom 243 494 5 0 0 0 - - - 12;
#X obj 243 525 mod 12;
#X obj 243 404 mod 12;
#X obj 243 463 -;
#X obj 383 683 mod 12;
#X obj 502 768 hradio 20 1 0 12 empty empty empty 0 -8 0 10 #e4e4e4 #4d4d4d #373737 0;
#X text 583 767 X;
#X text 525 767 X;
#X text 687 767 X;
#X text 622 767 X;
#X text 726 767 X;
#X text 753 727 Dur;
#X text 752 770 Moll;
#X obj 15 247 inlet midi_note_int;
#X obj 243 784 outlet midi_note_int;
#X text 92 38 Dur, f 5;
#X text 182 38 Moll, f 5;
#X floatatom 15 297 5 0 0 0 - - - 12;
#X floatatom 190 677 5 0 0 0 - - - 12;
#X obj 581 450 array define keyScale 12;
#X obj 131 -32 - 1;
#X obj 53 -32 - 1;
#X obj 131 -74 inlet mode;
#X obj 53 -74 inlet tonic;
#X obj 17 393 spigot;
#X obj 75 321 expr if(isinf($f1) \, 0 \, 1);
#X obj 581 396 else/selector 2;
#X connect 0 0 33 0;
#X connect 1 0 2 0;
#X connect 2 0 34 0;
#X connect 2 0 44 0;
#X connect 2 0 48 0;
#X connect 3 0 56 2;
#X connect 4 0 3 0;
#X connect 4 0 26 0;
#X connect 4 0 25 0;
#X connect 5 0 18 0;
#X connect 18 0 33 1;
#X connect 25 0 5 0;
#X connect 26 0 28 0;
#X connect 26 0 29 0;
#X connect 27 0 1 0;
#X connect 28 0 56 0;
#X connect 29 0 56 1;
#X connect 30 0 31 0;
#X connect 31 0 27 0;
#X connect 32 0 0 0;
#X connect 33 0 30 0;
#X connect 34 0 35 0;
#X connect 34 0 19 0;
#X connect 43 0 47 0;
#X connect 43 0 55 0;
#X connect 47 0 54 0;
#X connect 50 0 4 0;
#X connect 51 0 5 0;
#X connect 52 0 50 0;
#X connect 53 0 51 0;
#X connect 54 0 32 0;
#X connect 54 0 2 1;
#X connect 55 0 54 1;
#X connect 56 0 49 0;
#X coords 0 0 1 1 307 130 1 0 0;
#X restore 420 418 pd;
#X floatatom 338 1085 5 0 0 0 - - - 12;
#X obj 339 1154 int;
#X floatatom 339 1180 5 0 0 0 - - - 12;
#X obj 160 1261 env~;
#X obj 354 1302 hsl 128 17 0 127 0 0 empty empty empty -2 -8 0 10 #e4e4e4 #4d4d4d #373737 0 1;
#X obj 328 1219 f;
#X obj 927 987 ipf;
#X msg 1006 941 0;
#N canvas 1898 311 1659 905 (subpatch) 0;
#X floatatom 434 -408 5 0 0 0 - - - 12;
#X obj 296 -434 t b;
#X floatatom 296 -344 5 0 0 0 - - - 12;
#X floatatom 53 -25 5 0 0 0 - - - 12;
#X floatatom 111 -25 5 0 0 0 - - - 12;
#X floatatom 169 -25 5 0 0 0 - - - 12;
#X floatatom 227 -25 5 0 0 0 - - - 12;
#X floatatom 285 -25 5 0 0 0 - - - 12;
#X floatatom 401 -25 5 0 0 0 - - - 12;
#X floatatom 459 -25 5 0 0 0 - - - 12;
#X floatatom 517 -25 5 0 0 0 - - - 12;
#X floatatom 575 -25 5 0 0 0 - - - 12;
#X floatatom 633 -25 5 0 0 0 - - - 12;
#X floatatom 691 -25 5 0 0 0 - - - 12;
#X floatatom 749 -25 5 0 0 0 - - - 12;
#X floatatom 807 -25 5 0 0 0 - - - 12;
#X floatatom 865 -25 5 0 0 0 - - - 12;
#X floatatom 923 -25 7 0 0 0 - - - 12;
#X text 1019 173 Threshold;
#X obj 72 211 bng 31 250 50 0 empty empty empty 17 7 0 10 #e4e4e4 #4d4d4d #373737;
#X obj 130 211 bng 31 250 50 0 empty empty empty 17 7 0 10 #e4e4e4 #4d4d4d #373737;
#X obj 188 211 bng 31 250 50 0 empty empty empty 17 7 0 10 #e4e4e4 #4d4d4d #373737;
#X obj 246 211 bng 31 250 50 0 empty empty empty 17 7 0 10 #e4e4e4 #4d4d4d #373737;
#X obj 304 211 bng 31 250 50 0 empty empty empty 17 7 0 10 #e4e4e4 #4d4d4d #373737;
#X obj 362 211 bng 31 250 50 0 empty empty empty 17 7 0 10 #e4e4e4 #4d4d4d #373737;
#X obj 421 211 bng 31 250 50 0 empty empty empty 17 7 0 10 #e4e4e4 #4d4d4d #373737;
#X obj 479 211 bng 31 250 50 0 empty empty empty 17 7 0 10 #e4e4e4 #4d4d4d #373737;
#X obj 537 211 bng 31 250 50 0 empty empty empty 17 7 0 10 #e4e4e4 #4d4d4d #373737;
#X obj 595 211 bng 31 250 50 0 empty empty empty 17 7 0 10 #e4e4e4 #4d4d4d #373737;
#X obj 653 211 bng 31 250 50 0 empty empty empty 17 7 0 10 #e4e4e4 #4d4d4d #373737;
#X obj 712 211 bng 31 250 50 0 empty empty empty 17 7 0 10 #e4e4e4 #4d4d4d #373737;
#X obj 770 211 bng 31 250 50 0 empty empty empty 17 7 0 10 #e4e4e4 #4d4d4d #373737;
#X obj 828 211 bng 31 250 50 0 empty empty empty 17 7 0 10 #e4e4e4 #4d4d4d #373737;
#X obj 886 211 bng 31 250 50 0 empty empty empty 17 7 0 10 #e4e4e4 #4d4d4d #373737;
#X obj 945 211 bng 31 250 50 0 empty empty empty 17 7 0 10 #e4e4e4 #4d4d4d #373737;
#X obj 63 142 hsl 38 21 1 5 0 0 empty empty empty -2 -11 0 12 #e4e4e4 #000000 #000000 0 1;
#X obj 75 95 bng 31 250 50 0 empty empty empty 17 7 0 10 #e4e4e4 #4d4d4d #373737;
#X obj 133 95 bng 31 250 50 0 empty empty empty 17 7 0 10 #e4e4e4 #4d4d4d #373737;
#X obj 191 95 bng 31 250 50 0 empty empty empty 17 7 0 10 #e4e4e4 #4d4d4d #373737;
#X obj 249 95 bng 31 250 50 0 empty empty empty 17 7 0 10 #e4e4e4 #4d4d4d #373737;
#X obj 307 95 bng 31 250 50 0 empty empty empty 17 7 0 10 #e4e4e4 #4d4d4d #373737;
#X obj 365 95 bng 31 250 50 0 empty empty empty 17 7 0 10 #e4e4e4 #4d4d4d #373737;
#X obj 423 95 bng 31 250 50 0 empty empty empty 17 7 0 10 #e4e4e4 #4d4d4d #373737;
#X obj 481 95 bng 31 250 50 0 empty empty empty 17 7 0 10 #e4e4e4 #4d4d4d #373737;
#X obj 539 95 bng 31 250 50 0 empty empty empty 17 7 0 10 #e4e4e4 #4d4d4d #373737;
#X obj 597 95 bng 31 250 50 0 empty empty empty 17 7 0 10 #e4e4e4 #4d4d4d #373737;
#X obj 655 95 bng 31 250 50 0 empty empty empty 17 7 0 10 #e4e4e4 #4d4d4d #373737;
#X obj 713 95 bng 31 250 50 0 empty empty empty 17 7 0 10 #e4e4e4 #4d4d4d #373737;
#X obj 771 95 bng 31 250 50 0 empty empty empty 17 7 0 10 #e4e4e4 #4d4d4d #373737;
#X obj 829 95 bng 31 250 50 0 empty empty empty 17 7 0 10 #e4e4e4 #4d4d4d #373737;
#X obj 887 95 bng 31 250 50 0 empty empty empty 17 7 0 10 #e4e4e4 #4d4d4d #373737;
#X obj 945 95 bng 31 250 50 0 empty empty empty 17 7 0 10 #e4e4e4 #4d4d4d #373737;
#X floatatom 343 -25 5 0 0 0 - - - 12;
#X obj 121 142 hsl 38 21 1 5 0 0 empty empty empty -2 -11 0 12 #e4e4e4 #000000 #000000 0 1;
#X obj 179 142 hsl 38 21 1 5 0 0 empty empty empty -2 -11 0 12 #e4e4e4 #000000 #000000 0 1;
#X obj 237 142 hsl 38 21 1 5 0 0 empty empty empty -2 -11 0 12 #e4e4e4 #000000 #000000 0 1;
#X obj 295 142 hsl 38 21 1 5 0 0 empty empty empty -2 -11 0 12 #e4e4e4 #000000 #000000 0 1;
#X obj 354 142 hsl 38 21 1 5 0 0 empty empty empty -2 -11 0 12 #e4e4e4 #000000 #000000 0 1;
#X obj 412 142 hsl 38 21 1 5 0 0 empty empty empty -2 -11 0 12 #e4e4e4 #000000 #000000 0 1;
#X obj 470 142 hsl 38 21 1 5 0 0 empty empty empty -2 -11 0 12 #e4e4e4 #000000 #000000 0 1;
#X obj 528 142 hsl 38 21 1 5 0 0 empty empty empty -2 -11 0 12 #e4e4e4 #000000 #000000 0 1;
#X obj 586 142 hsl 38 21 1 5 0 0 empty empty empty -2 -11 0 12 #e4e4e4 #000000 #000000 0 1;
#X obj 645 142 hsl 38 21 1 5 0 0 empty empty empty -2 -11 0 12 #e4e4e4 #000000 #000000 0 1;
#X obj 703 142 hsl 38 21 1 5 0 0 empty empty empty -2 -11 0 12 #e4e4e4 #000000 #000000 0 1;
#X obj 761 142 hsl 38 21 1 5 0 0 empty empty empty -2 -11 0 12 #e4e4e4 #000000 #000000 0 1;
#X obj 819 142 hsl 38 21 1 5 0 0 empty empty empty -2 -11 0 12 #e4e4e4 #000000 #000000 0 1;
#X obj 877 142 hsl 38 21 1 5 0 0 empty empty empty -2 -11 0 12 #e4e4e4 #000000 #000000 0 1;
#X obj 936 142 hsl 38 21 1 5 0 0 empty empty empty -2 -11 0 12 #e4e4e4 #000000 #000000 0 1;
#X obj 434 -532 inlet gDif;
#X obj 454 6 else/note 192 24 Inter empty 5 54 54 54 0 187 187 187 1 1 IPF RHYTHM MAKER;
#X obj 53 740 outlet step;
#X obj 307 647 outlet onoff;
#X obj 1013 540 s rhythresh;
#X text 10 101 STEP;
#X text 10 157 PREF;
#X text 10 217 OUT;
#X text 84 74 1;
#X text 142 74 2;
#X text 199 74 3;
#X text 257 74 4;
#X text 315 74 5;
#X text 373 74 6;
#X text 431 74 7;
#X text 489 74 8;
#X text 547 74 9;
#X text 602 74 10;
#X text 662 75 11;
#X text 720 75 12;
#X text 777 75 13;
#X text 835 75 14;
#X text 892 75 15;
#X text 951 75 16;
#N canvas 0 0 450 250 (subpatch) 0;
#X array ipfbeatarray 16 float 2;
#X coords 0 20 16 0 905 99 1;
#X restore 70 264 graph;
#X obj 111 -285 tabwrite ipfbeatarray;
#N canvas 0 0 450 250 (subpatch) 0;
#X array ipfbeatthreshold 1 float 2;
#X coords 0 20 1 0 905 99 1;
#X restore 70 264 graph;
#X obj 1205 179 tabwrite ipfbeatthreshold;
#X text 89 311 1;
#X text 142 311 2;
#X text 197 311 3;
#X text 251 311 4;
#X text 307 311 5;
#X text 361 311 6;
#X text 416 311 7;
#X text 470 311 8;
#X text 525 311 9;
#X text 579 311 10;
#X text 639 312 11;
#X text 696 312 12;
#X text 756 312 13;
#X text 815 312 14;
#X text 876 312 15;
#X text 936 312 16;
#X obj 1233 277 inlet threshold;
#X floatatom 1041 403 5 0 0 0 - - - 12;
#X floatatom 1233 399 5 0 0 0 - - - 12;
#X obj 1233 321 expr $f1 * (20) /127;
#X obj 192 -532 inlet mode;
#X obj 192 -494 sel 0 1 2;
#X obj 53 -179 f;
#X obj 111 -179 f;
#X obj 169 -179 f;
#X obj 227 -179 f;
#X obj 285 -179 f;
#X obj 343 -179 f;
#X obj 401 -179 f;
#X obj 459 -179 f;
#X obj 517 -179 f;
#X obj 575 -179 f;
#X obj 633 -179 f;
#X obj 691 -179 f;
#X obj 749 -179 f;
#X obj 807 -179 f;
#X obj 865 -179 f;
#X obj 923 -179 f;
#X obj 434 -470 * 10;
#X obj 528 -375 sel 0 1 2 3 4 5 6 7 8 9 10 11 12 13 14 15;
#X obj 111 -325 f;
#X obj 53 -126 *;
#X obj 111 -126 *;
#X obj 169 -126 *;
#X obj 227 -126 *;
#X obj 285 -126 *;
#X obj 343 -126 *;
#X obj 401 -126 *;
#X obj 459 -126 *;
#X obj 517 -126 *;
#X obj 575 -126 *;
#X obj 633 -126 *;
#X obj 691 -126 *;
#X obj 749 -126 *;
#X obj 807 -126 *;
#X obj 865 -126 *;
#X obj 923 -126 *;
#N canvas 733 172 450 300 check 0;
#X obj 300 683 bng 25 250 50 0 empty empty empty 17 7 0 10 #e4e4e4 #4d4d4d #373737;
#X obj 339 683 bng 25 250 50 0 empty empty empty 17 7 0 10 #e4e4e4 #4d4d4d #373737;
#X obj 311 625 sel 0 1;
#X floatatom 311 591 5 0 0 0 - - - 12;
#X msg 384 706 0;
#X msg 440 708 1;
#X obj 311 550 > \$1;
#X obj 248 498 inlet float;
#X obj 400 499 inlet thresh;
#X obj 383 782 outlet onoff;
#X obj 281 782 outlet bang;
#X connect 0 0 4 0;
#X connect 1 0 5 0;
#X connect 1 0 10 0;
#X connect 2 0 0 0;
#X connect 2 1 1 0;
#X connect 3 0 2 0;
#X connect 4 0 9 0;
#X connect 5 0 9 0;
#X connect 6 0 3 0;
#X connect 7 0 6 0;
#X connect 8 0 6 1;
#X restore 53 461 pd check;
#N canvas 733 172 450 300 check 0;
#X obj 300 683 bng 25 250 50 0 empty empty empty 17 7 0 10 #e4e4e4 #4d4d4d #373737;
#X obj 339 683 bng 25 250 50 0 empty empty empty 17 7 0 10 #e4e4e4 #4d4d4d #373737;
#X obj 311 625 sel 0 1;
#X floatatom 311 591 5 0 0 0 - - - 12;
#X msg 384 706 0;
#X msg 440 708 1;
#X obj 311 550 > \$1;
#X obj 248 498 inlet float;
#X obj 400 499 inlet thresh;
#X obj 383 782 outlet onoff;
#X obj 287 782 outlet bang;
#X connect 0 0 4 0;
#X connect 1 0 5 0;
#X connect 1 0 10 0;
#X connect 2 0 0 0;
#X connect 2 1 1 0;
#X connect 3 0 2 0;
#X connect 4 0 9 0;
#X connect 5 0 9 0;
#X connect 6 0 3 0;
#X connect 7 0 6 0;
#X connect 8 0 6 1;
#X restore 169 460 pd check;
#N canvas 733 172 450 300 check 0;
#X obj 300 683 bng 25 250 50 0 empty empty empty 17 7 0 10 #e4e4e4 #4d4d4d #373737;
#X obj 339 683 bng 25 250 50 0 empty empty empty 17 7 0 10 #e4e4e4 #4d4d4d #373737;
#X obj 311 625 sel 0 1;
#X floatatom 311 591 5 0 0 0 - - - 12;
#X msg 384 706 0;
#X msg 440 708 1;
#X obj 311 550 > \$1;
#X obj 248 498 inlet float;
#X obj 400 499 inlet thresh;
#X obj 383 782 outlet onoff;
#X obj 287 782 outlet bang;
#X connect 0 0 4 0;
#X connect 1 0 5 0;
#X connect 1 0 10 0;
#X connect 2 0 0 0;
#X connect 2 1 1 0;
#X connect 3 0 2 0;
#X connect 4 0 9 0;
#X connect 5 0 9 0;
#X connect 6 0 3 0;
#X connect 7 0 6 0;
#X connect 8 0 6 1;
#X restore 227 460 pd check;
#N canvas 733 172 450 300 check 0;
#X obj 300 683 bng 25 250 50 0 empty empty empty 17 7 0 10 #e4e4e4 #4d4d4d #373737;
#X obj 339 683 bng 25 250 50 0 empty empty empty 17 7 0 10 #e4e4e4 #4d4d4d #373737;
#X obj 311 625 sel 0 1;
#X floatatom 311 591 5 0 0 0 - - - 12;
#X msg 384 706 0;
#X msg 440 708 1;
#X obj 311 550 > \$1;
#X obj 248 498 inlet float;
#X obj 400 499 inlet thresh;
#X obj 383 782 outlet onoff;
#X obj 287 782 outlet bang;
#X connect 0 0 4 0;
#X connect 1 0 5 0;
#X connect 1 0 10 0;
#X connect 2 0 0 0;
#X connect 2 1 1 0;
#X connect 3 0 2 0;
#X connect 4 0 9 0;
#X connect 5 0 9 0;
#X connect 6 0 3 0;
#X connect 7 0 6 0;
#X connect 8 0 6 1;
#X restore 285 460 pd check;
#N canvas 733 172 450 300 check 0;
#X obj 300 683 bng 25 250 50 0 empty empty empty 17 7 0 10 #e4e4e4 #4d4d4d #373737;
#X obj 339 683 bng 25 250 50 0 empty empty empty 17 7 0 10 #e4e4e4 #4d4d4d #373737;
#X obj 311 625 sel 0 1;
#X floatatom 311 591 5 0 0 0 - - - 12;
#X msg 384 706 0;
#X msg 440 708 1;
#X obj 311 550 > \$1;
#X obj 248 498 inlet float;
#X obj 400 499 inlet thresh;
#X obj 383 782 outlet onoff;
#X obj 287 782 outlet bang;
#X connect 0 0 4 0;
#X connect 1 0 5 0;
#X connect 1 0 10 0;
#X connect 2 0 0 0;
#X connect 2 1 1 0;
#X connect 3 0 2 0;
#X connect 4 0 9 0;
#X connect 5 0 9 0;
#X connect 6 0 3 0;
#X connect 7 0 6 0;
#X connect 8 0 6 1;
#X restore 343 460 pd check;
#N canvas 733 172 450 300 check 0;
#X obj 300 683 bng 25 250 50 0 empty empty empty 17 7 0 10 #e4e4e4 #4d4d4d #373737;
#X obj 339 683 bng 25 250 50 0 empty empty empty 17 7 0 10 #e4e4e4 #4d4d4d #373737;
#X obj 311 625 sel 0 1;
#X floatatom 311 591 5 0 0 0 - - - 12;
#X msg 384 706 0;
#X msg 440 708 1;
#X obj 311 550 > \$1;
#X obj 248 498 inlet float;
#X obj 400 499 inlet thresh;
#X obj 383 782 outlet onoff;
#X obj 287 782 outlet bang;
#X connect 0 0 4 0;
#X connect 1 0 5 0;
#X connect 1 0 10 0;
#X connect 2 0 0 0;
#X connect 2 1 1 0;
#X connect 3 0 2 0;
#X connect 4 0 9 0;
#X connect 5 0 9 0;
#X connect 6 0 3 0;
#X connect 7 0 6 0;
#X connect 8 0 6 1;
#X restore 401 460 pd check;
#N canvas 733 172 450 300 check 0;
#X obj 300 683 bng 25 250 50 0 empty empty empty 17 7 0 10 #e4e4e4 #4d4d4d #373737;
#X obj 339 683 bng 25 250 50 0 empty empty empty 17 7 0 10 #e4e4e4 #4d4d4d #373737;
#X obj 311 625 sel 0 1;
#X floatatom 311 591 5 0 0 0 - - - 12;
#X msg 384 706 0;
#X msg 440 708 1;
#X obj 311 550 > \$1;
#X obj 248 498 inlet float;
#X obj 400 499 inlet thresh;
#X obj 383 782 outlet onoff;
#X obj 287 782 outlet bang;
#X connect 0 0 4 0;
#X connect 1 0 5 0;
#X connect 1 0 10 0;
#X connect 2 0 0 0;
#X connect 2 1 1 0;
#X connect 3 0 2 0;
#X connect 4 0 9 0;
#X connect 5 0 9 0;
#X connect 6 0 3 0;
#X connect 7 0 6 0;
#X connect 8 0 6 1;
#X restore 459 460 pd check;
#N canvas 733 172 450 300 check 0;
#X obj 300 683 bng 25 250 50 0 empty empty empty 17 7 0 10 #e4e4e4 #4d4d4d #373737;
#X obj 339 683 bng 25 250 50 0 empty empty empty 17 7 0 10 #e4e4e4 #4d4d4d #373737;
#X obj 311 625 sel 0 1;
#X floatatom 311 591 5 0 0 0 - - - 12;
#X msg 384 706 0;
#X msg 440 708 1;
#X obj 311 550 > \$1;
#X obj 248 498 inlet float;
#X obj 400 499 inlet thresh;
#X obj 383 782 outlet onoff;
#X obj 287 782 outlet bang;
#X connect 0 0 4 0;
#X connect 1 0 5 0;
#X connect 1 0 10 0;
#X connect 2 0 0 0;
#X connect 2 1 1 0;
#X connect 3 0 2 0;
#X connect 4 0 9 0;
#X connect 5 0 9 0;
#X connect 6 0 3 0;
#X connect 7 0 6 0;
#X connect 8 0 6 1;
#X restore 517 460 pd check;
#N canvas 733 172 450 300 check 0;
#X obj 300 683 bng 25 250 50 0 empty empty empty 17 7 0 10 #e4e4e4 #4d4d4d #373737;
#X obj 339 683 bng 25 250 50 0 empty empty empty 17 7 0 10 #e4e4e4 #4d4d4d #373737;
#X obj 311 625 sel 0 1;
#X floatatom 311 591 5 0 0 0 - - - 12;
#X msg 384 706 0;
#X msg 440 708 1;
#X obj 311 550 > \$1;
#X obj 248 498 inlet float;
#X obj 400 499 inlet thresh;
#X obj 383 782 outlet onoff;
#X obj 287 782 outlet bang;
#X connect 0 0 4 0;
#X connect 1 0 5 0;
#X connect 1 0 10 0;
#X connect 2 0 0 0;
#X connect 2 1 1 0;
#X connect 3 0 2 0;
#X connect 4 0 9 0;
#X connect 5 0 9 0;
#X connect 6 0 3 0;
#X connect 7 0 6 0;
#X connect 8 0 6 1;
#X restore 575 460 pd check;
#N canvas 733 172 450 300 check 0;
#X obj 300 683 bng 25 250 50 0 empty empty empty 17 7 0 10 #e4e4e4 #4d4d4d #373737;
#X obj 339 683 bng 25 250 50 0 empty empty empty 17 7 0 10 #e4e4e4 #4d4d4d #373737;
#X obj 311 625 sel 0 1;
#X floatatom 311 591 5 0 0 0 - - - 12;
#X msg 384 706 0;
#X msg 440 708 1;
#X obj 311 550 > \$1;
#X obj 248 498 inlet float;
#X obj 400 499 inlet thresh;
#X obj 383 782 outlet onoff;
#X obj 287 782 outlet bang;
#X connect 0 0 4 0;
#X connect 1 0 5 0;
#X connect 1 0 10 0;
#X connect 2 0 0 0;
#X connect 2 1 1 0;
#X connect 3 0 2 0;
#X connect 4 0 9 0;
#X connect 5 0 9 0;
#X connect 6 0 3 0;
#X connect 7 0 6 0;
#X connect 8 0 6 1;
#X restore 633 460 pd check;
#N canvas 733 172 450 300 check 0;
#X obj 300 683 bng 25 250 50 0 empty empty empty 17 7 0 10 #e4e4e4 #4d4d4d #373737;
#X obj 339 683 bng 25 250 50 0 empty empty empty 17 7 0 10 #e4e4e4 #4d4d4d #373737;
#X obj 311 625 sel 0 1;
#X floatatom 311 591 5 0 0 0 - - - 12;
#X msg 384 706 0;
#X msg 440 708 1;
#X obj 311 550 > \$1;
#X obj 248 498 inlet float;
#X obj 400 499 inlet thresh;
#X obj 383 782 outlet onoff;
#X obj 287 782 outlet bang;
#X connect 0 0 4 0;
#X connect 1 0 5 0;
#X connect 1 0 10 0;
#X connect 2 0 0 0;
#X connect 2 1 1 0;
#X connect 3 0 2 0;
#X connect 4 0 9 0;
#X connect 5 0 9 0;
#X connect 6 0 3 0;
#X connect 7 0 6 0;
#X connect 8 0 6 1;
#X restore 691 460 pd check;
#N canvas 733 172 450 300 check 0;
#X obj 300 683 bng 25 250 50 0 empty empty empty 17 7 0 10 #e4e4e4 #4d4d4d #373737;
#X obj 339 683 bng 25 250 50 0 empty empty empty 17 7 0 10 #e4e4e4 #4d4d4d #373737;
#X obj 311 625 sel 0 1;
#X floatatom 311 591 5 0 0 0 - - - 12;
#X msg 384 706 0;
#X msg 440 708 1;
#X obj 311 550 > \$1;
#X obj 248 498 inlet float;
#X obj 400 499 inlet thresh;
#X obj 383 782 outlet onoff;
#X obj 287 782 outlet bang;
#X connect 0 0 4 0;
#X connect 1 0 5 0;
#X connect 1 0 10 0;
#X connect 2 0 0 0;
#X connect 2 1 1 0;
#X connect 3 0 2 0;
#X connect 4 0 9 0;
#X connect 5 0 9 0;
#X connect 6 0 3 0;
#X connect 7 0 6 0;
#X connect 8 0 6 1;
#X restore 749 460 pd check;
#N canvas 733 172 450 300 check 0;
#X obj 300 683 bng 25 250 50 0 empty empty empty 17 7 0 10 #e4e4e4 #4d4d4d #373737;
#X obj 339 683 bng 25 250 50 0 empty empty empty 17 7 0 10 #e4e4e4 #4d4d4d #373737;
#X obj 311 625 sel 0 1;
#X floatatom 311 591 5 0 0 0 - - - 12;
#X msg 384 706 0;
#X msg 440 708 1;
#X obj 311 550 > \$1;
#X obj 248 498 inlet float;
#X obj 400 499 inlet thresh;
#X obj 383 782 outlet onoff;
#X obj 287 782 outlet bang;
#X connect 0 0 4 0;
#X connect 1 0 5 0;
#X connect 1 0 10 0;
#X connect 2 0 0 0;
#X connect 2 1 1 0;
#X connect 3 0 2 0;
#X connect 4 0 9 0;
#X connect 5 0 9 0;
#X connect 6 0 3 0;
#X connect 7 0 6 0;
#X connect 8 0 6 1;
#X restore 807 460 pd check;
#N canvas 733 172 450 300 check 0;
#X obj 300 683 bng 25 250 50 0 empty empty empty 17 7 0 10 #e4e4e4 #4d4d4d #373737;
#X obj 339 683 bng 25 250 50 0 empty empty empty 17 7 0 10 #e4e4e4 #4d4d4d #373737;
#X obj 311 625 sel 0 1;
#X floatatom 311 591 5 0 0 0 - - - 12;
#X msg 384 706 0;
#X msg 440 708 1;
#X obj 311 550 > \$1;
#X obj 248 498 inlet float;
#X obj 400 499 inlet thresh;
#X obj 383 782 outlet onoff;
#X obj 287 782 outlet bang;
#X connect 0 0 4 0;
#X connect 1 0 5 0;
#X connect 1 0 10 0;
#X connect 2 0 0 0;
#X connect 2 1 1 0;
#X connect 3 0 2 0;
#X connect 4 0 9 0;
#X connect 5 0 9 0;
#X connect 6 0 3 0;
#X connect 7 0 6 0;
#X connect 8 0 6 1;
#X restore 865 460 pd check;
#N canvas 733 172 450 300 check 0;
#X obj 300 683 bng 25 250 50 0 empty empty empty 17 7 0 10 #e4e4e4 #4d4d4d #373737;
#X obj 339 683 bng 25 250 50 0 empty empty empty 17 7 0 10 #e4e4e4 #4d4d4d #373737;
#X obj 311 625 sel 0 1;
#X floatatom 311 591 5 0 0 0 - - - 12;
#X msg 384 706 0;
#X msg 440 708 1;
#X obj 311 550 > \$1;
#X obj 248 498 inlet float;
#X obj 400 499 inlet thresh;
#X obj 383 782 outlet onoff;
#X obj 287 782 outlet bang;
#X connect 0 0 4 0;
#X connect 1 0 5 0;
#X connect 1 0 10 0;
#X connect 2 0 0 0;
#X connect 2 1 1 0;
#X connect 3 0 2 0;
#X connect 4 0 9 0;
#X connect 5 0 9 0;
#X connect 6 0 3 0;
#X connect 7 0 6 0;
#X connect 8 0 6 1;
#X restore 936 460 pd check;
#N canvas 733 172 450 300 check 0;
#X obj 300 683 bng 25 250 50 0 empty empty empty 17 7 0 10 #e4e4e4 #4d4d4d #373737;
#X obj 339 683 bng 25 250 50 0 empty empty empty 17 7 0 10 #e4e4e4 #4d4d4d #373737;
#X obj 311 625 sel 0 1;
#X floatatom 311 591 5 0 0 0 - - - 12;
#X msg 384 706 0;
#X msg 440 708 1;
#X obj 311 550 > \$1;
#X obj 248 498 inlet float;
#X obj 400 499 inlet thresh;
#X obj 383 782 outlet onoff;
#X obj 281 782 outlet bang;
#X connect 0 0 4 0;
#X connect 1 0 5 0;
#X connect 1 0 10 0;
#X connect 2 0 0 0;
#X connect 2 1 1 0;
#X connect 3 0 2 0;
#X connect 4 0 9 0;
#X connect 5 0 9 0;
#X connect 6 0 3 0;
#X connect 7 0 6 0;
#X connect 8 0 6 1;
#X restore 106 461 pd check;
#X msg 192 -457 15;
#X msg 237 -457 11;
#X obj 584 -501 inlet reset;
#X obj 584 -470 bng 25 250 50 0 empty empty empty 17 7 0 10 #e4e4e4 #4d4d4d #373737;
#X obj 314 -480 bng 25 250 50 0 empty empty empty 17 7 0 10 #e4e4e4 #4d4d4d #373737;
#X obj 296 -401 cyclone/counter 0 15;
#X obj 1043 200 vsl 17 128 0 127 0 0 empty empty empty 0 -9 0 10 #e4e4e4 #4d4d4d #373737 0 1;
#X obj 1211 78 loadbang;
#X msg 1243 117 12;
#X msg 1037 343;
#X obj -175 50 loadbang;
#X msg -54 86 1;
#X msg -54 241 5;
#X msg -54 198 4;
#X msg -54 167 3;
#X msg -54 127 2;
#X obj 561 657 outlet velocity;
#X connect 0 0 119 1;
#X connect 0 0 133 1;
#X connect 0 0 132 1;
#X connect 0 0 131 1;
#X connect 0 0 130 1;
#X connect 0 0 129 1;
#X connect 0 0 128 1;
#X connect 0 0 127 1;
#X connect 0 0 126 1;
#X connect 0 0 125 1;
#X connect 0 0 124 1;
#X connect 0 0 123 1;
#X connect 0 0 122 1;
#X connect 0 0 121 1;
#X connect 0 0 120 1;
#X connect 0 0 118 1;
#X connect 1 0 136 0;
#X connect 1 0 2 0;
#X connect 1 0 174 0;
#X connect 2 0 93 1;
#X connect 3 0 36 0;
#X connect 3 0 153 0;
#X connect 3 0 136 1;
#X connect 4 0 37 0;
#X connect 4 0 136 1;
#X connect 4 0 168 0;
#X connect 5 0 38 0;
#X connect 5 0 154 0;
#X connect 5 0 136 1;
#X connect 6 0 39 0;
#X connect 6 0 155 0;
#X connect 6 0 136 1;
#X connect 7 0 40 0;
#X connect 7 0 156 0;
#X connect 7 0 136 1;
#X connect 8 0 42 0;
#X connect 8 0 158 0;
#X connect 8 0 136 1;
#X connect 9 0 43 0;
#X connect 9 0 159 0;
#X connect 9 0 136 1;
#X connect 10 0 44 0;
#X connect 10 0 160 0;
#X connect 10 0 136 1;
#X connect 11 0 45 0;
#X connect 11 0 161 0;
#X connect 11 0 136 1;
#X connect 12 0 46 0;
#X connect 12 0 162 0;
#X connect 12 0 136 1;
#X connect 13 0 47 0;
#X connect 13 0 163 0;
#X connect 13 0 136 1;
#X connect 14 0 48 0;
#X connect 14 0 164 0;
#X connect 14 0 136 1;
#X connect 15 0 49 0;
#X connect 15 0 165 0;
#X connect 15 0 136 1;
#X connect 16 0 50 0;
#X connect 16 0 166 0;
#X connect 16 0 136 1;
#X connect 17 0 51 0;
#X connect 17 0 167 0;
#X connect 17 0 136 1;
#X connect 19 0 35 0;
#X connect 20 0 53 0;
#X connect 21 0 54 0;
#X connect 22 0 55 0;
#X connect 23 0 56 0;
#X connect 24 0 57 0;
#X connect 25 0 58 0;
#X connect 26 0 59 0;
#X connect 27 0 60 0;
#X connect 28 0 61 0;
#X connect 29 0 62 0;
#X connect 30 0 63 0;
#X connect 31 0 64 0;
#X connect 32 0 65 0;
#X connect 33 0 66 0;
#X connect 34 0 67 0;
#X connect 35 0 137 1;
#X connect 35 0 185 0;
#X connect 52 0 41 0;
#X connect 52 0 157 0;
#X connect 52 0 136 1;
#X connect 53 0 138 1;
#X connect 53 0 185 0;
#X connect 54 0 139 1;
#X connect 54 0 185 0;
#X connect 55 0 140 1;
#X connect 55 0 185 0;
#X connect 56 0 141 1;
#X connect 56 0 185 0;
#X connect 57 0 142 1;
#X connect 57 0 185 0;
#X connect 58 0 143 1;
#X connect 58 0 185 0;
#X connect 59 0 144 1;
#X connect 59 0 185 0;
#X connect 60 0 145 1;
#X connect 60 0 185 0;
#X connect 61 0 146 1;
#X connect 61 0 185 0;
#X connect 62 0 147 1;
#X connect 62 0 185 0;
#X connect 63 0 148 1;
#X connect 63 0 185 0;
#X connect 64 0 149 1;
#X connect 64 0 185 0;
#X connect 65 0 150 1;
#X connect 65 0 185 0;
#X connect 66 0 151 1;
#X connect 66 0 185 0;
#X connect 67 0 152 1;
#X connect 67 0 185 0;
#X connect 68 0 134 0;
#X connect 112 0 115 0;
#X connect 113 0 72 0;
#X connect 113 0 153 1;
#X connect 113 0 168 1;
#X connect 113 0 167 1;
#X connect 113 0 154 1;
#X connect 113 0 155 1;
#X connect 113 0 156 1;
#X connect 113 0 157 1;
#X connect 113 0 158 1;
#X connect 113 0 159 1;
#X connect 113 0 160 1;
#X connect 113 0 161 1;
#X connect 113 0 162 1;
#X connect 113 0 163 1;
#X connect 113 0 164 1;
#X connect 113 0 165 1;
#X connect 113 0 166 1;
#X connect 114 0 175 0;
#X connect 115 0 114 0;
#X connect 116 0 117 0;
#X connect 117 0 169 0;
#X connect 117 2 170 0;
#X connect 118 0 137 0;
#X connect 119 0 138 0;
#X connect 120 0 139 0;
#X connect 121 0 140 0;
#X connect 122 0 141 0;
#X connect 123 0 142 0;
#X connect 124 0 143 0;
#X connect 125 0 144 0;
#X connect 126 0 145 0;
#X connect 127 0 146 0;
#X connect 128 0 147 0;
#X connect 129 0 148 0;
#X connect 130 0 149 0;
#X connect 131 0 150 0;
#X connect 132 0 151 0;
#X connect 133 0 152 0;
#X connect 134 0 0 0;
#X connect 134 0 1 0;
#X connect 135 0 118 0;
#X connect 135 1 119 0;
#X connect 135 2 120 0;
#X connect 135 3 121 0;
#X connect 135 4 122 0;
#X connect 135 5 123 0;
#X connect 135 6 124 0;
#X connect 135 7 125 0;
#X connect 135 8 126 0;
#X connect 135 9 127 0;
#X connect 135 10 128 0;
#X connect 135 11 129 0;
#X connect 135 12 130 0;
#X connect 135 13 131 0;
#X connect 135 14 132 0;
#X connect 135 15 133 0;
#X connect 136 0 93 0;
#X connect 137 0 3 0;
#X connect 138 0 4 0;
#X connect 139 0 5 0;
#X connect 140 0 6 0;
#X connect 141 0 7 0;
#X connect 142 0 52 0;
#X connect 143 0 8 0;
#X connect 144 0 9 0;
#X connect 145 0 10 0;
#X connect 146 0 11 0;
#X connect 147 0 12 0;
#X connect 148 0 13 0;
#X connect 149 0 14 0;
#X connect 150 0 15 0;
#X connect 151 0 16 0;
#X connect 152 0 17 0;
#X connect 153 0 19 0;
#X connect 153 0 70 0;
#X connect 153 1 71 0;
#X connect 154 0 21 0;
#X connect 154 0 70 0;
#X connect 154 1 71 0;
#X connect 155 0 22 0;
#X connect 155 0 70 0;
#X connect 155 1 71 0;
#X connect 156 0 23 0;
#X connect 156 0 70 0;
#X connect 156 1 71 0;
#X connect 157 0 24 0;
#X connect 157 0 70 0;
#X connect 157 1 71 0;
#X connect 158 0 25 0;
#X connect 158 0 70 0;
#X connect 158 1 71 0;
#X connect 159 0 26 0;
#X connect 159 0 70 0;
#X connect 159 1 71 0;
#X connect 160 0 27 0;
#X connect 160 0 70 0;
#X connect 160 1 71 0;
#X connect 161 0 28 0;
#X connect 161 0 70 0;
#X connect 161 1 71 0;
#X connect 162 0 29 0;
#X connect 162 0 70 0;
#X connect 162 1 71 0;
#X connect 163 0 30 0;
#X connect 163 0 70 0;
#X connect 163 1 71 0;
#X connect 164 0 31 0;
#X connect 164 0 70 0;
#X connect 164 1 71 0;
#X connect 165 0 32 0;
#X connect 165 0 70 0;
#X connect 165 1 71 0;
#X connect 166 0 33 0;
#X connect 166 0 70 0;
#X connect 166 1 71 0;
#X connect 167 0 34 0;
#X connect 167 0 70 0;
#X connect 167 1 71 0;
#X connect 168 0 20 0;
#X connect 169 0 174 4;
#X connect 170 0 174 4;
#X connect 171 0 172 0;
#X connect 172 0 174 2;
#X connect 173 0 1 0;
#X connect 174 0 135 0;
#X connect 174 0 2 0;
#X connect 175 0 95 0;
#X connect 175 0 113 0;
#X connect 175 0 178 0;
#X connect 176 0 177 0;
#X connect 177 0 175 0;
#X connect 179 0 180 0;
#X connect 179 0 184 0;
#X connect 179 0 183 0;
#X connect 179 0 181 0;
#X connect 179 0 182 0;
#X connect 180 0 53 0;
#X connect 180 0 55 0;
#X connect 180 0 57 0;
#X connect 180 0 59 0;
#X connect 180 0 63 0;
#X connect 180 0 65 0;
#X connect 180 0 61 0;
#X connect 180 0 67 0;
#X connect 181 0 35 0;
#X connect 182 0 60 0;
#X connect 183 0 64 0;
#X connect 183 0 56 0;
#X connect 184 0 54 0;
#X connect 184 0 58 0;
#X connect 184 0 62 0;
#X connect 184 0 66 0;
#X coords 0 0 1 1 1099 372 1 0 -1;
#X restore 24 20 pd;
#X obj 24 418 bng 25 250 50 0 empty empty empty 17 7 0 10 #e4e4e4 #4d4d4d #373737;
#X obj 1072 919 bng 25 250 50 0 empty empty empty 17 7 0 10 #e4e4e4 #4d4d4d #373737;
#X obj 698 832 inlet beat;
#X obj 825 1661 outlet midi;
#X obj 160 756 inlet~ audio;
#X obj 1006 700 inlet onset;
#X obj 897 700 inlet start;
#X obj 1116 700 inlet alpha;
#X msg 1116 798 set \$1;
#X obj 1099 -63 inlet threshold;
#X obj 1116 762 expr $f1 * (0.49 - 0.37) /127 + 0.37;
#X obj 1099 -33 expr abs($f1-127);
#X obj 24 -33 inlet mode;
#X floatatom 862 1102 5 0 0 0 - - - 12;
#X obj 862 1071 t b;
#X obj 927 1045 * 5;
#X obj 927 1102 % 12;
#X obj 351 1340 expr if($f1 != 0 \, 1 \, 0);
#X obj 823 1276 spigot;
#X obj 846 1255 expr if(($f1 < 0) || ($f1 > 127) \, 0 \, 1);
#X obj 1116 731 expr abs($f1-127);
#X obj 703 395 inlet keymode;
#X obj 561 395 inlet keytonic;
#X obj 338 977 expr if(isinf($f1) \, 0 \, $f1);
#X obj 338 1055 spigot;
#X obj 381 1018 != 0;
#X msg 372 832 @threshold 0.47;
#X obj 445 768 loadbang;
#X obj 431 898 bng 25 250 50 0 empty empty empty 17 7 0 10 #e4e4e4 #4d4d4d #373737;
#X obj 339 1122 f;
#X obj 431 939 del 20;
#X obj 160 1418 timer;
#X obj 160 1386 bng 25 250 50 0 empty empty empty 17 7 0 10 #e4e4e4 #4d4d4d #373737;
#X obj 160 1359 sel 1 0;
#X obj 160 1328 change;
#X obj 188 1386 bng 25 250 50 0 empty empty empty 17 7 0 10 #e4e4e4 #4d4d4d #373737;
#X floatatom 160 1444 5 0 0 0 - - - 12;
#X obj 160 1302 > 50;
#X obj 351 1269 expr if($f1<36 \, 0 \, $f1);
#X obj 160 1501 sel 1 0;
#X obj 160 1532 bng 25 250 50 0 empty empty empty 17 7 0 10 #e4e4e4 #4d4d4d #373737;
#X obj 160 1472 > 10000;
#X obj 400 676 s qnote;
#X obj 823 1219 r qnote;
#X obj 942 1294 t b;
#X obj 942 1464 f;
#X obj 1016 1464 f;
#X obj 1088 1464 f;
#X obj 1160 1464 f;
#X obj 942 1493 pipe 1000;
#X obj 1016 1493 pipe 1000;
#X obj 1088 1493 pipe 1000;
#X obj 1160 1493 pipe 1000;
#X obj 942 1557 pack;
#X msg 960 1522 0;
#X obj 1016 1557 pack;
#X msg 1034 1522 0;
#X obj 1088 1557 pack;
#X msg 1106 1522 0;
#X obj 1160 1557 pack;
#X msg 1178 1522 0;
#X obj 942 1394 sel 0 1 2 3 4 5 6 7 8 9 10 11 12 13 14 15;
#X obj 1233 1464 f;
#X obj 1307 1464 f;
#X obj 1379 1464 f;
#X obj 1451 1464 f;
#X obj 1233 1493 pipe 1000;
#X obj 1307 1493 pipe 1000;
#X obj 1379 1493 pipe 1000;
#X obj 1451 1493 pipe 1000;
#X obj 1233 1557 pack;
#X msg 1251 1522 0;
#X obj 1307 1557 pack;
#X msg 1325 1522 0;
#X obj 1379 1557 pack;
#X msg 1397 1522 0;
#X obj 1451 1557 pack;
#X msg 1469 1522 0;
#X obj 1524 1464 f;
#X obj 1598 1464 f;
#X obj 1670 1464 f;
#X obj 1742 1464 f;
#X obj 1524 1493 pipe 1000;
#X obj 1598 1493 pipe 1000;
#X obj 1670 1493 pipe 1000;
#X obj 1742 1493 pipe 1000;
#X obj 1524 1557 pack;
#X msg 1542 1522 0;
#X obj 1598 1557 pack;
#X msg 1616 1522 0;
#X obj 1670 1557 pack;
#X msg 1688 1522 0;
#X obj 1742 1557 pack;
#X msg 1760 1522 0;
#X obj 1815 1464 f;
#X obj 1889 1464 f;
#X obj 1961 1464 f;
#X obj 2033 1464 f;
#X obj 1815 1493 pipe 1000;
#X obj 1889 1493 pipe 1000;
#X obj 1961 1493 pipe 1000;
#X obj 2033 1493 pipe 1000;
#X obj 1815 1557 pack;
#X msg 1833 1522 0;
#X obj 1889 1557 pack;
#X msg 1907 1522 0;
#X obj 1961 1557 pack;
#X msg 1979 1522 0;
#X obj 2033 1557 pack;
#X msg 2051 1522 0;
#X obj 1099 418 s notegate;
#X obj 772 1219 r step;
#X obj 21 472 s step;
#X obj 823 1306 f;
#X floatatom 823 1360 5 0 0 0 - - - 12;
#X obj 338 939 else/freq2midi;
#X obj 942 1339 cyclone/counter 0 15;
#X obj 421 616 else/midi2note;
#X obj 7 572 ceammc;
#X obj 403 869 an.onset~ 2048;
#X obj 1338 1276 else/initmess 1000;
#X obj 1196 394 s velocity;
#X obj 656 1219 r velocity;
#X floatatom 656 1252 5 0 0 0 - - - 12;
#X obj 669 1405 *;
#X obj 873 1979 pack;
#X obj 873 1845 spigot;
#X obj 896 1818 expr if(($f1 < 0) || ($f1 > 127) \, 0 \, 1);
#X obj 992 1879 t b;
#X obj 992 2049 f;
#X obj 1066 2049 f;
#X obj 1138 2049 f;
#X obj 1210 2049 f;
#X obj 992 2078 pipe 1000;
#X obj 1066 2078 pipe 1000;
#X obj 1138 2078 pipe 1000;
#X obj 1210 2078 pipe 1000;
#X obj 992 2142 pack;
#X msg 1010 2107 0;
#X obj 1066 2142 pack;
#X msg 1084 2107 0;
#X obj 1138 2142 pack;
#X msg 1156 2107 0;
#X obj 1210 2142 pack;
#X msg 1228 2107 0;
#X obj 992 1979 sel 0 1 2 3 4 5 6 7 8 9 10 11 12 13 14 15;
#X obj 1283 2049 f;
#X obj 1357 2049 f;
#X obj 1429 2049 f;
#X obj 1501 2049 f;
#X obj 1283 2078 pipe 1000;
#X obj 1357 2078 pipe 1000;
#X obj 1429 2078 pipe 1000;
#X obj 1501 2078 pipe 1000;
#X obj 1283 2142 pack;
#X msg 1301 2107 0;
#X obj 1357 2142 pack;
#X msg 1375 2107 0;
#X obj 1429 2142 pack;
#X msg 1447 2107 0;
#X obj 1501 2142 pack;
#X msg 1519 2107 0;
#X obj 1574 2049 f;
#X obj 1648 2049 f;
#X obj 1720 2049 f;
#X obj 1792 2049 f;
#X obj 1574 2078 pipe 1000;
#X obj 1648 2078 pipe 1000;
#X obj 1720 2078 pipe 1000;
#X obj 1792 2078 pipe 1000;
#X obj 1574 2142 pack;
#X msg 1592 2107 0;
#X obj 1648 2142 pack;
#X msg 1666 2107 0;
#X obj 1720 2142 pack;
#X msg 1738 2107 0;
#X obj 1792 2142 pack;
#X msg 1810 2107 0;
#X obj 1865 2049 f;
#X obj 1939 2049 f;
#X obj 2011 2049 f;
#X obj 2083 2049 f;
#X obj 1865 2078 pipe 1000;
#X obj 1939 2078 pipe 1000;
#X obj 2011 2078 pipe 1000;
#X obj 2083 2078 pipe 1000;
#X obj 1865 2142 pack;
#X msg 1883 2107 0;
#X obj 1939 2142 pack;
#X msg 1957 2107 0;
#X obj 2011 2142 pack;
#X msg 2029 2107 0;
#X obj 2083 2142 pack;
#X msg 2101 2107 0;
#X obj 822 1804 r step;
#X obj 873 1879 f;
#X floatatom 873 1945 5 0 0 0 - - - 12;
#X obj 992 1924 cyclone/counter 0 15;
#X obj 1388 1861 else/initmess 1000;
#X obj 875 2246 outlet midiunpitched;
#X obj 764 1110 abs;
#X obj 764 1085 - 127;
#X obj 775 1148 % 64;
#X obj 788 1183 + 40;
#X obj 840 1331 expr if($f1 > 90 \, $f1-50 \, $f1);
#X obj 348 799 sigmund~;
#X obj 656 1288 expr 60+(67/5)*$f1;
#X msg 606 1349 1;
#X obj 501 1360 hradio 20 1 0 2 empty empty empty 0 -8 0 10 #e4e4e4 #4d4d4d #373737 0;
#X obj 507 1411 selector;
#X connect 0 0 17 1;
#X connect 1 0 0 0;
#X connect 1 0 8 0;
#X connect 1 0 17 4;
#X connect 1 0 18 0;
#X connect 2 0 16 0;
#X connect 2 0 15 0;
#X connect 3 0 6 0;
#X connect 4 0 36 0;
#X connect 5 0 10 0;
#X connect 5 0 147 0;
#X connect 5 0 146 0;
#X connect 6 0 5 0;
#X connect 7 0 23 0;
#X connect 8 0 17 2;
#X connect 10 0 137 0;
#X connect 10 0 62 0;
#X connect 11 0 49 1;
#X connect 12 0 13 0;
#X connect 13 0 16 1;
#X connect 13 0 221 0;
#X connect 14 0 57 0;
#X connect 14 0 58 0;
#X connect 15 0 37 0;
#X connect 17 0 19 1;
#X connect 17 0 35 0;
#X connect 18 0 17 3;
#X connect 19 0 20 0;
#X connect 19 1 130 0;
#X connect 19 2 141 0;
#X connect 20 0 132 0;
#X connect 21 0 17 0;
#X connect 22 0 2 0;
#X connect 22 0 17 0;
#X connect 24 0 14 0;
#X connect 24 0 139 0;
#X connect 24 0 225 0;
#X connect 26 0 1 0;
#X connect 27 0 40 0;
#X connect 28 0 8 0;
#X connect 29 0 31 0;
#X connect 30 0 28 0;
#X connect 30 0 1 0;
#X connect 31 0 19 3;
#X connect 32 0 19 0;
#X connect 33 0 3 0;
#X connect 34 0 33 0;
#X connect 35 0 4 0;
#X connect 35 0 34 0;
#X connect 36 0 3 1;
#X connect 37 0 229 0;
#X connect 38 0 133 1;
#X connect 39 0 38 1;
#X connect 40 0 30 0;
#X connect 41 0 10 2;
#X connect 42 0 10 1;
#X connect 43 0 45 0;
#X connect 43 0 44 0;
#X connect 44 0 11 0;
#X connect 45 0 44 1;
#X connect 46 0 139 0;
#X connect 47 0 46 0;
#X connect 48 0 50 0;
#X connect 49 0 12 0;
#X connect 50 0 49 0;
#X connect 51 0 56 0;
#X connect 52 0 51 0;
#X connect 53 0 55 0;
#X connect 53 1 52 0;
#X connect 54 0 53 0;
#X connect 55 0 51 1;
#X connect 56 0 61 0;
#X connect 57 0 54 0;
#X connect 58 0 15 0;
#X connect 59 0 60 0;
#X connect 60 0 19 2;
#X connect 61 0 59 0;
#X connect 63 0 39 0;
#X connect 63 0 38 0;
#X connect 64 0 136 0;
#X connect 65 0 69 0;
#X connect 66 0 70 0;
#X connect 67 0 71 0;
#X connect 68 0 72 0;
#X connect 69 0 73 0;
#X connect 69 0 74 0;
#X connect 70 0 76 0;
#X connect 70 0 75 0;
#X connect 71 0 78 0;
#X connect 71 0 77 0;
#X connect 72 0 80 0;
#X connect 72 0 79 0;
#X connect 73 0 23 0;
#X connect 74 0 73 1;
#X connect 75 0 23 0;
#X connect 76 0 75 1;
#X connect 77 0 23 0;
#X connect 78 0 77 1;
#X connect 79 0 23 0;
#X connect 80 0 79 1;
#X connect 81 0 65 0;
#X connect 81 1 66 0;
#X connect 81 2 67 0;
#X connect 81 3 68 0;
#X connect 81 4 82 0;
#X connect 81 5 83 0;
#X connect 81 6 84 0;
#X connect 81 7 85 0;
#X connect 81 8 98 0;
#X connect 81 9 99 0;
#X connect 81 10 100 0;
#X connect 81 11 101 0;
#X connect 81 12 114 0;
#X connect 81 13 115 0;
#X connect 81 14 116 0;
#X connect 81 15 117 0;
#X connect 82 0 86 0;
#X connect 83 0 87 0;
#X connect 84 0 88 0;
#X connect 85 0 89 0;
#X connect 86 0 90 0;
#X connect 86 0 91 0;
#X connect 87 0 93 0;
#X connect 87 0 92 0;
#X connect 88 0 95 0;
#X connect 88 0 94 0;
#X connect 89 0 96 0;
#X connect 89 0 97 0;
#X connect 90 0 23 0;
#X connect 91 0 90 1;
#X connect 92 0 23 0;
#X connect 93 0 92 1;
#X connect 94 0 23 0;
#X connect 95 0 94 1;
#X connect 96 0 23 0;
#X connect 97 0 96 1;
#X connect 98 0 102 0;
#X connect 99 0 103 0;
#X connect 100 0 104 0;
#X connect 101 0 105 0;
#X connect 102 0 106 0;
#X connect 102 0 107 0;
#X connect 103 0 109 0;
#X connect 103 0 108 0;
#X connect 104 0 111 0;
#X connect 104 0 110 0;
#X connect 105 0 113 0;
#X connect 105 0 112 0;
#X connect 106 0 23 0;
#X connect 107 0 106 1;
#X connect 108 0 23 0;
#X connect 109 0 108 1;
#X connect 110 0 23 0;
#X connect 111 0 110 1;
#X connect 112 0 23 0;
#X connect 113 0 112 1;
#X connect 114 0 118 0;
#X connect 115 0 119 0;
#X connect 116 0 120 0;
#X connect 117 0 121 0;
#X connect 118 0 122 0;
#X connect 118 0 123 0;
#X connect 119 0 125 0;
#X connect 119 0 124 0;
#X connect 120 0 127 0;
#X connect 120 0 126 0;
#X connect 121 0 128 0;
#X connect 121 0 129 0;
#X connect 122 0 23 0;
#X connect 123 0 122 1;
#X connect 124 0 23 0;
#X connect 125 0 124 1;
#X connect 126 0 23 0;
#X connect 127 0 126 1;
#X connect 128 0 23 0;
#X connect 129 0 128 1;
#X connect 131 0 133 0;
#X connect 133 0 224 0;
#X connect 134 0 7 0;
#X connect 134 0 64 0;
#X connect 134 0 117 1;
#X connect 134 0 116 1;
#X connect 134 0 115 1;
#X connect 134 0 114 1;
#X connect 134 0 101 1;
#X connect 134 0 100 1;
#X connect 134 0 99 1;
#X connect 134 0 98 1;
#X connect 134 0 85 1;
#X connect 134 0 84 1;
#X connect 134 0 83 1;
#X connect 134 0 82 1;
#X connect 134 0 68 1;
#X connect 134 0 67 1;
#X connect 134 0 66 1;
#X connect 134 0 65 1;
#X connect 135 0 43 0;
#X connect 136 0 81 0;
#X connect 137 0 9 0;
#X connect 139 0 48 0;
#X connect 140 0 69 1;
#X connect 140 0 70 1;
#X connect 140 0 71 1;
#X connect 140 0 72 1;
#X connect 140 0 86 1;
#X connect 140 0 87 1;
#X connect 140 0 88 1;
#X connect 140 0 89 1;
#X connect 140 0 102 1;
#X connect 140 0 103 1;
#X connect 140 0 104 1;
#X connect 140 0 105 1;
#X connect 140 0 118 1;
#X connect 140 0 119 1;
#X connect 140 0 120 1;
#X connect 140 0 121 1;
#X connect 142 0 143 0;
#X connect 143 0 226 0;
#X connect 143 0 227 0;
#X connect 144 0 7 1;
#X connect 144 0 145 1;
#X connect 145 0 219 0;
#X connect 146 0 215 1;
#X connect 147 0 146 1;
#X connect 148 0 217 0;
#X connect 149 0 153 0;
#X connect 150 0 154 0;
#X connect 151 0 155 0;
#X connect 152 0 156 0;
#X connect 153 0 157 0;
#X connect 153 0 158 0;
#X connect 154 0 160 0;
#X connect 154 0 159 0;
#X connect 155 0 162 0;
#X connect 155 0 161 0;
#X connect 156 0 164 0;
#X connect 156 0 163 0;
#X connect 157 0 219 0;
#X connect 158 0 157 1;
#X connect 159 0 219 0;
#X connect 160 0 159 1;
#X connect 161 0 219 0;
#X connect 162 0 161 1;
#X connect 163 0 219 0;
#X connect 164 0 163 1;
#X connect 165 0 149 0;
#X connect 165 1 150 0;
#X connect 165 2 151 0;
#X connect 165 3 152 0;
#X connect 165 4 166 0;
#X connect 165 5 167 0;
#X connect 165 6 168 0;
#X connect 165 7 169 0;
#X connect 165 8 182 0;
#X connect 165 9 183 0;
#X connect 165 10 184 0;
#X connect 165 11 185 0;
#X connect 165 12 198 0;
#X connect 165 13 199 0;
#X connect 165 14 200 0;
#X connect 165 15 201 0;
#X connect 166 0 170 0;
#X connect 167 0 171 0;
#X connect 168 0 172 0;
#X connect 169 0 173 0;
#X connect 170 0 174 0;
#X connect 170 0 175 0;
#X connect 171 0 177 0;
#X connect 171 0 176 0;
#X connect 172 0 179 0;
#X connect 172 0 178 0;
#X connect 173 0 180 0;
#X connect 173 0 181 0;
#X connect 174 0 219 0;
#X connect 175 0 174 1;
#X connect 176 0 219 0;
#X connect 177 0 176 1;
#X connect 178 0 219 0;
#X connect 179 0 178 1;
#X connect 180 0 219 0;
#X connect 181 0 180 1;
#X connect 182 0 186 0;
#X connect 183 0 187 0;
#X connect 184 0 188 0;
#X connect 185 0 189 0;
#X connect 186 0 190 0;
#X connect 186 0 191 0;
#X connect 187 0 193 0;
#X connect 187 0 192 0;
#X connect 188 0 195 0;
#X connect 188 0 194 0;
#X connect 189 0 197 0;
#X connect 189 0 196 0;
#X connect 190 0 219 0;
#X connect 191 0 190 1;
#X connect 192 0 219 0;
#X connect 193 0 192 1;
#X connect 194 0 219 0;
#X connect 195 0 194 1;
#X connect 196 0 219 0;
#X connect 197 0 196 1;
#X connect 198 0 202 0;
#X connect 199 0 203 0;
#X connect 200 0 204 0;
#X connect 201 0 205 0;
#X connect 202 0 206 0;
#X connect 202 0 207 0;
#X connect 203 0 209 0;
#X connect 203 0 208 0;
#X connect 204 0 211 0;
#X connect 204 0 210 0;
#X connect 205 0 212 0;
#X connect 205 0 213 0;
#X connect 206 0 219 0;
#X connect 207 0 206 1;
#X connect 208 0 219 0;
#X connect 209 0 208 1;
#X connect 210 0 219 0;
#X connect 211 0 210 1;
#X connect 212 0 219 0;
#X connect 213 0 212 1;
#X connect 214 0 215 0;
#X connect 215 0 216 0;
#X connect 216 0 145 0;
#X connect 216 0 148 0;
#X connect 216 0 201 1;
#X connect 216 0 200 1;
#X connect 216 0 199 1;
#X connect 216 0 198 1;
#X connect 216 0 185 1;
#X connect 216 0 184 1;
#X connect 216 0 183 1;
#X connect 216 0 182 1;
#X connect 216 0 169 1;
#X connect 216 0 168 1;
#X connect 216 0 167 1;
#X connect 216 0 166 1;
#X connect 216 0 152 1;
#X connect 216 0 151 1;
#X connect 216 0 150 1;
#X connect 216 0 149 1;
#X connect 217 0 165 0;
#X connect 218 0 153 1;
#X connect 218 0 154 1;
#X connect 218 0 155 1;
#X connect 218 0 156 1;
#X connect 218 0 170 1;
#X connect 218 0 171 1;
#X connect 218 0 172 1;
#X connect 218 0 173 1;
#X connect 218 0 186 1;
#X connect 218 0 187 1;
#X connect 218 0 188 1;
#X connect 218 0 189 1;
#X connect 218 0 202 1;
#X connect 218 0 203 1;
#X connect 218 0 204 1;
#X connect 218 0 205 1;
#X connect 220 0 222 0;
#X connect 221 0 220 0;
#X connect 222 0 223 0;
#X connect 223 0 33 0;
#X connect 224 0 134 0;
#X connect 225 0 135 0;
#X connect 226 0 144 1;
#X connect 227 0 229 1;
#X connect 228 0 229 2;
#X connect 229 0 144 0;
#X coords 0 0 1 1 1151 551 1 0 0;
