#N canvas 733 172 450 300 12;
#X obj 517 319 cnv 392 426 304 empty empty IPF\ Audiorate 3 -16 0 30 #8eb7b2 #020089 0;
#X floatatom 834 436 7 0 0 0 - - - 16;
#X floatatom 710 436 7 0 0 0 - - - 16;
#X text 589 336 g Init;
#X floatatom 589 436 7 0 0 0 - - - 16;
#X text 710 336 alpha;
#X text 834 336 beta;
#X obj 589 533 bng 25 250 50 0 empty empty Reset -1 -11 0 12 #e4e4e4 #4d4d4d #373737;
#X floatatom 674 584 7 0 0 0 - - - 16;
#X text 660 583 g;
#X obj 795 533 hsl 128 17 0 100 0 0 empty empty Frequenz -2 -11 0 13 #e4e4e4 #4d4d4d #373737 0 1;
#X floatatom 823 571 7 0 0 0 - - - 16;
#X obj 1056 557 expr floor($f1 + 0.5);
#X obj 415 685 outlet~ g+;
#X obj 398 501 inlet reset;
#X obj 1100 366 inlet freq;
#X obj 674 708 outlet g+ float;
#X obj 428 371 inlet alpha;
#X obj 968 690 outlet freq;
#X obj 589 765 outlet~ gdif;
#X obj 792 774 outlet gdif;
#X obj 665 501 ipf~;
#X obj 592 377 hsl 67 28 0.1 2 0 0 empty empty empty -2 -8 0 10 #e4e4e4 #4d4d4d #373737 0 1;
#X obj 589 227 else/initmess 0.37;
#X obj 724 229 else/initmess 0.5;
#X obj 713 377 hsl 67 28 0.37 2 0 0 empty empty empty -2 -8 0 10 #e4e4e4 #4d4d4d #373737 0 1;
#X obj 839 226 else/initmess 0;
#X obj 837 377 hsl 67 28 0 2 0 0 empty empty empty -2 -8 0 10 #e4e4e4 #4d4d4d #373737 0 1;
#X obj 859 681 outlet~ gsmooth;
#X connect 1 0 21 3;
#X connect 2 0 21 2;
#X connect 4 0 21 1;
#X connect 7 0 21 4;
#X connect 8 0 16 0;
#X connect 10 0 12 0;
#X connect 11 0 18 0;
#X connect 11 0 21 0;
#X connect 12 0 11 0;
#X connect 14 0 7 0;
#X connect 15 0 12 0;
#X connect 17 0 2 0;
#X connect 21 0 13 0;
#X connect 21 1 19 0;
#X connect 21 2 8 0;
#X connect 21 3 20 0;
#X connect 21 4 28 0;
#X connect 22 0 4 0;
#X connect 23 0 22 0;
#X connect 24 0 25 0;
#X connect 25 0 2 0;
#X connect 26 0 27 0;
#X connect 27 0 1 0;
#X coords 0 0 1 1 429 335 1 513 288;
