#N canvas 827 239 734 565 12;
#X obj 726 317 expr if($f1/$f2 <=0 \, 0.37 \, $f1/$f2);
#X obj 653 264 f;
#X obj 828 170 inlet alpha;
#X obj 817 274 f;
#X obj 637 428 expr $f1-log($f2);
#X obj 637 386 f;
#X obj 674 343 t b f;
#X obj 639 221 t f b;
#X obj 626 472 f;
#X obj 984 368 inlet reset;
#X obj 687 514 outlet g+;
#X floatatom 687 472 11 0 0 0 - - - 16;
#X obj 527 415 inlet step;
#X obj 527 458 bng 25 250 50 0 empty empty empty 0 -10 0 10 #e4e4e4 #4d4d4d #373737;
#X obj 653 294 t f f;
#X obj 650 129 inlet g0;
#X obj 660 189 f;
#X connect 0 0 6 0;
#X connect 1 0 14 0;
#X connect 2 0 3 1;
#X connect 3 0 0 1;
#X connect 4 0 8 1;
#X connect 4 0 11 0;
#X connect 5 0 4 0;
#X connect 6 0 5 0;
#X connect 6 1 4 1;
#X connect 7 0 1 0;
#X connect 7 1 3 0;
#X connect 8 0 7 0;
#X connect 9 0 16 0;
#X connect 11 0 10 0;
#X connect 12 0 13 0;
#X connect 13 0 8 0;
#X connect 14 0 0 0;
#X connect 14 1 5 1;
#X connect 15 0 16 1;
#X connect 16 0 8 1;
