#N canvas 733 172 450 300 12;
#X obj 1259 696 outlet;
#X obj 1259 549 inlet x;
#X obj 1313 445 inlet xmin;
#X obj 1388 445 inlet xmax;
#X obj 1469 445 inlet ymin;
#X obj 1544 445 inlet ymax;
#X obj 1259 631 expr $f4+(($f3-$f1)/($f3-$f2))*($f5-$f4);
#X connect 1 0 6 0;
#X connect 2 0 6 1;
#X connect 3 0 6 2;
#X connect 4 0 6 3;
#X connect 5 0 6 4;
#X connect 6 0 0 0;
