#N canvas 1948 64 1305 967 (subpatch) 1;
#X floatatom 243 430 5 0 0 0 - - - 12;
#X floatatom 243 588 5 0 0 0 - - - 12;
#X obj 243 633 expr if($f1==1 \, $f2 \, $f2+1);
#X listbox 581 260 9 0 0 0 - - - 0;
#X obj 131 35 hradio 22 1 0 2 empty empty empty 0 -8 0 10 #e4e4e4 #4d4d4d #373737 0;
#X obj 9 98 hradio 24 1 0 12 empty empty empty 0 -8 0 10 #e4e4e4 #4d4d4d #373737 0;
#X text 9 76 C;
#X text 32 76 C#;
#X text 62 76 D;
#X text 81 76 D#;
#X text 109 76 E;
#X text 134 76 F;
#X text 153 76 F#;
#X text 182 76 G;
#X text 202 76 G#;
#X text 230 76 A;
#X text 251 76 A#;
#X text 277 76 B;
#X floatatom 258 260 5 0 0 0 - - - 12;
#X obj 502 729 hradio 20 1 0 12 empty empty empty 0 -8 0 10 #e4e4e4 #4d4d4d #373737 0;
#X text 565 728 X;
#X text 525 728 X;
#X text 668 728 X;
#X text 622 728 X;
#X text 705 728 X;
#X obj 319 39 t b;
#X obj 665 260 t b;
#X obj 243 559 tabread keyScale;
#X obj 581 321 list 0 1 0 1 0 1 1 0 1 0 1 0 1;
#X obj 759 321 list 0 1 0 1 1 0 1 0 1 1 0 1 0;
#X floatatom 243 494 5 0 0 0 - - - 12;
#X obj 243 525 mod 12;
#X obj 243 404 mod 12;
#X obj 243 463 -;
#X obj 383 683 mod 12;
#X obj 502 768 hradio 20 1 0 12 empty empty empty 0 -8 0 10 #e4e4e4 #4d4d4d #373737 0;
#X text 583 767 X;
#X text 525 767 X;
#X text 687 767 X;
#X text 622 767 X;
#X text 726 767 X;
#X text 753 727 Dur;
#X text 752 770 Moll;
#X obj 15 247 inlet midi_note_int;
#X obj 243 784 outlet midi_note_int;
#X text 92 38 Dur, f 5;
#X text 182 38 Moll, f 5;
#X floatatom 15 297 5 0 0 0 - - - 12;
#X floatatom 190 677 5 0 0 0 - - - 12;
#X obj 581 450 array define keyScale 12;
#X obj 131 -32 - 1;
#X obj 53 -32 - 1;
#X obj 131 -74 inlet mode;
#X obj 53 -74 inlet tonic;
#X obj 17 393 spigot;
#X obj 75 321 expr if(isinf($f1) \, 0 \, 1);
#X obj 581 396 else/selector 2;
#X connect 0 0 33 0;
#X connect 1 0 2 0;
#X connect 2 0 34 0;
#X connect 2 0 44 0;
#X connect 2 0 48 0;
#X connect 3 0 56 2;
#X connect 4 0 3 0;
#X connect 4 0 26 0;
#X connect 4 0 25 0;
#X connect 5 0 18 0;
#X connect 18 0 33 1;
#X connect 25 0 5 0;
#X connect 26 0 28 0;
#X connect 26 0 29 0;
#X connect 27 0 1 0;
#X connect 28 0 56 0;
#X connect 29 0 56 1;
#X connect 30 0 31 0;
#X connect 31 0 27 0;
#X connect 32 0 0 0;
#X connect 33 0 30 0;
#X connect 34 0 35 0;
#X connect 34 0 19 0;
#X connect 43 0 47 0;
#X connect 43 0 55 0;
#X connect 47 0 54 0;
#X connect 50 0 4 0;
#X connect 51 0 5 0;
#X connect 52 0 50 0;
#X connect 53 0 51 0;
#X connect 54 0 32 0;
#X connect 54 0 2 1;
#X connect 55 0 54 1;
#X connect 56 0 49 0;
#X coords 0 0 1 1 307 130 1 0 0;
