#N canvas 1948 64 1305 967 8;
#X obj 131 35 hradio 22 1 0 2 empty empty empty 0 -8 0 10 #e4e4e4 #4d4d4d #373737 0;
#X obj 9 98 hradio 24 1 0 12 empty empty empty 0 -8 0 10 #e4e4e4 #4d4d4d #373737 0;
#X text 9 76 C;
#X text 32 76 C#;
#X text 62 76 D;
#X text 81 76 D#;
#X text 109 76 E;
#X text 134 76 F;
#X text 153 76 F#;
#X text 182 76 G;
#X text 202 76 G#;
#X text 230 76 A;
#X text 251 76 A#;
#X text 277 76 B;
#X obj 274 630 hradio 20 1 0 12 empty empty empty 0 -8 0 10 #e4e4e4 #4d4d4d #373737 0;
#X text 337 629 X;
#X text 297 629 X;
#X text 440 629 X;
#X text 394 629 X;
#X text 477 629 X;
#X obj 368 86 list 0 1 0 1 0 1 1 0 1 0 1 0 1;
#X obj 535 86 list 0 1 0 1 1 0 1 0 1 1 0 1 0;
#X obj 5 385 mod 12;
#X obj 5 323 mod 12;
#X obj 207 480 mod 12;
#X obj 274 669 hradio 20 1 0 12 empty empty empty 0 -8 0 10 #e4e4e4 #4d4d4d #373737 0;
#X text 355 668 X;
#X text 297 668 X;
#X text 459 668 X;
#X text 394 668 X;
#X text 498 668 X;
#X obj 5 187 inlet midi_note_int;
#X obj 5 509 outlet midi_note_int;
#X text 92 38 Dur, f 5;
#X text 182 38 Moll, f 7;
#X floatatom 5 224 5 0 0 0 - - - 12;
#X obj 131 -32 - 1;
#X obj 9 -32 - 1;
#X obj 131 -74 inlet mode;
#X obj 9 -74 inlet tonic;
#X obj 5 261 spigot;
#X obj 50 224 expr if(isinf($f1) \, 0 \, 1);
#X obj 368 120 else/selector 2;
#X obj 5 448 expr if($f1==1 \, $f2 \, $f2+1);
#X obj 5 289 t f f;
#X obj 62 261 else/initmess 1;
#X obj -128 -5 else/initmess 0;
#X obj 368 40 t b b;
#X obj 274 548 hradio 20 1 0 12 empty empty empty 0 -8 0 10 #e4e4e4 #4d4d4d #373737 0;
#X text 315 548 X;
#X text 498 548 X;
#X text 416 548 X;
#X text 356 548 X;
#X text 455 548 X;
#X text 275 529 C;
#X text 292 529 C#;
#X text 315 529 D;
#X text 332 529 D#;
#X text 357 529 E;
#X text 377 529 F;
#X text 393 529 F#;
#X text 416 529 G;
#X text 433 529 G#;
#X text 455 529 A;
#X text 473 529 A#;
#X text 498 529 B;
#X obj 5 355 -;
#X obj 275 589 hradio 20 1 0 12 empty empty empty 0 -8 0 10 #e4e4e4 #4d4d4d #373737 0;
#X text 278 589 X;
#X text 478 589 X;
#X text 377 589 X;
#X text 317 589 X;
#X text 417 589 X;
#X obj 272 480 midi2note;
#X symbolatom 276 507 10 0 0 0 - - - 0;
#X text 525 546 C# Major;
#X text 526 587 C# Minor;
#X text 525 628 C Major;
#X text 524 671 C Minor;
#X obj 368 155 array define mode 12;
#X obj 5 414 tabread mode;
#X connect 0 0 42 2;
#X connect 0 0 47 0;
#X connect 1 0 66 1;
#X connect 20 0 42 0;
#X connect 21 0 42 1;
#X connect 22 0 80 0;
#X connect 23 0 66 0;
#X connect 24 0 25 0;
#X connect 24 0 14 0;
#X connect 24 0 48 0;
#X connect 24 0 67 0;
#X connect 31 0 35 0;
#X connect 31 0 41 0;
#X connect 35 0 40 0;
#X connect 36 0 0 0;
#X connect 37 0 1 0;
#X connect 38 0 36 0;
#X connect 39 0 37 0;
#X connect 40 0 44 0;
#X connect 41 0 40 1;
#X connect 42 0 79 0;
#X connect 43 0 73 0;
#X connect 43 0 32 0;
#X connect 43 0 24 0;
#X connect 44 0 23 0;
#X connect 44 1 43 1;
#X connect 45 0 40 1;
#X connect 46 0 1 0;
#X connect 46 0 0 0;
#X connect 47 0 20 0;
#X connect 47 0 21 0;
#X connect 47 1 42 2;
#X connect 66 0 22 0;
#X connect 73 0 74 0;
#X connect 80 0 43 0;
#X coords 0 0 1 1 307 130 1 0 0;
