#N canvas 733 172 450 300 8;
#X obj 991 843 % 12;
#X msg 991 974 C#;
#X msg 1028 974 D#;
#X msg 1072 974 F#;
#X msg 1100 968 G#;
#X msg 1138 970 A#;
#X msg 984 1084 C;
#X msg 1021 1080 D;
#X msg 1080 1080 F;
#X msg 1108 1080 G;
#X msg 1051 1080 E;
#X msg 1138 1080 A;
#X msg 1168 1080 B;
#X obj 991 907 sel 0 1 2 3 4 5 6 7 8 9 10 11;
#X obj 991 792 inlet;
#X obj 1226 838 / 12;
#X obj 1226 861 int;
#X obj 1190 1308 outlet;
#X obj 1190 1193 pack s f;
#X msg 1190 1231 set \$1\$2;
#X connect 0 0 13 0;
#X connect 1 0 18 0;
#X connect 2 0 18 0;
#X connect 3 0 18 0;
#X connect 4 0 18 0;
#X connect 5 0 18 0;
#X connect 6 0 18 0;
#X connect 7 0 18 0;
#X connect 8 0 18 0;
#X connect 9 0 18 0;
#X connect 10 0 18 0;
#X connect 11 0 18 0;
#X connect 12 0 18 0;
#X connect 13 0 6 0;
#X connect 13 1 1 0;
#X connect 13 2 7 0;
#X connect 13 3 2 0;
#X connect 13 4 10 0;
#X connect 13 5 8 0;
#X connect 13 6 3 0;
#X connect 13 7 9 0;
#X connect 13 8 4 0;
#X connect 13 9 11 0;
#X connect 13 10 5 0;
#X connect 13 11 12 0;
#X connect 14 0 0 0;
#X connect 14 0 15 0;
#X connect 15 0 16 0;
#X connect 16 0 18 1;
#X connect 18 0 19 0;
#X connect 19 0 17 0;
