#N canvas 1948 64 1305 967 8;
#X obj 274 530 hradio 20 1 0 12 empty empty empty 0 -8 0 10 #e4e4e4 #4d4d4d #373737 0;
#X text 337 529 X;
#X text 297 529 X;
#X text 440 529 X;
#X text 394 529 X;
#X text 477 529 X;
#X obj 273 135 list 0 1 0 1 0 1 1 0 1 0 1 0 1;
#X obj 440 135 list 0 1 0 1 1 0 1 0 1 1 0 1 0;
#X obj 5 285 mod 12;
#X obj 5 223 mod 12;
#X obj 207 380 mod 12;
#X obj 274 569 hradio 20 1 0 12 empty empty empty 0 -8 0 10 #e4e4e4 #4d4d4d #373737 0;
#X text 355 568 X;
#X text 297 568 X;
#X text 459 568 X;
#X text 394 568 X;
#X text 498 568 X;
#X obj 5 52 inlet midi_note_int;
#X obj 5 409 outlet midi_note_int;
#X floatatom 5 124 5 0 0 0 - - - 12;
#X obj 69 -48 - 1;
#X obj -15 -48 - 1;
#X obj 5 161 spigot;
#X obj 50 124 expr if(isinf($f1) \, 0 \, 1);
#X obj 5 348 expr if($f1==1 \, $f2 \, $f2+1);
#X obj 5 189 t f f;
#X obj 62 161 else/initmess 1;
#X obj 274 448 hradio 20 1 0 12 empty empty empty 0 -8 0 10 #e4e4e4 #4d4d4d #373737 0;
#X text 315 448 X;
#X text 498 448 X;
#X text 416 448 X;
#X text 356 448 X;
#X text 455 448 X;
#X text 275 429 C;
#X text 292 429 C#;
#X text 315 429 D;
#X text 332 429 D#;
#X text 357 429 E;
#X text 377 429 F;
#X text 393 429 F#;
#X text 416 429 G;
#X text 433 429 G#;
#X text 455 429 A;
#X text 473 429 A#;
#X text 498 429 B;
#X obj 5 255 -;
#X obj 275 489 hradio 20 1 0 12 empty empty empty 0 -8 0 10 #e4e4e4 #4d4d4d #373737 0;
#X text 278 489 X;
#X text 478 489 X;
#X text 377 489 X;
#X text 317 489 X;
#X text 417 489 X;
#X symbolatom 276 407 10 0 0 0 - - - 0;
#X text 525 446 C# Major;
#X text 526 487 C# Minor;
#X text 525 528 C Major;
#X text 524 571 C Minor;
#X msg 184 2 clear;
#X msg -226 -5 clear;
#X msg -226 25 add C C# D D# E F F# G G# A A# B;
#X obj 273 71 t b f;
#X obj 229 -90 loadbang;
#X obj 229 -54 t b b b;
#X msg 173 -48 0;
#X obj 5 89 int;
#X text 330 114 Major;
#X text 497 114 Minor;
#X text 664 114 Chromatic;
#X obj 607 135 list 0 1 1 1 1 1 1 1 1 1 1 1 1;
#X obj 273 169 else/selector 3;
#X msg 184 25 add Major Minor Chromatic;
#X obj -61 89 unpack;
#X obj -46 380 pack;
#X obj 69 -90 inlet keymode;
#X obj -15 -90 inlet keytonic;
#X obj 5 314 tabread \$0-mode;
#X obj 273 204 array define \$0-mode 12;
#X obj 272 380 else/midi2note;
#X obj 9 14 else/popmenu 52 19 12 #dfdfdf black \  empty empty empty empty 1 0 -1 1 0 1 0 0 0 0 0;
#X obj 69 14 else/popmenu 67 19 12 #dfdfdf black \  empty empty empty empty 1 0 -1 1 0 1 0 0 0 0 0;
#X connect 6 0 69 0;
#X connect 7 0 69 1;
#X connect 8 0 75 0;
#X connect 9 0 45 0;
#X connect 10 0 11 0;
#X connect 10 0 0 0;
#X connect 10 0 27 0;
#X connect 10 0 46 0;
#X connect 17 0 71 0;
#X connect 19 0 22 0;
#X connect 20 0 79 0;
#X connect 21 0 78 0;
#X connect 22 0 25 0;
#X connect 23 0 22 1;
#X connect 24 0 10 0;
#X connect 24 0 72 0;
#X connect 24 0 77 0;
#X connect 25 0 9 0;
#X connect 25 1 24 1;
#X connect 26 0 22 1;
#X connect 45 0 8 0;
#X connect 57 0 79 0;
#X connect 58 0 78 0;
#X connect 59 0 78 0;
#X connect 60 0 6 0;
#X connect 60 0 7 0;
#X connect 60 0 68 0;
#X connect 60 1 69 3;
#X connect 61 0 62 0;
#X connect 62 0 63 0;
#X connect 62 1 70 0;
#X connect 62 1 59 0;
#X connect 62 2 57 0;
#X connect 62 2 58 0;
#X connect 63 0 78 0;
#X connect 63 0 79 0;
#X connect 64 0 19 0;
#X connect 64 0 23 0;
#X connect 68 0 69 2;
#X connect 69 0 76 0;
#X connect 70 0 79 0;
#X connect 71 0 64 0;
#X connect 71 1 72 1;
#X connect 72 0 18 0;
#X connect 73 0 20 0;
#X connect 74 0 21 0;
#X connect 75 0 24 0;
#X connect 77 0 52 0;
#X connect 78 0 45 1;
#X connect 79 0 60 0;
#X coords 0 0 1 1 140 43 1 0 0;
