#N canvas 733 172 450 300 (subpatch) 1;
#X obj 1596 553 *;
#X obj 1636 496 samplerate~;
#X obj 1596 468 t f b;
#X obj 1636 530 / 1000;
#X obj 1608 235 inlet;
#X obj 1596 579 outlet;
#X connect 0 0 5 0;
#X connect 1 0 3 0;
#X connect 2 0 0 0;
#X connect 2 1 1 0;
#X connect 3 0 0 1;
#X connect 4 0 2 0;
