#N canvas 1970 139 915 833 8;
#X obj 79 -38 else/initmess 0;
#X msg -89 179 0;
#X obj -2 -82 inlet;
#X floatatom 36 46 5 0 0 0 - - - 12;
#X obj -2 179 togedge;
#X obj 36 71 == 1;
#X obj -2 100 spigot;
#X obj 130 71 outlet state;
#X obj 98 113 loadbang;
#X obj -2 152 else/mouse;
#X obj 0 0 tgl 25 0 empty empty empty 17 7 0 10 #e4c799 #4d4d4d #373737 0 1;
#X obj 130 36 changed;
#X connect 0 0 10 0;
#X connect 1 0 6 0;
#X connect 1 0 10 0;
#X connect 2 0 10 0;
#X connect 3 0 5 0;
#X connect 3 0 11 0;
#X connect 4 1 1 0;
#X connect 5 0 6 1;
#X connect 8 0 9 0;
#X connect 9 0 4 0;
#X connect 10 0 3 0;
#X connect 11 0 7 0;
#X coords 0 0 1 1 27 27 2 -1 -1;
