#N canvas 733 172 450 300 (subpatch) 1;
#X obj 1732 435 counter 0 140000;
#X obj 1813 380 sel 140000;
#X msg 1814 405 0;
#X obj 1732 380 metro 0.01;
#X obj 1732 328 inlet;
#X obj 1732 491 outlet;
#X connect 0 0 1 0;
#X connect 0 0 5 0;
#X connect 1 0 2 0;
#X connect 2 0 3 0;
#X connect 3 0 0 0;
#X connect 4 0 3 0;
