#N canvas 827 239 734 565 12;
#X obj 258 433 abs~;
#X obj 258 504 lop~ 20;
#X obj 258 374 bp~ 3000 2;
#X obj 185 467 lop~ 5;
#X obj 247 542 -~;
#X obj 185 504 *~ 1.8;
#X obj 247 585 threshold~ 0.018 100 0.017 50;
#X obj 258 330 inlet~ signal;
#X obj 247 666 outlet onset;
#X obj 408 666 outlet offset;
#X connect 0 0 3 0;
#X connect 0 0 1 0;
#X connect 1 0 4 1;
#X connect 2 0 0 0;
#X connect 3 0 5 0;
#X connect 4 0 6 0;
#X connect 5 0 4 0;
#X connect 6 0 8 0;
#X connect 6 1 9 0;
#X connect 7 0 2 0;
