#N canvas 827 239 734 565 12;
#X obj 258 433 abs~;
#X obj 258 374 bp~ 3000 2;
#X obj 185 467 lop~ 5;
#X obj 247 542 -~;
#X obj 258 330 inlet~ signal;
#X obj 247 666 outlet onset;
#X obj 408 666 outlet offset;
#X obj 397 330 inlet triggerthr;
#X obj 508 330 inlet restthr;
#X msg 397 460 set \$1 100 \$2 150;
#X obj 397 395 pack;
#X obj 501 374 t b f;
#X obj 608 381 else/initmess 0.017;
#X obj 380 279 else/initmess 0.018;
#X obj 247 585 threshold~ 0.018 100 0.005 300;
#X obj 185 504 *~ 3;
#X obj 258 504 lop~ 50;
#X connect 0 0 2 0;
#X connect 0 0 16 0;
#X connect 1 0 0 0;
#X connect 2 0 15 0;
#X connect 3 0 14 0;
#X connect 4 0 1 0;
#X connect 7 0 10 0;
#X connect 8 0 11 0;
#X connect 9 0 14 0;
#X connect 10 0 9 0;
#X connect 11 0 10 0;
#X connect 11 1 10 1;
#X connect 12 0 11 0;
#X connect 13 0 10 0;
#X connect 14 0 5 0;
#X connect 14 1 6 0;
#X connect 15 0 3 0;
#X connect 16 0 3 1;
