#N canvas 827 239 734 565 12;
#X obj 34 106 knob 50 0.001 0.1 0 0.001 \$0-sensitivity empty #E4E4E4 #B7B7B7 #4D4D4D 0 0 0 0 0 270 0 0 0.001 empty empty 0 12 6 -15 0 1 0 0;
#X obj 565 211 - 1e-05;
#X obj 322 310 abs~;
#X obj 322 381 lop~ 20;
#X obj 322 251 bp~ 3000 2;
#X obj 249 344 lop~ 5;
#X obj 311 419 -~;
#X msg 461 337 set \$1 100 \$2 150;
#X obj 461 272 pack;
#X obj 565 251 t b f;
#X obj 672 258 else/initmess 0.017;
#X obj 461 133 else/initmess 0.018;
#X obj 311 462 threshold~ 0.018 100 0.005 300;
#X obj 249 381 *~ 3;
#X obj 300 520 bng 25 250 50 0 empty empty empty 0 -10 0 10 #e4e4e4 #4d4d4d #373737;
#X text 25 85 Sensitivity;
#X obj 565 175 r \$0-sensitivity;
#X obj 34 193 knob 50 100 15000 1 100 \$0-filterf empty #E4E4E4 #B7B7B7 #4D4D4D 0 0 0 0 0 270 0 0 100 empty empty 1 12 2 54 0 1 0 0;
#X text 25 169 Filter Freq;
#X obj 350 211 r \$0-filterf;
#X obj 142 43 else/initmess 0.018;
#X obj 322 133 inlet~ signal;
#X obj 337 520 outlet onset;
#X obj 132 151 else/initmess 3000;
#X obj 8 284 else/popmenu 107 19 12 #dfdfdf black \  empty empty empty empty 1 0 -1 1 0 1 0 0 0 0 0 Kick Snare RackTom FloorTom HiHat;
#X obj -279 147 loadbang;
#X obj -279 177 t b b;
#X msg -255 201 clear;
#X obj -190 153 bng 25 250 50 0 empty empty empty 0 -10 0 10 #e4e4e4 #4d4d4d #373737;
#X text 29 263 MIDI Out;
#X msg -288 230 add Kick Snare RackTom FloorTom HiHat;
#X obj 8 57 else/popmenu 107 19 12 #dfdfdf black \  empty empty empty empty 1 0 -1 1 0 1 0 0 0 0 0 Kick Snare RackTom FloorTom HiHat;
#X text 39 35 Preset;
#X text 21 5 DrumTrigger;
#X connect 1 0 9 0;
#X connect 2 0 5 0;
#X connect 2 0 3 0;
#X connect 3 0 6 1;
#X connect 4 0 2 0;
#X connect 5 0 13 0;
#X connect 6 0 12 0;
#X connect 7 0 12 0;
#X connect 8 0 7 0;
#X connect 9 0 8 0;
#X connect 9 1 8 1;
#X connect 10 0 9 0;
#X connect 11 0 8 0;
#X connect 12 0 22 0;
#X connect 12 0 14 0;
#X connect 13 0 6 0;
#X connect 16 0 1 0;
#X connect 16 0 8 0;
#X connect 19 0 4 1;
#X connect 20 0 0 0;
#X connect 21 0 4 0;
#X connect 23 0 17 0;
#X connect 25 0 26 0;
#X connect 26 0 30 0;
#X connect 26 1 27 0;
#X connect 27 0 24 0;
#X connect 27 0 31 0;
#X connect 28 0 26 0;
#X connect 30 0 24 0;
#X connect 30 0 31 0;
#X coords 0 0 1 1 122 314 1 0 0;
