#N canvas 733 172 450 300 8;
#X obj 593 554 timer;
#X floatatom 593 431 5 0 0 0 - - - 12;
#X obj 609 504 metro 10;
#X obj 648 572 sel 0;
#X floatatom 593 580 5 0 0 0 - - - 12;
#X obj 594 612 f;
#X obj 594 644 < 350;
#X obj 594 677 sel 1;
#X obj 647 644 > 350;
#X obj 649 613 f;
#X obj 595 392 inlet;
#X obj 594 716 outlet;
#X obj 649 716 outlet;
#X obj 648 678 cyclone/togedge;
#X obj 593 466 cyclone/togedge;
#X connect 0 0 4 0;
#X connect 1 0 2 0;
#X connect 1 0 9 0;
#X connect 1 0 3 0;
#X connect 1 0 14 0;
#X connect 2 0 0 1;
#X connect 3 0 5 0;
#X connect 4 0 5 1;
#X connect 4 0 9 0;
#X connect 5 0 6 0;
#X connect 6 0 7 0;
#X connect 7 0 11 0;
#X connect 8 0 13 0;
#X connect 9 0 8 0;
#X connect 10 0 1 0;
#X connect 13 0 12 0;
#X connect 14 0 0 0;
#X connect 14 0 2 0;
