#N canvas 733 172 450 300 8;
#X obj 595 385 inlet;
#X floatatom 595 409 5 0 0 0 - - - 12;
#X obj 595 439 cyclone/togedge;
#X obj 595 532 timer;
#X obj 595 500 metro 10;
#X floatatom 595 558 5 0 0 0 - - - 12;
#X obj 595 703 bng 25 250 50 0 empty empty empty 17 7 0 10 #e4e4e4 #4d4d4d #373737;
#X obj 595 595 f;
#X obj 595 633 < 400;
#X obj 595 468 t b b b;
#X obj 595 663 sel 1 0;
#X obj 623 703 bng 25 250 50 0 empty empty empty 17 7 0 10 #e4e4e4 #4d4d4d #373737;
#X obj 594 766 outlet short;
#X obj 677 766 outlet long;
#X connect 0 0 1 0;
#X connect 1 0 4 0;
#X connect 1 0 2 0;
#X connect 2 0 9 0;
#X connect 2 1 7 0;
#X connect 3 0 5 0;
#X connect 4 0 3 1;
#X connect 5 0 7 1;
#X connect 6 0 12 0;
#X connect 7 0 8 0;
#X connect 8 0 10 0;
#X connect 9 0 4 0;
#X connect 9 1 3 0;
#X connect 10 0 6 0;
#X connect 10 1 11 0;
#X connect 11 0 13 0;
