#N canvas 733 172 450 300 12;
#X obj 1636 496 samplerate~;
#X obj 1596 468 t f b;
#X obj 1596 369 inlet;
#X obj 1596 603 outlet;
#X obj 1596 553 /;
#X obj 1596 419 * 1000;
#X connect 0 0 4 1;
#X connect 1 0 4 0;
#X connect 1 1 0 0;
#X connect 2 0 5 0;
#X connect 4 0 3 0;
#X connect 5 0 1 0;
