#N canvas 2189 133 830 538 12;
#X obj -1 -3 cnv 15 268 83 empty empty empty 20 12 0 14 #e4e4e4 #373737 0;
#X obj 18 103 openpanel;
#X obj 37 499 soundfiler;
#X obj 36 41 bng 25 250 50 0 empty empty empty 17 7 0 10 #e4e4e4 #4d4d4d #373737;
#X obj 107 41 bng 25 250 50 0 empty empty empty 17 7 0 10 #e4e4e4 #4d4d4d #373737;
#X obj 410 216 outlet endBang;
#X obj 247 268 outlet~ signal;
#X text 7 11 Load Sample;
#X text 103 12 Play;
#X obj 227 41 tgl 25 0 empty empty empty 17 7 0 10 #e4e4e4 #4d4d4d #373737 0 1;
#X text 221 11 Loop;
#X obj 445 131 spigot;
#X obj 165 41 bng 25 250 50 0 empty empty empty 17 7 0 10 #e4e4e4 #4d4d4d #373737;
#X text 161 12 Stop;
#X msg 245 141 stop;
#X obj 343 17 array define \$0-mySample 441000;
#X obj 245 207 tabplay~ \$0-mySample;
#X obj 127 285 f \$0;
#X obj 126 331 makefilename %d-mySample;
#X obj 127 236 loadbang;
#X obj 128 374 symbol;
#X obj 41 417 pack s s;
#X obj 17 141 t s b;
#X msg 37 459 read -resize \$1 \$2;
#X obj 402 388 outlet play;
#X connect 1 0 22 0;
#X connect 3 0 1 0;
#X connect 4 0 16 0;
#X connect 4 0 24 0;
#X connect 9 0 11 1;
#X connect 11 0 4 0;
#X connect 12 0 14 0;
#X connect 14 0 16 0;
#X connect 16 0 6 0;
#X connect 16 1 5 0;
#X connect 16 1 11 0;
#X connect 17 0 18 0;
#X connect 18 0 20 0;
#X connect 19 0 17 0;
#X connect 20 0 21 1;
#X connect 21 0 23 0;
#X connect 22 0 21 0;
#X connect 22 1 20 0;
#X connect 23 0 2 0;
#X coords 0 0 1 1 265 78 1 0 0;
