#N canvas 733 172 450 300 (subpatch) 1;
#X obj 1 -1 cnv 15 223 302 empty empty Onset\ Sampler 2 11 0 17 #d0e4bb #373737 0;
#X msg 891 325 stop;
#X obj 22 120 bng 25 250 50 0 empty empty empty 17 7 0 10 #e4e4e4 #4d4d4d #373737;
#X obj 25 308 tabplay~ rec0;
#X obj 745 258 t b b b;
#X obj 891 355 s tabw;
#X obj 774 391 makefilename rec%d;
#X obj 816 455 r tabw;
#X floatatom 805 355 5 0 0 0 - - - 0;
#X obj 74 120 bng 25 250 50 0 empty empty empty 17 7 0 10 #e4e4e4 #4d4d4d #373737;
#X obj 124 120 bng 25 250 50 0 empty empty empty 17 7 0 10 #e4e4e4 #4d4d4d #373737;
#X obj 174 120 bng 25 250 50 0 empty empty empty 17 7 0 10 #e4e4e4 #4d4d4d #373737;
#X obj 77 333 tabplay~ rec1;
#X obj 127 308 tabplay~ rec2;
#X obj 177 333 tabplay~ rec3;
#X obj 745 188 spigot;
#X obj 745 513 tabwrite~;
#X obj 891 295 del 200;
#X obj 929 13 array define rec0 22050;
#X obj 929 45 array define rec1 22050;
#X obj 929 78 array define rec2 22050;
#X obj 929 109 array define rec3 22050;
#X obj 655 455 inlet~ signal;
#X obj 745 45 inlet trigger;
#X text 16 101 Slot 1;
#X text 68 101 Slot 2;
#X text 116 101 Slot 3;
#X text 166 101 Slot 4;
#X obj 1 555 outlet~ signal;
#X msg 774 425 set \$1;
#X obj 929 137 array define rec4 22050;
#X obj 929 169 array define rec5 22050;
#X obj 929 202 array define rec6 22050;
#X obj 929 233 array define rec7 22050;
#X obj 1097 13 array define rec8 22050;
#X obj 1097 45 array define rec9 22050;
#X obj 1097 78 array define rec10 22050;
#X obj 1097 109 array define rec11 22050;
#X obj 1097 137 array define rec12 22050;
#X obj 1097 169 array define rec13 22050;
#X obj 1097 202 array define rec14 22050;
#X obj 1097 233 array define rec15 22050;
#X obj 22 168 bng 25 250 50 0 empty empty empty 17 7 0 10 #e4e4e4 #4d4d4d #373737;
#X obj 74 168 bng 25 250 50 0 empty empty empty 17 7 0 10 #e4e4e4 #4d4d4d #373737;
#X obj 124 168 bng 25 250 50 0 empty empty empty 17 7 0 10 #e4e4e4 #4d4d4d #373737;
#X obj 174 168 bng 25 250 50 0 empty empty empty 17 7 0 10 #e4e4e4 #4d4d4d #373737;
#X obj 22 214 bng 25 250 50 0 empty empty empty 17 7 0 10 #e4e4e4 #4d4d4d #373737;
#X obj 74 214 bng 25 250 50 0 empty empty empty 17 7 0 10 #e4e4e4 #4d4d4d #373737;
#X obj 124 214 bng 25 250 50 0 empty empty empty 17 7 0 10 #e4e4e4 #4d4d4d #373737;
#X obj 174 214 bng 25 250 50 0 empty empty empty 17 7 0 10 #e4e4e4 #4d4d4d #373737;
#X obj 22 262 bng 25 250 50 0 empty empty empty 17 7 0 10 #e4e4e4 #4d4d4d #373737;
#X obj 74 262 bng 25 250 50 0 empty empty empty 17 7 0 10 #e4e4e4 #4d4d4d #373737;
#X obj 124 262 bng 25 250 50 0 empty empty empty 17 7 0 10 #e4e4e4 #4d4d4d #373737;
#X obj 174 262 bng 25 250 50 0 empty empty empty 17 7 0 10 #e4e4e4 #4d4d4d #373737;
#X text 16 149 Slot 5;
#X text 68 149 Slot 6;
#X text 116 149 Slot 7;
#X text 166 149 Slot 8;
#X text 16 195 Slot 9;
#X text 64 195 Slot 10;
#X text 115 195 Slot 11;
#X text 164 195 Slot 12;
#X text 12 243 Slot 13;
#X text 64 243 Slot 14;
#X text 114 243 Slot 15;
#X text 164 243 Slot 16;
#X obj 25 360 tabplay~ rec4;
#X obj 127 360 tabplay~ rec5;
#X obj 77 385 tabplay~ rec6;
#X obj 177 385 tabplay~ rec7;
#X obj 31 411 tabplay~ rec8;
#X obj 133 411 tabplay~ rec9;
#X obj 83 436 tabplay~ rec10;
#X obj 183 436 tabplay~ rec11;
#X obj 41 463 tabplay~ rec12;
#X obj 143 463 tabplay~ rec13;
#X obj 93 488 tabplay~ rec14;
#X obj 193 488 tabplay~ rec15;
#X obj 774 311 counter 0 15;
#X text 16 67 Length, f 7;
#X obj 75 71 hsl 80 15 200 500 0 0 empty empty empty -2 -8 0 10 #e4e4e4 #4d4d4d #373737 0 1;
#X floatatom 170 70 5 0 0 0 - - - 12;
#X obj 622 109 expr floor($f1);
#X obj 664 310 bng 25 250 50 0 empty empty empty 17 7 0 10 #e4e4e4 #4d4d4d #373737;
#X obj 318 -32 * 16;
#X obj 318 7 int;
#X obj 318 46 select 0 1 2 3 4 5 6 7 8 9 10 11 12 13 14 15;
#X obj 198 7 tgl 18 0 empty empty empty 17 7 0 10 #e4e4e4 #4d4d4d #373737 0 1;
#X obj 318 -66 spigot;
#X text 152 6 On/Off;
#X text 17 42 Play;
#X text 157 42 Sample;
#X obj 96 43 hradio 20 1 0 2 empty empty empty 0 -8 0 10 #e4e4e4 #4d4d4d #373737 0;
#X obj 852 137 bng 25 250 50 0 empty empty empty 17 7 0 10 #e4e4e4 #4d4d4d #373737;
#X obj 355 -151 expr abs($f1-1);
#X obj 355 -109 spigot;
#X obj 745 109 spigot;
#X obj 494 -192 inlet beat;
#X obj 494 -123 bng 25 250 50 0 empty empty empty 17 7 0 10 #e4e4e4 #4d4d4d #373737;
#X msg 496 -67 1;
#X msg 535 -67 0;
#X obj 509 -8 expr if($f1==1 \, $f2 \, -1);
#X obj 533 -98 del 20;
#X obj 575 -140 spigot;
#X obj 692 -104 spigot;
#X obj 480 269 t b;
#X obj -42 -409 inlet ipf;
#X obj -42 -368 abs;
#N canvas 733 172 450 300 minmaxnorm 0;
#X obj 716 405 min;
#X floatatom 716 350 5 0 0 0 - - - 12;
#X floatatom 716 499 9 0 0 0 - - - 12;
#X floatatom 865 499 8 0 0 0 - - - 12;
#X text 721 520 Min Wert;
#X obj 865 405 max;
#X text 865 520 Max Wert;
#X obj 655 570 expr $f1-$f2;
#X floatatom 655 596 5 0 0 0 - - - 12;
#X obj 813 350 bng 25 250 50 0 empty empty empty 17 7 0 10 #e4e4e4 #4d4d4d #373737;
#X obj 888 476 0;
#X obj 813 318 inlet reset;
#X obj 806 623 expr $f1/$f2;
#X floatatom 806 648 5 0 0 0 - - - 12;
#X obj 806 802 outlet mapVal;
#X obj 437 350 inlet val;
#X floatatom 836 757 5 0 0 0 - - - 12;
#X obj 746 476 16;
#X connect 0 0 2 0;
#X connect 1 0 0 0;
#X connect 1 0 5 0;
#X connect 2 0 0 1;
#X connect 2 0 7 1;
#X connect 3 0 5 1;
#X connect 3 0 12 1;
#X connect 5 0 3 0;
#X connect 7 0 8 0;
#X connect 8 0 12 0;
#X connect 9 0 10 0;
#X connect 9 0 17 0;
#X connect 10 0 3 0;
#X connect 11 0 9 0;
#X connect 12 0 13 0;
#X connect 13 0 16 0;
#X connect 15 0 1 0;
#X connect 15 0 7 0;
#X connect 16 0 14 0;
#X connect 17 0 2 0;
#X restore 55 -350 pd minmaxnorm;
#X obj 74 -32 initmess 500;
#X connect 1 0 5 0;
#X connect 2 0 3 0;
#X connect 3 0 28 0;
#X connect 4 0 16 0;
#X connect 4 2 17 0;
#X connect 4 2 78 0;
#X connect 6 0 29 0;
#X connect 7 0 16 0;
#X connect 9 0 12 0;
#X connect 10 0 13 0;
#X connect 11 0 14 0;
#X connect 12 0 28 0;
#X connect 13 0 28 0;
#X connect 14 0 28 0;
#X connect 15 0 4 0;
#X connect 17 0 1 0;
#X connect 22 0 16 0;
#X connect 23 0 96 0;
#X connect 29 0 16 0;
#X connect 42 0 66 0;
#X connect 43 0 67 0;
#X connect 44 0 68 0;
#X connect 45 0 69 0;
#X connect 46 0 70 0;
#X connect 47 0 71 0;
#X connect 48 0 72 0;
#X connect 49 0 73 0;
#X connect 50 0 74 0;
#X connect 51 0 75 0;
#X connect 52 0 76 0;
#X connect 53 0 77 0;
#X connect 66 0 28 0;
#X connect 67 0 28 0;
#X connect 68 0 28 0;
#X connect 69 0 28 0;
#X connect 70 0 28 0;
#X connect 71 0 28 0;
#X connect 72 0 28 0;
#X connect 73 0 28 0;
#X connect 74 0 28 0;
#X connect 75 0 28 0;
#X connect 76 0 28 0;
#X connect 77 0 28 0;
#X connect 78 0 6 0;
#X connect 78 0 8 0;
#X connect 80 0 82 0;
#X connect 81 0 17 1;
#X connect 82 0 81 0;
#X connect 83 0 4 0;
#X connect 84 0 85 0;
#X connect 85 0 101 1;
#X connect 86 0 2 0;
#X connect 86 1 9 0;
#X connect 86 2 10 0;
#X connect 86 3 11 0;
#X connect 86 4 42 0;
#X connect 86 5 43 0;
#X connect 86 6 44 0;
#X connect 86 7 45 0;
#X connect 86 8 46 0;
#X connect 86 9 47 0;
#X connect 86 10 48 0;
#X connect 86 11 49 0;
#X connect 86 12 50 0;
#X connect 86 13 51 0;
#X connect 86 14 52 0;
#X connect 86 15 53 0;
#X connect 87 0 96 1;
#X connect 87 0 88 1;
#X connect 87 0 103 1;
#X connect 88 0 84 0;
#X connect 92 0 15 1;
#X connect 92 0 94 0;
#X connect 93 0 15 0;
#X connect 94 0 95 0;
#X connect 94 0 104 1;
#X connect 95 0 88 1;
#X connect 96 0 15 0;
#X connect 97 0 103 0;
#X connect 98 0 99 0;
#X connect 98 0 102 0;
#X connect 99 0 101 0;
#X connect 100 0 101 0;
#X connect 101 0 86 0;
#X connect 102 0 100 0;
#X connect 103 0 104 0;
#X connect 104 0 98 0;
#X connect 106 0 107 0;
#X connect 107 0 108 0;
#X connect 108 0 88 0;
#X connect 109 0 80 0;
#X coords 0 0 1 1 223 300 1 0 0;
