#N canvas 733 172 450 300 12;
#X obj 1082 634 sig~;
#X obj 852 726 lop~ 10;
#X obj 852 763 lop~ 10;
#X obj 852 795 lop~ 10;
#X obj 852 822 lop~ 10;
#X obj 682 909 outlet~;
#X obj 851 565 inlet~ sig;
#X obj 1082 583 inlet freq;
#X connect 0 0 1 1;
#X connect 0 0 2 1;
#X connect 0 0 3 1;
#X connect 0 0 4 1;
#X connect 1 0 2 0;
#X connect 2 0 3 0;
#X connect 3 0 4 0;
#X connect 4 0 5 0;
#X connect 6 0 1 0;
#X connect 7 0 0 0;
