#N canvas 733 172 450 300 (subpatch) 1;
#X obj 175 276 samphold~;
#X obj 175 309 snapshot~;
#X floatatom 57 71 11 0 0 0 - - - 12;
#X obj 289 347 line~;
#X obj 295 276 1;
#X obj 357 276 0;
#X obj 175 339 abs;
#X obj 200 211 inlet bang;
#X obj 97 211 inlet~ signal;
#X obj 241 29 cnv 15 100 60 empty empty empty 20 12 0 14 #b7b7b7 #373737 0;
#X obj 537 75 outlet amp;
#X obj 61 -42 initmess 0.7;
#X obj 295 239 delay 20;
#X obj 363 347 inlet reset;
#N canvas 733 172 450 300 mapMinMax 0;
#X obj 716 405 min;
#X floatatom 716 350 5 0 0 0 - - - 12;
#X floatatom 716 499 9 0 0 0 - - - 12;
#X floatatom 865 499 8 0 0 0 - - - 12;
#X text 721 520 Min Wert;
#X obj 865 405 max;
#X text 865 520 Max Wert;
#X obj 655 570 expr $f1-$f2;
#X floatatom 655 596 5 0 0 0 - - - 12;
#X obj 813 350 bng 25 250 50 0 empty empty empty 17 7 0 10 #e4e4e4 #4d4d4d #373737;
#X obj 888 476 0;
#X obj 746 476 1;
#X obj 813 318 inlet reset;
#X obj 806 623 expr $f1/$f2;
#X floatatom 806 648 5 0 0 0 - - - 12;
#X obj 806 802 outlet mapVal;
#X obj 437 350 inlet val;
#X floatatom 986 623 5 0 0 0 - - - 12;
#X text 976 597 new Min;
#X floatatom 1075 623 5 0 0 0 - - - 12;
#X text 1065 597 new Max;
#X obj 1075 685 expr 1-$f1;
#X floatatom 986 735 5 0 0 0 - - - 12;
#X obj 986 697 +;
#X obj 1029 650 t b;
#X obj 1130 649 t b;
#X obj 986 763 expr 1-$f1;
#X floatatom 986 789 5 0 0 0 - - - 12;
#X obj 836 710 expr ($f1*$f2)+$f3;
#X floatatom 836 757 5 0 0 0 - - - 12;
#X obj 975 528 inlet min;
#X obj 1069 530 inlet max;
#X connect 0 0 2 0;
#X connect 1 0 0 0;
#X connect 1 0 5 0;
#X connect 2 0 0 1;
#X connect 2 0 7 1;
#X connect 3 0 5 1;
#X connect 3 0 13 1;
#X connect 5 0 3 0;
#X connect 7 0 8 0;
#X connect 8 0 13 0;
#X connect 9 0 10 0;
#X connect 9 0 11 0;
#X connect 10 0 3 0;
#X connect 11 0 2 0;
#X connect 12 0 9 0;
#X connect 13 0 14 0;
#X connect 14 0 28 0;
#X connect 16 0 1 0;
#X connect 16 0 7 0;
#X connect 17 0 23 0;
#X connect 17 0 24 0;
#X connect 17 0 28 2;
#X connect 19 0 21 0;
#X connect 19 0 25 0;
#X connect 21 0 23 1;
#X connect 22 0 26 0;
#X connect 23 0 22 0;
#X connect 24 0 23 0;
#X connect 25 0 23 0;
#X connect 26 0 27 0;
#X connect 27 0 28 1;
#X connect 28 0 29 0;
#X connect 29 0 15 0;
#X connect 30 0 17 0;
#X connect 31 0 19 0;
#X restore 175 419 pd mapMinMax;
#X floatatom 51 42 5 0 1 0 - - - 12;
#X floatatom 103 42 5 0 2 0 - - - 12;
#X text 18 41 min;
#X text 145 41 max;
#X text 27 10 Map Current Amplitude;
#X obj -26 -50 initmess 0.3;
#X connect 0 0 1 0;
#X connect 1 0 6 0;
#X connect 2 0 10 0;
#X connect 3 0 0 1;
#X connect 4 0 3 0;
#X connect 5 0 3 0;
#X connect 6 0 14 0;
#X connect 7 0 5 0;
#X connect 7 0 1 0;
#X connect 7 0 12 0;
#X connect 8 0 0 0;
#X connect 11 0 16 0;
#X connect 12 0 4 0;
#X connect 13 0 14 1;
#X connect 14 0 2 0;
#X connect 15 0 14 2;
#X connect 16 0 14 3;
#X connect 20 0 15 0;
#X coords 0 0 1 1 195 104 1 0 0;
