#N canvas 733 172 450 300 12;
#X obj 2716 794 makefilename mn%d;
#X obj 2717 919 array set;
#X msg 2799 912 \; \$1 const 0, f 18;
#X obj 2717 826 t symbol symbol;
#X obj 2717 851 t b symbol;
#X msg 2662 482 clear;
#X obj 2717 542 spigot;
#X obj 2786 529 > 0;
#X obj 2717 503 t f f;
#X obj 2717 628 f;
#X floatatom 2838 597 8 0 0 0 - - - 16;
#X obj 2717 333 sigmund~ -npts 4096;
#X obj 2717 597 cyclone/round 1;
#X obj 2716 744 spigot;
#X obj 2717 708 t f f;
#X obj 2771 721 expr $f1>22 && $f1<127;
#X obj 2717 96 inlet;
#X msg 2746 251 set sample\$1;
#X obj 2717 211 t b b f;
#X obj 2717 292 tabplay~;
#X obj 2717 882 array get;
#X msg 2924 251 sample\$1;
#X obj 2924 278 symbol;
#X floatatom 2857 523 5 0 0 0 - - - 12;
#X obj 2533 427 sel 0;
#X obj 2533 458 bng 25 250 50 0 empty empty empty 0 -10 0 10 #e4e4e4 #4d4d4d #373737;
#X obj 2717 568 else/mov.avg 10;
#X obj 2759 503 abs;
#X obj 2717 420 spigot;
#X obj 2533 359 > 0;
#X obj 2533 326 env~;
#X obj 2533 397 else/changed;
#X msg 2825 186 1;
#X obj 2619 960 outlet note;
#X obj 2530 828 outlet~;
#X obj 2747 143 unpack;
#X msg 3099 529 clear;
#X floatatom 3009 721 5 0 0 0 - - - 12;
#X obj 3008 574 change;
#X obj 2985 960 outlet env;
#X obj 2998 747 f;
#X floatatom 3100 609 5 0 0 0 - - - 12;
#X obj 3008 626 spigot;
#X obj 3008 529 env~ 256 64;
#X obj 3100 583 counter 0 10000;
#X obj 3100 640 < 300;
#X obj 2717 669 spigot;
#X obj 2533 512 t b b;
#X obj 2988 797 > 30;
#X obj 3009 695 else/avg;
#X connect 0 0 3 0;
#X connect 3 0 4 0;
#X connect 3 1 2 0;
#X connect 4 0 20 0;
#X connect 4 1 1 2;
#X connect 5 0 26 0;
#X connect 6 0 26 0;
#X connect 7 0 6 1;
#X connect 8 0 6 0;
#X connect 8 1 27 0;
#X connect 9 0 46 0;
#X connect 11 0 28 0;
#X connect 12 0 9 1;
#X connect 13 0 0 0;
#X connect 13 0 33 0;
#X connect 14 0 13 0;
#X connect 14 1 15 0;
#X connect 15 0 13 1;
#X connect 16 0 35 0;
#X connect 17 0 19 0;
#X connect 18 0 19 0;
#X connect 18 1 5 0;
#X connect 18 1 36 0;
#X connect 18 1 44 2;
#X connect 18 2 17 0;
#X connect 18 2 21 0;
#X connect 19 0 11 0;
#X connect 19 0 30 0;
#X connect 19 0 34 0;
#X connect 19 0 43 0;
#X connect 20 0 1 0;
#X connect 21 0 22 0;
#X connect 22 0 20 2;
#X connect 24 0 25 0;
#X connect 25 0 47 0;
#X connect 26 0 12 0;
#X connect 26 0 10 0;
#X connect 27 0 7 0;
#X connect 28 0 8 0;
#X connect 28 0 23 0;
#X connect 29 0 28 1;
#X connect 29 0 31 0;
#X connect 30 0 29 0;
#X connect 31 0 24 0;
#X connect 32 0 18 0;
#X connect 35 0 18 0;
#X connect 36 0 49 0;
#X connect 37 0 40 1;
#X connect 38 0 42 0;
#X connect 38 0 44 0;
#X connect 40 0 39 0;
#X connect 40 0 48 0;
#X connect 41 0 45 0;
#X connect 42 0 49 0;
#X connect 43 0 38 0;
#X connect 44 0 41 0;
#X connect 45 0 42 1;
#X connect 46 0 14 0;
#X connect 47 0 9 0;
#X connect 47 1 40 0;
#X connect 48 0 46 1;
#X connect 49 0 37 0;
