#N canvas 292 0 1531 980 12;
#X obj 2716 794 makefilename mn%d;
#X obj 2717 919 array set;
#X msg 2799 912 \; \$1 const 0, f 18;
#X obj 2717 826 t symbol symbol;
#X obj 2717 851 t b symbol;
#X msg 2662 482 clear;
#X obj 2717 542 spigot;
#X obj 2786 529 > 0;
#X obj 2717 503 t f f;
#X obj 2706 633 f;
#X floatatom 2838 597 8 0 0 0 - - - 16;
#X obj 2717 333 sigmund~ -npts 4096;
#X obj 2717 597 cyclone/round 1;
#X obj 2716 744 spigot;
#X obj 2717 708 t f f;
#X obj 2771 721 expr $f1>22 && $f1<127;
#X obj 2717 14 inlet;
#X msg 2746 251 set sample\$1;
#X obj 2717 211 t b b f;
#X obj 2717 292 tabplay~;
#X obj 2717 882 array get;
#X msg 2924 251 sample\$1;
#X obj 2924 278 symbol;
#X floatatom 2857 523 5 0 0 0 - - - 12;
#X obj 2533 427 sel 0;
#X obj 2533 458 bng 25 250 50 0 empty empty empty 0 -10 0 10 #e4e4e4 #4d4d4d #373737;
#X obj 2759 503 abs;
#X obj 2717 439 spigot;
#X obj 2533 303 env~;
#X obj 2533 397 else/changed;
#X obj 2619 960 outlet note;
#X obj 2530 828 outlet~;
#X obj 2717 41 unpack;
#X obj 2985 960 outlet env;
#X obj 2998 747 f;
#X obj 2533 512 t b b;
#X obj 3065 98 ../utility/millis2samps;
#X obj 2915 143 <;
#X obj 3065 41 loadbang;
#X obj 2915 41 array get sample\$1;
#X msg 3013 -16 sample\$1;
#X obj 2717 66 t f b f;
#X obj 3013 14 symbol;
#X obj 2915 73 cyclone/zl filter 0;
#X obj 2533 359 > 0;
#X obj 2717 568 avg;
#X obj 2717 378 clip 0 127;
#X msg 3065 73 50;
#X connect 0 0 3 0;
#X connect 3 0 4 0;
#X connect 3 1 2 0;
#X connect 4 0 20 0;
#X connect 4 1 1 2;
#X connect 5 0 45 0;
#X connect 6 0 45 0;
#X connect 7 0 6 1;
#X connect 8 0 6 0;
#X connect 8 1 26 0;
#X connect 9 0 14 0;
#X connect 11 0 46 0;
#X connect 12 0 9 1;
#X connect 13 0 0 0;
#X connect 13 0 30 0;
#X connect 14 0 13 0;
#X connect 14 1 15 0;
#X connect 15 0 13 1;
#X connect 16 0 32 0;
#X connect 17 0 19 0;
#X connect 18 0 19 0;
#X connect 18 1 5 0;
#X connect 18 2 17 0;
#X connect 18 2 21 0;
#X connect 19 0 11 0;
#X connect 19 0 31 0;
#X connect 19 0 28 0;
#X connect 20 0 1 0;
#X connect 21 0 22 0;
#X connect 22 0 20 2;
#X connect 24 0 25 0;
#X connect 25 0 35 0;
#X connect 26 0 7 0;
#X connect 27 0 8 0;
#X connect 27 0 23 0;
#X connect 28 0 44 0;
#X connect 29 0 24 0;
#X connect 32 0 41 0;
#X connect 34 0 33 0;
#X connect 35 1 34 0;
#X connect 35 1 9 0;
#X connect 36 0 37 1;
#X connect 38 0 47 0;
#X connect 39 0 43 0;
#X connect 40 0 42 0;
#X connect 41 0 18 0;
#X connect 41 1 39 0;
#X connect 41 2 40 0;
#X connect 42 0 39 2;
#X connect 43 0 37 0;
#X connect 44 0 29 0;
#X connect 44 0 27 1;
#X connect 45 0 12 0;
#X connect 45 0 10 0;
#X connect 46 0 27 0;
#X connect 47 0 36 0;
