#N canvas 733 172 450 300 12;
#X obj 984 526 ../utility/samps2millis;
#X obj 984 853 *~;
#X floatatom 1110 685 5 0 0 0 - - - 12;
#X obj 1110 715 f2s~;
#X obj 1110 658 timed.gate;
#X obj 1113 604 t b f;
#X msg 1090 632 1;
#X obj 1110 753 sel 0 1;
#X msg 1110 784 stop;
#X obj 984 609 + 45;
#X obj 845 912 sigmund~;
#X obj 845 1008 f2s~;
#X obj 845 1067 s2f~;
#X obj 845 974 spigot;
#X obj 845 943 timed.gate 200;
#X floatatom 907 974 5 0 0 0 - - - 12;
#X obj 845 1097 int;
#X obj 845 1128 f;
#X floatatom 845 1158 5 0 0 0 - - - 12;
#X obj 845 1036 median~ 8800;
#X obj 984 446 inlet;
#X obj 984 943 tabwrite~ buf\$1;
#X obj 774 609 array define buf\$1 44100;
#X msg 795 574 const 0;
#X obj 984 488 unpack;
#X obj 984 715 delread~ buffer;
#X obj 811 446 samplerate~;
#X obj 774 380 loadbang;
#X obj 774 477 * 3;
#X obj 774 412 t b b;
#X obj 869 394 bng 25 250 50 0 empty empty empty 0 -10 0 10 #e4e4e4 #4d4d4d #373737;
#X msg 774 514 resize \$1;
#X obj 1113 574 - 150;
#X obj 845 1257 outlet note;
#X obj 945 1257 outlet length;
#X obj 984 574 t f f b;
#X connect 0 0 35 0;
#X connect 1 0 10 0;
#X connect 1 0 21 0;
#X connect 2 0 3 0;
#X connect 2 0 7 0;
#X connect 3 0 1 1;
#X connect 4 0 2 0;
#X connect 5 0 6 0;
#X connect 5 1 4 1;
#X connect 5 1 34 0;
#X connect 6 0 4 0;
#X connect 7 0 8 0;
#X connect 7 0 17 0;
#X connect 7 1 14 0;
#X connect 7 1 21 0;
#X connect 8 0 21 0;
#X connect 9 0 25 0;
#X connect 10 0 13 0;
#X connect 11 0 19 0;
#X connect 12 0 16 0;
#X connect 13 0 11 0;
#X connect 14 0 13 1;
#X connect 14 0 15 0;
#X connect 16 0 17 1;
#X connect 17 0 18 0;
#X connect 18 0 33 0;
#X connect 19 0 12 0;
#X connect 20 0 24 0;
#X connect 23 0 22 0;
#X connect 24 0 0 0;
#X connect 25 0 1 0;
#X connect 26 0 28 0;
#X connect 27 0 29 0;
#X connect 28 0 31 0;
#X connect 29 0 28 0;
#X connect 29 1 26 0;
#X connect 30 0 29 0;
#X connect 31 0 22 0;
#X connect 32 0 5 0;
#X connect 35 0 9 0;
#X connect 35 1 32 0;
#X connect 35 2 23 0;
