#N canvas 733 172 450 300 12;
#X obj 984 537 ../utility/samps2millis;
#X obj 984 853 *~;
#X floatatom 1110 685 5 0 0 0 - - - 12;
#X obj 1110 715 f2s~;
#X obj 1110 658 timed.gate;
#X obj 1113 604 t b f;
#X msg 1090 632 1;
#X obj 1110 753 sel 0 1;
#X msg 1110 784 stop;
#X obj 984 609 + 45;
#X obj 845 912 sigmund~;
#X obj 845 1008 f2s~;
#X obj 845 1067 s2f~;
#X obj 845 974 spigot;
#X obj 845 943 timed.gate 200;
#X floatatom 907 974 5 0 0 0 - - - 12;
#X obj 845 1097 int;
#X obj 845 1128 f;
#X floatatom 845 1158 5 0 0 0 - - - 12;
#X obj 845 1036 median~ 8800;
#X obj 984 446 inlet;
#X obj 845 1228 outlet;
#X obj 984 933 tabwrite~ buf\$1;
#X obj 640 609 array define buf\$1 44100;
#X msg 634 574 const 0;
#X obj 1113 574 - 150;
#X obj 640 715 delread~ buffer0;
#X obj 757 715 delread~ buffer1, f 15;
#X obj 871 715 delread~ buffer2;
#X obj 984 715 delread~ buffer3;
#X obj 732 795 selector~ 4;
#X obj 984 488 unpack;
#X connect 0 0 24 0;
#X connect 0 0 25 0;
#X connect 0 0 9 0;
#X connect 1 0 10 0;
#X connect 1 0 22 0;
#X connect 2 0 3 0;
#X connect 2 0 7 0;
#X connect 3 0 1 1;
#X connect 4 0 2 0;
#X connect 5 0 6 0;
#X connect 5 1 4 1;
#X connect 6 0 4 0;
#X connect 7 0 8 0;
#X connect 7 0 17 0;
#X connect 7 1 14 0;
#X connect 7 1 22 0;
#X connect 8 0 22 0;
#X connect 9 0 29 0;
#X connect 9 0 28 0;
#X connect 9 0 27 0;
#X connect 9 0 26 0;
#X connect 10 0 13 0;
#X connect 11 0 19 0;
#X connect 12 0 16 0;
#X connect 13 0 11 0;
#X connect 14 0 13 1;
#X connect 14 0 15 0;
#X connect 16 0 17 1;
#X connect 17 0 18 0;
#X connect 18 0 21 0;
#X connect 19 0 12 0;
#X connect 20 0 31 0;
#X connect 24 0 23 0;
#X connect 25 0 5 0;
#X connect 26 0 30 0;
#X connect 27 0 30 1;
#X connect 28 0 30 2;
#X connect 29 0 30 3;
#X connect 30 0 1 0;
#X connect 31 0 0 0;
#X connect 31 1 30 4;
