#N canvas 733 172 450 300 12;
#X obj 984 537 ../utility/samps2millis;
#X obj 984 753 *~;
#X floatatom 1085 685 5 0 0 0 - - - 12;
#X obj 1085 715 f2s~;
#X obj 1085 658 timed.gate;
#X obj 1088 604 t b f;
#X msg 1090 632 1;
#X obj 1085 753 sel 0 1;
#X msg 1085 784 stop;
#X obj 984 574 + 45;
#X obj 845 812 sigmund~;
#X obj 845 908 f2s~;
#X obj 845 967 s2f~;
#X obj 845 874 spigot;
#X obj 845 843 timed.gate 200;
#X floatatom 907 874 5 0 0 0 - - - 12;
#X obj 845 997 int;
#X obj 845 1028 f;
#X floatatom 845 1058 5 0 0 0 - - - 12;
#X obj 845 936 median~ 8800;
#X obj 938 447 inlet;
#X obj 845 1128 outlet;
#X obj 984 833 tabwrite~ buf\$1;
#X obj 640 609 array define buf\$1 44100;
#X obj 984 715 delread~ buffer;
#X msg 634 574 const 0;
#X obj 1088 574 - 150;
#X connect 0 0 9 0;
#X connect 0 0 25 0;
#X connect 0 0 26 0;
#X connect 1 0 10 0;
#X connect 1 0 22 0;
#X connect 2 0 3 0;
#X connect 2 0 7 0;
#X connect 3 0 1 1;
#X connect 4 0 2 0;
#X connect 5 0 6 0;
#X connect 5 1 4 1;
#X connect 6 0 4 0;
#X connect 7 0 8 0;
#X connect 7 0 17 0;
#X connect 7 1 14 0;
#X connect 7 1 22 0;
#X connect 8 0 22 0;
#X connect 9 0 24 0;
#X connect 10 0 13 0;
#X connect 11 0 19 0;
#X connect 12 0 16 0;
#X connect 13 0 11 0;
#X connect 14 0 13 1;
#X connect 14 0 15 0;
#X connect 16 0 17 1;
#X connect 17 0 18 0;
#X connect 18 0 21 0;
#X connect 19 0 12 0;
#X connect 20 0 0 0;
#X connect 24 0 1 0;
#X connect 25 0 23 0;
#X connect 26 0 5 0;
