#N canvas 733 172 450 300 12;
#X obj 2091 296 pack;
#X obj 2143 228 spigot;
#X obj 2172 198 >;
#X obj 2221 172 r \$0-minlength;
#X obj 2143 172 t f f;
#X obj 2088 228 spigot;
#X obj 2091 266 -;
#X obj 2092 361 t list b;
#X obj 2175 411 makefilename sample%d;
#X obj 2092 476 array set;
#X msg 2257 476 \; \$1 const 0;
#X obj 2175 441 t b symbol symbol;
#X obj 2175 380 cyclone/counter 0 7;
#X obj 2222 328 r \$0-clear;
#X obj 2488 403 outlet samplenr;
#X obj 2191 92 inlet envgate;
#X obj 1937 92 inlet onsetsample;
#X obj 2088 92 inlet length;
#X obj 2492 192 loadbang;
#X msg 2492 252 setmin \$1;
#X obj 2575 192 loadbang;
#X msg 2575 252 max \$1;
#X obj 2091 328 array get sampler0;
#X obj 2371 192 loadbang;
#X obj 2371 284 symbol;
#X msg 2371 252 sampler\$1;
#X obj 2371 222 \$1;
#X obj 2492 222 \$2;
#X obj 2575 222 \$3;
#X obj 1932 328 array get sampler0pitch;
#X obj 1932 479 bng 25 250 50 0 empty empty empty 0 -10 0 10 #e4e4e4 #4d4d4d #373737;
#X floatatom 1932 550 5 0 0 0 - - - 12;
#X obj 1932 608 f2s~;
#X obj 1932 666 s2f~;
#X obj 1932 361 t b list;
#X obj 1932 519 ../utility/countertempo 20000 0.005;
#X obj 1932 696 int;
#X obj 1932 635 median~ 20000;
#X obj 2096 579 sel 20000;
#X obj 1932 736 f;
#X floatatom 1932 762 5 0 0 0 - - - 12;
#X obj 1932 805 outlet midipitch;
#X obj 1732 252 array define \$0-pitchstore 140001;
#X obj 1954 395 array set \$0-pitchstore;
#X obj 1932 579 tabread \$0-pitchstore;
#X connect 0 0 22 0;
#X connect 0 0 29 0;
#X connect 1 0 6 1;
#X connect 1 0 0 1;
#X connect 2 0 1 1;
#X connect 3 0 2 1;
#X connect 4 0 1 0;
#X connect 4 1 2 0;
#X connect 5 0 6 0;
#X connect 6 0 0 0;
#X connect 7 0 9 0;
#X connect 7 1 12 0;
#X connect 8 0 11 0;
#X connect 11 1 9 2;
#X connect 11 2 10 0;
#X connect 12 0 8 0;
#X connect 12 0 14 0;
#X connect 13 0 12 2;
#X connect 15 0 5 1;
#X connect 16 0 5 0;
#X connect 17 0 4 0;
#X connect 18 0 27 0;
#X connect 19 0 12 0;
#X connect 20 0 28 0;
#X connect 21 0 12 0;
#X connect 22 0 7 0;
#X connect 23 0 26 0;
#X connect 24 0 22 2;
#X connect 25 0 24 0;
#X connect 26 0 25 0;
#X connect 27 0 19 0;
#X connect 28 0 21 0;
#X connect 29 0 34 0;
#X connect 30 0 35 0;
#X connect 31 0 44 0;
#X connect 32 0 37 0;
#X connect 33 0 36 0;
#X connect 34 0 30 0;
#X connect 34 1 43 0;
#X connect 35 0 31 0;
#X connect 35 0 38 0;
#X connect 36 0 39 1;
#X connect 37 0 33 0;
#X connect 38 0 39 0;
#X connect 39 0 40 0;
#X connect 40 0 41 0;
#X connect 44 0 32 0;
