#N canvas 827 239 734 565 12;
#X obj 15 83 inlet;
#X floatatom 15 161 5 0 0 0 - - - 12;
#X floatatom 64 161 5 0 0 0 - - - 12;
#X obj 15 335 array get;
#X msg 81 226 sample\$1;
#X obj 81 253 symbol;
#X obj 9 21 array define mn\$1 44100;
#X obj 318 104 int;
#X floatatom 318 130 5 0 0 0 - - - 12;
#X obj 318 163 *;
#X msg 318 191 resize \$1;
#X obj 382 104 t b;
#X obj 382 130 samplerate~;
#X obj 318 231 s mn\$1;
#X obj 15 393 array set mn\$1;
#X obj 15 297 t b symbol b;
#X msg 128 325 const 0;
#X obj 129 358 s mn\$1;
#X obj 318 21 loadbang;
#X msg 319 59 3;
#X obj 132 96 t b;
#X floatatom 113 161 5 0 0 0 - - - 12;
#X obj 15 122 unpack f f f;
#X connect 0 0 20 0;
#X connect 0 0 22 0;
#X connect 3 0 14 0;
#X connect 4 0 5 0;
#X connect 5 0 15 0;
#X connect 7 0 8 0;
#X connect 8 0 9 0;
#X connect 9 0 10 0;
#X connect 10 0 13 0;
#X connect 11 0 12 0;
#X connect 12 0 9 1;
#X connect 15 0 3 0;
#X connect 15 1 3 2;
#X connect 15 2 16 0;
#X connect 16 0 17 0;
#X connect 18 0 19 0;
#X connect 19 0 7 0;
#X connect 19 0 11 0;
#X connect 20 0 19 0;
#X connect 21 0 4 0;
#X connect 22 0 1 0;
#X connect 22 1 2 0;
#X connect 22 2 21 0;
