#N canvas 827 239 734 565 12;
#X obj 21 21 array define mn\$1 44100;
#X obj 237 109 int;
#X floatatom 237 135 5 0 0 0 - - - 12;
#X obj 237 168 *;
#X obj 301 109 t b;
#X obj 301 135 samplerate~;
#X obj 237 21 loadbang;
#X msg 238 64 3;
#X connect 1 0 2 0;
#X connect 2 0 3 0;
#X connect 3 0 0 0;
#X connect 4 0 5 0;
#X connect 5 0 3 1;
#X connect 6 0 7 0;
#X connect 7 0 1 0;
#X connect 7 0 4 0;
