#N canvas 827 239 734 565 12;
#X obj 15 52 inlet;
#X obj 15 335 array get;
#X msg 56 191 sample\$1;
#X obj 56 218 symbol;
#X obj 9 21 array define mn\$1 44100;
#X obj 318 104 int;
#X floatatom 318 130 5 0 0 0 - - - 12;
#X obj 318 163 *;
#X msg 318 191 resize \$1;
#X obj 382 104 t b;
#X obj 382 130 samplerate~;
#X obj 318 231 s mn\$1;
#X obj 15 393 array set mn\$1;
#X obj 15 297 t b symbol b;
#X msg 128 325 const 0;
#X obj 129 358 s mn\$1;
#X obj 318 21 loadbang;
#X msg 319 59 3;
#X obj 132 96 t b;
#X floatatom 56 161 5 0 0 0 - - - 12;
#X obj 169 191 bng 25 250 50 0 empty empty empty 0 -10 0 10 #e4e4e4 #4d4d4d #373737;
#X msg 169 226 const 0;
#X obj 169 258 s mn\$1;
#X floatatom 15 161 5 0 0 0 - - - 12;
#X obj 15 122 unpack f f;
#X obj 169 161 sel -1;
#X connect 0 0 18 0;
#X connect 0 0 24 0;
#X connect 1 0 12 0;
#X connect 2 0 3 0;
#X connect 3 0 13 0;
#X connect 5 0 6 0;
#X connect 6 0 7 0;
#X connect 7 0 8 0;
#X connect 8 0 11 0;
#X connect 9 0 10 0;
#X connect 10 0 7 1;
#X connect 13 0 1 0;
#X connect 13 1 1 2;
#X connect 13 2 14 0;
#X connect 14 0 15 0;
#X connect 16 0 17 0;
#X connect 17 0 5 0;
#X connect 17 0 9 0;
#X connect 18 0 17 0;
#X connect 19 0 2 0;
#X connect 20 0 21 0;
#X connect 21 0 22 0;
#X connect 24 0 23 0;
#X connect 24 1 25 0;
#X connect 25 0 20 0;
#X connect 25 1 19 0;
