#N canvas 1440 25 1920 1027 12;
#X obj 0 161 cnv 15 220 149 empty empty ADSR 2 11 0 17 #a8b9e4 #373737 0;
#N canvas 0 0 450 250 (subpatch) 0;
#X array \$0-rec 360000 float 4;
#X coords 0 1 359999 -1 813 185 1;
#X restore 1482 991 graph;
#N canvas 0 0 450 250 (subpatch) 0;
#X array \$0-onsets 360000 float 2;
#X coords 0 1 360000 0 813 185 1;
#X restore 1482 991 graph;
#X msg 203 1084 1;
#X obj 236 855 timer;
#X obj 225 1046 - 4096;
#X obj 359 855 timer;
#X obj 429 821 s \$0-reset;
#X obj 154 794 r \$0-reset;
#X obj 326 910 t b;
#X msg 155 827 0;
#X obj 359 994 sel 1;
#X obj 225 946 f;
#X obj 225 1073 t b;
#X floatatom 359 881 5 0 0 0 - - - 12;
#X obj 261 979 t b;
#X floatatom 236 881 5 0 0 0 - - - 12;
#X obj 359 821 t b b;
#X obj 236 911 pipe 10;
#X obj 359 910 > \$1;
#X obj 416 994 s \$0-length;
#X obj 333 1110 s \$0-start;
#X obj 1388 76 r \$0-start;
#X obj 1448 76 r \$0-length;
#X obj 1377 184 f;
#X obj 1437 184 f;
#X obj 1346 205 t b;
#X obj 1310 146 t b b;
#X obj 1366 112 t b;
#X obj 1233 275 s \$0-counter;
#X obj 1491 125 r \$0-counter;
#X obj 1346 275 bng 25 250 50 0 empty empty empty 17 7 0 10 #e4e4e4 #4d4d4d #373737;
#X obj 1492 267 symbol;
#X obj 1491 178 f \$1;
#X symbolatom 1492 329 10 0 0 0 - - - 0;
#X obj 1490 224 makefilename s%d;
#X obj 359 946 f;
#X obj 359 1046 s \$0-count;
#X obj 1233 203 r \$0-count;
#X obj 1377 356 array set;
#X obj 1716 256 array define s1 96000;
#X obj 1716 225 array define s0 96000;
#X obj 1716 287 array define s2 96000;
#X obj 1716 322 array define s3 96000;
#X obj 1716 355 array define s4 96000;
#X obj 1716 387 array define s5 96000;
#X obj 1716 423 array define s6 96000;
#X obj 1716 455 array define s7 96000;
#X obj 1872 225 array define s8 96000;
#X obj 1872 256 array define s9 96000;
#X obj 1872 287 array define s10 96000;
#X obj 1872 322 array define s11 96000;
#X obj 1872 355 array define s12 96000;
#X obj 1872 387 array define s13 96000;
#X obj 1872 423 array define s14 96000;
#X obj 1872 455 array define s15 96000;
#X obj 1 1 cnv 15 220 160 empty empty Onset\ Sampler 2 11 0 17 #d0e4bb #373737 0;
#X obj 75 73 hsl 80 15 100 2000 0 0 empty empty empty -2 -8 0 10 #e4e4e4 #4d4d4d #373737 0 1;
#X floatatom 162 72 4 0 0 1 ms - - 10;
#X obj 198 9 tgl 18 0 empty empty empty 17 7 0 10 #e4e4e4 #4d4d4d #373737 0 1;
#X text 152 8 On/Off;
#X obj 91 46 hradio 20 1 0 2 empty empty empty 0 -8 0 10 #e4e4e4 #4d4d4d #373737 0;
#X msg 1555 329 \; \$1 const 0, f 18;
#X obj 3 535 inlet~ audio;
#X obj 238 73 s record;
#X obj 3 638 *~;
#X obj 601 80 inlet midi;
#X text 7 187 Attack;
#X text 7 216 Decay;
#X text 7 246 Sustain;
#X text 7 276 Release;
#X obj 64 188 hsl 93 17 5 400 0 0 \$0-attack empty empty -2 -8 0 10 #e4e4e4 #4d4d4d #373737 0 1;
#X obj 64 217 hsl 93 17 10 1000 0 0 \$0-decay empty empty -2 -8 0 10 #e4e4e4 #4d4d4d #373737 0 1;
#X obj 64 247 hsl 93 17 0 1 0 0 \$0-sustain empty empty -2 -8 0 10 #e4e4e4 #4d4d4d #373737 0 1;
#X obj 64 277 hsl 93 17 10 2000 0 0 \$0-release empty empty -2 -8 0 10 #e4e4e4 #4d4d4d #373737 0 1;
#X obj 416 946 - 6144;
#X text 1 70 Min.Length, f 11;
#X floatatom 169 188 5 0 0 1 ms \$0-attack - 0;
#X floatatom 169 217 5 0 0 1 ms \$0-decay - 0;
#X floatatom 169 247 5 0 0 1 - \$0-sustain - 0;
#X floatatom 169 277 4 0 0 1 ms \$0-release - 10;
#X text 15 45 Continuous;
#X text 90 25 Mode;
#X obj 200 48 bng 14 250 50 0 empty empty Rec 0 -5 0 7 #e42f00 #4c4c4c #373737;
#X obj 117 -30 inlet mode;
#X obj 246 5 s \$0-bypass;
#X obj 243 -30 inlet bypass;
#X obj 385 699 spigot;
#X obj 49 564 r \$0-bypass;
#X obj 405 589 r record;
#X obj 49 599 sig~;
#X obj 695 101 spigot;
#X obj 814 80 r \$0-bypass;
#X obj 601 33 else/note 553 24 Inter empty 5 54 54 54 0 209 225 225 1 1 MIDI/Playback Handling;
#X obj 0 457 else/note 821 24 Inter empty 5 54 54 54 0 209 225 225 1 1 Analyzing;
#X obj 1243 31 else/note 1095 24 Inter empty 5 54 54 54 0 209 225 225 1 1 Save Samples;
#X obj 334 649 tgl 25 0 empty empty empty 17 7 0 10 #e4e4e4 #4d4d4d #373737 0 1;
#X obj 252 679 spigot;
#X obj 405 623 pipe 10000;
#X obj 305 73 s mode;
#X obj 599 621 r mode;
#X obj 599 651 sel 0 1;
#X obj 502 714 spigot;
#X obj 75 100 hsl 80 15 5 30 0 0 \$0-reclength empty empty -2 -8 0 10 #e4e4e4 #4d4d4d #373737 0 1;
#X floatatom 162 99 2 0 0 1 s \$0-reclength - 12;
#X text 1 97 Rec Length, f 11;
#X obj 238 99 else/initmess 15;
#X obj 1377 226 array get \$0-rec;
#X obj 1314 991 r \$0-reclength;
#X obj 1314 1021 int;
#X floatatom 1314 1047 5 0 0 0 - - - 12;
#X obj 1362 1084 *;
#X obj 1378 1047 samplerate~;
#X msg 1362 1112 resize \$1;
#X obj 1362 1138 s \$0-rec;
#X obj 1378 1021 t b;
#X obj 1364 1171 s \$0-onsets;
#X obj 201 1110 tabwrite \$0-onsets;
#X obj -25 867 tabwrite~ \$0-rec;
#X obj 599 714 metro 10000;
#X obj 188 -54 else/initmess 1;
#X msg 546 821 const 0;
#X obj 546 855 s \$0-onsets;
#X msg 614 685 0;
#X obj 200 109 bng 14 250 50 0 empty empty Clear 0 -5 0 7 #2b2ae4 #4c4c4c #373737;
#X obj 348 123 s \$0-clear;
#X msg 1845 185 const 0;
#X obj 1845 151 r \$0-clear;
#X obj 695 -55 else/keyboard 16 80 4 2 0 0 empty empty;
#X obj 416 910 else/ms2samps;
#X obj 225 1009 else/ms2samps;
#X obj 1233 237 cyclone/counter 0 15;
#X msg 3 821 stop;
#X obj 252 632 spigot;
#X obj 333 524 r mode;
#X obj 333 557 sel 0 1;
#X msg 336 587 1;
#X msg 367 589 0;
#X obj 3 767 r mode;
#X obj 3 791 t b;
#X obj 57 821 r record;
#X obj 678 621 r \$0-reclength;
#X obj 678 651 * 1000;
#X obj 1232 991 loadbang;
#X obj 2023 225 array define s16 96000;
#X obj 2023 256 array define s17 96000;
#X obj 2023 287 array define s18 96000;
#X obj 2023 322 array define s19 96000;
#X obj 2023 355 array define s20 96000;
#X obj 2023 387 array define s21 96000;
#X obj 2063 161 *;
#X obj 2106 127 samplerate~;
#X msg 2063 190 resize \$1;
#X obj 2177 318 array define s27 96000;
#X obj 2177 353 array define s28 96000;
#X obj 2177 386 array define s29 96000;
#X obj 2177 418 array define s30 96000;
#X obj 2177 454 array define s31 96000;
#X obj 2063 127 t f b;
#X obj 75 125 hsl 80 15 5 32 0 0 \$0-slots empty empty -2 -8 0 10 #e4e4e4 #4d4d4d #373737 0 1;
#X floatatom 162 124 2 0 0 1 - - - 12;
#X text 1 122 Slots, f 11;
#X obj 248 233 r \$0-slots;
#X obj 248 261 int;
#X obj 2023 423 array define s22 96000;
#X obj 2023 455 array define s23 96000;
#X obj 2177 225 array define s24 96000;
#X obj 2177 287 array define s25 96000;
#X obj 2177 256 array define s26 96000;
#X obj 1252 99 r \$0-slots;
#X obj 1252 127 int;
#X obj 1252 155 -1;
#X obj 3 727 s \$0-onset;
#X obj 252 589 r \$0-onset;
#X msg 49 663 @threshold 0.8;
#X obj 49 638 loadbang;
#X obj -90 98 initmess 16;
#X obj 94 -55 else/initmess 0;
#X obj -5 -30 else/initmess 350;
#X text 137 45 Freeze;
#X obj -5 -67 ceammc;
#X obj 3 689 an.onset~ 2048 energy;
#X obj 2063 100 else/initmess 3;
#X obj 238 188 else/initmess 1000;
#X obj 238 166 else/initmess 1;
#X obj 238 143 else/initmess 0;
#X obj 827 183 r \$0-attack;
#X obj 906 183 r \$0-decay;
#X obj 992 183 r \$0-sustain;
#X obj 1082 183 r \$0-release;
#X floatatom 697 183 5 0 0 0 - - - 10;
#X floatatom 736 183 5 0 0 0 - - - 12;
#X floatatom 783 183 5 0 0 0 - - - 12;
#X obj 695 252 pack f f f f f f f;
#X obj 695 329 outlet~ signal;
#X obj 695 209 - 1;
#X obj 695 293 clone voice 8;
#X obj 502 621 r \$0-bypass;
#X obj 248 299 s \$0-minlength;
#X obj 416 855 r \$0-minlength;
#X obj 64 1171 sigmund~ -hop 4096 pitch;
#X obj 64 1414 symbol;
#X symbolatom 64 1443 10 0 0 0 - - - 0;
#X obj 32 1545 array set;
#X obj 32 1517 array get \$0-rec;
#X obj 10 1171 t b;
#X msg 10 1261 clear;
#X obj 64 1199 >= 0;
#X obj 64 1235 spigot;
#X floatatom 64 1261 5 0 0 0 - - - 12;
#X obj 64 1286 avg;
#X floatatom 64 1312 5 0 0 0 - - - 12;
#X obj 64 1379 makefilename mn%d;
#X obj 64 1350 f;
#X obj 13 1480 r \$0-start;
#X obj 73 1480 r \$0-length;
#X obj 10 1138 r \$0-count;
#X obj 2400 279 array define mn22 9600;
#X obj 2400 306 array define mn23 9600;
#X obj 2400 333 array define mn24 9600;
#X obj 2400 360 array define mn25 9600;
#X obj 2400 387 array define mn26 9600;
#X obj 2400 414 array define mn27 9600;
#X obj 2400 441 array define mn28 9600;
#X obj 2400 468 array define mn29 9600;
#X obj 2400 495 array define mn30 9600;
#X obj 2400 522 array define mn31 9600;
#X obj 2400 549 array define mn32 9600;
#X obj 2400 576 array define mn33 9600;
#X obj 2400 603 array define mn34 9600;
#X obj 2400 630 array define mn35 9600;
#X obj 2400 657 array define mn36 9600;
#X obj 2400 684 array define mn37 9600;
#X obj 2400 711 array define mn38 9600;
#X obj 2400 738 array define mn39 9600;
#X obj 2400 765 array define mn40 9600;
#X obj 2400 792 array define mn41 9600;
#X obj 2400 819 array define mn42 9600;
#X obj 2400 846 array define mn43 9600;
#X obj 2400 873 array define mn44 9600;
#X obj 2400 900 array define mn45 9600;
#X obj 2400 927 array define mn46 9600;
#X obj 2400 954 array define mn47 9600;
#X obj 2400 981 array define mn48 9600;
#X obj 2400 1008 array define mn49 9600;
#X obj 2400 1035 array define mn50 9600;
#X obj 2400 1062 array define mn51 9600;
#X obj 2400 1089 array define mn52 9600;
#X obj 2400 1116 array define mn53 9600;
#X obj 2400 1143 array define mn54 9600;
#X obj 2400 1170 array define mn55 9600;
#X obj 2400 1197 array define mn56 9600;
#X obj 2400 1224 array define mn57 9600;
#X obj 2400 1251 array define mn58 9600;
#X obj 2400 1278 array define mn59 9600;
#X obj 2400 1305 array define mn60 9600;
#X obj 2400 1332 array define mn61 9600;
#X obj 2400 1359 array define mn62 9600;
#X obj 2400 1386 array define mn63 9600;
#X obj 2400 1413 array define mn64 9600;
#X obj 2400 1440 array define mn65 9600;
#X obj 2400 1467 array define mn66 9600;
#X obj 2400 1494 array define mn67 9600;
#X obj 2400 1521 array define mn68 9600;
#X obj 2400 1548 array define mn69 9600;
#X obj 2400 1575 array define mn70 9600;
#X obj 2400 1602 array define mn71 9600;
#X obj 2400 1629 array define mn72 9600;
#X obj 2400 1656 array define mn73 9600;
#X obj 2400 1683 array define mn74 9600;
#X obj 2400 1710 array define mn75 9600;
#X obj 2400 1737 array define mn76 9600;
#X obj 2400 1764 array define mn77 9600;
#X obj 2400 1791 array define mn78 9600;
#X obj 2400 1818 array define mn79 9600;
#X obj 2400 1845 array define mn80 9600;
#X msg 164 1454 \; \$1 const 0, f 18;
#X obj 695 143 poly 1 1;
#X obj 736 209 % 16;
#X obj 238 123 else/initmess 100;
#X obj 815 341 dac~;
#X obj 927 273 bng 25 250 50 0 empty empty empty 17 7 0 10 #e4e4e4 #4d4d4d #373737;
#X obj 917 322 tabplay~ mn56;
#X connect 3 0 117 0;
#X connect 4 0 16 0;
#X connect 5 0 21 0;
#X connect 5 0 117 1;
#X connect 5 0 13 0;
#X connect 6 0 14 0;
#X connect 8 0 4 0;
#X connect 8 0 10 0;
#X connect 9 0 36 0;
#X connect 10 0 12 0;
#X connect 10 0 14 0;
#X connect 10 0 36 0;
#X connect 10 0 117 1;
#X connect 10 0 117 0;
#X connect 11 0 12 0;
#X connect 11 0 37 0;
#X connect 12 0 15 0;
#X connect 12 0 130 0;
#X connect 13 0 3 0;
#X connect 14 0 19 0;
#X connect 14 0 129 0;
#X connect 15 0 130 0;
#X connect 16 0 18 0;
#X connect 17 0 6 0;
#X connect 17 1 6 1;
#X connect 18 0 12 1;
#X connect 19 0 36 1;
#X connect 22 0 28 0;
#X connect 22 0 24 1;
#X connect 23 0 25 1;
#X connect 24 0 26 0;
#X connect 24 0 107 0;
#X connect 25 0 107 1;
#X connect 26 0 107 0;
#X connect 27 0 24 0;
#X connect 27 0 25 0;
#X connect 28 0 27 0;
#X connect 30 0 33 0;
#X connect 31 0 107 0;
#X connect 32 0 34 0;
#X connect 32 0 62 0;
#X connect 33 0 35 0;
#X connect 34 0 39 2;
#X connect 35 0 32 0;
#X connect 36 0 11 0;
#X connect 38 0 131 0;
#X connect 57 0 58 0;
#X connect 57 0 198 0;
#X connect 59 0 85 0;
#X connect 61 0 99 0;
#X connect 63 0 65 0;
#X connect 65 0 181 0;
#X connect 65 0 118 0;
#X connect 65 0 200 0;
#X connect 66 0 91 0;
#X connect 75 0 20 0;
#X connect 83 0 64 0;
#X connect 84 0 61 0;
#X connect 86 0 59 0;
#X connect 87 0 7 0;
#X connect 87 0 4 0;
#X connect 87 0 6 0;
#X connect 87 0 121 0;
#X connect 87 0 118 0;
#X connect 88 0 90 0;
#X connect 89 0 87 0;
#X connect 89 0 96 0;
#X connect 89 0 98 0;
#X connect 90 0 65 1;
#X connect 91 0 277 0;
#X connect 92 0 91 1;
#X connect 96 0 97 1;
#X connect 97 0 4 1;
#X connect 97 0 9 0;
#X connect 97 0 17 0;
#X connect 98 0 96 0;
#X connect 100 0 101 0;
#X connect 101 0 119 0;
#X connect 101 1 123 0;
#X connect 102 0 7 0;
#X connect 102 0 6 0;
#X connect 102 0 4 0;
#X connect 102 0 121 0;
#X connect 106 0 103 0;
#X connect 107 0 39 0;
#X connect 108 0 109 0;
#X connect 108 0 115 0;
#X connect 109 0 110 0;
#X connect 110 0 111 0;
#X connect 111 0 113 0;
#X connect 112 0 111 1;
#X connect 113 0 114 0;
#X connect 113 0 116 0;
#X connect 115 0 112 0;
#X connect 119 0 102 0;
#X connect 119 0 118 0;
#X connect 120 0 59 0;
#X connect 121 0 122 0;
#X connect 123 0 119 0;
#X connect 124 0 125 0;
#X connect 126 0 48 0;
#X connect 126 0 49 0;
#X connect 126 0 50 0;
#X connect 126 0 51 0;
#X connect 126 0 52 0;
#X connect 126 0 41 0;
#X connect 126 0 42 0;
#X connect 126 0 43 0;
#X connect 126 0 44 0;
#X connect 126 0 40 0;
#X connect 126 0 45 0;
#X connect 126 0 53 0;
#X connect 126 0 46 0;
#X connect 126 0 54 0;
#X connect 126 0 47 0;
#X connect 126 0 55 0;
#X connect 126 0 157 0;
#X connect 126 0 156 0;
#X connect 126 0 149 0;
#X connect 126 0 148 0;
#X connect 126 0 155 0;
#X connect 126 0 147 0;
#X connect 126 0 154 0;
#X connect 126 0 146 0;
#X connect 126 0 153 0;
#X connect 126 0 145 0;
#X connect 126 0 144 0;
#X connect 126 0 164 0;
#X connect 126 0 165 0;
#X connect 126 0 166 0;
#X connect 126 0 167 0;
#X connect 126 0 168 0;
#X connect 127 0 126 0;
#X connect 128 0 91 0;
#X connect 129 0 75 0;
#X connect 130 0 5 0;
#X connect 131 0 29 0;
#X connect 132 0 118 0;
#X connect 133 0 97 0;
#X connect 134 0 135 0;
#X connect 135 0 136 0;
#X connect 135 1 137 0;
#X connect 136 0 133 1;
#X connect 136 0 96 0;
#X connect 137 0 96 0;
#X connect 138 0 139 0;
#X connect 139 0 132 0;
#X connect 140 0 118 0;
#X connect 141 0 142 0;
#X connect 142 0 119 1;
#X connect 143 0 110 0;
#X connect 143 0 112 0;
#X connect 150 0 152 0;
#X connect 151 0 150 1;
#X connect 152 0 41 0;
#X connect 152 0 40 0;
#X connect 152 0 42 0;
#X connect 152 0 48 0;
#X connect 152 0 49 0;
#X connect 152 0 50 0;
#X connect 152 0 43 0;
#X connect 152 0 51 0;
#X connect 152 0 44 0;
#X connect 152 0 52 0;
#X connect 152 0 144 0;
#X connect 152 0 145 0;
#X connect 152 0 146 0;
#X connect 152 0 147 0;
#X connect 152 0 148 0;
#X connect 152 0 45 0;
#X connect 152 0 53 0;
#X connect 152 0 149 0;
#X connect 152 0 153 0;
#X connect 152 0 154 0;
#X connect 152 0 155 0;
#X connect 152 0 156 0;
#X connect 152 0 46 0;
#X connect 152 0 54 0;
#X connect 152 0 157 0;
#X connect 152 0 47 0;
#X connect 152 0 55 0;
#X connect 152 0 164 0;
#X connect 152 0 165 0;
#X connect 152 0 166 0;
#X connect 152 0 167 0;
#X connect 152 0 168 0;
#X connect 158 0 150 0;
#X connect 158 1 151 0;
#X connect 162 0 163 0;
#X connect 163 0 160 0;
#X connect 169 0 170 0;
#X connect 170 0 171 0;
#X connect 171 0 131 4;
#X connect 173 0 133 0;
#X connect 174 0 181 0;
#X connect 175 0 174 0;
#X connect 176 0 159 0;
#X connect 177 0 61 0;
#X connect 178 0 57 0;
#X connect 181 0 172 0;
#X connect 182 0 158 0;
#X connect 183 0 74 0;
#X connect 184 0 73 0;
#X connect 185 0 72 0;
#X connect 186 0 193 3;
#X connect 187 0 193 4;
#X connect 188 0 193 5;
#X connect 189 0 193 6;
#X connect 190 0 195 0;
#X connect 191 0 278 0;
#X connect 192 0 193 2;
#X connect 193 0 196 0;
#X connect 195 0 193 0;
#X connect 196 0 194 0;
#X connect 196 0 280 0;
#X connect 196 0 280 1;
#X connect 197 0 87 1;
#X connect 197 0 102 1;
#X connect 199 0 14 0;
#X connect 200 0 207 0;
#X connect 200 0 208 0;
#X connect 201 0 202 0;
#X connect 201 0 276 0;
#X connect 202 0 203 2;
#X connect 204 0 203 0;
#X connect 205 0 206 0;
#X connect 205 0 213 0;
#X connect 206 0 210 0;
#X connect 207 0 208 1;
#X connect 208 0 209 0;
#X connect 209 0 210 0;
#X connect 210 0 211 0;
#X connect 211 0 213 1;
#X connect 212 0 201 0;
#X connect 213 0 212 0;
#X connect 214 0 204 0;
#X connect 215 0 204 1;
#X connect 216 0 205 0;
#X connect 277 0 190 0;
#X connect 277 1 191 0;
#X connect 277 2 192 0;
#X connect 278 0 193 1;
#X connect 279 0 71 0;
#X connect 281 0 282 0;
#X connect 282 0 280 0;
#X connect 282 0 280 1;
#X coords 0 0 1 1 221 311 1 0 0;
