#N canvas 733 172 450 300 12;
#X obj 1683 339 timer;
#X obj 1649 200 ../utility/onset;
#X obj 1683 387 ../utility/millis2samps;
#X obj 1683 235 t b b;
#X obj 1749 183 env~;
#X obj 1696 292 spigot;
#X obj 1749 256 > 20;
#X obj 1842 314 timer;
#X obj 1842 373 ../utility/millis2samps;
#X obj 1842 402 - 5000;
#X obj 1749 212 else/mov.avg 100;
#X obj 1673 105 inlet~;
#X obj 1499 111 inlet timerreset;
#X obj 1842 541 outlet onsetsample;
#X obj 1977 541 outlet deltasamples;
#X obj 2118 541 outlet envgate;
#X obj 1539 256 bng 25 250 50 0 empty empty empty 0 -10 0 10 #e4e4e4 #4d4d4d #373737;
#X obj 1586 256 bng 25 250 50 0 empty empty empty 0 -10 0 10 #e4e4e4 #4d4d4d #373737;
#X obj 1529 314 spigot;
#X obj 1586 314 spigot;
#X obj 1529 353 timer;
#X obj 1529 387 ../utility/millis2samps;
#X floatatom 1529 458 5 0 0 0 - - - 12;
#X floatatom 1671 479 5 0 0 0 - - - 12;
#X obj 1539 219 t b b;
#X connect 0 0 2 0;
#X connect 1 0 3 0;
#X connect 1 0 24 0;
#X connect 1 1 17 0;
#X connect 2 0 23 0;
#X connect 3 0 7 1;
#X connect 3 0 0 0;
#X connect 3 1 5 0;
#X connect 4 0 10 0;
#X connect 5 0 0 1;
#X connect 6 0 5 1;
#X connect 6 0 15 0;
#X connect 6 0 18 1;
#X connect 6 0 19 1;
#X connect 7 0 8 0;
#X connect 8 0 9 0;
#X connect 9 0 13 0;
#X connect 10 0 6 0;
#X connect 11 0 4 0;
#X connect 11 0 1 0;
#X connect 12 0 7 0;
#X connect 16 0 18 0;
#X connect 17 0 19 0;
#X connect 18 0 20 0;
#X connect 19 0 20 1;
#X connect 20 0 21 0;
#X connect 21 0 14 0;
#X connect 21 0 22 0;
#X connect 24 0 16 0;
#X connect 24 1 17 0;
