#N canvas 199 25 1440 847 12;
#X obj 0 161 cnv 15 220 149 empty empty ADSR 2 11 0 17 #a8b9e4 #373737 0;
#X obj 1 1 cnv 15 220 160 empty empty Onset\ Sampler 2 11 0 17 #d0e4bb #373737 0;
#X obj 75 73 hsl 80 15 100 2000 0 0 empty empty empty -2 -8 0 10 #e4e4e4 #4d4d4d #373737 0 1;
#X floatatom 162 72 4 0 0 1 ms - - 10;
#X obj 198 9 tgl 18 0 empty empty empty 17 7 0 10 #e4e4e4 #4d4d4d #373737 0 1;
#X text 152 8 On/Off;
#X obj 91 46 hradio 20 1 0 2 empty empty empty 0 -8 0 10 #e4e4e4 #4d4d4d #373737 0;
#X obj 238 73 s record;
#X obj 1416 235 *~;
#X obj -78 309 inlet midi;
#X text 7 187 Attack;
#X text 7 216 Decay;
#X text 7 246 Sustain;
#X text 7 276 Release;
#X obj 67 188 hsl 93 17 5 400 0 0 \$0-attack empty empty -2 -8 0 10 #e4e4e4 #4d4d4d #373737 0 1;
#X obj 64 217 hsl 93 17 10 3000 0 0 \$0-decay empty empty -2 -8 0 10 #e4e4e4 #4d4d4d #373737 0 1;
#X obj 64 247 hsl 93 17 0 1 0 0 \$0-sustain empty empty -2 -8 0 10 #e4e4e4 #4d4d4d #373737 0 1;
#X obj 64 277 hsl 93 17 10 2000 0 0 \$0-release empty empty -2 -8 0 10 #e4e4e4 #4d4d4d #373737 0 1;
#X text 1 70 Min.Length, f 11;
#X floatatom 169 188 5 0 0 1 ms \$0-attack - 0;
#X floatatom 169 217 5 0 0 1 ms \$0-decay - 0;
#X floatatom 169 247 5 0 0 1 - \$0-sustain - 0;
#X floatatom 169 277 4 0 0 1 ms \$0-release - 10;
#X text 15 45 Continuous;
#X text 90 25 Mode;
#X obj 200 48 bng 14 250 50 0 empty empty Rec 0 -5 0 7 #e42f00 #4c4c4c #373737;
#X obj 246 5 s \$0-bypass;
#X obj 247 -35 inlet bypass;
#X obj 1462 174 r \$0-bypass;
#X obj 1462 200 sig~;
#X obj 620 101 spigot;
#X obj 739 80 r \$0-bypass;
#X obj 526 33 else/note 553 24 Inter empty 5 54 54 54 0 209 225 225 1 1 MIDI/Playback Handling;
#X obj 1243 31 else/note 1660 24 Inter empty 5 54 54 54 0 209 225 225 1 1 Analyze and Save Samples;
#X obj 75 100 hsl 80 15 5 30 0 0 \$0-reclength empty empty -2 -8 0 10 #e4e4e4 #4d4d4d #373737 0 1;
#X floatatom 162 99 2 0 0 1 s \$0-reclength - 12;
#X text 1 97 Rec Length, f 11;
#X obj 238 99 else/initmess 15;
#X obj 92 1188 r \$0-reclength;
#X obj 92 1218 int;
#X floatatom 92 1244 5 0 0 0 - - - 12;
#X obj 140 1281 *;
#X obj 156 1244 samplerate~;
#X msg 140 1309 resize \$1;
#X obj 156 1218 t b;
#X obj 200 143 bng 14 250 50 0 empty empty Clear 0 -5 0 7 #2b2ae4 #4c4c4c #373737;
#X obj 377 131 s \$0-clear;
#X msg 460 995 const 0;
#X obj 460 961 r \$0-clear;
#X obj 620 -89 else/keyboard 16 80 4 2 0 0 empty empty;
#X obj 10 1188 loadbang;
#X obj 75 125 hsl 80 15 5 32 0 0 \$0-slots empty empty -2 -8 0 10 #e4e4e4 #4d4d4d #373737 0 1;
#X floatatom 162 124 2 0 0 1 - - - 12;
#X text 1 122 Slots, f 11;
#X obj 248 233 r \$0-slots;
#X obj 248 261 int;
#X obj -5 -30 else/initmess 350;
#X text 137 45 Freeze;
#X obj 238 166 else/initmess 1;
#X obj 238 143 else/initmess 0;
#X obj 754 212 r \$0-attack;
#X obj 833 212 r \$0-decay;
#X obj 919 212 r \$0-sustain;
#X obj 1009 212 r \$0-release;
#X floatatom 622 183 5 0 0 0 - - - 10;
#X floatatom 661 183 5 0 0 0 - - - 12;
#X floatatom 708 183 5 0 0 0 - - - 12;
#X obj 623 368 outlet~ signal;
#X obj 623 203 - 1;
#X obj 248 299 s \$0-minlength;
#X obj 238 123 else/initmess 100;
#X obj 238 33 inlet clear;
#X obj 0 309 cnv 15 220 72 empty empty Quantization 2 11 0 17 #f6dcaa #373737 0;
#X obj 40 329 ../utility/midiquantizer;
#X obj 1827 1242 s \$0-attack;
#X obj 305 73 s \$0-mode;
#X obj 623 235 pack f f f f f f f;
#X obj -90 98 initmess 32;
#X obj 124 -36 tgl 25 0 empty empty empty 17 7 0 10 #e4e4e4 #4d4d4d #373737 0 1;
#X obj 252 354 else/initmess 3;
#X obj 654 1009 array define notelist 31;
#X obj 188 -54 else/initmess 0;
#N canvas 0 0 450 250 (subpatch) 0;
#X array sampler0 720000 float 4;
#X coords 0 1 719999 -1 1150 182 1;
#X restore 262 1188 graph;
#N canvas 0 0 450 250 (subpatch) 0;
#X array sampleros 720000 float 2;
#X coords 0 1 720000 0 1150 182 1;
#X restore 262 1188 graph;
#X obj 1259 169 metro 15000;
#X msg 1259 292 \; sampleros const 0;
#X obj 1259 261 s \$0-clearsampler;
#X text 1426 112 Step 1: Write to Buffer;
#X text 2083 144 Step 2: Detect Onsets;
#X obj 1259 200 t b b b;
#X obj 3076 207 t f b;
#X obj 3076 277 tabwrite notelist;
#X text 2113 180 Step 3: Cut out Samples between Onsets if delta > minlength;
#X obj 456 1045 array define sample0 240000;
#X obj 456 1075 array define sample1 240000;
#X obj 456 1107 array define sample2 240000;
#X obj 456 1138 array define sample3 240000;
#X obj 140 1335 s sampleros;
#X obj 124 -83 inlet mode;
#X obj 1259 81 r \$0-mode;
#X obj 1259 105 sel 0 1;
#X msg 1275 138 0;
#X msg 1436 323 stop;
#X obj 1347 81 r \$0-reclength;
#X obj 1347 105 * 1000;
#X obj 1416 272 *~;
#X msg 1308 138 1;
#X obj 15 847 else/note 1415 24 Inter empty 5 54 54 54 0 209 225 225 1 1 Arrays;
#X obj 3088 242 cyclone/counter 0 31;
#X obj 526 235 hradio 20 1 0 3 empty empty empty 0 -8 0 10 #e4e4e4 #4d4d4d #373737 0;
#X obj 623 284 cyclone/gate 3;
#X obj 526 261 + 1;
#X obj 526 203 inlet voice;
#X obj 1695 880 ../utility/onset;
#X obj 621 322 clone voicepitch 8;
#X obj 405 249 else/initmess 0;
#X obj 1827 1174 clip 5 300;
#X text 1945 1074 xmin;
#X text 1986 1074 xmax;
#X obj 1970 920 loadbang;
#X msg 1734 1188 5;
#X msg 1775 1188 300;
#X text 1734 1164 ymin;
#X text 1775 1164 ymax;
#X text 2064 1114 ymin;
#X text 2105 1114 ymax;
#X msg 2105 1138 1500;
#X msg 2064 1138 200;
#X obj 1984 1206 ../utility/mapfloat;
#X obj 1827 1206 ../utility/mapfloat;
#X msg 1945 1098 200;
#X msg 1986 1098 1200;
#X obj 2112 937 inlet adsrmode;
#X obj 1970 956 bng 25 250 50 0 empty empty empty 0 -10 0 10 #e4e4e4 #4d4d4d #373737;
#X msg 2202 1138 1500;
#X msg 2161 1138 200;
#X msg 1644 1188 5;
#X msg 1685 1188 300;
#X text 1644 1164 ymax;
#X text 1685 1164 ymin;
#X text 2161 1114 ymax;
#X text 2202 1114 ymin;
#X obj 1697 1118 timer;
#X obj 1708 1031 spigot;
#X obj 1695 942 t b b;
#X msg 1722 974 1;
#X obj 1750 966 t b b;
#X msg 1751 999 0;
#X obj 1695 1093 spigot;
#X obj 1720 1061 expr abs(\$1-1);
#X obj 1587 847 else/note 783 24 Inter empty 5 54 54 54 0 209 225 225 1 1 Dynamically set ADSR;
#X obj 654 1045 array define sample4 240000;
#X obj 654 1075 array define sample5 240000;
#X obj 654 1107 array define sample6 240000;
#X obj 654 1138 array define sample7 240000;
#X obj 661 203 clip 22 127;
#X obj 897 322 clone voice 8;
#X obj 754 322 clone voiceclosest 8;
#X obj 1404 -232 instrument.m~;
#A saved 1;
#A saved;
#X obj 1431 -352 else/keyboard 16 80 4 2 0 0 empty empty;
#X obj 764 392 dac~;
#X obj 1614 -122 dac~;
#X obj 620 143 poly 8 1;
#X floatatom 3076 174 5 0 0 0 - - - 12;
#X obj 1431 -521 metro 1000;
#X obj 1431 -565 bng 25 250 50 0 empty empty empty 0 -10 0 10 #e4e4e4 #4d4d4d #373737;
#X floatatom 1431 -455 5 0 0 0 - - - 12;
#X msg 1489 -551 0;
#X obj 1549 -521 s \$0-clear;
#X obj 1431 -408 pack;
#X msg 1569 -424 0;
#X obj 1522 -408 pack;
#X obj 1522 -455 pipe 900;
#X obj 3142 207 r \$0-clear;
#X obj 1914 -307 tabplay~ sample0;
#X obj 2042 -307 tabplay~ sample1;
#X obj 2174 -307 tabplay~ sample2;
#X obj 2304 -307 tabplay~ sample3;
#X obj 2426 -307 tabplay~ sample4;
#X obj 2549 -307 tabplay~ sample5;
#X obj 2676 -307 tabplay~ sample6;
#X obj 2799 -307 tabplay~ sample7;
#X obj 1914 -348 bng 31 250 50 0 empty empty empty 0 -10 0 10 #e4e4e4 #4d4d4d #373737;
#X obj 2038 -350 bng 31 250 50 0 empty empty empty 0 -10 0 10 #e4e4e4 #4d4d4d #373737;
#X obj 2174 -346 bng 31 250 50 0 empty empty empty 0 -10 0 10 #e4e4e4 #4d4d4d #373737;
#X obj 2306 -345 bng 31 250 50 0 empty empty empty 0 -10 0 10 #e4e4e4 #4d4d4d #373737;
#X obj 2427 -352 bng 31 250 50 0 empty empty empty 0 -10 0 10 #e4e4e4 #4d4d4d #373737;
#X obj 2545 -343 bng 31 250 50 0 empty empty empty 0 -10 0 10 #e4e4e4 #4d4d4d #373737;
#X obj 2675 -343 bng 31 250 50 0 empty empty empty 0 -10 0 10 #e4e4e4 #4d4d4d #373737;
#X obj 2797 -341 bng 31 250 50 0 empty empty empty 0 -10 0 10 #e4e4e4 #4d4d4d #373737;
#X obj 1924 -261 dac~;
#X obj 1431 -489 counter 40 47;
#X obj 2546 182 pipe 100;
#X obj 2545 228 pack;
#X obj 2586 297 unpack;
#X obj 1426 -614 else/note 1515 24 Inter empty 5 54 54 54 0 209 225 225 1 1 DEBUG/Automated Test;
#X obj 1750 942 cyclone/onebang;
#X obj 2646 297 unpack;
#X msg 1473 -455 100;
#X obj 2743 217 ../utility/forloop 127;
#X obj 2743 244 counter 0 127;
#X obj 2743 180 bng 25 250 50 0 empty empty empty 0 -10 0 10 #e4e4e4 #4d4d4d #373737;
#X obj 2616 365 pack f f f f f;
#X obj 2743 297 pack f f f f f;
#X obj 2800 171 r \$0-clear;
#X obj 2616 406 clone notes 128;
#X msg 2618 167 0;
#X msg 2812 272 2000;
#X text 2726 342 Ziel-Index \, MIDI-Note \, Env \, Ursprungs-Sample-Index \, Clear Note;
#X text 2513 130 Step 4: Analyze Sample and save it to matching note array;
#X text 3061 136 Step 5: Add last saved note to Lookup Notelist;
#X obj 2112 966 sel 0 1 2;
#X msg 2202 966 1;
#X msg 2228 966 0;
#X obj 1695 913 spigot;
#X obj 1750 913 spigot;
#X obj 55 1335 s sampler0;
#X obj 1416 353 tabwrite~ sampler0;
#X msg 1259 339 \; sampler0 const 0;
#X text 1999 211 Help: cutsample f (Sampler Index) \, f (min TargetSample) \, f (max TargetSample), f 36;
#X obj 1999 145 onsetdetails;
#X obj 262 1045 array define sampler1;
#X obj 262 1075 array define sampler2;
#X obj 262 1107 array define sampler3;
#X obj 55 1366 s sampler1;
#X obj 55 1398 s sampler2;
#X obj 55 1431 s sampler3;
#X msg 1259 392 \; sampler1 const 0;
#X msg 1259 438 \; sampler2 const 0;
#X msg 1259 486 \; sampler3 const 0;
#X obj 1576 279 *~;
#X obj 1576 307 *~;
#X obj 1576 354 tabwrite~ sampler1;
#X obj 1709 279 *~;
#X obj 1709 307 *~;
#X obj 1843 279 *~;
#X obj 1843 307 *~;
#X obj 1709 354 tabwrite~ sampler2;
#X obj 1843 354 tabwrite~ sampler3;
#X obj 1416 145 inlet~ audio0;
#X obj 1567 143 inlet~ audio1;
#X obj 1709 143 inlet~ audio2;
#X obj 1843 143 inlet~ audio3;
#X obj 1576 385 onsetdetails;
#X obj 1709 385 onsetdetails;
#X obj 1843 385 onsetdetails;
#X obj 858 1045 array define sample8 240000;
#X obj 858 1075 array define sample9 240000;
#X obj 858 1107 array define sample10 240000;
#X obj 858 1138 array define sample11 240000;
#X obj 1056 1045 array define sample12 240000;
#X obj 1056 1075 array define sample13 240000;
#X obj 1056 1107 array define sample14 240000;
#X obj 1056 1138 array define sample15 240000;
#X obj 1576 421 cutsample 1 7 10;
#X obj 1709 421 cutsample 2 10 13;
#X obj 1843 421 cutsample 3 14 15;
#X obj 2591 213 t f f;
#X floatatom 2532 345 5 0 0 0 - - - 0;
#X floatatom 2536 385 5 0 0 0 - - - 0;
#X obj 1827 1129 else/mov.avg 2;
#X obj 1984 1242 s \$0-decay;
#X obj 238 188 else/initmess 0;
#X obj 2676 327 int;
#X obj 2545 272 clone analyzer 7;
#X obj 2427 280 analyzer;
#X floatatom 2454 362 5 0 0 0 - - - 12;
#X floatatom 2377 362 4 0 0 0 - - - 24;
#X obj 2323 327 dac~;
#X obj 1999 181 cutsample 0 0 3;
#X obj 2427 251 mod 4;
#X obj 2427 228 - 2;
#X floatatom 2282 320 5 0 0 0 - - - 12;
#X connect 2 0 3 0;
#X connect 2 0 69 0;
#X connect 4 0 26 0;
#X connect 6 0 75 0;
#X connect 8 0 105 0;
#X connect 8 0 113 0;
#X connect 9 0 73 1;
#X connect 25 0 7 0;
#X connect 27 0 4 0;
#X connect 28 0 29 0;
#X connect 29 0 8 1;
#X connect 29 0 230 1;
#X connect 29 0 233 1;
#X connect 29 0 235 1;
#X connect 30 0 162 0;
#X connect 31 0 30 1;
#X connect 37 0 34 0;
#X connect 38 0 39 0;
#X connect 38 0 44 0;
#X connect 39 0 40 0;
#X connect 40 0 41 0;
#X connect 41 0 43 0;
#X connect 42 0 41 1;
#X connect 43 0 216 0;
#X connect 43 0 97 0;
#X connect 43 0 224 0;
#X connect 43 0 225 0;
#X connect 43 0 226 0;
#X connect 44 0 42 0;
#X connect 45 0 46 0;
#X connect 47 0 93 0;
#X connect 47 0 94 0;
#X connect 47 0 95 0;
#X connect 47 0 151 0;
#X connect 47 0 152 0;
#X connect 47 0 153 0;
#X connect 47 0 96 0;
#X connect 47 0 80 0;
#X connect 47 0 154 0;
#X connect 47 0 246 0;
#X connect 47 0 247 0;
#X connect 47 0 250 0;
#X connect 47 0 251 0;
#X connect 47 0 248 0;
#X connect 47 0 252 0;
#X connect 47 0 249 0;
#X connect 47 0 253 0;
#X connect 48 0 47 0;
#X connect 49 0 30 0;
#X connect 50 0 40 0;
#X connect 50 0 42 0;
#X connect 54 0 55 0;
#X connect 55 0 52 0;
#X connect 56 0 2 0;
#X connect 58 0 16 0;
#X connect 59 0 15 0;
#X connect 60 0 76 3;
#X connect 61 0 76 4;
#X connect 62 0 76 5;
#X connect 63 0 76 6;
#X connect 64 0 68 0;
#X connect 65 0 155 0;
#X connect 66 0 76 2;
#X connect 68 0 76 0;
#X connect 70 0 14 0;
#X connect 71 0 45 0;
#X connect 73 0 30 0;
#X connect 76 0 110 1;
#X connect 77 0 51 0;
#X connect 78 0 6 0;
#X connect 79 0 73 2;
#X connect 81 0 4 0;
#X connect 81 0 78 0;
#X connect 84 0 89 0;
#X connect 84 0 220 0;
#X connect 84 0 243 0;
#X connect 84 0 244 0;
#X connect 84 0 245 0;
#X connect 89 0 217 0;
#X connect 89 1 86 0;
#X connect 89 2 85 0;
#X connect 89 2 218 0;
#X connect 89 2 229 0;
#X connect 89 2 228 0;
#X connect 89 2 227 0;
#X connect 90 0 91 0;
#X connect 90 1 108 0;
#X connect 98 0 78 0;
#X connect 99 0 100 0;
#X connect 100 0 84 0;
#X connect 100 0 106 0;
#X connect 100 1 101 0;
#X connect 100 1 102 0;
#X connect 101 0 84 0;
#X connect 101 0 105 1;
#X connect 102 0 217 0;
#X connect 102 0 232 0;
#X connect 102 0 238 0;
#X connect 102 0 237 0;
#X connect 103 0 104 0;
#X connect 104 0 84 1;
#X connect 105 0 217 0;
#X connect 105 0 220 1;
#X connect 106 0 105 1;
#X connect 106 0 231 1;
#X connect 108 0 91 1;
#X connect 109 0 111 0;
#X connect 110 0 114 0;
#X connect 110 1 157 0;
#X connect 110 2 156 0;
#X connect 111 0 110 0;
#X connect 112 0 109 0;
#X connect 113 0 214 0;
#X connect 113 1 215 0;
#X connect 114 0 67 0;
#X connect 114 0 160 0;
#X connect 114 0 160 1;
#X connect 115 0 109 0;
#X connect 116 0 128 0;
#X connect 116 0 129 0;
#X connect 119 0 133 0;
#X connect 120 0 129 3;
#X connect 121 0 129 4;
#X connect 126 0 128 4;
#X connect 127 0 128 3;
#X connect 128 0 261 0;
#X connect 129 0 74 0;
#X connect 130 0 128 1;
#X connect 130 0 129 1;
#X connect 130 0 116 1;
#X connect 131 0 128 2;
#X connect 131 0 129 2;
#X connect 131 0 116 2;
#X connect 132 0 211 0;
#X connect 133 0 130 0;
#X connect 133 0 131 0;
#X connect 133 0 120 0;
#X connect 133 0 121 0;
#X connect 133 0 127 0;
#X connect 133 0 126 0;
#X connect 134 0 128 3;
#X connect 135 0 128 4;
#X connect 136 0 129 4;
#X connect 137 0 129 3;
#X connect 142 0 260 0;
#X connect 143 0 142 1;
#X connect 144 0 148 0;
#X connect 144 1 143 0;
#X connect 144 1 145 0;
#X connect 144 1 196 1;
#X connect 145 0 143 1;
#X connect 145 0 149 0;
#X connect 146 0 147 0;
#X connect 146 1 143 0;
#X connect 146 1 147 0;
#X connect 147 0 143 1;
#X connect 147 0 149 0;
#X connect 148 0 142 0;
#X connect 149 0 148 1;
#X connect 155 0 76 1;
#X connect 156 0 67 0;
#X connect 156 0 160 1;
#X connect 156 0 160 0;
#X connect 157 0 67 0;
#X connect 157 0 160 0;
#X connect 157 0 160 1;
#X connect 158 0 8 0;
#X connect 158 0 161 0;
#X connect 158 0 161 1;
#X connect 159 0 158 0;
#X connect 162 0 64 0;
#X connect 162 1 65 0;
#X connect 162 2 66 0;
#X connect 163 0 90 0;
#X connect 164 0 191 0;
#X connect 165 0 164 0;
#X connect 165 0 168 0;
#X connect 166 0 169 0;
#X connect 167 0 164 0;
#X connect 169 0 159 0;
#X connect 170 0 171 1;
#X connect 171 0 159 0;
#X connect 172 0 171 0;
#X connect 172 0 170 0;
#X connect 173 0 108 2;
#X connect 174 0 190 0;
#X connect 174 0 190 1;
#X connect 175 0 190 0;
#X connect 175 0 190 1;
#X connect 176 0 190 0;
#X connect 176 0 190 1;
#X connect 177 0 190 0;
#X connect 177 0 190 1;
#X connect 178 0 190 0;
#X connect 178 0 190 1;
#X connect 179 0 190 0;
#X connect 179 0 190 1;
#X connect 180 0 190 0;
#X connect 180 0 190 1;
#X connect 181 0 190 0;
#X connect 181 0 190 1;
#X connect 182 0 174 0;
#X connect 183 0 175 0;
#X connect 184 0 176 0;
#X connect 185 0 177 0;
#X connect 186 0 178 0;
#X connect 187 0 179 0;
#X connect 188 0 180 0;
#X connect 189 0 181 0;
#X connect 191 0 166 0;
#X connect 191 0 198 0;
#X connect 191 0 172 0;
#X connect 191 3 167 0;
#X connect 192 0 257 0;
#X connect 192 0 271 0;
#X connect 193 0 264 0;
#X connect 194 0 258 0;
#X connect 194 0 202 3;
#X connect 194 1 163 0;
#X connect 194 1 202 0;
#X connect 194 1 202 1;
#X connect 196 0 146 0;
#X connect 197 1 263 0;
#X connect 198 0 169 1;
#X connect 199 0 200 0;
#X connect 200 0 203 0;
#X connect 200 0 207 0;
#X connect 201 0 199 0;
#X connect 202 0 205 0;
#X connect 203 0 205 0;
#X connect 204 0 201 0;
#X connect 206 0 192 0;
#X connect 207 0 203 4;
#X connect 211 0 133 0;
#X connect 211 0 130 0;
#X connect 211 0 131 0;
#X connect 211 0 212 0;
#X connect 211 1 135 0;
#X connect 211 1 134 0;
#X connect 211 1 136 0;
#X connect 211 1 137 0;
#X connect 211 1 212 0;
#X connect 211 2 213 0;
#X connect 212 0 214 1;
#X connect 212 0 215 1;
#X connect 213 0 214 1;
#X connect 213 0 215 1;
#X connect 214 0 144 0;
#X connect 215 0 196 0;
#X connect 220 0 269 0;
#X connect 220 1 269 1;
#X connect 220 2 269 2;
#X connect 230 0 231 0;
#X connect 231 0 232 0;
#X connect 231 0 243 1;
#X connect 233 0 234 0;
#X connect 234 0 237 0;
#X connect 234 0 244 1;
#X connect 235 0 236 0;
#X connect 236 0 238 0;
#X connect 236 0 245 1;
#X connect 239 0 8 0;
#X connect 240 0 230 0;
#X connect 241 0 233 0;
#X connect 242 0 235 0;
#X connect 243 0 254 0;
#X connect 243 1 254 1;
#X connect 243 2 254 2;
#X connect 244 0 255 0;
#X connect 244 1 255 1;
#X connect 244 2 255 2;
#X connect 245 0 256 0;
#X connect 245 1 256 1;
#X connect 245 2 256 2;
#X connect 257 0 193 0;
#X connect 257 1 193 1;
#X connect 260 0 116 0;
#X connect 262 0 17 0;
#X connect 263 0 202 2;
#X connect 263 0 259 0;
#X connect 264 1 194 0;
#X connect 264 2 197 0;
#X connect 265 0 268 0;
#X connect 265 0 268 1;
#X connect 265 1 267 0;
#X connect 265 2 266 0;
#X connect 269 0 192 0;
#X connect 270 0 265 0;
#X connect 271 0 270 0;
#X coords 0 0 1 1 221 381 1 0 0;
