#N canvas 199 25 1440 847 12;
#X obj 0 161 cnv 15 220 149 empty empty ADSR 2 11 0 17 #a8b9e4 #373737 0;
#X obj 1 1 cnv 15 220 160 empty empty Onset\ Sampler 2 11 0 17 #d0e4bb #373737 0;
#X obj 75 73 hsl 80 15 100 2000 0 0 empty empty empty -2 -8 0 10 #e4e4e4 #4d4d4d #373737 0 1;
#X floatatom 162 72 4 0 0 1 ms - - 10;
#X obj 198 9 tgl 18 0 empty empty empty 17 7 0 10 #e4e4e4 #4d4d4d #373737 0 1;
#X text 152 8 On/Off;
#X obj 91 46 hradio 20 1 0 2 empty empty empty 0 -8 0 10 #e4e4e4 #4d4d4d #373737 0;
#X obj 1416 145 inlet~ audio;
#X obj 238 73 s record;
#X obj 1416 235 *~;
#X obj -78 309 inlet midi;
#X text 7 187 Attack;
#X text 7 216 Decay;
#X text 7 246 Sustain;
#X text 7 276 Release;
#X obj 67 188 hsl 93 17 5 400 0 0 \$0-attack empty empty -2 -8 0 10 #e4e4e4 #4d4d4d #373737 0 1;
#X obj 64 217 hsl 93 17 10 1000 0 0 \$0-decay empty empty -2 -8 0 10 #e4e4e4 #4d4d4d #373737 0 1;
#X obj 64 247 hsl 93 17 0 1 0 0 \$0-sustain empty empty -2 -8 0 10 #e4e4e4 #4d4d4d #373737 0 1;
#X obj 64 277 hsl 93 17 10 2000 0 0 \$0-release empty empty -2 -8 0 10 #e4e4e4 #4d4d4d #373737 0 1;
#X text 1 70 Min.Length, f 11;
#X floatatom 169 188 5 0 0 1 ms \$0-attack - 0;
#X floatatom 169 217 5 0 0 1 ms \$0-decay - 0;
#X floatatom 169 247 5 0 0 1 - \$0-sustain - 0;
#X floatatom 169 277 4 0 0 1 ms \$0-release - 10;
#X text 15 45 Continuous;
#X text 90 25 Mode;
#X obj 200 48 bng 14 250 50 0 empty empty Rec 0 -5 0 7 #e42f00 #4c4c4c #373737;
#X obj 246 5 s \$0-bypass;
#X obj 247 -35 inlet bypass;
#X obj 1462 174 r \$0-bypass;
#X obj 1462 200 sig~;
#X obj 620 101 spigot;
#X obj 739 80 r \$0-bypass;
#X obj 526 33 else/note 553 24 Inter empty 5 54 54 54 0 209 225 225 1 1 MIDI/Playback Handling;
#X obj 1243 31 else/note 2911 24 Inter empty 5 54 54 54 0 209 225 225 1 1 Analyze and Save Samples;
#X obj 75 100 hsl 80 15 5 30 0 0 \$0-reclength empty empty -2 -8 0 10 #e4e4e4 #4d4d4d #373737 0 1;
#X floatatom 162 99 2 0 0 1 s \$0-reclength - 12;
#X text 1 97 Rec Length, f 11;
#X obj 238 99 else/initmess 15;
#X obj 89 1364 r \$0-reclength;
#X obj 89 1394 int;
#X floatatom 89 1420 5 0 0 0 - - - 12;
#X obj 137 1457 *;
#X obj 153 1420 samplerate~;
#X msg 137 1485 resize \$1;
#X obj 137 1511 s \$0-rec;
#X obj 153 1394 t b;
#X obj 137 1536 s \$0-onsets;
#X obj 200 143 bng 14 250 50 0 empty empty Clear 0 -5 0 7 #2b2ae4 #4c4c4c #373737;
#X obj 377 131 s \$0-clear;
#X msg 460 995 const 0;
#X obj 460 961 r \$0-clear;
#X obj 620 -95 else/keyboard 16 80 4 2 0 0 empty empty;
#X obj 7 1364 loadbang;
#X obj 678 971 *;
#X obj 721 937 samplerate~;
#X msg 678 1000 resize \$1;
#X obj 678 937 t f b;
#X obj 75 125 hsl 80 15 5 32 0 0 \$0-slots empty empty -2 -8 0 10 #e4e4e4 #4d4d4d #373737 0 1;
#X floatatom 162 124 2 0 0 1 - - - 12;
#X text 1 122 Slots, f 11;
#X obj 248 233 r \$0-slots;
#X obj 248 261 int;
#X obj -5 -30 else/initmess 350;
#X text 137 45 Freeze;
#X obj 678 910 else/initmess 3;
#X obj 238 188 else/initmess 1000;
#X obj 238 166 else/initmess 1;
#X obj 238 143 else/initmess 0;
#X obj 754 212 r \$0-attack;
#X obj 833 212 r \$0-decay;
#X obj 919 212 r \$0-sustain;
#X obj 1009 212 r \$0-release;
#X floatatom 622 183 5 0 0 0 - - - 10;
#X floatatom 661 183 5 0 0 0 - - - 12;
#X floatatom 708 183 5 0 0 0 - - - 12;
#X obj 623 368 outlet~ signal;
#X obj 623 203 - 1;
#X obj 248 299 s \$0-minlength;
#X obj 249 1065 array define mn22 9600;
#X obj 249 1092 array define mn23 9600;
#X obj 249 1119 array define mn24 9600;
#X obj 249 1146 array define mn25 9600;
#X obj 249 1173 array define mn26 9600;
#X obj 249 1200 array define mn27 9600;
#X obj 249 1227 array define mn28 9600;
#X obj 249 1254 array define mn29 9600;
#X obj 249 1281 array define mn30 9600;
#X obj 249 1308 array define mn31 9600;
#X obj 413 1065 array define mn32 9600;
#X obj 413 1092 array define mn33 9600;
#X obj 413 1119 array define mn34 9600;
#X obj 413 1146 array define mn35 9600;
#X obj 413 1173 array define mn36 9600;
#X obj 413 1200 array define mn37 9600;
#X obj 413 1227 array define mn38 9600;
#X obj 413 1254 array define mn39 9600;
#X obj 413 1281 array define mn40 9600;
#X obj 413 1308 array define mn41 9600;
#X obj 581 1065 array define mn42 9600;
#X obj 581 1092 array define mn43 9600;
#X obj 581 1119 array define mn44 9600;
#X obj 581 1146 array define mn45 9600;
#X obj 581 1173 array define mn46 9600;
#X obj 581 1200 array define mn47 9600;
#X obj 581 1227 array define mn48 9600;
#X obj 581 1254 array define mn49 9600;
#X obj 581 1281 array define mn50 9600;
#X obj 581 1308 array define mn51 9600;
#X obj 742 1065 array define mn52 9600;
#X obj 742 1092 array define mn53 9600;
#X obj 742 1119 array define mn54 9600;
#X obj 742 1146 array define mn55 9600;
#X obj 742 1173 array define mn56 9600;
#X obj 742 1200 array define mn57 9600;
#X obj 742 1227 array define mn58 9600;
#X obj 742 1254 array define mn59 9600;
#X obj 742 1281 array define mn60 9600;
#X obj 742 1308 array define mn61 9600;
#X obj 905 1065 array define mn62 9600;
#X obj 905 1092 array define mn63 9600;
#X obj 905 1119 array define mn64 9600;
#X obj 905 1146 array define mn65 9600;
#X obj 905 1173 array define mn66 9600;
#X obj 905 1200 array define mn67 9600;
#X obj 905 1227 array define mn68 9600;
#X obj 905 1254 array define mn69 9600;
#X obj 905 1281 array define mn70 9600;
#X obj 905 1308 array define mn71 9600;
#X obj 1066 1065 array define mn72 9600;
#X obj 1066 1092 array define mn73 9600;
#X obj 1066 1119 array define mn74 9600;
#X obj 1066 1146 array define mn75 9600;
#X obj 1066 1173 array define mn76 9600;
#X obj 1066 1200 array define mn77 9600;
#X obj 1066 1227 array define mn78 9600;
#X obj 1066 1254 array define mn79 9600;
#X obj 1066 1281 array define mn80 9600;
#X obj 238 123 else/initmess 100;
#X obj 238 33 inlet clear;
#X obj 0 309 cnv 15 220 72 empty empty Quantization 2 11 0 17 #f6dcaa #373737 0;
#X obj 40 329 ../utility/midiquantizer;
#X obj 1827 1242 s \$0-attack;
#X obj 1984 1242 s \$0-release;
#X obj 305 73 s \$0-mode;
#X obj 623 235 pack f f f f f f f;
#X obj -90 98 initmess 32;
#X obj 124 -36 tgl 25 0 empty empty empty 17 7 0 10 #e4e4e4 #4d4d4d #373737 0 1;
#X obj 252 354 else/initmess 3;
#X obj 279 995 array define notelist 31;
#X obj 188 -54 else/initmess 0;
#N canvas 0 0 450 250 (subpatch) 0;
#X array sampler 720000 float 4;
#X coords 0 1 719999 -1 1150 182 1;
#X restore 259 1364 graph;
#N canvas 0 0 450 250 (subpatch) 0;
#X array sampleros 720000 float 2;
#X coords 0 1 720000 0 1150 182 1;
#X restore 259 1364 graph;
#X obj 1259 169 metro 15000;
#X obj 1608 235 timer;
#X obj 1573 330 pack;
#X msg 1575 234 1;
#X msg 1259 292 \; sampleros const 0;
#X obj 1573 366 tabwrite sampleros;
#X obj 1608 290 - 5000;
#X msg 1914 251 clear;
#X obj 1795 208 t f f b;
#X msg 1795 174 0;
#X obj 1416 353 tabwrite~ sampler;
#X obj 1795 468 array get sampler;
#X msg 1259 339 \; sampler const 0;
#X obj 1259 261 s \$0-clearsampler;
#X obj 1794 145 r \$0-clearsampler;
#X obj 1795 280 f;
#X obj 1795 251 t f b;
#X obj 1795 366 pack;
#N canvas 733 172 450 300 delta 0;
#X obj 3724 826 f;
#X floatatom 3722 762 5 0 0 0 - - - 12;
#X obj 3724 798 t f b;
#X obj 3722 855 -;
#X obj 3722 883 abs;
#X msg 3762 762 0;
#X obj 3722 730 route float clear;
#X obj 3612 650 inlet;
#X obj 3645 816 outlet;
#X connect 0 0 3 1;
#X connect 1 0 2 0;
#X connect 1 0 3 0;
#X connect 2 0 0 1;
#X connect 2 1 0 0;
#X connect 3 0 4 0;
#X connect 4 0 8 0;
#X connect 5 0 1 0;
#X connect 5 0 0 0;
#X connect 6 0 1 0;
#X connect 6 1 5 0;
#X connect 7 0 6 0;
#X restore 1914 294 pd delta;
#X text 1426 112 Step 1: Write to Buffer;
#X text 1577 112 Step 2: Detect Onsets;
#X obj 1985 294 r \$0-minlength;
#X obj 1914 360 >;
#X floatatom 1914 386 5 0 0 0 - - - 12;
#X obj 1795 403 spigot;
#X obj 1795 496 t b list;
#X floatatom 1815 310 5 0 0 0 - - - 12;
#X floatatom 1857 310 5 0 0 0 - - - 12;
#X obj 1259 200 t b b b;
#X obj 2257 564 makefilename mn%d;
#X obj 2257 714 array set;
#X msg 2339 707 \; \$1 const 0, f 18;
#X obj 2601 782 t f b;
#X obj 2601 865 tabwrite notelist;
#X obj 1066 1311 array define mn81 9600;
#X obj 1224 1065 array define mn82 9600;
#X obj 1224 1095 array define mn83 9600;
#X obj 661 203 clip 22 83;
#X obj 2257 599 t symbol symbol;
#X obj 2257 646 t b symbol;
#X obj 2257 238 t b b;
#X msg 2202 332 clear;
#X obj 2257 380 spigot;
#X obj 2293 353 > 0;
#X obj 2257 353 t f f;
#X obj 2257 478 f;
#X floatatom 2404 510 5 0 0 0 - - - 12;
#X obj 2257 326 sigmund~ -npts 4096;
#X obj 1817 530 t list b;
#X obj 1900 580 makefilename sample%d;
#X text 1794 112 Step 3: Cut out Samples between Onsets if delta > minlength;
#X text 2240 112 Step 4: Analyze Sample and save it to matching pitch array;
#X obj 1817 645 array set;
#X msg 1982 645 \; \$1 const 0;
#X obj 1900 610 t b symbol symbol;
#X obj 2257 292 tabplay~ sample0;
#X obj 2257 677 array get sample0;
#X obj 2257 154 f;
#X obj 2489 539 makefilename mn%d;
#X obj 2489 689 array set;
#X msg 2571 682 \; \$1 const 0, f 18;
#X obj 2489 574 t symbol symbol;
#X obj 2489 621 t b symbol;
#X obj 2489 238 t b b;
#X msg 2434 332 clear;
#X obj 2489 380 spigot;
#X obj 2525 353 > 0;
#X obj 2489 353 t f f;
#X obj 2489 478 f;
#X floatatom 2590 447 5 0 0 0 - - - 12;
#X obj 2489 326 sigmund~ -npts 4096;
#X obj 2717 539 makefilename mn%d;
#X obj 2717 689 array set;
#X msg 2799 682 \; \$1 const 0, f 18;
#X obj 2717 574 t symbol symbol;
#X obj 2717 621 t b symbol;
#X obj 2717 238 t b b;
#X msg 2662 332 clear;
#X obj 2717 380 spigot;
#X obj 2753 353 > 0;
#X obj 2717 353 t f f;
#X obj 2717 478 f;
#X floatatom 2814 447 5 0 0 0 - - - 12;
#X obj 2717 326 sigmund~ -npts 4096;
#X obj 2950 514 makefilename mn%d;
#X obj 2950 664 array set;
#X msg 3032 657 \; \$1 const 0, f 18;
#X obj 2950 549 t symbol symbol;
#X obj 2950 596 t b symbol;
#X obj 2950 238 t b b;
#X msg 2895 332 clear;
#X obj 2950 380 spigot;
#X obj 2986 353 > 0;
#X obj 2950 353 t f f;
#X obj 2950 467 f;
#X floatatom 3060 435 5 0 0 0 - - - 12;
#X obj 2950 326 sigmund~ -npts 4096;
#X obj 2489 652 array get sample1;
#X obj 2717 652 array get sample2;
#X obj 2950 627 array get sample3;
#X obj 2489 292 tabplay~ sample1;
#X obj 2717 292 tabplay~ sample2;
#X obj 2950 292 tabplay~ sample3;
#X obj 2950 491 clip 22 83;
#X obj 2716 510 clip 22 83;
#X obj 2489 510 clip 22 83;
#X obj 2257 533 clip 22 83;
#X obj 1224 1219 array define sample0 240000;
#X obj 1224 1249 array define sample1 240000;
#X obj 1224 1281 array define sample2 240000;
#X obj 1224 1312 array define sample3 240000;
#X obj 52 1511 s sampler;
#X obj 52 1536 s sampleros;
#X obj 124 -83 inlet mode;
#X obj 1259 81 r \$0-mode;
#X obj 1259 105 sel 0 1;
#X msg 1275 138 0;
#X msg 1436 323 stop;
#X obj 1347 81 r \$0-reclength;
#X obj 1347 105 * 1000;
#X obj 1416 272 *~;
#X msg 1308 138 1;
#X obj 15 847 else/note 1415 24 Inter empty 5 54 54 54 0 209 225 225 1 1 Arrays;
#X obj 865 322 clone voice 8;
#X obj 2257 418 else/avg;
#X obj 2489 418 else/avg;
#X obj 2717 418 else/avg;
#X obj 2950 407 else/avg;
#X obj 2613 817 cyclone/counter 0 31;
#X obj 526 235 hradio 20 1 0 3 empty empty empty 0 -8 0 10 #e4e4e4 #4d4d4d #373737 0;
#X obj 754 322 clone voice2 8;
#X obj 623 284 cyclone/gate 3;
#X obj 526 261 + 1;
#X obj 526 203 inlet voice;
#X obj 1695 912 ../utility/onset;
#X obj 1574 200 ../utility/onset;
#X obj 2257 447 cyclone/round 1, f 18;
#X obj 2489 447 cyclone/round 1;
#X obj 2717 447 cyclone/round 1;
#X obj 2950 436 cyclone/round 1;
#X obj 621 322 clone voicepitch 8;
#X obj 620 143 poly 8 1;
#X obj 1608 261 ../utility/millis2samps;
#X obj 1914 329 ../utility/samps2millis;
#X obj 405 249 else/initmess 0;
#X obj 1827 1148 else/mov.avg 4;
#X obj 1827 1174 clip 5 300;
#X text 1945 1074 xmin;
#X text 1986 1074 xmax;
#X obj 1970 920 loadbang;
#X msg 1734 1188 5;
#X msg 1775 1188 300;
#X text 1734 1164 ymin;
#X text 1775 1164 ymax;
#X text 2064 1114 ymin;
#X text 2105 1114 ymax;
#X msg 2105 1138 1500;
#X msg 2064 1138 200;
#X obj 1984 1206 ../utility/mapfloat;
#X obj 1827 1206 ../utility/mapfloat;
#X msg 1945 1098 200;
#X msg 1986 1098 1200;
#X obj 2112 937 inlet adsrmode;
#X obj 2112 966 sel 0 1;
#X obj 1970 956 bng 25 250 50 0 empty empty empty 0 -10 0 10 #e4e4e4 #4d4d4d #373737;
#X msg 2202 1138 1500;
#X msg 2161 1138 200;
#X msg 1644 1188 5;
#X msg 1685 1188 300;
#X text 1644 1164 ymax;
#X text 1685 1164 ymin;
#X text 2161 1114 ymax;
#X text 2202 1114 ymin;
#X obj 1697 1118 timer;
#X obj 1708 1031 spigot;
#X obj 1695 942 t b b;
#X obj 1750 942 onebang;
#X msg 1722 974 1;
#X obj 1750 966 t b b;
#X msg 1751 999 0;
#X obj 1695 1093 spigot;
#X obj 1720 1061 expr abs(\$1-1);
#X obj 1587 847 else/note 783 24 Inter empty 5 54 54 54 0 209 225 225 1 1 Dynamically set ADSR;
#X obj 3213 566 makefilename mn%d;
#X obj 3213 716 array set;
#X msg 3295 709 \; \$1 const 0, f 18;
#X obj 3213 601 t symbol symbol;
#X obj 3213 648 t b symbol;
#X obj 3213 240 t b b;
#X msg 3158 334 clear;
#X obj 3213 382 spigot;
#X obj 3249 355 > 0;
#X obj 3213 355 t f f;
#X obj 3213 480 f;
#X floatatom 3360 512 5 0 0 0 - - - 12;
#X obj 3213 328 sigmund~ -npts 4096;
#X obj 3445 541 makefilename mn%d;
#X obj 3445 691 array set;
#X msg 3527 684 \; \$1 const 0, f 18;
#X obj 3445 576 t symbol symbol;
#X obj 3445 623 t b symbol;
#X obj 3445 240 t b b;
#X msg 3390 334 clear;
#X obj 3445 382 spigot;
#X obj 3481 355 > 0;
#X obj 3445 355 t f f;
#X obj 3445 480 f;
#X floatatom 3546 449 5 0 0 0 - - - 12;
#X obj 3445 328 sigmund~ -npts 4096;
#X obj 3673 541 makefilename mn%d;
#X obj 3673 691 array set;
#X msg 3755 684 \; \$1 const 0, f 18;
#X obj 3673 576 t symbol symbol;
#X obj 3673 623 t b symbol;
#X obj 3673 240 t b b;
#X msg 3618 334 clear;
#X obj 3673 382 spigot;
#X obj 3709 355 > 0;
#X obj 3673 355 t f f;
#X obj 3673 480 f;
#X floatatom 3770 449 5 0 0 0 - - - 12;
#X obj 3673 328 sigmund~ -npts 4096;
#X obj 3906 516 makefilename mn%d;
#X obj 3906 666 array set;
#X msg 3988 659 \; \$1 const 0, f 18;
#X obj 3906 551 t symbol symbol;
#X obj 3906 598 t b symbol;
#X obj 3906 240 t b b;
#X msg 3851 334 clear;
#X obj 3906 382 spigot;
#X obj 3942 355 > 0;
#X obj 3906 355 t f f;
#X obj 3906 469 f;
#X floatatom 4016 437 5 0 0 0 - - - 12;
#X obj 3906 328 sigmund~ -npts 4096;
#X obj 3906 493 clip 22 83;
#X obj 3672 512 clip 22 83;
#X obj 3445 512 clip 22 83;
#X obj 3213 535 clip 22 83;
#X obj 3213 420 else/avg;
#X obj 3445 420 else/avg;
#X obj 3673 420 else/avg;
#X obj 3906 409 else/avg;
#X obj 3213 449 cyclone/round 1, f 18;
#X obj 3445 449 cyclone/round 1;
#X obj 3673 449 cyclone/round 1;
#X obj 3906 438 cyclone/round 1;
#X obj 2257 185 sel 0 1 2 3 4 5 6 7;
#X obj 1900 549 cyclone/counter 0 7;
#X obj 3213 294 tabplay~ sample4;
#X obj 3445 294 tabplay~ sample5;
#X obj 3673 294 tabplay~ sample6;
#X obj 3906 294 tabplay~ sample7;
#X obj 1422 1219 array define sample4 240000;
#X obj 1422 1249 array define sample5 240000;
#X obj 1422 1281 array define sample6 240000;
#X obj 1422 1312 array define sample7 240000;
#X obj 3213 679 array get sample4;
#X obj 3445 654 array get sample5;
#X obj 3673 654 array get sample6;
#X obj 3906 629 array get sample7;
#X connect 2 0 3 0;
#X connect 2 0 78 0;
#X connect 4 0 27 0;
#X connect 6 0 144 0;
#X connect 7 0 9 0;
#X connect 9 0 273 0;
#X connect 9 0 287 0;
#X connect 10 0 141 1;
#X connect 26 0 8 0;
#X connect 28 0 4 0;
#X connect 29 0 30 0;
#X connect 30 0 9 1;
#X connect 31 0 294 0;
#X connect 32 0 31 1;
#X connect 38 0 35 0;
#X connect 39 0 40 0;
#X connect 39 0 46 0;
#X connect 40 0 41 0;
#X connect 41 0 42 0;
#X connect 42 0 44 0;
#X connect 43 0 42 1;
#X connect 44 0 45 0;
#X connect 44 0 47 0;
#X connect 44 0 264 0;
#X connect 44 0 265 0;
#X connect 46 0 43 0;
#X connect 48 0 49 0;
#X connect 50 0 80 0;
#X connect 50 0 81 0;
#X connect 50 0 82 0;
#X connect 50 0 83 0;
#X connect 50 0 84 0;
#X connect 50 0 85 0;
#X connect 50 0 86 0;
#X connect 50 0 87 0;
#X connect 50 0 88 0;
#X connect 50 0 90 0;
#X connect 50 0 91 0;
#X connect 50 0 92 0;
#X connect 50 0 93 0;
#X connect 50 0 94 0;
#X connect 50 0 95 0;
#X connect 50 0 96 0;
#X connect 50 0 97 0;
#X connect 50 0 98 0;
#X connect 50 0 79 0;
#X connect 50 0 89 0;
#X connect 50 0 100 0;
#X connect 50 0 101 0;
#X connect 50 0 102 0;
#X connect 50 0 103 0;
#X connect 50 0 104 0;
#X connect 50 0 105 0;
#X connect 50 0 106 0;
#X connect 50 0 107 0;
#X connect 50 0 108 0;
#X connect 50 0 111 0;
#X connect 50 0 110 0;
#X connect 50 0 112 0;
#X connect 50 0 114 0;
#X connect 50 0 113 0;
#X connect 50 0 115 0;
#X connect 50 0 116 0;
#X connect 50 0 118 0;
#X connect 50 0 117 0;
#X connect 50 0 120 0;
#X connect 50 0 122 0;
#X connect 50 0 121 0;
#X connect 50 0 124 0;
#X connect 50 0 123 0;
#X connect 50 0 127 0;
#X connect 50 0 126 0;
#X connect 50 0 125 0;
#X connect 50 0 128 0;
#X connect 50 0 132 0;
#X connect 50 0 131 0;
#X connect 50 0 130 0;
#X connect 50 0 135 0;
#X connect 50 0 134 0;
#X connect 50 0 133 0;
#X connect 50 0 137 0;
#X connect 50 0 136 0;
#X connect 50 0 187 0;
#X connect 50 0 189 0;
#X connect 50 0 99 0;
#X connect 50 0 109 0;
#X connect 50 0 119 0;
#X connect 50 0 129 0;
#X connect 50 0 188 0;
#X connect 50 0 149 0;
#X connect 50 0 260 0;
#X connect 50 0 261 0;
#X connect 50 0 262 0;
#X connect 50 0 406 0;
#X connect 50 0 407 0;
#X connect 50 0 408 0;
#X connect 50 0 263 0;
#X connect 50 0 409 0;
#X connect 51 0 50 0;
#X connect 52 0 31 0;
#X connect 53 0 41 0;
#X connect 53 0 43 0;
#X connect 54 0 56 0;
#X connect 55 0 54 1;
#X connect 56 0 80 0;
#X connect 56 0 81 0;
#X connect 56 0 82 0;
#X connect 56 0 83 0;
#X connect 56 0 84 0;
#X connect 56 0 85 0;
#X connect 56 0 86 0;
#X connect 56 0 87 0;
#X connect 56 0 88 0;
#X connect 56 0 90 0;
#X connect 56 0 91 0;
#X connect 56 0 92 0;
#X connect 56 0 93 0;
#X connect 56 0 94 0;
#X connect 56 0 95 0;
#X connect 56 0 96 0;
#X connect 56 0 97 0;
#X connect 56 0 98 0;
#X connect 56 0 79 0;
#X connect 56 0 89 0;
#X connect 56 0 100 0;
#X connect 56 0 101 0;
#X connect 56 0 102 0;
#X connect 56 0 103 0;
#X connect 56 0 104 0;
#X connect 56 0 105 0;
#X connect 56 0 106 0;
#X connect 56 0 107 0;
#X connect 56 0 108 0;
#X connect 56 0 111 0;
#X connect 56 0 110 0;
#X connect 56 0 112 0;
#X connect 56 0 114 0;
#X connect 56 0 113 0;
#X connect 56 0 115 0;
#X connect 56 0 116 0;
#X connect 56 0 118 0;
#X connect 56 0 117 0;
#X connect 56 0 120 0;
#X connect 56 0 122 0;
#X connect 56 0 121 0;
#X connect 56 0 124 0;
#X connect 56 0 123 0;
#X connect 56 0 127 0;
#X connect 56 0 126 0;
#X connect 56 0 125 0;
#X connect 56 0 128 0;
#X connect 56 0 132 0;
#X connect 56 0 131 0;
#X connect 56 0 130 0;
#X connect 56 0 135 0;
#X connect 56 0 134 0;
#X connect 56 0 133 0;
#X connect 56 0 137 0;
#X connect 56 0 136 0;
#X connect 56 0 187 0;
#X connect 56 0 189 0;
#X connect 56 0 99 0;
#X connect 56 0 109 0;
#X connect 56 0 119 0;
#X connect 56 0 129 0;
#X connect 56 0 188 0;
#X connect 57 0 54 0;
#X connect 57 1 55 0;
#X connect 61 0 62 0;
#X connect 62 0 59 0;
#X connect 63 0 2 0;
#X connect 65 0 57 0;
#X connect 66 0 18 0;
#X connect 67 0 17 0;
#X connect 68 0 16 0;
#X connect 69 0 145 3;
#X connect 70 0 145 4;
#X connect 71 0 145 5;
#X connect 72 0 145 6;
#X connect 73 0 77 0;
#X connect 74 0 190 0;
#X connect 75 0 145 2;
#X connect 77 0 145 0;
#X connect 138 0 15 0;
#X connect 139 0 48 0;
#X connect 141 0 31 0;
#X connect 145 0 284 1;
#X connect 146 0 58 0;
#X connect 147 0 6 0;
#X connect 148 0 141 2;
#X connect 150 0 4 0;
#X connect 150 0 147 0;
#X connect 153 0 181 0;
#X connect 154 0 295 0;
#X connect 155 0 158 0;
#X connect 156 0 155 0;
#X connect 159 0 155 1;
#X connect 159 0 161 0;
#X connect 160 0 171 0;
#X connect 161 0 171 0;
#X connect 161 0 169 0;
#X connect 162 0 161 0;
#X connect 162 0 179 0;
#X connect 162 0 177 1;
#X connect 164 0 178 0;
#X connect 167 0 162 0;
#X connect 167 0 160 0;
#X connect 168 0 170 0;
#X connect 168 0 179 0;
#X connect 169 0 168 1;
#X connect 169 1 168 0;
#X connect 170 0 177 0;
#X connect 171 0 170 1;
#X connect 171 0 180 0;
#X connect 171 0 296 0;
#X connect 174 0 175 1;
#X connect 175 0 176 0;
#X connect 176 0 177 1;
#X connect 177 0 164 0;
#X connect 178 1 201 0;
#X connect 181 0 154 0;
#X connect 181 0 163 0;
#X connect 181 1 166 0;
#X connect 181 2 157 0;
#X connect 181 2 165 0;
#X connect 182 0 191 0;
#X connect 185 0 186 0;
#X connect 185 1 281 0;
#X connect 190 0 145 1;
#X connect 191 0 192 0;
#X connect 191 1 184 0;
#X connect 192 0 209 0;
#X connect 192 1 183 2;
#X connect 193 0 208 0;
#X connect 193 1 194 0;
#X connect 194 0 277 0;
#X connect 195 0 277 0;
#X connect 196 0 195 1;
#X connect 197 0 195 0;
#X connect 197 1 196 0;
#X connect 198 0 259 0;
#X connect 198 0 199 0;
#X connect 200 0 197 0;
#X connect 201 0 205 0;
#X connect 201 1 401 0;
#X connect 202 0 207 0;
#X connect 207 0 210 0;
#X connect 207 1 205 2;
#X connect 207 2 206 0;
#X connect 208 0 200 0;
#X connect 208 1 198 0;
#X connect 209 0 183 0;
#X connect 210 0 400 0;
#X connect 211 0 214 0;
#X connect 214 0 215 0;
#X connect 214 1 213 0;
#X connect 215 0 250 0;
#X connect 215 1 212 2;
#X connect 216 0 253 0;
#X connect 216 1 217 0;
#X connect 217 0 278 0;
#X connect 218 0 278 0;
#X connect 219 0 218 1;
#X connect 220 0 218 0;
#X connect 220 1 219 0;
#X connect 221 0 258 0;
#X connect 223 0 220 0;
#X connect 224 0 227 0;
#X connect 227 0 228 0;
#X connect 227 1 226 0;
#X connect 228 0 251 0;
#X connect 228 1 225 2;
#X connect 229 0 254 0;
#X connect 229 1 230 0;
#X connect 230 0 279 0;
#X connect 231 0 279 0;
#X connect 232 0 231 1;
#X connect 233 0 231 0;
#X connect 233 1 232 0;
#X connect 234 0 257 0;
#X connect 236 0 233 0;
#X connect 237 0 240 0;
#X connect 240 0 241 0;
#X connect 240 1 239 0;
#X connect 241 0 252 0;
#X connect 241 1 238 2;
#X connect 242 0 255 0;
#X connect 242 1 243 0;
#X connect 243 0 280 0;
#X connect 244 0 280 0;
#X connect 245 0 244 1;
#X connect 246 0 244 0;
#X connect 246 1 245 0;
#X connect 247 0 256 0;
#X connect 249 0 246 0;
#X connect 250 0 212 0;
#X connect 251 0 225 0;
#X connect 252 0 238 0;
#X connect 253 0 223 0;
#X connect 253 1 221 0;
#X connect 254 0 236 0;
#X connect 254 1 234 0;
#X connect 255 0 249 0;
#X connect 255 1 247 0;
#X connect 256 0 237 0;
#X connect 256 0 185 0;
#X connect 257 0 224 0;
#X connect 257 0 185 0;
#X connect 258 0 211 0;
#X connect 258 0 185 0;
#X connect 259 0 182 0;
#X connect 259 0 185 0;
#X connect 266 0 147 0;
#X connect 267 0 268 0;
#X connect 268 0 153 0;
#X connect 268 0 274 0;
#X connect 268 1 269 0;
#X connect 268 1 270 0;
#X connect 269 0 153 0;
#X connect 269 0 273 1;
#X connect 270 0 163 0;
#X connect 271 0 272 0;
#X connect 272 0 153 1;
#X connect 273 0 163 0;
#X connect 273 0 288 0;
#X connect 274 0 273 1;
#X connect 276 0 76 0;
#X connect 277 0 289 0;
#X connect 278 0 222 0;
#X connect 278 0 290 0;
#X connect 279 0 235 0;
#X connect 279 0 291 0;
#X connect 280 0 248 0;
#X connect 280 0 292 0;
#X connect 281 0 186 1;
#X connect 282 0 285 0;
#X connect 283 0 76 0;
#X connect 284 0 293 0;
#X connect 284 1 283 0;
#X connect 284 2 276 0;
#X connect 285 0 284 0;
#X connect 286 0 282 0;
#X connect 287 0 328 0;
#X connect 287 1 329 0;
#X connect 288 0 154 1;
#X connect 288 0 156 0;
#X connect 289 0 198 1;
#X connect 290 0 221 1;
#X connect 291 0 234 1;
#X connect 292 0 247 1;
#X connect 293 0 76 0;
#X connect 294 0 73 0;
#X connect 294 1 74 0;
#X connect 294 2 75 0;
#X connect 295 0 159 0;
#X connect 296 0 175 0;
#X connect 297 0 282 0;
#X connect 298 0 299 0;
#X connect 299 0 311 0;
#X connect 299 0 312 0;
#X connect 302 0 317 0;
#X connect 303 0 312 3;
#X connect 304 0 312 4;
#X connect 309 0 311 4;
#X connect 310 0 311 3;
#X connect 311 0 143 0;
#X connect 312 0 142 0;
#X connect 313 0 311 1;
#X connect 313 0 312 1;
#X connect 313 0 299 1;
#X connect 314 0 311 2;
#X connect 314 0 312 2;
#X connect 314 0 299 2;
#X connect 315 0 316 0;
#X connect 316 0 317 0;
#X connect 316 0 313 0;
#X connect 316 0 314 0;
#X connect 316 1 319 0;
#X connect 316 1 318 0;
#X connect 316 1 320 0;
#X connect 316 1 321 0;
#X connect 317 0 313 0;
#X connect 317 0 314 0;
#X connect 317 0 303 0;
#X connect 317 0 304 0;
#X connect 317 0 310 0;
#X connect 317 0 309 0;
#X connect 318 0 311 3;
#X connect 319 0 311 4;
#X connect 320 0 312 4;
#X connect 321 0 312 3;
#X connect 326 0 298 0;
#X connect 327 0 326 1;
#X connect 328 0 333 0;
#X connect 328 1 327 0;
#X connect 328 1 330 0;
#X connect 328 1 329 1;
#X connect 329 0 331 0;
#X connect 330 0 327 1;
#X connect 330 0 334 0;
#X connect 331 0 332 0;
#X connect 331 1 327 0;
#X connect 331 1 332 0;
#X connect 332 0 327 1;
#X connect 332 0 334 0;
#X connect 333 0 326 0;
#X connect 334 0 333 1;
#X connect 336 0 339 0;
#X connect 339 0 340 0;
#X connect 339 1 338 0;
#X connect 340 0 410 0;
#X connect 340 1 337 2;
#X connect 341 0 402 0;
#X connect 341 1 342 0;
#X connect 342 0 392 0;
#X connect 343 0 392 0;
#X connect 344 0 343 1;
#X connect 345 0 343 0;
#X connect 345 1 344 0;
#X connect 346 0 391 0;
#X connect 346 0 347 0;
#X connect 348 0 345 0;
#X connect 349 0 352 0;
#X connect 352 0 353 0;
#X connect 352 1 351 0;
#X connect 353 0 411 0;
#X connect 353 1 350 2;
#X connect 354 0 403 0;
#X connect 354 1 355 0;
#X connect 355 0 393 0;
#X connect 356 0 393 0;
#X connect 357 0 356 1;
#X connect 358 0 356 0;
#X connect 358 1 357 0;
#X connect 359 0 390 0;
#X connect 361 0 358 0;
#X connect 362 0 365 0;
#X connect 365 0 366 0;
#X connect 365 1 364 0;
#X connect 366 0 412 0;
#X connect 366 1 363 2;
#X connect 367 0 404 0;
#X connect 367 1 368 0;
#X connect 368 0 394 0;
#X connect 369 0 394 0;
#X connect 370 0 369 1;
#X connect 371 0 369 0;
#X connect 371 1 370 0;
#X connect 372 0 389 0;
#X connect 374 0 371 0;
#X connect 375 0 378 0;
#X connect 378 0 379 0;
#X connect 378 1 377 0;
#X connect 379 0 413 0;
#X connect 379 1 376 2;
#X connect 380 0 405 0;
#X connect 380 1 381 0;
#X connect 381 0 395 0;
#X connect 382 0 395 0;
#X connect 383 0 382 1;
#X connect 384 0 382 0;
#X connect 384 1 383 0;
#X connect 385 0 388 0;
#X connect 387 0 384 0;
#X connect 388 0 375 0;
#X connect 388 0 185 0;
#X connect 389 0 362 0;
#X connect 389 0 185 0;
#X connect 390 0 349 0;
#X connect 390 0 185 0;
#X connect 391 0 336 0;
#X connect 391 0 185 0;
#X connect 392 0 396 0;
#X connect 393 0 360 0;
#X connect 393 0 397 0;
#X connect 394 0 373 0;
#X connect 394 0 398 0;
#X connect 395 0 386 0;
#X connect 395 0 399 0;
#X connect 396 0 346 1;
#X connect 397 0 359 1;
#X connect 398 0 372 1;
#X connect 399 0 385 1;
#X connect 400 0 193 0;
#X connect 400 1 216 0;
#X connect 400 2 229 0;
#X connect 400 3 242 0;
#X connect 400 4 341 0;
#X connect 400 5 354 0;
#X connect 400 6 367 0;
#X connect 400 7 380 0;
#X connect 401 0 202 0;
#X connect 401 0 210 1;
#X connect 402 0 348 0;
#X connect 402 1 346 0;
#X connect 403 0 361 0;
#X connect 403 1 359 0;
#X connect 404 0 374 0;
#X connect 404 1 372 0;
#X connect 405 0 387 0;
#X connect 405 1 385 0;
#X connect 410 0 337 0;
#X connect 411 0 350 0;
#X connect 412 0 363 0;
#X connect 413 0 376 0;
#X coords 0 0 1 1 221 381 1 0 0;
