#N canvas 199 25 1440 847 12;
#X obj 0 161 cnv 15 220 149 empty empty ADSR 2 11 0 17 #a8b9e4 #373737 0;
#X obj 1 1 cnv 15 220 160 empty empty Onset\ Sampler 2 11 0 17 #d0e4bb #373737 0;
#X obj 75 73 hsl 80 15 100 2000 0 0 \$0-minlength empty empty -2 -8 0 10 #e4e4e4 #4d4d4d #373737 0 1;
#X floatatom 162 72 4 0 0 1 ms \$0-minlength - 10;
#X obj 198 9 tgl 18 0 \$0-bypass empty empty 17 7 0 10 #e4e4e4 #4d4d4d #373737 0 1;
#X text 152 8 On/Off;
#X obj 91 46 hradio 20 1 0 2 \$0-freeze empty empty 0 -8 0 10 #e4e4e4 #4d4d4d #373737 0;
#X obj -78 309 inlet midi;
#X text 7 187 Attack;
#X text 7 216 Decay;
#X text 7 246 Sustain;
#X text 7 276 Release;
#X obj 67 188 hsl 93 17 5 400 0 0 \$0-attack empty empty -2 -8 0 10 #e4e4e4 #4d4d4d #373737 0 1;
#X obj 64 217 hsl 93 17 10 3000 0 0 \$0-decay empty empty -2 -8 0 10 #e4e4e4 #4d4d4d #373737 0 1;
#X obj 64 247 hsl 93 17 0 1 0 0 \$0-sustain empty empty -2 -8 0 10 #e4e4e4 #4d4d4d #373737 0 1;
#X obj 64 277 hsl 93 17 10 2000 0 0 \$0-release empty empty -2 -8 0 10 #e4e4e4 #4d4d4d #373737 0 1;
#X text 1 70 Min.Length, f 11;
#X floatatom 169 188 5 0 0 1 ms \$0-attack - 0;
#X floatatom 169 217 5 0 0 1 ms \$0-decay - 0;
#X floatatom 169 247 5 0 0 1 - \$0-sustain - 0;
#X floatatom 169 277 4 0 0 1 ms \$0-release - 10;
#X text 15 45 Continuous;
#X text 90 25 Mode;
#X obj 247 -35 inlet bypass;
#X obj 620 101 spigot;
#X obj 643 71 r \$0-bypass;
#X obj 526 33 else/note 553 24 Inter empty 5 54 54 54 0 209 225 225 1 1 MIDI/Playback Handling;
#X obj 1243 31 else/note 787 24 Inter empty 5 54 54 54 0 209 225 225 1 1 Analyze and Save Samples;
#X obj 238 99 else/initmess 15;
#X obj 200 143 bng 14 250 50 0 \$0-clear empty Clear 0 -5 0 7 #2b2ae4 #4c4c4c #373737;
#X obj 620 -89 else/keyboard 16 80 4 2 0 0 empty empty;
#X obj 75 100 hsl 80 15 5 32 0 0 \$0-slots empty empty -2 -8 0 10 #e4e4e4 #4d4d4d #373737 0 1;
#X floatatom 162 99 2 0 0 1 - - - 12;
#X text 1 97 Slots, f 11;
#X obj 248 233 r \$0-slots;
#X obj 248 261 int;
#X obj -5 -30 else/initmess 350;
#X text 137 45 Freeze;
#X obj 238 166 else/initmess 1;
#X obj 238 143 else/initmess 0;
#X obj 754 212 r \$0-attack;
#X obj 833 212 r \$0-decay;
#X obj 919 212 r \$0-sustain;
#X obj 1009 212 r \$0-release;
#X floatatom 622 183 5 0 0 0 - - - 10;
#X floatatom 661 183 5 0 0 0 - - - 12;
#X floatatom 708 183 5 0 0 0 - - - 12;
#X obj 623 368 outlet~ signal;
#X obj 623 203 - 1;
#X obj 238 123 else/initmess 100;
#X obj 238 33 inlet clear;
#X obj 0 309 cnv 15 220 72 empty empty Quantization 2 11 0 17 #f6dcaa #373737 0;
#X obj 40 329 ../utility/midiquantizer;
#X obj 586 854 s \$0-attack;
#X obj 623 235 pack f f f f f f f;
#X obj -90 98 initmess 32;
#X obj 124 -36 tgl 25 0 empty empty empty 17 7 0 10 #e4e4e4 #4d4d4d #373737 0 1;
#X obj 232 316 else/initmess 3;
#X obj 188 -54 else/initmess 0;
#X text 1251 112 Step 1: Write to Buffer;
#X obj 124 -83 inlet mode;
#X obj 526 235 hradio 20 1 0 3 empty empty empty 0 -8 0 10 #e4e4e4 #4d4d4d #373737 0;
#X obj 623 284 cyclone/gate 3;
#X obj 526 261 + 1;
#X obj 526 203 inlet voice;
#X obj 454 492 ../utility/onset;
#X obj 621 322 clone voicepitch 8;
#X obj 412 235 else/initmess 0;
#X obj 586 786 clip 5 300;
#X text 704 686 xmin;
#X text 745 686 xmax;
#X obj 729 532 loadbang;
#X msg 493 800 5;
#X msg 534 800 300;
#X text 493 776 ymin;
#X text 534 776 ymax;
#X text 823 726 ymin;
#X text 864 726 ymax;
#X msg 864 750 1500;
#X msg 823 750 200;
#X obj 743 818 ../utility/mapfloat;
#X obj 586 818 ../utility/mapfloat;
#X msg 704 710 200;
#X msg 745 710 1200;
#X obj 871 549 inlet adsrmode;
#X obj 729 568 bng 25 250 50 0 empty empty empty 0 -10 0 10 #e4e4e4 #4d4d4d #373737;
#X msg 961 750 1500;
#X msg 920 750 200;
#X msg 403 800 5;
#X msg 444 800 300;
#X text 403 776 ymax;
#X text 444 776 ymin;
#X text 920 726 ymax;
#X text 961 726 ymin;
#X obj 456 730 timer;
#X obj 467 643 spigot;
#X obj 454 554 t b b;
#X msg 481 586 1;
#X obj 509 578 t b b;
#X msg 510 611 0;
#X obj 454 705 spigot;
#X obj 479 673 expr abs(\$1-1);
#X obj 346 459 else/note 783 24 Inter empty 5 54 54 54 0 209 225 225 1 1 Dynamically set ADSR;
#X obj 661 203 clip 22 127;
#X obj 897 322 clone voice 8;
#X obj 754 322 clone voiceclosest 8;
#X obj 1431 -232 instrument.m~;
#A saved 1;
#A saved;
#X obj 1431 -352 else/keyboard 16 80 4 2 0 0 empty empty;
#X obj 1431 -37 dac~;
#X obj 620 143 poly 8 1;
#X obj 1431 -521 metro 1000;
#X obj 1431 -565 bng 25 250 50 0 empty empty empty 0 -10 0 10 #e4e4e4 #4d4d4d #373737;
#X floatatom 1431 -455 5 0 0 0 - - - 12;
#X msg 1489 -551 0;
#X obj 1549 -521 s \$0-clear;
#X obj 1431 -408 pack;
#X msg 1569 -424 0;
#X obj 1522 -408 pack;
#X obj 1522 -455 pipe 900;
#X obj 1431 -489 counter 40 47;
#X obj 1426 -614 else/note 1515 24 Inter empty 5 54 54 54 0 209 225 225 1 1 DEBUG/Automated Test;
#X obj 509 554 cyclone/onebang;
#X msg 1473 -455 100;
#X obj 2142 614 ../utility/forloop 127;
#X obj 2142 641 counter 0 127;
#X obj 2142 585 r \$0-clear;
#X obj 871 578 sel 0 1 2;
#X msg 961 578 1;
#X msg 987 578 0;
#X obj 454 525 spigot;
#X obj 509 525 spigot;
#X obj 586 741 else/mov.avg 2;
#X obj 743 854 s \$0-decay;
#X obj 238 188 else/initmess 0;
#X obj 1700 -232 unpack;
#X floatatom 1700 -206 5 0 0 0 - - - 12;
#X floatatom 1752 -205 5 0 0 0 - - - 12;
#X obj 1343 202 r \$0-bypass;
#X obj 1246 202 *~;
#X obj 1300 202 sig~;
#X obj 1298 262 sig~;
#X obj 1401 234 r \$0-freeze;
#X obj 1246 234 *~;
#X obj 1515 164 onsetdetails;
#X obj 1515 137 loadbang;
#X obj 1543 244 - 1;
#X obj 1749 551 setnote;
#X obj 1932 554 unpack;
#X obj 1933 728 array define notelist 31;
#X obj 1933 591 t f b;
#X obj 1933 661 tabwrite notelist;
#X obj 1945 626 cyclone/counter 0 31;
#X obj 2000 591 r \$0-clear;
#X text 1515 112 Step 2: Detect Onsets \, Pitch and save to according Note-Array;
#X text 1932 523 Step 3: Add last saved note to Lookup Notelist;
#X msg 2142 671 \; mn\$1 const 0;
#X text 2142 563 Clears all Note-Arrays;
#X msg 1933 703 const 0;
#X obj 2000 703 r \$0-clear;
#X obj 1298 234 expr abs($f1-1);
#X obj 1543 192 pack;
#X obj 1680 -68 tabplay~ buf0;
#X obj 1680 -104 bng 25 250 50 0 empty empty empty 0 -10 0 10 #e4e4e4 #4d4d4d #373737;
#X obj 1680 -27 dac~;
#X obj 1794 -104 bng 25 250 50 0 empty empty empty 0 -10 0 10 #e4e4e4 #4d4d4d #373737;
#X obj 1794 -27 dac~;
#X obj 1903 -104 bng 25 250 50 0 empty empty empty 0 -10 0 10 #e4e4e4 #4d4d4d #373737;
#X obj 1903 -27 dac~;
#X obj 2010 -104 bng 25 250 50 0 empty empty empty 0 -10 0 10 #e4e4e4 #4d4d4d #373737;
#X obj 2010 -27 dac~;
#X obj 1794 -68 tabplay~ buf1;
#X obj 1903 -68 tabplay~ buf2;
#X obj 2010 -68 tabplay~ buf3;
#X obj 1515 79 clone notes_v02 128;
#X obj 727 375 dac~;
#X obj 1543 216 poly 16 1;
#X obj 1344 418 r \$0-bypass;
#X obj 1247 418 *~;
#X obj 1301 418 sig~;
#X obj 1299 478 sig~;
#X obj 1402 450 r \$0-freeze;
#X obj 1247 450 *~;
#X obj 1299 450 expr abs($f1-1);
#X obj 1247 380 inlet~ audio1;
#X obj 1246 164 inlet~ audio0;
#X obj 1247 516 delwrite~ buffer1 5000;
#X obj 1246 300 delwrite~ buffer0 5000;
#X obj 1517 407 onsetdetails;
#X obj 1517 380 loadbang;
#X obj 1545 435 pack;
#X obj 1545 459 poly 16 1;
#X obj 1545 487 + 15;
#X obj 1543 273 pack f f f;
#X msg 1590 245 0;
#X obj 1545 516 pack f f f;
#X msg 1588 489 1;
#X obj 1749 524 clone analyzer_v02 64;
#X obj 1344 637 r \$0-bypass;
#X obj 1247 637 *~;
#X obj 1301 637 sig~;
#X obj 1299 697 sig~;
#X obj 1402 669 r \$0-freeze;
#X obj 1247 669 *~;
#X obj 1299 669 expr abs($f1-1);
#X obj 1517 626 onsetdetails;
#X obj 1517 599 loadbang;
#X obj 1545 654 pack;
#X obj 1545 678 poly 16 1;
#X obj 1545 735 pack f f f;
#X obj 1247 599 inlet~ audio2;
#X obj 1247 735 delwrite~ buffer25000;
#X obj 1344 841 r \$0-bypass;
#X obj 1247 841 *~;
#X obj 1301 841 sig~;
#X obj 1299 901 sig~;
#X obj 1402 873 r \$0-freeze;
#X obj 1247 873 *~;
#X obj 1299 873 expr abs($f1-1);
#X obj 1517 830 onsetdetails;
#X obj 1517 803 loadbang;
#X obj 1545 858 pack;
#X obj 1545 882 poly 16 1;
#X obj 1545 939 pack f f f;
#X msg 1586 703 2;
#X msg 1584 908 3;
#X obj 1545 706 + 31;
#X obj 1545 910 + 47;
#X obj 1247 803 inlet~ audio3;
#X obj 1247 939 delwrite~ buffer3 5000;
#X connect 7 0 52 1;
#X connect 23 0 4 0;
#X connect 24 0 109 0;
#X connect 25 0 24 1;
#X connect 30 0 24 0;
#X connect 34 0 35 0;
#X connect 35 0 32 0;
#X connect 36 0 2 0;
#X connect 38 0 14 0;
#X connect 39 0 13 0;
#X connect 40 0 54 3;
#X connect 41 0 54 4;
#X connect 42 0 54 5;
#X connect 43 0 54 6;
#X connect 44 0 48 0;
#X connect 45 0 103 0;
#X connect 46 0 54 2;
#X connect 48 0 54 0;
#X connect 49 0 12 0;
#X connect 50 0 29 0;
#X connect 52 0 24 0;
#X connect 54 0 62 1;
#X connect 55 0 31 0;
#X connect 56 0 6 0;
#X connect 57 0 52 2;
#X connect 58 0 4 0;
#X connect 58 0 56 0;
#X connect 60 0 56 0;
#X connect 61 0 63 0;
#X connect 62 0 66 0;
#X connect 62 1 105 0;
#X connect 62 2 104 0;
#X connect 63 0 62 0;
#X connect 64 0 61 0;
#X connect 65 0 129 0;
#X connect 65 1 130 0;
#X connect 66 0 174 0;
#X connect 66 0 47 0;
#X connect 66 0 174 1;
#X connect 67 0 61 0;
#X connect 68 0 80 0;
#X connect 68 0 81 0;
#X connect 71 0 85 0;
#X connect 72 0 81 3;
#X connect 73 0 81 4;
#X connect 78 0 80 4;
#X connect 79 0 80 3;
#X connect 80 0 132 0;
#X connect 81 0 53 0;
#X connect 82 0 80 1;
#X connect 82 0 81 1;
#X connect 82 0 68 1;
#X connect 83 0 80 2;
#X connect 83 0 81 2;
#X connect 83 0 68 2;
#X connect 84 0 126 0;
#X connect 85 0 82 0;
#X connect 85 0 83 0;
#X connect 85 0 72 0;
#X connect 85 0 73 0;
#X connect 85 0 79 0;
#X connect 85 0 78 0;
#X connect 86 0 80 3;
#X connect 87 0 80 4;
#X connect 88 0 81 4;
#X connect 89 0 81 3;
#X connect 94 0 131 0;
#X connect 95 0 94 1;
#X connect 96 0 100 0;
#X connect 96 1 95 0;
#X connect 96 1 97 0;
#X connect 96 1 121 1;
#X connect 97 0 95 1;
#X connect 97 0 101 0;
#X connect 98 0 99 0;
#X connect 98 1 95 0;
#X connect 98 1 99 0;
#X connect 99 0 95 1;
#X connect 99 0 101 0;
#X connect 100 0 94 0;
#X connect 101 0 100 1;
#X connect 103 0 54 1;
#X connect 104 0 47 0;
#X connect 105 0 47 0;
#X connect 106 0 108 0;
#X connect 106 0 108 1;
#X connect 106 0 142 0;
#X connect 107 0 134 0;
#X connect 107 0 106 0;
#X connect 109 0 44 0;
#X connect 109 1 45 0;
#X connect 109 2 46 0;
#X connect 110 0 119 0;
#X connect 111 0 110 0;
#X connect 111 0 114 0;
#X connect 112 0 115 0;
#X connect 113 0 110 0;
#X connect 115 0 107 0;
#X connect 116 0 117 1;
#X connect 117 0 107 0;
#X connect 118 0 117 0;
#X connect 118 0 116 0;
#X connect 119 0 112 0;
#X connect 119 0 122 0;
#X connect 119 0 118 0;
#X connect 119 3 113 0;
#X connect 121 0 98 0;
#X connect 122 0 115 1;
#X connect 123 0 124 0;
#X connect 124 0 155 0;
#X connect 125 0 123 0;
#X connect 126 0 85 0;
#X connect 126 0 82 0;
#X connect 126 0 83 0;
#X connect 126 0 127 0;
#X connect 126 1 87 0;
#X connect 126 1 86 0;
#X connect 126 1 88 0;
#X connect 126 1 89 0;
#X connect 126 1 127 0;
#X connect 126 2 128 0;
#X connect 127 0 129 1;
#X connect 127 0 130 1;
#X connect 128 0 129 1;
#X connect 128 0 130 1;
#X connect 129 0 96 0;
#X connect 130 0 121 0;
#X connect 131 0 68 0;
#X connect 133 0 15 0;
#X connect 134 0 135 0;
#X connect 134 1 136 0;
#X connect 137 0 139 0;
#X connect 138 0 142 0;
#X connect 139 0 138 1;
#X connect 140 0 142 1;
#X connect 141 0 159 0;
#X connect 142 0 143 1;
#X connect 142 0 186 0;
#X connect 143 1 160 0;
#X connect 143 1 160 1;
#X connect 144 0 143 0;
#X connect 145 0 192 0;
#X connect 147 1 149 0;
#X connect 149 0 150 0;
#X connect 149 1 151 0;
#X connect 151 0 150 1;
#X connect 152 0 151 2;
#X connect 157 0 148 0;
#X connect 158 0 157 0;
#X connect 159 0 140 0;
#X connect 160 0 175 0;
#X connect 161 0 163 0;
#X connect 161 0 163 1;
#X connect 162 0 161 0;
#X connect 164 0 170 0;
#X connect 166 0 171 0;
#X connect 168 0 172 0;
#X connect 170 0 165 0;
#X connect 170 0 165 1;
#X connect 171 0 167 0;
#X connect 171 0 167 1;
#X connect 172 0 169 0;
#X connect 172 0 169 1;
#X connect 175 0 145 0;
#X connect 175 1 192 1;
#X connect 175 1 193 0;
#X connect 176 0 178 0;
#X connect 177 0 181 0;
#X connect 178 0 177 1;
#X connect 179 0 181 1;
#X connect 179 0 187 1;
#X connect 180 0 182 0;
#X connect 181 0 185 0;
#X connect 182 0 179 0;
#X connect 183 0 177 0;
#X connect 184 0 138 0;
#X connect 187 1 189 0;
#X connect 187 1 189 1;
#X connect 188 0 187 0;
#X connect 189 0 190 0;
#X connect 190 0 191 0;
#X connect 190 1 194 1;
#X connect 190 2 195 0;
#X connect 191 0 194 0;
#X connect 192 0 196 0;
#X connect 193 0 192 2;
#X connect 194 0 196 0;
#X connect 195 0 194 2;
#X connect 196 0 147 0;
#X connect 196 0 146 0;
#X connect 197 0 199 0;
#X connect 198 0 202 0;
#X connect 199 0 198 1;
#X connect 200 0 202 1;
#X connect 200 0 204 1;
#X connect 201 0 203 0;
#X connect 202 0 210 0;
#X connect 203 0 200 0;
#X connect 204 1 206 0;
#X connect 204 1 206 1;
#X connect 205 0 204 0;
#X connect 206 0 207 0;
#X connect 207 0 225 0;
#X connect 207 1 208 1;
#X connect 207 2 223 0;
#X connect 208 0 196 0;
#X connect 209 0 198 0;
#X connect 211 0 213 0;
#X connect 212 0 216 0;
#X connect 213 0 212 1;
#X connect 214 0 216 1;
#X connect 214 0 218 1;
#X connect 215 0 217 0;
#X connect 216 0 228 0;
#X connect 217 0 214 0;
#X connect 218 1 220 0;
#X connect 218 1 220 1;
#X connect 219 0 218 0;
#X connect 220 0 221 0;
#X connect 221 0 226 0;
#X connect 221 1 222 1;
#X connect 221 2 224 0;
#X connect 222 0 196 0;
#X connect 223 0 208 2;
#X connect 224 0 222 2;
#X connect 225 0 208 0;
#X connect 226 0 222 0;
#X connect 227 0 212 0;
#X coords 0 0 1 1 221 381 1 0 0;
