#N canvas 733 172 450 300 12;
#X obj 1683 339 timer;
#X obj 1649 200 ../utility/onset;
#X obj 1683 373 ../utility/millis2samps;
#X obj 1683 235 t b b;
#X obj 1749 183 env~;
#X obj 1696 292 spigot;
#X obj 1749 256 > 20;
#X obj 1842 314 timer;
#X obj 1842 373 ../utility/millis2samps;
#X obj 1842 402 - 5000;
#X obj 1749 212 else/mov.avg 100;
#X obj 1673 105 inlet~;
#X obj 1499 111 inlet timerreset;
#X obj 1842 541 outlet onsetsample;
#X obj 1977 541 outlet deltasamples;
#X obj 2118 541 outlet envgate;
#X connect 0 0 2 0;
#X connect 1 0 3 0;
#X connect 2 0 14 0;
#X connect 3 0 7 1;
#X connect 3 0 0 0;
#X connect 3 1 5 0;
#X connect 4 0 10 0;
#X connect 5 0 0 1;
#X connect 6 0 5 1;
#X connect 6 0 15 0;
#X connect 7 0 8 0;
#X connect 8 0 9 0;
#X connect 9 0 13 0;
#X connect 10 0 6 0;
#X connect 11 0 4 0;
#X connect 11 0 1 0;
#X connect 12 0 7 0;
