#N canvas 199 25 1440 847 12;
#X obj 0 161 cnv 15 220 149 empty empty ADSR 2 11 0 17 #a8b9e4 #373737 0;
#X obj 1 1 cnv 15 220 160 empty empty Onset\ Sampler 2 11 0 17 #d0e4bb #373737 0;
#X obj 75 73 hsl 80 15 100 2000 0 0 empty empty empty -2 -8 0 10 #e4e4e4 #4d4d4d #373737 0 1;
#X floatatom 162 72 4 0 0 1 ms - - 10;
#X obj 198 9 tgl 18 0 empty empty empty 17 7 0 10 #e4e4e4 #4d4d4d #373737 0 1;
#X text 152 8 On/Off;
#X obj 91 46 hradio 20 1 0 2 empty empty empty 0 -8 0 10 #e4e4e4 #4d4d4d #373737 0;
#X obj 1416 145 inlet~ audio;
#X obj 238 73 s record;
#X obj 1416 235 *~;
#X obj -78 309 inlet midi;
#X text 7 187 Attack;
#X text 7 216 Decay;
#X text 7 246 Sustain;
#X text 7 276 Release;
#X obj 67 188 hsl 93 17 5 400 0 0 \$0-attack empty empty -2 -8 0 10 #e4e4e4 #4d4d4d #373737 0 1;
#X obj 64 217 hsl 93 17 10 1000 0 0 \$0-decay empty empty -2 -8 0 10 #e4e4e4 #4d4d4d #373737 0 1;
#X obj 64 247 hsl 93 17 0 1 0 0 \$0-sustain empty empty -2 -8 0 10 #e4e4e4 #4d4d4d #373737 0 1;
#X obj 64 277 hsl 93 17 10 2000 0 0 \$0-release empty empty -2 -8 0 10 #e4e4e4 #4d4d4d #373737 0 1;
#X text 1 70 Min.Length, f 11;
#X floatatom 169 188 5 0 0 1 ms \$0-attack - 0;
#X floatatom 169 217 5 0 0 1 ms \$0-decay - 0;
#X floatatom 169 247 5 0 0 1 - \$0-sustain - 0;
#X floatatom 169 277 4 0 0 1 ms \$0-release - 10;
#X text 15 45 Continuous;
#X text 90 25 Mode;
#X obj 200 48 bng 14 250 50 0 empty empty Rec 0 -5 0 7 #e42f00 #4c4c4c #373737;
#X obj 246 5 s \$0-bypass;
#X obj 247 -35 inlet bypass;
#X obj 1462 174 r \$0-bypass;
#X obj 1462 200 sig~;
#X obj 620 101 spigot;
#X obj 739 80 r \$0-bypass;
#X obj 526 33 else/note 553 24 Inter empty 5 54 54 54 0 209 225 225 1 1 MIDI/Playback Handling;
#X obj 1243 31 else/note 1660 24 Inter empty 5 54 54 54 0 209 225 225 1 1 Analyze and Save Samples;
#X obj 75 100 hsl 80 15 5 30 0 0 \$0-reclength empty empty -2 -8 0 10 #e4e4e4 #4d4d4d #373737 0 1;
#X floatatom 162 99 2 0 0 1 s \$0-reclength - 12;
#X text 1 97 Rec Length, f 11;
#X obj 238 99 else/initmess 15;
#X obj 92 1188 r \$0-reclength;
#X obj 92 1218 int;
#X floatatom 92 1244 5 0 0 0 - - - 12;
#X obj 140 1281 *;
#X obj 156 1244 samplerate~;
#X msg 140 1309 resize \$1;
#X obj 150 1335 s \$0-rec;
#X obj 156 1218 t b;
#X obj 140 1360 s \$0-onsets;
#X obj 200 143 bng 14 250 50 0 empty empty Clear 0 -5 0 7 #2b2ae4 #4c4c4c #373737;
#X obj 377 131 s \$0-clear;
#X msg 460 995 const 0;
#X obj 460 961 r \$0-clear;
#X obj 620 -89 else/keyboard 16 80 4 2 0 0 empty empty;
#X obj 10 1188 loadbang;
#X obj 75 125 hsl 80 15 5 32 0 0 \$0-slots empty empty -2 -8 0 10 #e4e4e4 #4d4d4d #373737 0 1;
#X floatatom 162 124 2 0 0 1 - - - 12;
#X text 1 122 Slots, f 11;
#X obj 248 233 r \$0-slots;
#X obj 248 261 int;
#X obj -5 -30 else/initmess 350;
#X text 137 45 Freeze;
#X obj 238 188 else/initmess 1000;
#X obj 238 166 else/initmess 1;
#X obj 238 143 else/initmess 0;
#X obj 754 212 r \$0-attack;
#X obj 833 212 r \$0-decay;
#X obj 919 212 r \$0-sustain;
#X obj 1009 212 r \$0-release;
#X floatatom 622 183 5 0 0 0 - - - 10;
#X floatatom 661 183 5 0 0 0 - - - 12;
#X floatatom 708 183 5 0 0 0 - - - 12;
#X obj 623 368 outlet~ signal;
#X obj 623 203 - 1;
#X obj 248 299 s \$0-minlength;
#X obj 238 123 else/initmess 100;
#X obj 238 33 inlet clear;
#X obj 0 309 cnv 15 220 72 empty empty Quantization 2 11 0 17 #f6dcaa #373737 0;
#X obj 40 329 ../utility/midiquantizer;
#X obj 1827 1242 s \$0-attack;
#X obj 1984 1242 s \$0-release;
#X obj 305 73 s \$0-mode;
#X obj 623 235 pack f f f f f f f;
#X obj -90 98 initmess 32;
#X obj 124 -36 tgl 25 0 empty empty empty 17 7 0 10 #e4e4e4 #4d4d4d #373737 0 1;
#X obj 252 354 else/initmess 3;
#X obj 654 1009 array define notelist 31;
#X obj 188 -54 else/initmess 0;
#N canvas 0 0 450 250 (subpatch) 0;
#X array sampler 720000 float 4;
#X coords 0 1 719999 -1 1150 182 1;
#X restore 262 1188 graph;
#N canvas 0 0 450 250 (subpatch) 0;
#X array sampleros 720000 float 2;
#X coords 0 1 720000 0 1150 182 1;
#X restore 262 1188 graph;
#X obj 1259 169 metro 15000;
#X obj 1608 339 timer;
#X obj 1573 455 pack;
#X msg 1575 359 1;
#X msg 1259 292 \; sampleros const 0;
#X obj 1573 491 tabwrite sampleros;
#X obj 1416 353 tabwrite~ sampler;
#X msg 1259 339 \; sampler const 0;
#X obj 1259 261 s \$0-clearsampler;
#X text 1426 112 Step 1: Write to Buffer;
#X text 1577 112 Step 2: Detect Onsets;
#X obj 1259 200 t b b b;
#X obj 2551 452 t f b;
#X obj 2551 579 tabwrite notelist;
#X text 2088 130 Step 3: Cut out Samples between Onsets if delta > minlength;
#X text 2513 130 Step 4: Analyze Sample and save it to matching pitch array;
#X obj 456 1045 array define sample0 240000;
#X obj 456 1075 array define sample1 240000;
#X obj 456 1107 array define sample2 240000;
#X obj 456 1138 array define sample3 240000;
#X obj 55 1335 s sampler;
#X obj 55 1360 s sampleros;
#X obj 124 -83 inlet mode;
#X obj 1259 81 r \$0-mode;
#X obj 1259 105 sel 0 1;
#X msg 1275 138 0;
#X msg 1436 323 stop;
#X obj 1347 81 r \$0-reclength;
#X obj 1347 105 * 1000;
#X obj 1416 272 *~;
#X msg 1308 138 1;
#X obj 15 847 else/note 1415 24 Inter empty 5 54 54 54 0 209 225 225 1 1 Arrays;
#X obj 2563 487 cyclone/counter 0 31;
#X obj 526 235 hradio 20 1 0 3 empty empty empty 0 -8 0 10 #e4e4e4 #4d4d4d #373737 0;
#X obj 623 284 cyclone/gate 3;
#X obj 526 261 + 1;
#X obj 526 203 inlet voice;
#X obj 1695 912 ../utility/onset;
#X obj 1574 200 ../utility/onset;
#X obj 621 322 clone voicepitch 8;
#X obj 1608 373 ../utility/millis2samps;
#X obj 405 249 else/initmess 0;
#X obj 1827 1148 else/mov.avg 4;
#X obj 1827 1174 clip 5 300;
#X text 1945 1074 xmin;
#X text 1986 1074 xmax;
#X obj 1970 920 loadbang;
#X msg 1734 1188 5;
#X msg 1775 1188 300;
#X text 1734 1164 ymin;
#X text 1775 1164 ymax;
#X text 2064 1114 ymin;
#X text 2105 1114 ymax;
#X msg 2105 1138 1500;
#X msg 2064 1138 200;
#X obj 1984 1206 ../utility/mapfloat;
#X obj 1827 1206 ../utility/mapfloat;
#X msg 1945 1098 200;
#X msg 1986 1098 1200;
#X obj 2112 937 inlet adsrmode;
#X obj 2112 966 sel 0 1;
#X obj 1970 956 bng 25 250 50 0 empty empty empty 0 -10 0 10 #e4e4e4 #4d4d4d #373737;
#X msg 2202 1138 1500;
#X msg 2161 1138 200;
#X msg 1644 1188 5;
#X msg 1685 1188 300;
#X text 1644 1164 ymax;
#X text 1685 1164 ymin;
#X text 2161 1114 ymax;
#X text 2202 1114 ymin;
#X obj 1697 1118 timer;
#X obj 1708 1031 spigot;
#X obj 1695 942 t b b;
#X msg 1722 974 1;
#X obj 1750 966 t b b;
#X msg 1751 999 0;
#X obj 1695 1093 spigot;
#X obj 1720 1061 expr abs(\$1-1);
#X obj 1587 847 else/note 783 24 Inter empty 5 54 54 54 0 209 225 225 1 1 Dynamically set ADSR;
#X obj 654 1045 array define sample4 240000;
#X obj 654 1075 array define sample5 240000;
#X obj 654 1107 array define sample6 240000;
#X obj 654 1138 array define sample7 240000;
#X obj 661 203 clip 22 127;
#X obj 897 322 clone voice 8;
#X obj 754 322 clone voiceclosest 8;
#X obj 1404 -232 instrument.m~;
#A saved 1;
#A saved;
#X obj 1431 -352 else/keyboard 16 80 4 2 0 0 empty empty;
#X obj 764 392 dac~;
#X obj 1614 -122 dac~;
#X obj 620 143 poly 8 1;
#X floatatom 2551 419 5 0 0 0 - - - 12;
#X obj 1431 -521 metro 1000;
#X obj 1431 -565 bng 25 250 50 0 empty empty empty 0 -10 0 10 #e4e4e4 #4d4d4d #373737;
#X floatatom 1431 -455 5 0 0 0 - - - 12;
#X msg 1489 -551 0;
#X obj 1549 -521 s \$0-clear;
#X obj 1431 -408 pack;
#X msg 1569 -424 0;
#X obj 1522 -408 pack;
#X obj 1522 -455 pipe 900;
#X obj 2617 452 r \$0-clear;
#X obj 1914 -307 tabplay~ sample0;
#X obj 2042 -307 tabplay~ sample1;
#X obj 2174 -307 tabplay~ sample2;
#X obj 2304 -307 tabplay~ sample3;
#X obj 2426 -307 tabplay~ sample4;
#X obj 2549 -307 tabplay~ sample5;
#X obj 2676 -307 tabplay~ sample6;
#X obj 2799 -307 tabplay~ sample7;
#X obj 1914 -348 bng 31 250 50 0 empty empty empty 0 -10 0 10 #e4e4e4 #4d4d4d #373737;
#X obj 2038 -350 bng 31 250 50 0 empty empty empty 0 -10 0 10 #e4e4e4 #4d4d4d #373737;
#X obj 2174 -346 bng 31 250 50 0 empty empty empty 0 -10 0 10 #e4e4e4 #4d4d4d #373737;
#X obj 2306 -345 bng 31 250 50 0 empty empty empty 0 -10 0 10 #e4e4e4 #4d4d4d #373737;
#X obj 2427 -352 bng 31 250 50 0 empty empty empty 0 -10 0 10 #e4e4e4 #4d4d4d #373737;
#X obj 2545 -343 bng 31 250 50 0 empty empty empty 0 -10 0 10 #e4e4e4 #4d4d4d #373737;
#X obj 2675 -343 bng 31 250 50 0 empty empty empty 0 -10 0 10 #e4e4e4 #4d4d4d #373737;
#X obj 2797 -341 bng 31 250 50 0 empty empty empty 0 -10 0 10 #e4e4e4 #4d4d4d #373737;
#X obj 1924 -261 dac~;
#X obj 1651 453 s start;
#X obj 1608 235 t b b;
#X obj 1674 183 env~;
#X obj 1621 292 spigot;
#X obj 1674 256 > 20;
#X obj 2091 328 array get sampler;
#X obj 1767 314 timer;
#X obj 1767 373 ../utility/millis2samps;
#X obj 1767 402 - 5000;
#X obj 2091 296 pack;
#X obj 2143 228 spigot;
#X obj 2172 198 >;
#X obj 2221 172 r \$0-minlength;
#X obj 2143 172 t f f;
#X obj 2088 228 spigot;
#X obj 2091 266 -;
#X obj 2092 361 t list b;
#X obj 2175 411 makefilename sample%d;
#X obj 2092 476 array set;
#X msg 2257 476 \; \$1 const 0;
#X obj 2175 441 t b symbol symbol;
#X obj 2175 380 cyclone/counter 0 7;
#X obj 2222 328 r \$0-clear;
#X obj 1431 -489 counter 40 47;
#X obj 2545 179 pipe 100;
#X obj 2545 228 pack;
#X obj 2586 297 unpack;
#X floatatom 2388 325 5 0 0 0 - - - 12;
#X obj 1426 -614 else/note 1515 24 Inter empty 5 54 54 54 0 209 225 225 1 1 DEBUG/Automated Test;
#X obj 1750 942 cyclone/onebang;
#X obj 1674 212 else/mov.avg 100;
#X obj 0 379 cnv 15 220 72 empty empty Select\ Input 2 11 0 17 #d97b75 #373737 0;
#X obj 37 409 hradio 29 1 0 5 \$0-inputsel empty empty 0 -8 0 10 #e4e4e4 #4d4d4d #373737 0;
#X text 44 414 1;
#X text 74 414 2;
#X text 102 414 3;
#X text 131 414 4;
#X text 160 414 5;
#X obj 2663 297 unpack;
#X floatatom 2693 325 5 0 0 0 - - - 12;
#X obj 2545 264 clone analyzer 8;
#X msg 1473 -455 100;
#X obj 2616 411 clone notes 127;
#X obj 2616 368 pack f f f f;
#X connect 2 0 3 0;
#X connect 2 0 73 0;
#X connect 4 0 27 0;
#X connect 6 0 80 0;
#X connect 7 0 9 0;
#X connect 9 0 118 0;
#X connect 9 0 126 0;
#X connect 10 0 77 1;
#X connect 26 0 8 0;
#X connect 28 0 4 0;
#X connect 29 0 30 0;
#X connect 30 0 9 1;
#X connect 31 0 179 0;
#X connect 32 0 31 1;
#X connect 38 0 35 0;
#X connect 39 0 40 0;
#X connect 39 0 46 0;
#X connect 40 0 41 0;
#X connect 41 0 42 0;
#X connect 42 0 44 0;
#X connect 43 0 42 1;
#X connect 44 0 47 0;
#X connect 44 0 109 0;
#X connect 44 0 110 0;
#X connect 44 0 45 0;
#X connect 46 0 43 0;
#X connect 48 0 49 0;
#X connect 50 0 105 0;
#X connect 50 0 106 0;
#X connect 50 0 107 0;
#X connect 50 0 168 0;
#X connect 50 0 169 0;
#X connect 50 0 170 0;
#X connect 50 0 108 0;
#X connect 50 0 171 0;
#X connect 50 0 85 0;
#X connect 51 0 50 0;
#X connect 52 0 31 0;
#X connect 53 0 41 0;
#X connect 53 0 43 0;
#X connect 57 0 58 0;
#X connect 58 0 55 0;
#X connect 59 0 2 0;
#X connect 61 0 18 0;
#X connect 62 0 17 0;
#X connect 63 0 16 0;
#X connect 64 0 81 3;
#X connect 65 0 81 4;
#X connect 66 0 81 5;
#X connect 67 0 81 6;
#X connect 68 0 72 0;
#X connect 69 0 172 0;
#X connect 70 0 81 2;
#X connect 72 0 81 0;
#X connect 74 0 15 0;
#X connect 75 0 48 0;
#X connect 77 0 31 0;
#X connect 81 0 123 1;
#X connect 82 0 54 0;
#X connect 83 0 6 0;
#X connect 84 0 77 2;
#X connect 86 0 4 0;
#X connect 86 0 83 0;
#X connect 89 0 100 0;
#X connect 89 0 214 0;
#X connect 90 0 129 0;
#X connect 91 0 94 0;
#X connect 92 0 91 0;
#X connect 100 0 95 0;
#X connect 100 1 97 0;
#X connect 100 2 93 0;
#X connect 100 2 96 0;
#X connect 101 0 102 0;
#X connect 101 1 121 0;
#X connect 111 0 83 0;
#X connect 112 0 113 0;
#X connect 113 0 89 0;
#X connect 113 0 119 0;
#X connect 113 1 114 0;
#X connect 113 1 115 0;
#X connect 114 0 89 0;
#X connect 114 0 118 1;
#X connect 115 0 95 0;
#X connect 116 0 117 0;
#X connect 117 0 89 1;
#X connect 118 0 95 0;
#X connect 118 0 127 0;
#X connect 118 0 210 0;
#X connect 119 0 118 1;
#X connect 121 0 102 1;
#X connect 122 0 124 0;
#X connect 123 0 128 0;
#X connect 123 1 174 0;
#X connect 123 2 173 0;
#X connect 124 0 123 0;
#X connect 125 0 122 0;
#X connect 126 0 161 0;
#X connect 126 1 237 0;
#X connect 127 0 92 0;
#X connect 127 0 209 0;
#X connect 128 0 71 0;
#X connect 128 0 177 0;
#X connect 128 0 177 1;
#X connect 129 0 221 0;
#X connect 130 0 122 0;
#X connect 131 0 132 0;
#X connect 132 0 144 0;
#X connect 132 0 145 0;
#X connect 135 0 150 0;
#X connect 136 0 145 3;
#X connect 137 0 145 4;
#X connect 142 0 144 4;
#X connect 143 0 144 3;
#X connect 144 0 79 0;
#X connect 145 0 78 0;
#X connect 146 0 144 1;
#X connect 146 0 145 1;
#X connect 146 0 132 1;
#X connect 147 0 144 2;
#X connect 147 0 145 2;
#X connect 147 0 132 2;
#X connect 148 0 149 0;
#X connect 149 0 150 0;
#X connect 149 0 146 0;
#X connect 149 0 147 0;
#X connect 149 1 152 0;
#X connect 149 1 151 0;
#X connect 149 1 153 0;
#X connect 149 1 154 0;
#X connect 150 0 146 0;
#X connect 150 0 147 0;
#X connect 150 0 136 0;
#X connect 150 0 137 0;
#X connect 150 0 143 0;
#X connect 150 0 142 0;
#X connect 151 0 144 3;
#X connect 152 0 144 4;
#X connect 153 0 145 4;
#X connect 154 0 145 3;
#X connect 159 0 131 0;
#X connect 160 0 159 1;
#X connect 161 0 165 0;
#X connect 161 1 160 0;
#X connect 161 1 162 0;
#X connect 161 1 237 1;
#X connect 162 0 160 1;
#X connect 162 0 166 0;
#X connect 163 0 164 0;
#X connect 163 1 160 0;
#X connect 163 1 164 0;
#X connect 164 0 160 1;
#X connect 164 0 166 0;
#X connect 165 0 159 0;
#X connect 166 0 165 1;
#X connect 172 0 81 1;
#X connect 173 0 71 0;
#X connect 173 0 177 1;
#X connect 173 0 177 0;
#X connect 174 0 71 0;
#X connect 174 0 177 0;
#X connect 174 0 177 1;
#X connect 175 0 9 0;
#X connect 175 0 210 0;
#X connect 175 0 178 0;
#X connect 175 0 178 1;
#X connect 176 0 175 0;
#X connect 179 0 68 0;
#X connect 179 1 69 0;
#X connect 179 2 70 0;
#X connect 180 0 101 0;
#X connect 181 0 231 0;
#X connect 182 0 181 0;
#X connect 182 0 185 0;
#X connect 183 0 186 0;
#X connect 184 0 181 0;
#X connect 186 0 176 0;
#X connect 187 0 188 1;
#X connect 188 0 176 0;
#X connect 189 0 188 0;
#X connect 189 0 187 0;
#X connect 190 0 121 2;
#X connect 191 0 207 0;
#X connect 191 0 207 1;
#X connect 192 0 207 0;
#X connect 192 0 207 1;
#X connect 193 0 207 0;
#X connect 193 0 207 1;
#X connect 194 0 207 0;
#X connect 194 0 207 1;
#X connect 195 0 207 0;
#X connect 195 0 207 1;
#X connect 196 0 207 0;
#X connect 196 0 207 1;
#X connect 197 0 207 0;
#X connect 197 0 207 1;
#X connect 198 0 207 0;
#X connect 198 0 207 1;
#X connect 199 0 191 0;
#X connect 200 0 192 0;
#X connect 201 0 193 0;
#X connect 202 0 194 0;
#X connect 203 0 195 0;
#X connect 204 0 196 0;
#X connect 205 0 197 0;
#X connect 206 0 198 0;
#X connect 209 0 214 1;
#X connect 209 0 90 0;
#X connect 209 1 211 0;
#X connect 210 0 238 0;
#X connect 211 0 90 1;
#X connect 212 0 222 1;
#X connect 212 0 211 1;
#X connect 213 0 224 0;
#X connect 214 0 215 0;
#X connect 215 0 216 0;
#X connect 216 0 91 1;
#X connect 216 0 208 0;
#X connect 216 0 222 0;
#X connect 217 0 213 0;
#X connect 218 0 223 1;
#X connect 218 0 217 1;
#X connect 219 0 218 1;
#X connect 220 0 219 1;
#X connect 221 0 218 0;
#X connect 221 1 219 0;
#X connect 222 0 223 0;
#X connect 223 0 217 0;
#X connect 224 0 226 0;
#X connect 224 1 229 0;
#X connect 225 0 228 0;
#X connect 228 1 226 2;
#X connect 228 2 227 0;
#X connect 229 0 225 0;
#X connect 229 0 232 0;
#X connect 229 0 235 0;
#X connect 230 0 229 2;
#X connect 231 0 183 0;
#X connect 231 0 249 0;
#X connect 231 0 189 0;
#X connect 231 3 184 0;
#X connect 232 0 233 0;
#X connect 232 0 233 1;
#X connect 233 0 248 0;
#X connect 234 0 251 3;
#X connect 234 1 180 0;
#X connect 234 1 251 1;
#X connect 234 1 251 0;
#X connect 237 0 163 0;
#X connect 238 0 212 0;
#X connect 246 1 247 0;
#X connect 247 0 251 2;
#X connect 248 1 234 0;
#X connect 248 2 246 0;
#X connect 249 0 186 1;
#X connect 251 0 250 0;
#X coords 0 0 1 1 219 452 1 0 0;
