#N canvas 827 239 734 565 12;
#X obj 663 -164 bng 25 250 50 0 empty empty empty 17 7 0 10 #e4e4e4 #4d4d4d #373737;
#X obj 716 -152 ipf_taptempo;
#X obj 643 -203 select 0 1;
#X msg 811 -132 0;
#X obj 663 -36 else/metronome;
#X obj 5 6 ../utility/ipfarp-vanilla;
#X obj 643 -238 tgl 25 0 empty empty empty 17 7 0 10 #e4e4e4 #4d4d4d #373737 0 1;
#X text 5 -184 2 You play high. Notes go low. You play low. Notes go high, f 72;
#X text 5 -233 Test;
#X obj 5 -159 hradio 20 1 0 2 empty empty empty 0 -8 0 10 #e4e4e4 #4d4d4d #373737 0;
#X text 5 -212 1 Notes generate arround played center note;
#X obj 19 -68 hradio 20 1 0 2 empty empty empty 0 -8 0 10 #e4e4e4 #4d4d4d #373737 0;
#X text 12 -94 Groove Freeze;
#X obj 147 -34 *~;
#X obj 19 -34 sig~;
#X obj 716 -203 spigot;
#X obj 857 -203 expr abs($f1-1);
#X obj -126 -126 expr abs($f1-1);
#X obj -126 -164 tgl 25 0 empty empty empty 0 -10 0 10 #e4e4e4 #4d4d4d #373737 0 1;
#X obj 857 -238 tgl 25 0 empty empty empty 0 -10 0 10 #e4e4e4 #4d4d4d #373737 0 1;
#X obj -237 -183 else/initmess 0;
#X obj 980 -238 else/initmess 0;
#X obj 5 423 outlet midinote;
#X obj -126 -210 inlet fs2l;
#X obj 158 -71 inlet~ audioin;
#X obj 643 -277 inlet fs2s;
#X obj 857 -277 inlet fs2l;
#X obj 1078 -29 inlet knob2;
#X obj 899 -27 inlet knob3;
#X obj 716 -263 inlet onset;
#X obj 727 -110 * 2;
#X connect 0 0 4 0;
#X connect 0 0 5 5;
#X connect 1 0 30 0;
#X connect 2 0 3 0;
#X connect 2 1 0 0;
#X connect 3 0 4 0;
#X connect 4 0 5 2;
#X connect 5 0 22 0;
#X connect 6 0 2 0;
#X connect 9 0 5 4;
#X connect 11 0 14 0;
#X connect 13 0 5 1;
#X connect 14 0 13 0;
#X connect 15 0 1 0;
#X connect 16 0 15 1;
#X connect 17 0 11 0;
#X connect 18 0 17 0;
#X connect 19 0 16 0;
#X connect 20 0 18 0;
#X connect 21 0 19 0;
#X connect 23 0 18 0;
#X connect 24 0 13 1;
#X connect 25 0 6 0;
#X connect 25 0 5 3;
#X connect 26 0 19 0;
#X connect 27 0 5 7;
#X connect 28 0 5 6;
#X connect 29 0 15 0;
#X connect 30 0 4 1;
#X coords 0 0 1 1 1105 390 2 0 0;
