#N canvas 733 172 450 300 12;
#X obj 1430 634 array get;
#X obj 1449 500 unpack;
#X obj 1449 564 symbol;
#X msg 1449 536 buf\$1;
#X obj 1430 596 t b symbol;
#X obj 1430 748 array set;
#X obj 1386 564 symbol;
#X msg 1386 536 mn\$1;
#X msg 1514 536 \; mn\$1 const 0;
#X obj 1449 451 inlet;
#X obj 1430 681 t b list;
#X connect 0 0 10 0;
#X connect 1 0 3 0;
#X connect 1 1 7 0;
#X connect 1 1 8 0;
#X connect 2 0 4 0;
#X connect 3 0 2 0;
#X connect 4 0 0 0;
#X connect 4 1 0 2;
#X connect 6 0 5 2;
#X connect 7 0 6 0;
#X connect 9 0 1 0;
#X connect 10 1 5 0;
