#N canvas 733 172 450 300 12;
#X obj 1430 634 array get;
#X obj 1449 500 unpack;
#X obj 1449 564 symbol;
#X msg 1449 536 buf\$1;
#X obj 1430 596 t b symbol;
#X obj 1430 748 array set;
#X obj 1386 564 symbol;
#X msg 1386 536 mn\$1;
#X msg 1514 536 \; mn\$1 const 0;
#X obj 1449 451 inlet;
#X obj 1865 806 expr abs($f1-1);
#X obj 1865 723 t f f;
#X obj 1657 858 *;
#X obj 1430 681 t b list;
#X obj 1657 792 tabread;
#X msg 1589 772 set \$1;
#X obj 1657 723 f;
#X obj 1657 754 +;
#X obj 1747 723 t b f;
#X obj 1704 907 f;
#X msg 1594 893 set \$1;
#X obj 1657 893 t f b;
#X obj 1747 692 ../utility/forloop 20000;
#X obj 1865 772 / 20000;
#X obj 1657 692 - 20000;
#X obj 1657 500 inlet length;
#X obj 1657 603 ../utility/millis2samps;
#X obj 1589 644 del 30;
#X floatatom 1753 946 5 0 0 0 - - - 12;
#X obj 1718 827 f;
#X obj 1657 817 t f b;
#X obj 1657 975 tabwrite;
#X obj 1657 572 f;
#X obj 1657 537 t f b;
#X connect 0 0 13 0;
#X connect 1 0 3 0;
#X connect 1 1 7 0;
#X connect 1 1 8 0;
#X connect 2 0 4 0;
#X connect 3 0 2 0;
#X connect 4 0 0 0;
#X connect 4 1 0 2;
#X connect 6 0 5 2;
#X connect 7 0 6 0;
#X connect 9 0 1 0;
#X connect 10 0 29 1;
#X connect 11 0 18 0;
#X connect 11 1 23 0;
#X connect 12 0 21 0;
#X connect 13 1 5 0;
#X connect 14 0 30 0;
#X connect 15 0 14 0;
#X connect 16 0 17 0;
#X connect 17 0 14 0;
#X connect 17 0 19 1;
#X connect 18 0 16 0;
#X connect 18 1 17 1;
#X connect 19 0 28 0;
#X connect 19 0 31 1;
#X connect 20 0 31 0;
#X connect 21 0 31 0;
#X connect 21 1 19 0;
#X connect 22 1 11 0;
#X connect 23 0 10 0;
#X connect 24 0 16 1;
#X connect 25 0 33 0;
#X connect 26 0 24 0;
#X connect 27 0 22 0;
#X connect 29 0 12 1;
#X connect 30 0 12 0;
#X connect 30 1 29 0;
#X connect 32 0 26 0;
#X connect 33 0 32 1;
#X connect 33 1 32 0;
