#N canvas 733 172 450 300 12;
#X obj -89 -740 outlet~;
#X obj -89 -777 *~;
#X obj -89 -983 inlet;
#X obj -89 -804 tabplay~ s0;
#X msg -89 -846 set s\$1;
#X obj -134 -823 t b;
#X obj -89 -950 unpack f f f f f f;
#X floatatom -137 -905 5 0 0 0 - - - 12;
#X obj -120 -872 spigot;
#X obj -63 -895 != 0;
#X obj -158 -770 bng 25 250 50 0 empty empty empty 17 7 0 10 #e4e4e4 #4d4d4d #373737;
#X obj 67 -804 else/adsr~;
#X connect 1 0 0 0;
#X connect 2 0 6 0;
#X connect 3 0 1 0;
#X connect 4 0 3 0;
#X connect 4 0 5 0;
#X connect 5 0 3 0;
#X connect 6 0 7 0;
#X connect 6 1 9 0;
#X connect 6 1 11 0;
#X connect 6 2 11 2;
#X connect 6 3 11 3;
#X connect 6 4 11 4;
#X connect 6 5 11 5;
#X connect 7 0 8 0;
#X connect 8 0 4 0;
#X connect 9 0 8 1;
#X connect 10 0 3 0;
#X connect 11 0 1 1;
