#N canvas 733 172 450 300 12;
#X obj 64 1223 outlet~;
#X obj 64 1155 *~;
#X obj 64 27 inlet;
#X obj 307 71 unpack f f f f f f;
#X floatatom 64 104 5 0 0 0 - - - 12;
#X obj 68 139 spigot;
#X obj 104 104 != 0;
#X obj 65 232 array get notelist;
#X obj 196 409 -;
#X floatatom 213 349 5 0 0 0 - - - 12;
#X floatatom 66 505 5 0 0 0 - - - 12;
#X obj 67 544 -;
#X obj 113 544 +;
#X obj 66 667 f;
#X obj 126 666 f;
#X obj 96 643 sel 1;
#X obj 156 640 sel 1;
#X obj 113 583 t f f;
#X obj 65 581 t f f;
#X listbox 65 381 33 0 0 0 - - - 16;
#X obj 69 717 f;
#X floatatom 69 743 5 0 0 0 - - - 12;
#X obj 68 199 t f f b;
#X floatatom 7 804 5 0 0 0 - - - 12;
#X obj 250 356 t b b b;
#X obj 65 260 list-abs/list-unique;
#X obj -84 341 list-abs/list-find;
#X obj 65 410 list-abs/list-map;
#X obj 64 437 list-abs/list-abs;
#X obj 66 477 list-abs/list-minmax;
#X obj 65 610 list-abs/list-find;
#X obj 200 610 list-abs/list-find;
#X obj 7 778 else/selector;
#X obj 316 1112 else/adsr~;
#X obj 65 328 else/sort;
#X floatatom 222 149 5 0 0 0 - - - 12;
#X obj 69 813 t f f;
#X obj 69 869 spigot;
#X text 446 39 Looks into notearray to check if played note exists. If not it uses the closest existing note;
#X msg 69 913 set mn\$1;
#X obj 69 1094 tabplay~;
#X obj 89 972 t b;
#X obj 238 1051 loadbang;
#X msg 238 1077 curve 0;
#X obj 153 989 f;
#X obj 161 1035 / 2;
#X obj 108 843 > 0;
#X obj 67 168 clip 1 127;
#X obj 267 287 > 0;
#X obj 85 298 list-abs/list-filter;
#X connect 1 0 0 0;
#X connect 2 0 3 0;
#X connect 3 0 4 0;
#X connect 3 1 6 0;
#X connect 3 1 35 0;
#X connect 3 1 33 0;
#X connect 3 2 33 2;
#X connect 3 2 44 1;
#X connect 3 3 33 3;
#X connect 3 4 33 4;
#X connect 3 5 33 5;
#X connect 4 0 5 0;
#X connect 5 0 47 0;
#X connect 6 0 5 1;
#X connect 7 0 25 0;
#X connect 8 0 27 1;
#X connect 9 0 8 1;
#X connect 9 0 11 0;
#X connect 9 0 12 0;
#X connect 9 0 24 0;
#X connect 10 0 11 1;
#X connect 10 0 12 1;
#X connect 11 0 18 0;
#X connect 12 0 17 0;
#X connect 13 0 20 1;
#X connect 14 0 20 1;
#X connect 15 0 13 0;
#X connect 16 0 14 0;
#X connect 17 0 31 0;
#X connect 17 1 14 1;
#X connect 18 0 30 0;
#X connect 18 1 13 1;
#X connect 19 0 27 0;
#X connect 19 0 30 1;
#X connect 19 0 31 1;
#X connect 20 0 21 0;
#X connect 21 0 32 0;
#X connect 22 0 9 0;
#X connect 22 0 32 1;
#X connect 22 1 26 0;
#X connect 22 2 7 0;
#X connect 23 0 36 0;
#X connect 24 0 20 0;
#X connect 24 1 12 0;
#X connect 24 1 11 0;
#X connect 24 2 19 0;
#X connect 25 0 49 0;
#X connect 26 1 32 2;
#X connect 27 0 28 0;
#X connect 27 1 8 0;
#X connect 28 0 29 0;
#X connect 29 0 10 0;
#X connect 30 1 15 0;
#X connect 31 1 16 0;
#X connect 32 0 23 0;
#X connect 33 0 1 1;
#X connect 34 0 26 1;
#X connect 34 0 19 0;
#X connect 36 0 37 0;
#X connect 36 1 46 0;
#X connect 37 0 39 0;
#X connect 39 0 40 0;
#X connect 39 0 41 0;
#X connect 40 0 1 0;
#X connect 41 0 44 0;
#X connect 42 0 43 0;
#X connect 43 0 33 0;
#X connect 44 0 45 0;
#X connect 45 0 40 0;
#X connect 46 0 37 1;
#X connect 47 0 22 0;
#X connect 48 0 49 1;
#X connect 49 0 34 0;
#X connect 49 1 48 0;
