#N canvas 733 172 450 300 12;
#X obj 67 1029 outlet~;
#X obj 65 995 *~;
#X obj 64 27 inlet;
#X obj 356 60 unpack f f f f f f;
#X floatatom 14 104 5 0 0 0 - - - 12;
#X obj 18 139 spigot;
#X obj 54 104 != 0;
#X msg 69 899 set mn\$1;
#X obj 67 952 tabplay~ mn64;
#X obj 33 940 t b;
#X obj 65 232 array get notelist;
#X obj 18 199 t f f b;
#X obj 65 261 list-abs/list-unique;
#X obj 96 414 list-abs/list-find;
#X obj 367 961 else/adsr~;
#X obj 65 290 else/sort;
#X obj 69 813 t f f;
#X obj 69 869 spigot;
#X obj 108 843 > 20;
#X text 577 45 Looks into notearray to check if played note exists. If not it uses the closest existing note;
#X msg 97 385 0;
#X obj 96 357 t b list;
#X obj 205 193 bng 25 250 50 0 empty empty empty 17 7 0 10 #e4e4e4 #4d4d4d #373737;
#X obj 65 508 list split;
#X floatatom 162 440 5 0 0 0 - - - 12;
#X msg 98 483 1;
#X obj 65 322 t list list;
#X obj 96 440 sel 1;
#X obj 111 570 list length;
#X obj 80 537 t list list;
#X floatatom 80 725 5 0 0 0 - - - 12;
#X listbox 152 537 23 0 0 0 - - - 16;
#X floatatom 32 570 5 0 0 0 - - - 12;
#X obj 32 621 %;
#X floatatom -42 152 5 0 0 0 - - - 12;
#X obj 17 168 clip 22 83;
#X obj 32 653 + 1;
#X obj 80 699 cyclone/zl.nth;
#X connect 1 0 0 0;
#X connect 2 0 3 0;
#X connect 3 0 4 0;
#X connect 3 1 6 0;
#X connect 3 1 14 0;
#X connect 3 2 14 2;
#X connect 3 3 14 3;
#X connect 3 4 14 4;
#X connect 3 5 14 5;
#X connect 4 0 5 0;
#X connect 5 0 35 0;
#X connect 6 0 5 1;
#X connect 7 0 8 0;
#X connect 7 0 9 0;
#X connect 8 0 1 0;
#X connect 9 0 8 0;
#X connect 10 0 12 0;
#X connect 11 1 32 0;
#X connect 11 2 10 0;
#X connect 12 0 15 0;
#X connect 13 1 24 0;
#X connect 14 0 1 1;
#X connect 15 0 26 0;
#X connect 16 0 17 0;
#X connect 16 1 18 0;
#X connect 17 0 7 0;
#X connect 18 0 17 1;
#X connect 20 0 13 0;
#X connect 21 0 20 0;
#X connect 21 1 13 1;
#X connect 22 0 10 0;
#X connect 23 1 29 0;
#X connect 24 0 27 0;
#X connect 25 0 23 1;
#X connect 26 0 23 0;
#X connect 26 1 21 0;
#X connect 27 0 25 0;
#X connect 28 0 33 1;
#X connect 29 0 31 0;
#X connect 29 0 37 0;
#X connect 29 1 28 0;
#X connect 30 0 16 0;
#X connect 32 0 33 0;
#X connect 33 0 36 0;
#X connect 34 0 35 0;
#X connect 35 0 11 0;
#X connect 36 0 37 1;
#X connect 37 0 30 0;
