#N canvas 733 172 450 300 12;
#X obj 143 690 outlet~;
#X obj 239 626 adsr~;
#X obj 143 653 *~;
#X obj 99 28 inlet;
#X obj 99 61 unpack f f f f f f;
#X floatatom 51 106 5 0 0 0 - - - 12;
#X obj 68 139 spigot;
#X obj 125 116 != 0;
#X msg 145 560 set mn\$1;
#X obj 68 267 sel 0 1;
#X obj 139 278 f;
#X obj 68 201 t f f;
#X obj 68 372 +;
#X obj 68 455 sel 1;
#X obj 68 489 f;
#X obj 68 394 t f f;
#X floatatom 147 488 4 0 0 0 - - - 16;
#X obj 68 230 tabread samplernotes;
#X obj 68 424 tabread samplernotes;
#X msg -42 274 carryflag 1;
#X obj 68 332 counter 0 127;
#X msg 10 373 0;
#X obj -32 233 loadbang;
#X floatatom 114 372 5 0 0 0 - - - 12;
#X obj 68 297 metro 1;
#X obj -55 514 sel 1;
#X obj -104 564 f;
#X obj -104 427 t f f;
#X obj -104 457 tabread samplernotes;
#X obj -104 365 counter 0 127;
#X msg -128 404 0;
#X floatatom -50 409 5 0 0 0 - - - 12;
#X obj -104 330 metro 1;
#X obj -104 405 -;
#X obj 146 529 clip 22 80;
#X obj 143 613 tabplay~ mn64;
#X obj 109 601 t b;
#X obj 90 537 bng 25 250 50 0 empty empty empty 17 7 0 10 #e4e4e4 #4d4d4d #373737;
#X connect 1 0 2 1;
#X connect 2 0 0 0;
#X connect 3 0 4 0;
#X connect 4 0 5 0;
#X connect 4 1 7 0;
#X connect 4 1 1 0;
#X connect 4 2 1 2;
#X connect 4 3 1 3;
#X connect 4 4 1 4;
#X connect 4 5 1 5;
#X connect 5 0 6 0;
#X connect 6 0 11 0;
#X connect 7 0 6 1;
#X connect 8 0 35 0;
#X connect 8 0 36 0;
#X connect 9 0 24 0;
#X connect 9 1 10 0;
#X connect 10 0 16 0;
#X connect 11 0 17 0;
#X connect 11 1 12 1;
#X connect 11 1 10 1;
#X connect 12 0 15 0;
#X connect 13 0 14 0;
#X connect 13 0 20 2;
#X connect 13 0 21 0;
#X connect 14 0 16 0;
#X connect 15 0 18 0;
#X connect 15 1 14 1;
#X connect 16 0 34 0;
#X connect 16 0 37 0;
#X connect 17 0 9 0;
#X connect 18 0 13 0;
#X connect 19 0 29 0;
#X connect 20 0 12 0;
#X connect 20 0 23 0;
#X connect 20 2 21 0;
#X connect 21 0 24 0;
#X connect 22 0 19 0;
#X connect 24 0 20 0;
#X connect 25 0 29 2;
#X connect 25 0 30 0;
#X connect 25 0 26 0;
#X connect 27 0 28 0;
#X connect 27 1 26 1;
#X connect 28 0 25 0;
#X connect 29 0 31 0;
#X connect 29 0 33 0;
#X connect 29 2 30 0;
#X connect 30 0 32 0;
#X connect 32 0 29 0;
#X connect 33 0 27 0;
#X connect 34 0 8 0;
#X connect 35 0 2 0;
#X connect 36 0 35 0;
