#N canvas 733 172 450 300 12;
#X obj 65 941 outlet~;
#X obj 161 877 adsr~;
#X obj 65 904 *~;
#X obj 64 27 inlet;
#X obj 64 60 unpack f f f f f f;
#X floatatom 64 104 5 0 0 0 - - - 12;
#X obj 68 139 spigot;
#X obj 104 104 != 0;
#X msg 67 811 set mn\$1;
#X obj 65 864 tabplay~ mn64;
#X obj 31 852 t b;
#X obj 65 232 array get notelist;
#X obj 65 290 sort;
#X obj 65 261 list-unique;
#X obj 67 168 clip 0 80;
#X obj 65 410 list-map;
#X obj 146 409 -;
#X floatatom 213 349 5 0 0 0 - - - 12;
#X obj 66 477 list-minmax;
#X floatatom 66 505 5 0 0 0 - - - 12;
#X obj 64 437 list-abs;
#X obj 67 544 -;
#X obj 113 544 +;
#X obj 65 610 list-find;
#X obj 125 610 list-find;
#X obj 66 667 f;
#X obj 126 666 f;
#X obj 96 643 sel 1;
#X obj 156 640 sel 1;
#X obj 113 583 t f f;
#X obj 65 581 t f f;
#X listbox 65 381 20 0 0 0 - - - 0;
#X obj 69 717 f;
#X floatatom 69 743 5 0 0 0 - - - 12;
#X obj -13 319 list-find;
#X obj 68 199 t f f b;
#X obj 7 778 selector;
#X floatatom 7 804 5 0 0 0 - - - 12;
#X obj 234 379 t b b b;
#X connect 1 0 2 1;
#X connect 2 0 0 0;
#X connect 3 0 4 0;
#X connect 4 0 5 0;
#X connect 4 1 7 0;
#X connect 4 1 1 0;
#X connect 4 2 1 2;
#X connect 4 3 1 3;
#X connect 4 4 1 4;
#X connect 4 5 1 5;
#X connect 5 0 6 0;
#X connect 6 0 14 0;
#X connect 7 0 6 1;
#X connect 8 0 9 0;
#X connect 8 0 10 0;
#X connect 9 0 2 0;
#X connect 10 0 9 0;
#X connect 11 0 13 0;
#X connect 12 0 31 0;
#X connect 12 0 34 1;
#X connect 13 0 12 0;
#X connect 14 0 35 0;
#X connect 15 0 20 0;
#X connect 15 1 16 0;
#X connect 16 0 15 1;
#X connect 17 0 16 1;
#X connect 17 0 21 0;
#X connect 17 0 22 0;
#X connect 17 0 38 0;
#X connect 18 0 19 0;
#X connect 19 0 21 1;
#X connect 19 0 22 1;
#X connect 20 0 18 0;
#X connect 21 0 30 0;
#X connect 22 0 29 0;
#X connect 23 1 27 0;
#X connect 24 1 28 0;
#X connect 25 0 32 1;
#X connect 26 0 32 1;
#X connect 27 0 25 0;
#X connect 28 0 26 0;
#X connect 29 0 24 0;
#X connect 29 1 26 1;
#X connect 30 0 23 0;
#X connect 30 1 25 1;
#X connect 31 0 15 0;
#X connect 31 0 23 1;
#X connect 31 0 24 1;
#X connect 32 0 33 0;
#X connect 33 0 36 0;
#X connect 34 1 36 2;
#X connect 35 0 36 1;
#X connect 35 0 17 0;
#X connect 35 1 34 0;
#X connect 35 2 11 0;
#X connect 36 0 37 0;
#X connect 38 0 32 0;
#X connect 38 1 22 0;
#X connect 38 1 21 0;
#X connect 38 2 31 0;
