#N canvas 733 172 450 300 12;
#X obj -89 -740 outlet~;
#X obj 67 -804 adsr~;
#X obj -33 -771 *~;
#X obj -89 -983 inlet;
#X obj -134 -823 t b;
#X obj -89 -950 unpack f f f f f f;
#X floatatom -137 -905 5 0 0 0 - - - 12;
#X obj -120 -872 spigot;
#X obj -63 -895 != 0;
#X msg -89 -846 set mn\$1;
#X floatatom 91 -895 5 0 0 0 - - - 12;
#X obj -89 -804 tabplay~ mn47;
#X connect 1 0 2 1;
#X connect 2 0 0 0;
#X connect 3 0 5 0;
#X connect 4 0 11 0;
#X connect 5 0 6 0;
#X connect 5 1 1 0;
#X connect 5 1 8 0;
#X connect 5 1 10 0;
#X connect 5 2 1 2;
#X connect 5 3 1 3;
#X connect 5 4 1 4;
#X connect 5 5 1 5;
#X connect 6 0 7 0;
#X connect 7 0 9 0;
#X connect 8 0 7 1;
#X connect 9 0 4 0;
#X connect 9 0 11 0;
#X connect 11 0 2 0;
#X connect 11 0 0 0;
