#N canvas 733 172 450 300 12;
#X obj 66 1189 outlet~;
#X obj 64 1155 *~;
#X obj 64 27 inlet;
#X obj 307 71 unpack f f f f f f;
#X floatatom 64 104 5 0 0 0 - - - 12;
#X obj 68 139 spigot;
#X obj 104 104 != 0;
#X obj 140 946 t b;
#X obj 65 232 array get notelist;
#X obj 196 409 -;
#X floatatom 213 349 5 0 0 0 - - - 12;
#X floatatom 66 505 5 0 0 0 - - - 12;
#X obj 67 544 -;
#X obj 113 544 +;
#X obj 66 667 f;
#X obj 126 666 f;
#X obj 96 643 sel 1;
#X obj 156 640 sel 1;
#X obj 113 583 t f f;
#X obj 65 581 t f f;
#X listbox 65 381 33 0 0 0 - - - 16;
#X obj 69 717 f;
#X floatatom 69 743 5 0 0 0 - - - 12;
#X obj 68 199 t f f b;
#X floatatom 7 804 5 0 0 0 - - - 12;
#X obj 250 356 t b b b;
#X obj 65 261 list-abs/list-unique;
#X obj -13 319 list-abs/list-find;
#X obj 65 410 list-abs/list-map;
#X obj 64 437 list-abs/list-abs;
#X obj 66 477 list-abs/list-minmax;
#X obj 65 610 list-abs/list-find;
#X obj 200 610 list-abs/list-find;
#X obj 7 778 else/selector;
#X obj 316 1112 else/adsr~;
#X obj 65 290 else/sort;
#X floatatom 222 149 5 0 0 0 - - - 12;
#X obj 67 168 clip 0 83;
#X obj 69 813 t f f;
#X obj 69 869 spigot;
#X obj 108 843 > 20;
#X text 446 39 Looks into notearray to check if played note exists. If not it uses the closest existing note;
#X floatatom 223 813 5 0 0 0 - - - 12;
#X obj 208 985 line~;
#X obj 208 1022 *~ 132300;
#X msg 208 955 0 \, 1 \$1;
#X obj 208 913 expr 1/(pow(2 \, ($f1 - $f2) / 12))*3000;
#X floatatom 208 883 5 0 0 0 - - - 12;
#X floatatom 411 883 5 0 0 0 - - - 12;
#X msg 69 913 set mn\$1;
#X obj 208 1057 tabread4~;
#X connect 1 0 0 0;
#X connect 2 0 3 0;
#X connect 3 0 4 0;
#X connect 3 1 6 0;
#X connect 3 1 36 0;
#X connect 3 1 34 0;
#X connect 3 2 34 2;
#X connect 3 3 34 3;
#X connect 3 4 34 4;
#X connect 3 5 34 5;
#X connect 4 0 5 0;
#X connect 5 0 37 0;
#X connect 6 0 5 1;
#X connect 8 0 26 0;
#X connect 9 0 28 1;
#X connect 10 0 9 1;
#X connect 10 0 12 0;
#X connect 10 0 13 0;
#X connect 10 0 25 0;
#X connect 11 0 12 1;
#X connect 11 0 13 1;
#X connect 12 0 19 0;
#X connect 13 0 18 0;
#X connect 14 0 21 1;
#X connect 15 0 21 1;
#X connect 16 0 14 0;
#X connect 17 0 15 0;
#X connect 18 0 32 0;
#X connect 18 1 15 1;
#X connect 19 0 31 0;
#X connect 19 1 14 1;
#X connect 20 0 28 0;
#X connect 20 0 31 1;
#X connect 20 0 32 1;
#X connect 21 0 22 0;
#X connect 22 0 33 0;
#X connect 23 0 10 0;
#X connect 23 0 33 1;
#X connect 23 1 27 0;
#X connect 23 2 8 0;
#X connect 24 0 38 0;
#X connect 25 0 21 0;
#X connect 25 1 13 0;
#X connect 25 1 12 0;
#X connect 25 2 20 0;
#X connect 26 0 35 0;
#X connect 27 1 33 2;
#X connect 28 0 29 0;
#X connect 28 1 9 0;
#X connect 29 0 30 0;
#X connect 30 0 11 0;
#X connect 31 1 16 0;
#X connect 32 1 17 0;
#X connect 33 0 24 0;
#X connect 34 0 1 1;
#X connect 35 0 27 1;
#X connect 35 0 20 0;
#X connect 37 0 23 0;
#X connect 37 0 42 0;
#X connect 38 0 39 0;
#X connect 38 1 40 0;
#X connect 39 0 48 0;
#X connect 39 0 49 0;
#X connect 40 0 39 1;
#X connect 42 0 47 0;
#X connect 43 0 44 0;
#X connect 44 0 50 0;
#X connect 45 0 43 0;
#X connect 46 0 45 0;
#X connect 47 0 46 0;
#X connect 48 0 46 1;
#X connect 49 0 7 0;
#X connect 49 0 50 0;
#X connect 50 0 1 0;
