#N canvas 733 172 450 300 12;
#X obj 67 1029 outlet~;
#X obj 65 995 *~;
#X obj 64 27 inlet;
#X obj 64 60 unpack f f f f f f;
#X floatatom 64 104 5 0 0 0 - - - 12;
#X obj 68 139 spigot;
#X obj 104 104 != 0;
#X msg 69 899 set mn\$1;
#X obj 67 952 tabplay~ mn64;
#X obj 33 940 t b;
#X obj 65 232 array get notelist;
#X obj 196 409 -;
#X floatatom 213 349 5 0 0 0 - - - 12;
#X floatatom 66 505 5 0 0 0 - - - 12;
#X obj 67 544 -;
#X obj 113 544 +;
#X obj 66 667 f;
#X obj 126 666 f;
#X obj 96 643 sel 1;
#X obj 156 640 sel 1;
#X obj 113 583 t f f;
#X obj 65 581 t f f;
#X listbox 65 381 33 0 0 0 - - - 16;
#X obj 69 717 f;
#X floatatom 69 743 5 0 0 0 - - - 12;
#X obj 68 199 t f f b;
#X floatatom 7 804 5 0 0 0 - - - 12;
#X obj 234 379 t b b b;
#X obj 65 261 list-abs/list-unique;
#X obj -13 319 list-abs/list-find;
#X obj 65 410 list-abs/list-map;
#X obj 64 437 list-abs/list-abs;
#X obj 66 477 list-abs/list-minmax;
#X obj 65 610 list-abs/list-find;
#X obj 200 610 list-abs/list-find;
#X obj 7 778 else/selector;
#X obj 163 965 else/adsr~;
#X obj 65 290 else/sort;
#X floatatom 222 149 5 0 0 0 - - - 12;
#X obj 67 168 clip 0 83;
#X obj 69 813 t f f;
#X obj 69 869 spigot;
#X obj 108 843 > 20;
#X connect 1 0 0 0;
#X connect 2 0 3 0;
#X connect 3 0 4 0;
#X connect 3 1 6 0;
#X connect 3 1 36 0;
#X connect 3 1 38 0;
#X connect 3 2 36 2;
#X connect 3 3 36 3;
#X connect 3 4 36 4;
#X connect 3 5 36 5;
#X connect 4 0 5 0;
#X connect 5 0 39 0;
#X connect 6 0 5 1;
#X connect 7 0 8 0;
#X connect 7 0 9 0;
#X connect 8 0 1 0;
#X connect 9 0 8 0;
#X connect 10 0 28 0;
#X connect 11 0 30 1;
#X connect 12 0 11 1;
#X connect 12 0 14 0;
#X connect 12 0 15 0;
#X connect 12 0 27 0;
#X connect 13 0 14 1;
#X connect 13 0 15 1;
#X connect 14 0 21 0;
#X connect 15 0 20 0;
#X connect 16 0 23 1;
#X connect 17 0 23 1;
#X connect 18 0 16 0;
#X connect 19 0 17 0;
#X connect 20 0 34 0;
#X connect 20 1 17 1;
#X connect 21 0 33 0;
#X connect 21 1 16 1;
#X connect 22 0 30 0;
#X connect 22 0 33 1;
#X connect 22 0 34 1;
#X connect 23 0 24 0;
#X connect 24 0 35 0;
#X connect 25 0 12 0;
#X connect 25 0 35 1;
#X connect 25 1 29 0;
#X connect 25 2 10 0;
#X connect 26 0 40 0;
#X connect 27 0 23 0;
#X connect 27 1 15 0;
#X connect 27 1 14 0;
#X connect 27 2 22 0;
#X connect 28 0 37 0;
#X connect 29 1 35 2;
#X connect 30 0 31 0;
#X connect 30 1 11 0;
#X connect 31 0 32 0;
#X connect 32 0 13 0;
#X connect 33 1 18 0;
#X connect 34 1 19 0;
#X connect 35 0 26 0;
#X connect 36 0 1 1;
#X connect 37 0 29 1;
#X connect 37 0 22 0;
#X connect 39 0 25 0;
#X connect 40 0 41 0;
#X connect 40 1 42 0;
#X connect 41 0 7 0;
#X connect 42 0 41 1;
