#N canvas 827 239 734 565 12;
#X obj -147 -304 else/note 1037 24 Inter empty 5 54 54 54 0 209 225 225 1 1 FX Section;
#X obj 254 -111 expr abs($f1-127);
#X obj -123 -116 sel 0 1 2;
#X msg -112 -66 1;
#X msg -123 -40 0;
#X msg -73 -79 1;
#X msg -81 -29 0;
#X msg -28 -64 1;
#X obj -83 350 sig~;
#X obj -83 321 + 1;
#X msg -38 -37 0;
#X obj 362 442 cyclone/selector~ 3;
#X obj 8 6 ../fx/ipitchf-vanilla;
#X obj 281 6 ../fx/ipfilterdelay-vanilla;
#X obj 574 6 ../fx/melodiner;
#X obj -87 -152 else/initmess 0;
#X obj 158 -142 inlet knob5;
#X obj 254 -142 inlet knob2;
#X obj 367 -139 inlet knob4;
#X obj 512 -111 inlet onset;
#X obj -147 -152 inlet tglsw1;
#X obj 362 536 outlet~ fx;
#X obj 974 -104 sig~;
#X obj 840 -183 else/initmess 0;
#X obj 949 -188 tgl 25 0 empty empty empty 17 7 0 10 #e4e4e4 #4d4d4d #373737 0 1;
#X obj 949 -213 inlet fs1s;
#X obj 840 -154 inlet~ audioin;
#X obj 949 -154 + 1;
#X obj 649 -165 expr if($f1 > 20000 \, 0 \, $f1);
#X obj 649 -255 sigmund~;
#X obj 649 -132 else/midi2freq;
#X obj 650 -221 int;
#X obj 727 -253 env~;
#X obj 649 -104 expr if($f2<35 \, 0 \, $f1);
#X obj 649 -192 else/mov.avg 10;
#X obj 454 -139 f;
#X obj 872 -93 cyclone/gate~ 2;
#X connect 1 0 12 5;
#X connect 1 0 13 5;
#X connect 1 0 14 3;
#X connect 2 0 4 0;
#X connect 2 0 3 0;
#X connect 2 1 6 0;
#X connect 2 1 5 0;
#X connect 2 2 7 0;
#X connect 2 2 10 0;
#X connect 3 0 12 2;
#X connect 4 0 13 2;
#X connect 4 0 14 1;
#X connect 5 0 13 2;
#X connect 6 0 12 2;
#X connect 6 0 14 1;
#X connect 7 0 14 1;
#X connect 8 0 11 0;
#X connect 9 0 8 0;
#X connect 10 0 12 2;
#X connect 10 0 13 2;
#X connect 11 0 21 0;
#X connect 12 0 11 1;
#X connect 13 0 11 2;
#X connect 14 0 11 3;
#X connect 15 0 9 0;
#X connect 15 0 2 0;
#X connect 16 0 12 1;
#X connect 16 0 13 1;
#X connect 17 0 1 0;
#X connect 17 0 12 3;
#X connect 17 0 13 3;
#X connect 18 0 12 4;
#X connect 18 0 13 4;
#X connect 18 0 14 2;
#X connect 19 0 12 8;
#X connect 19 0 13 8;
#X connect 20 0 9 0;
#X connect 20 0 2 0;
#X connect 22 0 36 0;
#X connect 23 0 27 0;
#X connect 24 0 27 0;
#X connect 25 0 24 0;
#X connect 26 0 29 0;
#X connect 26 0 32 0;
#X connect 26 0 36 1;
#X connect 27 0 22 0;
#X connect 28 0 30 0;
#X connect 29 0 31 0;
#X connect 30 0 33 0;
#X connect 31 0 34 0;
#X connect 32 0 33 1;
#X connect 33 0 35 0;
#X connect 34 0 28 0;
#X connect 35 0 12 6;
#X connect 35 0 13 6;
#X connect 36 0 21 0;
#X connect 36 1 14 0;
#X connect 36 1 13 0;
#X connect 36 1 12 0;
#X coords 0 0 1 1 831 386 2 0 0;
