#N canvas 733 172 707 636 12;
#X obj 182 0 cnv 15 72 374 empty empty empty 20 12 0 14 #b7b7b7 #373737 0;
#X obj -2 -2 cnv 15 183 376 empty empty empty 20 12 0 14 #e4e4e4 #e4e4e4 0;
#X obj 283 449 inlet~ audio;
#X text 112 51 Multiply;
#X obj 75 335 tgl 29 0 empty empty empty 17 7 0 10 #e4e4e4 #4d4d4d #373737 0 1;
#X obj 75 668 outlet~ signal;
#X obj 75 602 fexpr~ if($x1!=0 \, $x2 \, $x3);
#X obj 178 508 expr 1-$f1;
#X obj 119 539 *~;
#X obj 146 568 +~;
#X obj 178 539 *~;
#X obj 525 201 ipf~;
#X obj 677 159 inlet reset;
#X obj 501 88 inlet freq;
#X obj 585 109 inlet beta;
#X obj 114 266 hradio 20 1 0 2 empty empty empty 0 -8 0 10 #e4e4e4 #4d4d4d #373737 0;
#X obj 473 369 sig~;
#X obj 4 11 else/note 173 24 Inter empty 5 54 54 54 0 187 187 187 1 1 IPFILTER-DELAY;
#X text 111 143 Dry/Wet;
#X text 101 265 I;
#X text 156 265 Δ;
#X text 101 244 Character;
#X text 65 313 Bypass;
#X obj 473 341 + 1;
#X obj 568 271 *~;
#X obj 525 271 *~;
#X text 21 51 Alpha;
#X obj 539 159 0.5;
#X text 23 236 Tempo;
#X obj 501 159 / \$1;
#X text 13 143 Feedback;
#X obj 499 459 sig~;
#X obj 568 304 +~;
#X obj 649 195 +;
#X obj 639 231 *;
#X obj 639 271 sig~;
#X obj 525 304 +~;
#X text 197 21 Alpha;
#X text 191 69 Multiply;
#X text 191 158 Dry/Wet;
#X text 186 206 Character;
#X text 195 254 Tempo;
#X text 194 303 Bypass;
#X obj 204 39 bng 25 250 50 0 empty empty empty 17 7 0 10 #e4e4e4 #4d4d4d #373737;
#X obj 204 87 bng 25 250 50 0 empty empty empty 17 7 0 10 #e4e4e4 #4d4d4d #373737;
#X obj 205 176 bng 25 250 50 0 empty empty empty 17 7 0 10 #e4e4e4 #4d4d4d #373737;
#X obj 205 225 bng 25 250 50 0 empty empty empty 17 7 0 10 #e4e4e4 #4d4d4d #373737;
#X obj 205 273 bng 25 250 50 0 empty empty empty 17 7 0 10 #e4e4e4 #4d4d4d #373737;
#X obj 205 322 bng 25 250 50 0 empty empty empty 17 7 0 10 #e4e4e4 #4d4d4d #373737;
#X obj 261 88 expr $f1 * (100) /127;
#X obj 262 195 expr $f1 /127;
#X obj 262 245 momentary2toggle;
#X obj 262 348 momentary2toggle;
#X text 182 0 MIDI Learn;
#X obj 262 294 expr $f1 * (30 - 1) /127 + 1;
#X obj 203 131 bng 25 250 50 0 empty empty empty 17 7 0 10 #e4e4e4 #4d4d4d #373737;
#X obj 260 150 expr $f1 /127;
#X text 189 113 Feedback;
#X obj 230 351 bng 20 250 50 0 empty empty FORGET -42 10 0 10 #e4e4e4 #4d4d4d #373737;
#X msg 239 401 forget, f 7;
#X obj 278 -49 inlet drywet;
#X obj 397 -43 inlet alpha;
#X obj -93 302 inlet bypass;
#X obj 261 42 expr $f1 * (0.52 - 0.37) /127 + 0.37;
#X obj 579 231 +~ 1;
#X obj -133 32 else/initmess 0.45;
#X obj -112 207 else/initmess 0;
#X obj -112 255 else/initmess 20;
#X obj 94 -67 else/initmess 2.4;
#X obj 261 21 else/midi.learn;
#A saved;
#A saved;
#X obj 261 66 else/midi.learn;
#A saved;
#A saved;
#X obj 260 128 else/midi.learn;
#A saved;
#A saved;
#X obj 262 173 else/midi.learn;
#A saved;
#A saved;
#X obj 262 224 else/midi.learn;
#A saved;
#A saved;
#X obj 262 272 else/midi.learn;
#A saved;
#A saved;
#X obj 262 324 else/midi.learn;
#A saved;
#A saved;
#X obj 473 401 cyclone/selector~ 2;
#X obj 447 487 else/filterdelay~;
#X obj 585 88 else/initmess 0;
#X obj 119 -47 else/initmess 0.38;
#X obj -109 335 else/initmess 1;
#X obj 16 78 hsl 53 26 0.37 0.52 0 0 empty empty empty -2 -8 0 10 #e4e4e4 #4d4d4d #373737 0 1;
#X floatatom 23 109 5 0 0 0 - - - 12;
#X obj 111 78 hsl 53 26 1 1000 0 0 empty empty empty -2 -8 0 10 #e4e4e4 #4d4d4d #373737 0 1;
#X floatatom 118 109 5 0 0 0 - - - 12;
#X obj 19 167 hsl 53 26 0 1 0 0 empty empty empty -2 -8 0 10 #e4e4e4 #4d4d4d #373737 0 1;
#X floatatom 23 198 5 0 0 0 - - - 12;
#X obj 111 167 hsl 53 26 0 1 0 0 empty empty empty -2 -8 0 10 #e4e4e4 #4d4d4d #373737 0 1;
#X floatatom 118 198 5 0 0 0 - - - 12;
#X obj 18 257 hsl 53 26 1 30 0 0 empty empty empty -2 -8 0 10 #e4e4e4 #4d4d4d #373737 0 1;
#X floatatom 25 288 5 0 0 0 - - - 12;
#X obj -168 114 else/initmess 0.5;
#X obj -109 381 inlet tempo;
#X obj 25 -124 inlet multiply;
#X obj 25 -95 expr $f1 * (500 - 50) /127 + 50;
#X connect 2 0 77 0;
#X connect 2 0 10 1;
#X connect 2 0 6 2;
#X connect 4 0 6 0;
#X connect 6 0 5 0;
#X connect 7 0 10 0;
#X connect 8 0 9 0;
#X connect 9 0 6 1;
#X connect 10 0 9 1;
#X connect 11 1 25 1;
#X connect 11 4 64 0;
#X connect 12 0 11 4;
#X connect 12 0 27 0;
#X connect 13 0 29 0;
#X connect 14 0 11 3;
#X connect 14 0 33 1;
#X connect 15 0 23 0;
#X connect 16 0 76 0;
#X connect 23 0 16 0;
#X connect 24 0 32 0;
#X connect 25 0 36 0;
#X connect 27 0 11 1;
#X connect 29 0 11 0;
#X connect 31 0 77 2;
#X connect 32 0 76 1;
#X connect 33 0 34 1;
#X connect 34 0 35 0;
#X connect 35 0 32 1;
#X connect 35 0 36 1;
#X connect 36 0 76 2;
#X connect 43 0 69 0;
#X connect 44 0 70 0;
#X connect 45 0 72 0;
#X connect 46 0 73 0;
#X connect 47 0 74 0;
#X connect 48 0 75 0;
#X connect 49 0 83 0;
#X connect 50 0 87 0;
#X connect 51 0 15 0;
#X connect 52 0 4 0;
#X connect 54 0 89 0;
#X connect 55 0 71 0;
#X connect 56 0 85 0;
#X connect 58 0 59 0;
#X connect 59 0 69 0;
#X connect 59 0 70 0;
#X connect 59 0 71 0;
#X connect 59 0 72 0;
#X connect 59 0 73 0;
#X connect 59 0 74 0;
#X connect 59 0 75 0;
#X connect 60 0 50 0;
#X connect 61 0 63 0;
#X connect 62 0 4 0;
#X connect 64 0 24 1;
#X connect 65 0 81 0;
#X connect 66 0 15 0;
#X connect 67 0 89 0;
#X connect 68 0 83 0;
#X connect 69 0 63 0;
#X connect 70 0 49 0;
#X connect 71 0 56 0;
#X connect 72 0 50 0;
#X connect 73 0 51 0;
#X connect 74 0 54 0;
#X connect 75 0 52 0;
#X connect 76 0 77 1;
#X connect 77 0 8 1;
#X connect 78 0 11 3;
#X connect 79 0 87 0;
#X connect 80 0 4 0;
#X connect 81 0 82 0;
#X connect 82 0 11 2;
#X connect 82 0 33 0;
#X connect 83 0 84 0;
#X connect 84 0 34 0;
#X connect 84 0 25 0;
#X connect 84 0 24 0;
#X connect 85 0 86 0;
#X connect 86 0 31 0;
#X connect 87 0 88 0;
#X connect 88 0 8 0;
#X connect 88 0 7 0;
#X connect 89 0 90 0;
#X connect 90 0 29 1;
#X connect 91 0 85 0;
#X connect 92 0 54 0;
#X connect 93 0 94 0;
#X connect 94 0 83 0;
#X coords 0 0 1 1 255 375 1 0 0;
