#N canvas 2088 213 882 803 12;
#X obj -2 -2 cnv 15 181 335 empty empty empty 20 12 0 14 #e4e4e4 #e4e4e4 0;
#X obj 208 385 inlet~ audio;
#X text 107 60 Multiply;
#X obj 112 262 tgl 29 0 empty empty empty 17 7 0 10 #e4e4e4 #4d4d4d #373737 0 1;
#X obj 96 622 outlet~ signal;
#X obj 96 552 fexpr~ if($x1!=0 \, $x2 \, $x3);
#X obj 197 452 expr 1-$f1;
#X obj 140 483 *~;
#X obj 167 513 +~;
#X obj 197 483 *~;
#X obj 617 126 inlet reset;
#X obj 443 126 inlet freq;
#X obj 530 126 inlet beta;
#X obj 101 176 hradio 20 1 0 2 empty empty empty 0 -8 0 10 #e4e4e4 #4d4d4d #373737 0;
#X obj 423 358 selector~ 2;
#X obj 423 325 sig~;
#X obj 18 12 else/note 144 24 Inter empty 5 54 54 54 0 187 187 187 1 1 I-PITCH-F;
#X text 12 142 Dry/Wet;
#X text 88 175 I;
#X text 143 175 Δ;
#X text 88 154 Character;
#X text 102 239 Bypass;
#X obj 423 302 + 1;
#X obj 524 302 *~;
#X obj 239 417 ../utility/pitch.shiftsig~;
#X obj 475 302 *~;
#X text 18 60 Alpha;
#X text 17 236 Tempo;
#X obj 443 165 / \$1;
#X obj 504 269 sig~;
#X obj 180 -2 cnv 15 70 335 empty empty empty 20 12 0 14 #b7b7b7 #373737 0;
#X text 195 19 Alpha;
#X text 189 67 Multiply;
#X text 188 115 Dry/Wet;
#X text 183 163 Character;
#X text 192 211 Tempo;
#X text 191 260 Bypass;
#X obj 202 37 bng 25 250 50 0 empty empty empty 17 7 0 10 #e4e4e4 #4d4d4d #373737;
#X obj 202 85 bng 25 250 50 0 empty empty empty 17 7 0 10 #e4e4e4 #4d4d4d #373737;
#X obj 202 133 bng 25 250 50 0 empty empty empty 17 7 0 10 #e4e4e4 #4d4d4d #373737;
#X obj 202 182 bng 25 250 50 0 empty empty empty 17 7 0 10 #e4e4e4 #4d4d4d #373737;
#X obj 202 230 bng 25 250 50 0 empty empty empty 17 7 0 10 #e4e4e4 #4d4d4d #373737;
#X obj 202 279 bng 25 250 50 0 empty empty empty 17 7 0 10 #e4e4e4 #4d4d4d #373737;
#X obj 258 92 expr $f1 * (100) /127;
#X obj 258 143 expr $f1 /127;
#X obj 258 195 momentary2toggle;
#X obj 258 295 momentary2toggle;
#X text 180 1 MIDI Learn;
#X msg 258 335 forget, f 7;
#X obj 226 309 bng 20 250 50 0 empty empty FORGET -42 10 0 10 #e4e4e4 #4d4d4d #373737;
#X obj 258 -69 inlet drywet;
#X obj 359 -47 inlet alpha;
#X obj 258 37 expr $f1 * (0.52 - 0.37) /127 + 0.37;
#X obj -85 314 inlet bypass;
#X obj 528 169 0.6;
#X obj -133 43 else/initmess 0.44;
#X obj -122 90 else/initmess 1;
#X obj -125 203 else/initmess 5;
#X obj -119 265 else/initmess 1;
#X obj 113 -47 else/initmess 50;
#X obj 530 101 else/initmess 0;
#X obj 258 9 else/midi.learn;
#A saved;
#A saved;
#X obj 258 70 else/midi.learn;
#A saved;
#A saved;
#X obj 258 120 else/midi.learn;
#A saved;
#A saved;
#X obj 258 171 else/midi.learn;
#A saved;
#A saved;
#X obj 258 219 else/midi.learn;
#A saved;
#A saved;
#X obj 258 271 else/midi.learn;
#A saved;
#A saved;
#X obj 13 87 hsl 53 26 0.37 0.52 0 0 empty empty empty -2 -8 0 10 #e4e4e4 #4d4d4d #373737 0 1;
#X floatatom 20 118 5 0 0 0 - - - 12;
#X obj 106 87 hsl 53 26 1 1000 0 0 empty empty empty -2 -8 0 10 #e4e4e4 #4d4d4d #373737 0 1;
#X floatatom 113 118 5 0 0 0 - - - 12;
#X obj 15 168 hsl 53 26 0 1 0 0 empty empty empty -2 -8 0 7 #e4e4e4 #4d4d4d #373737 0 1;
#X floatatom 22 199 5 0 0 0 - - - 12;
#X obj 14 261 hsl 53 26 1 30 0 0 empty empty empty -2 -8 0 10 #e4e4e4 #4d4d4d #373737 0 1;
#X floatatom 21 292 5 0 0 0 - - - 12;
#X obj 538 225 ipf~, f 17;
#X obj -88 378 inlet tempo;
#X obj 258 241 expr $f1 * (30 - 1) /127 + 1;
#X obj 76 -127 inlet multiply;
#X obj -122 133 else/initmess 1;
#X obj 113 -102 expr $f1 * (1000 - 400) /127 + 400;
#X connect 1 0 9 1;
#X connect 1 0 24 0;
#X connect 1 0 5 2;
#X connect 3 0 5 0;
#X connect 5 0 4 0;
#X connect 6 0 9 0;
#X connect 7 0 8 0;
#X connect 8 0 5 1;
#X connect 9 0 8 1;
#X connect 10 0 54 0;
#X connect 10 0 75 4;
#X connect 11 0 28 0;
#X connect 12 0 75 3;
#X connect 13 0 22 0;
#X connect 14 0 24 2;
#X connect 15 0 14 0;
#X connect 22 0 15 0;
#X connect 23 0 14 1;
#X connect 24 0 7 1;
#X connect 25 0 14 2;
#X connect 28 0 75 0;
#X connect 29 0 23 0;
#X connect 29 0 25 0;
#X connect 37 0 61 0;
#X connect 38 0 62 0;
#X connect 39 0 63 0;
#X connect 40 0 64 0;
#X connect 41 0 65 0;
#X connect 42 0 66 0;
#X connect 43 0 69 0;
#X connect 44 0 71 0;
#X connect 45 0 13 0;
#X connect 46 0 3 0;
#X connect 48 0 45 0;
#X connect 48 0 61 0;
#X connect 48 0 63 0;
#X connect 48 0 64 0;
#X connect 48 0 65 0;
#X connect 48 0 66 0;
#X connect 48 0 62 0;
#X connect 49 0 48 0;
#X connect 50 0 44 0;
#X connect 51 0 52 0;
#X connect 52 0 67 0;
#X connect 53 0 3 0;
#X connect 54 0 75 1;
#X connect 55 0 67 0;
#X connect 56 0 71 0;
#X connect 57 0 73 0;
#X connect 58 0 3 0;
#X connect 59 0 69 0;
#X connect 60 0 75 3;
#X connect 61 0 52 0;
#X connect 62 0 43 0;
#X connect 63 0 44 0;
#X connect 64 0 45 0;
#X connect 65 0 77 0;
#X connect 66 0 46 0;
#X connect 67 0 68 0;
#X connect 68 0 75 2;
#X connect 69 0 70 0;
#X connect 70 0 29 0;
#X connect 71 0 72 0;
#X connect 72 0 6 0;
#X connect 72 0 7 0;
#X connect 73 0 74 0;
#X connect 74 0 28 1;
#X connect 75 1 25 1;
#X connect 75 4 23 1;
#X connect 76 0 77 0;
#X connect 77 0 73 0;
#X connect 78 0 80 0;
#X connect 79 0 13 0;
#X connect 80 0 69 0;
#X coords 0 0 1 1 250 335 1 0 -2;
