#N canvas 2112 80 882 803 12;
#X obj -2 -2 cnv 15 181 335 empty empty empty 20 12 0 14 #e4e4e4 #e4e4e4 0;
#X obj 311 375 inlet~ audio;
#X text 107 60 Multiply;
#X obj 112 262 tgl 29 0 empty empty empty 17 7 0 10 #e4e4e4 #4d4d4d #373737 0 1;
#X obj 96 622 outlet~ signal;
#X obj 96 552 fexpr~ if($x1!=0 \, $x2 \, $x3);
#X obj 197 452 expr 1-$f1;
#X obj 140 483 *~;
#X obj 167 513 +~;
#X obj 197 483 *~;
#X obj 617 126 inlet reset;
#X obj 530 126 inlet beta;
#X obj 101 176 hradio 20 1 0 2 empty empty empty 0 -8 0 10 #e4e4e4 #4d4d4d #373737 0;
#X obj 18 12 else/note 144 24 Inter empty 5 54 54 54 0 187 187 187 1 1 MELODINER;
#X text 12 142 Dry/Wet;
#X text 88 175 I;
#X text 143 175 Δ;
#X text 88 154 Character;
#X text 102 239 Bypass;
#X text 18 60 Alpha;
#X obj 180 -2 cnv 15 70 335 empty empty empty 20 12 0 14 #b7b7b7 #373737 0;
#X text 195 19 Alpha;
#X text 189 67 Multiply;
#X text 188 115 Dry/Wet;
#X text 183 163 Character;
#X text 192 211 Tempo;
#X text 191 260 Bypass;
#X obj 202 37 bng 25 250 50 0 empty empty empty 17 7 0 10 #e4e4e4 #4d4d4d #373737;
#X obj 202 85 bng 25 250 50 0 empty empty empty 17 7 0 10 #e4e4e4 #4d4d4d #373737;
#X obj 202 133 bng 25 250 50 0 empty empty empty 17 7 0 10 #e4e4e4 #4d4d4d #373737;
#X obj 202 182 bng 25 250 50 0 empty empty empty 17 7 0 10 #e4e4e4 #4d4d4d #373737;
#X obj 202 279 bng 25 250 50 0 empty empty empty 17 7 0 10 #e4e4e4 #4d4d4d #373737;
#X obj 258 92 expr $f1 * (100) /127;
#X obj 258 143 expr $f1 /127;
#X obj 258 195 momentary2toggle;
#X obj 258 241 expr $f1 * (30) /127;
#X obj 258 295 momentary2toggle;
#X text 180 1 MIDI Learn;
#X msg 258 335 forget, f 7;
#X obj 226 309 bng 20 250 50 0 empty empty FORGET -42 10 0 10 #e4e4e4 #4d4d4d #373737;
#X obj 258 -69 inlet drywet;
#X obj 359 -47 inlet alpha;
#X obj 258 37 expr $f1 * (0.52 - 0.37) /127 + 0.37;
#X obj -85 314 inlet bypass;
#X obj 528 169 0.6;
#X obj -133 43 else/initmess 0.44;
#X obj -122 90 else/initmess 1;
#X obj -122 133 else/initmess 0;
#X obj -125 203 else/initmess 5;
#X obj -119 265 else/initmess 1;
#X obj 530 101 else/initmess 0;
#X obj 258 9 else/midi.learn;
#A saved;
#A saved;
#X obj 258 70 else/midi.learn;
#A saved;
#A saved;
#X obj 258 120 else/midi.learn;
#A saved;
#A saved;
#X obj 258 171 else/midi.learn;
#A saved;
#A saved;
#X obj 258 219 else/midi.learn;
#A saved;
#A saved;
#X obj 258 271 else/midi.learn;
#A saved;
#A saved;
#X obj 13 87 hsl 53 26 0.37 0.52 0 0 empty empty empty -2 -8 0 10 #e4e4e4 #4d4d4d #373737 0 1;
#X floatatom 20 118 5 0 0 0 - - - 12;
#X obj 106 87 hsl 53 26 1 500 0 0 empty empty empty -2 -8 0 10 #e4e4e4 #4d4d4d #373737 0 1;
#X floatatom 113 118 5 0 0 0 - - - 12;
#X obj 15 168 hsl 53 26 0 1 0 0 empty empty empty -2 -8 0 7 #e4e4e4 #4d4d4d #373737 0 1;
#X floatatom 22 199 5 0 0 0 - - - 12;
#X floatatom 21 292 5 0 0 0 - - - 12;
#X obj 485 285 ipf;
#X obj 485 385 selector 2;
#X obj 394 659 pitch.shift~;
#X obj 470 348 *;
#X obj 537 349 *;
#X floatatom 420 622 5 0 0 0 - - - 12;
#X obj 510 633 line 20;
#X obj 510 471 ../utility/midiquantizer;
#X floatatom 568 414 5 0 0 0 - - - 12;
#X floatatom 510 537 5 0 0 0 - - - 12;
#X obj 510 567 * 10;
#X msg 510 603 \$1 50;
#X obj 351 470 an.onset~ 1024;
#X msg 351 437 @threshold 0.5;
#X obj 113 -47 else/initmess 20;
#X connect 1 0 5 2;
#X connect 1 0 9 1;
#X connect 1 0 66 0;
#X connect 1 0 76 0;
#X connect 3 0 5 0;
#X connect 5 0 4 0;
#X connect 6 0 9 0;
#X connect 7 0 8 0;
#X connect 8 0 5 1;
#X connect 9 0 8 1;
#X connect 10 0 44 0;
#X connect 10 0 64 4;
#X connect 11 0 64 3;
#X connect 12 0 65 2;
#X connect 27 0 51 0;
#X connect 28 0 52 0;
#X connect 29 0 53 0;
#X connect 30 0 54 0;
#X connect 31 0 56 0;
#X connect 32 0 59 0;
#X connect 33 0 61 0;
#X connect 34 0 12 0;
#X connect 36 0 3 0;
#X connect 38 0 34 0;
#X connect 38 0 51 0;
#X connect 38 0 53 0;
#X connect 38 0 54 0;
#X connect 38 0 55 0;
#X connect 38 0 56 0;
#X connect 38 0 52 0;
#X connect 39 0 38 0;
#X connect 40 0 33 0;
#X connect 41 0 42 0;
#X connect 42 0 57 0;
#X connect 43 0 3 0;
#X connect 44 0 64 1;
#X connect 45 0 57 0;
#X connect 46 0 61 0;
#X connect 47 0 12 0;
#X connect 49 0 3 0;
#X connect 50 0 64 3;
#X connect 51 0 42 0;
#X connect 52 0 32 0;
#X connect 53 0 33 0;
#X connect 54 0 34 0;
#X connect 55 0 35 0;
#X connect 56 0 36 0;
#X connect 57 0 58 0;
#X connect 58 0 64 2;
#X connect 59 0 60 0;
#X connect 60 0 67 0;
#X connect 60 0 68 0;
#X connect 61 0 62 0;
#X connect 62 0 6 0;
#X connect 62 0 7 0;
#X connect 64 0 67 1;
#X connect 64 1 68 1;
#X connect 65 0 72 0;
#X connect 66 0 7 1;
#X connect 67 0 65 0;
#X connect 68 0 65 1;
#X connect 69 0 66 1;
#X connect 70 0 69 0;
#X connect 71 0 73 0;
#X connect 72 0 71 1;
#X connect 73 0 74 0;
#X connect 74 0 75 0;
#X connect 75 0 70 0;
#X connect 76 0 64 0;
#X connect 76 0 67 0;
#X connect 76 0 68 0;
#X connect 77 0 76 0;
#X connect 78 0 59 0;
#X coords 0 0 1 1 250 335 1 0 -2;
